<svg width="24" height="25" viewBox="0 0 24 25" fill="none" xmlns="http://www.w3.org/2000/svg">
<g clip-path="url(#clip0_44_199)">
<path d="M9.1 19.0503C9.76304 19.0503 10.3989 19.3137 10.8678 19.7825C11.3366 20.2514 11.6 20.8873 11.6 21.5503C11.6 22.2133 11.3366 22.8492 10.8678 23.3181C10.3989 23.7869 9.76304 24.0503 9.1 24.0503C8.43696 24.0503 7.80107 23.7869 7.33223 23.3181C6.86339 22.8492 6.6 22.2133 6.6 21.5503C6.6 20.8873 6.86339 20.2514 7.33223 19.7825C7.80107 19.3137 8.43696 19.0503 9.1 19.0503ZM19.5 19.0503C20.163 19.0503 20.7989 19.3137 21.2678 19.7825C21.7366 20.2514 22 20.8873 22 21.5503C22 22.2133 21.7366 22.8492 21.2678 23.3181C20.7989 23.7869 20.163 24.0503 19.5 24.0503C18.837 24.0503 18.2011 23.7869 17.7322 23.3181C17.2634 22.8492 17 22.2133 17 21.5503C17 20.8873 17.2634 20.2514 17.7322 19.7825C18.2011 19.3137 18.837 19.0503 19.5 19.0503ZM9.1 21.0503C8.96739 21.0503 8.84021 21.103 8.74645 21.1967C8.65268 21.2905 8.6 21.4177 8.6 21.5503C8.6 21.6829 8.65268 21.8101 8.74645 21.9038C8.84021 21.9976 8.96739 22.0503 9.1 22.0503C9.23261 22.0503 9.35979 21.9976 9.45355 21.9038C9.54732 21.8101 9.6 21.6829 9.6 21.5503C9.6 21.4177 9.54732 21.2905 9.45355 21.1967C9.35979 21.103 9.23261 21.0503 9.1 21.0503ZM19.5 21.0503C19.3674 21.0503 19.2402 21.103 19.1464 21.1967C19.0527 21.2905 19 21.4177 19 21.5503C19 21.6829 19.0527 21.8101 19.1464 21.9038C19.2402 21.9976 19.3674 22.0503 19.5 22.0503C19.6326 22.0503 19.7598 21.9976 19.8536 21.9038C19.9473 21.8101 20 21.6829 20 21.5503C20 21.4177 19.9473 21.2905 19.8536 21.1967C19.7598 21.103 19.6326 21.0503 19.5 21.0503ZM22 2.05029C22.3213 2.05031 22.6379 2.12776 22.923 2.27606C23.208 2.42437 23.4531 2.63918 23.6376 2.9023C23.822 3.16543 23.9404 3.46911 23.9826 3.78766C24.0247 4.1062 23.9896 4.43022 23.88 4.73229L23.788 4.94429L19.788 12.9443C19.6408 13.2387 19.4232 13.4922 19.1546 13.6823C18.886 13.8724 18.5746 13.9933 18.248 14.0343L18 14.0503H10C9.87788 14.0501 9.75604 14.0387 9.636 14.0163L8.618 16.0503H21C21.2499 16.0498 21.4909 16.143 21.6756 16.3113C21.8602 16.4797 21.9752 16.7111 21.9978 16.9599C22.0203 17.2088 21.9489 17.4571 21.7976 17.656C21.6462 17.8548 21.4259 17.9898 21.18 18.0343L21 18.0503H8.618C8.29691 18.0502 7.98058 17.9727 7.69574 17.8245C7.4109 17.6763 7.16593 17.4617 6.98154 17.1989C6.79714 16.936 6.67875 16.6326 6.63636 16.3143C6.59397 15.9961 6.62883 15.6723 6.738 15.3703L6.83 15.1563L8.072 12.6683L4.212 4.94429C4.17397 4.86907 4.14057 4.79159 4.112 4.71229L2.78 2.05029H1C0.765949 2.05037 0.539285 1.96835 0.359482 1.81851C0.179679 1.66868 0.0581292 1.46052 0.0160001 1.23029L5.56206e-08 1.05029C-7.79722e-05 0.816242 0.0819429 0.589578 0.231779 0.409775C0.381615 0.229972 0.589772 0.108422 0.82 0.0662931L1 0.0502931H3.4C3.55407 0.0502106 3.70607 0.0857272 3.84414 0.154072C3.98222 0.222416 4.10264 0.32174 4.196 0.444293L4.296 0.604293L5.018 2.05029H22ZM22 4.05029H6.018L9.894 11.8023L9.96 11.9703L10 12.0503H18L22 4.05029Z" fill="white"/>
</g>
<defs>
<clipPath id="clip0_44_199">
<rect width="24" height="24" fill="white" transform="translate(0 0.050293)"/>
</clipPath>
</defs>
</svg>
