<svg width="250" height="61" viewBox="0 0 250 61" fill="none" xmlns="http://www.w3.org/2000/svg">
<path d="M24.9462 3.61322C22.822 4.7051 19.586 6.07493 16.3103 7.30579C13.6104 8.29841 6.3245 10.5616 4.95468 10.8197L4.23999 10.9587L4.10102 13.8571C3.84294 18.7607 4.22013 23.7238 5.21276 28.6473C7.63477 40.797 14.6427 50.5645 24.3109 55.1901C25.4226 55.746 26.4947 56.1827 26.7131 56.1827C27.3483 56.1827 30.7828 54.4556 32.7879 53.1254C41.7613 47.1101 47.459 37.0052 48.9479 24.379C49.3847 20.6665 49.5236 17.3512 49.3648 14.0358L49.2258 11.0182L46.7244 10.3432C40.9076 8.79473 34.4953 6.47198 29.6314 4.14923C28.063 3.39484 26.7131 2.77941 26.6535 2.77941C26.5939 2.79926 25.8197 3.1566 24.9462 3.61322ZM28.7777 7.32564C32.5299 9.19178 37.7709 11.1373 43.3296 12.7057C44.898 13.1424 46.2083 13.5395 46.248 13.599C46.2877 13.6387 46.3274 15.7233 46.3274 18.2048C46.3274 26.6025 45.1759 32.0222 42.1186 38.2162C39.1209 44.2712 34.3364 49.1351 28.7182 51.8152C27.805 52.2519 26.9116 52.6093 26.7528 52.6093C26.1572 52.6093 23.3381 51.1799 21.472 49.949C15.2184 45.78 10.5134 38.7721 8.48843 30.5928C7.4561 26.4833 7.13846 23.4459 7.15831 18.0857C7.15831 15.6439 7.19801 13.6189 7.23772 13.5792C7.27743 13.5395 8.2899 13.2218 9.48106 12.9042C15.0199 11.3557 21.2338 9.07266 24.7477 7.28593C25.7403 6.78962 26.5939 6.37272 26.6932 6.37272C26.7726 6.35286 27.7057 6.78962 28.7777 7.32564Z" fill="white"/>
<path d="M24.0529 14.671C22.8816 14.8894 21.8294 15.346 20.9757 16.0011C19.6655 16.9938 15.8736 21.6591 14.881 23.5054L14.2259 24.7164L14.1266 32.0618L14.0273 39.3874L14.9009 40.7572C15.3773 41.4918 15.8141 42.0477 15.8736 41.9881C15.953 41.9285 16.0523 37.9977 16.1119 33.2927L16.2111 24.7164L16.8861 23.3466C17.2435 22.5922 18.0574 21.4606 18.7125 20.7856L19.864 19.5547L19.8838 23.148C19.8838 28.0119 20.2213 29.4611 21.6706 30.8111C23.1 32.1412 24.4896 32.6574 26.733 32.6574C28.9962 32.6574 30.4255 32.1214 31.7954 30.7913C33.2247 29.4214 33.4233 28.5678 33.5424 23.6444L33.6218 19.6143L34.4159 20.3687C35.4879 21.401 36.6989 23.2672 37.0563 24.4583C37.2747 25.2127 37.3342 27.1781 37.3739 33.8486C37.3938 38.4941 37.4335 42.2859 37.4533 42.2859C37.493 42.2859 37.9497 41.6308 38.4857 40.8367L39.4386 39.4073L39.3393 32.0618L39.2401 24.7164L38.7041 23.7238C37.8702 22.1753 37.1953 21.262 35.1107 18.8003C31.9939 15.1475 31.1601 14.6909 27.3285 14.5717C26.0183 14.5519 24.5492 14.5916 24.0529 14.671ZM30.2072 16.3386C31.4777 16.8945 32.2123 17.6687 32.4108 18.7209C32.6689 20.1305 32.4505 26.8009 32.113 27.7935C31.716 28.9648 31.041 29.8582 30.1278 30.4538C28.9962 31.1883 27.944 31.4265 26.3161 31.3273C23.8941 31.1685 22.0676 29.8383 21.3331 27.6943C21.0353 26.8803 20.9757 25.9671 20.9757 22.5326C20.9757 18.8599 21.0154 18.2842 21.3331 17.8077C21.8095 17.0732 23.0205 16.2989 24.0727 16.0805C25.383 15.8026 29.3734 15.9614 30.2072 16.3386Z" fill="white"/>
<path d="M27.7009 26.6857C27.1294 26.4688 26.7262 26.4468 26.1375 26.6112C25.6092 26.7588 25.3736 27.0116 24.9463 27.3557C24.5994 27.6351 24.1508 28.1381 24.0668 28.2333C24.0578 28.2435 24.053 28.2566 24.053 28.2702C24.053 28.3002 24.0763 28.3249 24.1062 28.3262C24.2053 28.3307 24.4223 28.3378 24.5741 28.3235C25.2441 28.1746 25.4817 27.7593 26.1375 27.6535C26.568 27.584 26.8218 27.5966 27.2542 27.6535C27.7706 27.7214 28.4112 28.015 28.8285 28.2313C28.9598 28.2994 29.1006 28.1629 29.0241 28.0363C28.7478 27.579 28.2597 26.8977 27.7009 26.6857Z" fill="white"/>
<path d="M25.6906 36.1813C24.7151 36.3822 23.5399 37.2664 23.0703 37.6456C22.997 37.7047 23.039 37.8192 23.1332 37.8192C23.1504 37.8192 23.1664 37.8153 23.1816 37.8071C23.37 37.7056 24.7185 36.993 25.6906 36.8514C26.381 36.7507 26.7838 36.7746 27.4773 36.8514C28.5558 36.9708 30.0906 37.6192 30.3445 37.7289C30.3684 37.7393 30.3944 37.7402 30.4191 37.7319C30.4983 37.7055 30.5155 37.6026 30.4482 37.5532C30.0165 37.2364 28.7713 36.3732 27.7751 36.1813C26.9757 36.0274 26.4879 36.0172 25.6906 36.1813Z" fill="white"/>
<path d="M25.4185 38.3871C24.5276 38.5934 23.4522 39.5096 23.0369 39.888C22.9716 39.9475 23.0143 40.0525 23.1027 40.0525C23.121 40.0525 23.1381 40.0479 23.1538 40.0384C23.335 39.9288 24.5449 39.2116 25.4185 39.0684C26.0426 38.9661 26.4066 38.9903 27.0335 39.0684C27.9986 39.1886 29.3678 39.836 29.6178 39.9572C29.6433 39.9696 29.6728 39.9711 29.6995 39.9611C29.772 39.9339 29.7893 39.8405 29.7297 39.7911C29.35 39.4767 28.2116 38.584 27.3026 38.3871C26.5801 38.2305 26.1392 38.2202 25.4185 38.3871Z" fill="white"/>
<path d="M83.1775 29.8025C84.4735 30.0787 85.5146 30.7267 86.3006 31.7464C87.0867 32.745 87.4798 33.8923 87.4798 35.1883C87.4798 37.0579 86.8212 38.5451 85.5039 39.6499C84.2079 40.7334 82.3914 41.2751 80.0544 41.2751H69.6334V18.9034H79.7039C81.9771 18.9034 83.7512 19.4239 85.0259 20.465C86.3219 21.506 86.9699 22.9189 86.9699 24.7035C86.9699 26.0207 86.6193 27.1149 85.9182 27.986C85.2384 28.857 84.3248 29.4625 83.1775 29.8025ZM75.0829 27.9541H78.6522C79.5445 27.9541 80.2244 27.7629 80.6918 27.3805C81.1804 26.9768 81.4248 26.3925 81.4248 25.6277C81.4248 24.8628 81.1804 24.2786 80.6918 23.8749C80.2244 23.4713 79.5445 23.2694 78.6522 23.2694H75.0829V27.9541ZM79.0984 36.8773C80.0119 36.8773 80.713 36.6755 81.2017 36.2718C81.7116 35.8469 81.9665 35.2414 81.9665 34.4553C81.9665 33.6692 81.701 33.0531 81.1698 32.6069C80.6599 32.1607 79.9482 31.9377 79.0346 31.9377H75.0829V36.8773H79.0984ZM96.09 37.0685H103.229V41.2751H90.6405V18.9034H96.09V37.0685ZM111.277 18.9034V41.2751H105.828V18.9034H111.277ZM135.24 41.2751H129.791L120.676 27.4761V41.2751H115.227V18.9034H120.676L129.791 32.7662V18.9034H135.24V41.2751ZM144.99 36.8135H154.615V41.2751H138.808V37.1322L148.368 23.365H138.808V18.9034H154.615V23.0463L144.99 36.8135ZM172.101 37.3234H163.751L162.413 41.2751H156.708L164.803 18.9034H171.113L179.208 41.2751H173.439L172.101 37.3234ZM170.699 33.1168L167.926 24.9266L165.186 33.1168H170.699ZM190.053 18.9034C192.411 18.9034 194.472 19.3708 196.235 20.3056C197.999 21.2405 199.358 22.5577 200.314 24.2573C201.292 25.9358 201.78 27.8797 201.78 30.0893C201.78 32.2776 201.292 34.2216 200.314 35.9212C199.358 37.6209 197.988 38.9381 196.203 39.8729C194.44 40.8077 192.39 41.2751 190.053 41.2751H181.671V18.9034H190.053ZM189.702 36.5586C191.763 36.5586 193.367 35.9956 194.514 34.8696C195.662 33.7435 196.235 32.1501 196.235 30.0893C196.235 28.0285 195.662 26.4244 194.514 25.2771C193.367 24.1299 191.763 23.5562 189.702 23.5562H187.121V36.5586H189.702ZM215.406 41.4982C213.303 41.4982 211.369 41.0096 209.606 40.0323C207.864 39.055 206.472 37.6952 205.431 35.9531C204.411 34.1897 203.902 32.2139 203.902 30.0255C203.902 27.8372 204.411 25.872 205.431 24.1299C206.472 22.3877 207.864 21.028 209.606 20.0507C211.369 19.0734 213.303 18.5847 215.406 18.5847C217.509 18.5847 219.432 19.0734 221.174 20.0507C222.938 21.028 224.319 22.3877 225.317 24.1299C226.337 25.872 226.847 27.8372 226.847 30.0255C226.847 32.2139 226.337 34.1897 225.317 35.9531C224.297 37.6952 222.916 39.055 221.174 40.0323C219.432 41.0096 217.509 41.4982 215.406 41.4982ZM215.406 36.5267C217.191 36.5267 218.614 35.9319 219.677 34.7421C220.76 33.5523 221.302 31.9802 221.302 30.0255C221.302 28.0497 220.76 26.4775 219.677 25.309C218.614 24.1192 217.191 23.5244 215.406 23.5244C213.6 23.5244 212.156 24.1086 211.072 25.2771C210.01 26.4456 209.479 28.0285 209.479 30.0255C209.479 32.0014 210.01 33.5842 211.072 34.774C212.156 35.9425 213.6 36.5267 215.406 36.5267ZM241.288 41.2751L236.635 32.83H235.328V41.2751H229.879V18.9034H239.025C240.788 18.9034 242.286 19.2115 243.518 19.8276C244.772 20.4437 245.707 21.2936 246.323 22.3771C246.939 23.4394 247.247 24.6291 247.247 25.9464C247.247 27.4336 246.822 28.7614 245.972 29.9299C245.144 31.0985 243.911 31.927 242.276 32.4157L247.438 41.2751H241.288ZM235.328 28.9739H238.706C239.705 28.9739 240.448 28.7296 240.937 28.2409C241.447 27.7523 241.702 27.0618 241.702 26.1695C241.702 25.3196 241.447 24.6504 240.937 24.1617C240.448 23.6731 239.705 23.4288 238.706 23.4288H235.328V28.9739Z" fill="white"/>
</svg>
