<svg width="1603" height="188" viewBox="0 0 1603 188" fill="none" xmlns="http://www.w3.org/2000/svg">
<g style="mix-blend-mode:soft-light" opacity="0.4">
<path d="M0.364868 207L0.364868 3.36363H88.6603C104.172 3.36363 117.197 5.4517 127.737 9.62784C138.343 13.804 146.331 19.7036 151.7 27.3267C157.136 34.9498 159.854 43.9318 159.854 54.2727C159.854 61.7632 158.196 68.5909 154.882 74.7557C151.634 80.9204 147.06 86.0909 141.16 90.267C135.261 94.3769 128.367 97.2273 120.479 98.8182V100.807C129.229 101.138 137.183 103.359 144.342 107.469C151.501 111.512 157.202 117.114 161.444 124.273C165.687 131.366 167.808 139.718 167.808 149.33C167.808 160.466 164.891 170.376 159.058 179.06C153.291 187.743 145.071 194.571 134.399 199.543C123.727 204.514 110.999 207 96.2171 207L0.364868 207ZM55.649 162.852H81.5012C90.7815 162.852 97.7418 161.129 102.382 157.682C107.022 154.169 109.342 148.998 109.342 142.17C109.342 137.398 108.248 133.354 106.061 130.04C103.873 126.725 100.758 124.206 96.7143 122.483C92.737 120.759 87.9312 119.898 82.2967 119.898H55.649L55.649 162.852ZM55.649 85.6932H78.3194C83.1584 85.6932 87.434 84.9309 91.1461 83.4062C94.8582 81.8816 97.7418 79.6941 99.7967 76.8437C101.918 73.9271 102.979 70.3807 102.979 66.2045C102.979 59.9072 100.725 55.1013 96.2171 51.7869C91.7096 48.4062 86.0088 46.7159 79.1149 46.7159H55.649V85.6932ZM181.796 207L181.796 3.36363H237.08L237.08 162.455H319.41V207H181.796ZM391.441 3.36363V207H336.157L336.157 3.36363H391.441ZM588.235 3.36363V207H542.098L468.519 100.011H467.326V207H412.041V3.36363H458.973L531.36 109.955H532.951V3.36363H588.235ZM609.581 207V176.375L705.831 47.9091L609.978 47.9091V3.36363L776.228 3.36363V33.9886L679.978 162.455L775.831 162.455V207L609.581 207ZM850.497 207H790.838L858.054 3.36363H933.622L1000.84 207H941.179L896.633 59.4432H895.042L850.497 207ZM839.361 126.659L951.52 126.659V168.023H839.361V126.659ZM1093.2 207H1014.85V3.36363L1092.41 3.36363C1113.35 3.36363 1131.45 7.44034 1146.7 15.5937C1162.01 23.6809 1173.81 35.3475 1182.1 50.5937C1190.45 65.7737 1194.62 83.9697 1194.62 105.182C1194.62 126.394 1190.48 144.623 1182.19 159.869C1173.91 175.049 1162.18 186.716 1147 194.869C1131.82 202.956 1113.88 207 1093.2 207ZM1070.13 160.068H1091.21C1101.29 160.068 1109.87 158.444 1116.97 155.196C1124.13 151.948 1129.56 146.347 1133.27 138.392C1137.05 130.437 1138.94 119.367 1138.94 105.182C1138.94 90.9962 1137.02 79.9261 1133.17 71.9716C1129.4 64.017 1123.83 58.4157 1116.47 55.1676C1109.18 51.9195 1100.23 50.2954 1089.62 50.2954H1070.13V160.068ZM1411.88 105.182C1411.88 127.852 1407.47 146.976 1398.65 162.554C1389.83 178.065 1377.94 189.831 1362.95 197.852C1347.97 205.807 1331.27 209.784 1312.84 209.784C1294.28 209.784 1277.51 205.774 1262.53 197.753C1247.61 189.666 1235.75 177.866 1226.93 162.355C1218.18 146.777 1213.81 127.72 1213.81 105.182C1213.81 82.5114 1218.18 63.4205 1226.93 47.9091C1235.75 32.3314 1247.61 20.5653 1262.53 12.6108C1277.51 4.58995 1294.28 0.579538 1312.84 0.579538C1331.27 0.579538 1347.97 4.58995 1362.95 12.6108C1377.94 20.5653 1389.83 32.3314 1398.65 47.9091C1407.47 63.4205 1411.88 82.5114 1411.88 105.182ZM1355 105.182C1355 92.9848 1353.38 82.7102 1350.13 74.358C1346.95 65.9394 1342.21 59.5757 1335.91 55.267C1329.68 50.892 1321.99 48.7045 1312.84 48.7045C1303.69 48.7045 1295.97 50.892 1289.67 55.267C1283.44 59.5757 1278.7 65.9394 1275.45 74.358C1272.27 82.7102 1270.68 92.9848 1270.68 105.182C1270.68 117.379 1272.27 127.687 1275.45 136.105C1278.7 144.457 1283.44 150.821 1289.67 155.196C1295.97 159.505 1303.69 161.659 1312.84 161.659C1321.99 161.659 1329.68 159.505 1335.91 155.196C1342.21 150.821 1346.95 144.457 1350.13 136.105C1353.38 127.687 1355 117.379 1355 105.182ZM1431.85 207V3.36363H1519.75C1534.87 3.36363 1548.09 6.11458 1559.42 11.6165C1570.76 17.1184 1579.58 25.0398 1585.87 35.3807C1592.17 45.7216 1595.32 58.1174 1595.32 72.5682C1595.32 87.1515 1592.07 99.4479 1585.58 109.457C1579.15 119.467 1570.1 127.024 1558.43 132.128C1546.83 137.232 1533.27 139.784 1517.76 139.784H1465.26V96.8295H1506.63C1513.12 96.8295 1518.66 96.0341 1523.23 94.4432C1527.87 92.786 1531.42 90.1676 1533.87 86.5881C1536.39 83.0085 1537.65 78.3352 1537.65 72.5682C1537.65 66.7348 1536.39 61.9953 1533.87 58.3494C1531.42 54.6373 1527.87 51.9195 1523.23 50.196C1518.66 48.4062 1513.12 47.5114 1506.63 47.5114H1487.14V207L1431.85 207ZM1551.17 113.534L1602.08 207H1542.02L1492.31 113.534L1551.17 113.534Z" fill="white"/>
</g>
</svg>
