<svg width="40" height="40" viewBox="0 0 40 40" fill="none" xmlns="http://www.w3.org/2000/svg">
<circle cx="20" cy="20" r="20" fill="#1FA2FF"/>
<g clip-path="url(#clip0_32071_238)">
<path d="M12.0756 11.1449C12.3275 10.9199 12.5911 10.7037 12.8662 10.4972C17.6225 6.92664 24.1857 7.46301 28.3069 11.5012" stroke="white" stroke-width="0.820313" stroke-miterlimit="10" stroke-linecap="round" stroke-linejoin="round"/>
<path d="M28.0552 28.7367C27.764 29.0045 27.4569 29.2603 27.1338 29.5028C21.8856 33.4427 14.4371 32.3821 10.4972 27.1338C7.1346 22.6545 7.41454 16.5725 10.8316 12.437" stroke="white" stroke-width="0.820313" stroke-miterlimit="10" stroke-linecap="round" stroke-linejoin="round"/>
<path d="M29.5676 12.9532C32.8196 17.3667 32.5705 23.3001 29.2972 27.4044" stroke="white" stroke-width="0.820313" stroke-miterlimit="10" stroke-linecap="round" stroke-linejoin="round"/>
<path d="M29.4783 29.7397C29.0679 30.1381 28.6277 30.5151 28.1582 30.8675C22.1562 35.3732 13.638 34.1603 9.13235 28.1583C9.11971 28.1415 9.10719 28.1246 9.09467 28.1078" stroke="white" stroke-width="0.820313" stroke-miterlimit="10" stroke-linecap="round" stroke-linejoin="round"/>
<path d="M10.6964 10.0936C11.0563 9.75637 11.4382 9.43535 11.8417 9.13244C17.8437 4.62674 26.3619 5.83965 30.8676 11.8417C34.7135 16.9647 34.3929 23.921 30.4841 28.6505" stroke="white" stroke-width="0.820313" stroke-miterlimit="10" stroke-linecap="round" stroke-linejoin="round"/>
<path d="M8.06053 26.4931C5.35984 21.5419 6.03244 15.4338 9.64789 11.1923" stroke="white" stroke-width="0.820313" stroke-miterlimit="10" stroke-linecap="round" stroke-linejoin="round"/>
<path d="M9.65487 11.1858L8.90729 10.3949L12.3302 9.82574L11.6419 13.2882L10.8445 12.4445" stroke="white" stroke-width="0.820313" stroke-miterlimit="10" stroke-linecap="round" stroke-linejoin="round"/>
<path d="M30.4809 28.6531L31.2283 29.4438L27.8054 30.0129L28.4937 26.5505L29.2911 27.3942" stroke="white" stroke-width="0.820313" stroke-miterlimit="10" stroke-linecap="round" stroke-linejoin="round"/>
<path d="M20.2331 11.5804L22.0296 11.5811L22.0302 13.1129C22.745 13.2872 23.4178 13.5685 24.0304 13.9395L25.1162 12.8542L27.5269 15.2639L26.4436 16.3468C26.8161 16.9584 27.0989 17.6304 27.2747 18.3444L28.8106 18.345L28.812 21.7514L27.2795 21.7508C27.1057 22.4652 26.8248 23.1375 26.4541 23.7495L27.5408 24.8357L25.1321 27.2434L24.0479 26.1597C23.4363 26.5316 22.7642 26.8136 22.05 26.9888L22.0506 28.5241L20.1328 28.5233" stroke="white" stroke-width="0.820313" stroke-miterlimit="10" stroke-linecap="round" stroke-linejoin="round"/>
<path d="M24.9814 19.1492C24.5618 16.9815 22.6617 15.3405 20.3754 15.3201" stroke="white" stroke-width="0.820313" stroke-miterlimit="10" stroke-linecap="round" stroke-linejoin="round"/>
<path d="M20.3752 24.7786C22.6244 24.7622 24.4993 23.1771 24.9595 21.0632" stroke="white" stroke-width="0.820313" stroke-miterlimit="10" stroke-linecap="round" stroke-linejoin="round"/>
<path d="M20.3362 17.1378V12.264C20.3362 11.367 19.6089 10.6398 18.7119 10.6398C17.9845 10.6398 17.3688 11.118 17.1619 11.7772C16.8941 11.6469 16.5933 11.5737 16.2754 11.5737C15.1541 11.5737 14.2451 12.4827 14.2451 13.6041C14.2451 13.7546 14.262 13.9011 14.2931 14.0423C13.3427 14.2115 12.6208 15.0414 12.6208 16.0405C12.6208 16.2352 12.6488 16.4232 12.7 16.6014C12.1493 16.8613 11.7681 17.4215 11.7681 18.0709C11.7681 18.3652 11.8468 18.6409 11.9836 18.879C11.5733 19.3151 11.3214 19.9019 11.3214 20.5479C11.3214 21.4194 11.7794 22.1837 12.4675 22.6143C12.3575 22.8642 12.296 23.1403 12.296 23.431C12.296 24.2946 12.8355 25.0319 13.5958 25.3253C13.5694 25.475 13.5548 25.6288 13.5548 25.7861C13.5548 27.2439 14.7366 28.4256 16.1943 28.4256C16.2876 28.4256 16.3797 28.4206 16.4705 28.4111C16.7961 29.0977 17.4954 29.5727 18.3058 29.5727C19.4271 29.5727 20.3362 28.6637 20.3362 27.5424V19.0519" stroke="white" stroke-width="0.820313" stroke-miterlimit="10" stroke-linecap="round" stroke-linejoin="round"/>
<path d="M13.5956 25.3253C13.7966 25.3948 14.0164 25.4205 14.241 25.4205C14.6512 25.4205 15.032 25.2946 15.3468 25.0793" stroke="white" stroke-width="0.820313" stroke-miterlimit="10" stroke-linecap="round" stroke-linejoin="round"/>
<path d="M13.693 21.3982C12.9926 21.6675 12.5915 22.3278 12.4674 22.6142" stroke="white" stroke-width="0.820313" stroke-miterlimit="10" stroke-linecap="round" stroke-linejoin="round"/>
<path d="M16.4286 26.8286C16.342 27.0536 16.2945 27.2982 16.2945 27.5538C16.2945 27.8582 16.3619 28.1468 16.4825 28.4056" stroke="white" stroke-width="0.820313" stroke-miterlimit="10" stroke-linecap="round" stroke-linejoin="round"/>
<path d="M14.293 14.0421C14.4247 14.0159 14.5588 13.9919 14.6982 13.9919C15.0862 13.9919 15.4493 14.0983 15.76 14.2836" stroke="white" stroke-width="0.820313" stroke-miterlimit="10" stroke-linecap="round" stroke-linejoin="round"/>
<path d="M17.636 14.4389C17.4011 14.2646 17.1102 14.1614 16.7952 14.1614C16.0152 14.1614 15.3829 14.7937 15.3829 15.5737" stroke="white" stroke-width="0.820313" stroke-miterlimit="10" stroke-linecap="round" stroke-linejoin="round"/>
<path d="M15.8392 19.3786C15.8392 20.1586 16.4715 20.7909 17.2515 20.7909C17.5852 20.7909 17.8919 20.6752 18.1336 20.4816" stroke="white" stroke-width="0.820313" stroke-miterlimit="10" stroke-linecap="round" stroke-linejoin="round"/>
<path d="M16.1201 23.5021C15.6592 23.8287 15.3583 24.3664 15.3583 24.9743C15.3583 25.97 16.1655 26.7772 17.1612 26.7772C17.5429 26.7772 17.897 26.6586 18.1885 26.4561" stroke="white" stroke-width="0.820313" stroke-miterlimit="10" stroke-linecap="round" stroke-linejoin="round"/>
</g>
<defs>
<clipPath id="clip0_32071_238">
<rect width="28" height="28" fill="white" transform="translate(6 6)"/>
</clipPath>
</defs>
</svg>
