<svg width="147" height="23" viewBox="0 0 147 23" fill="none" xmlns="http://www.w3.org/2000/svg">
<path d="M15.232 0.319996V15.616C15.232 17.984 14.56 19.808 13.216 21.088C11.8933 22.368 10.1013 23.008 7.83997 23.008C5.47197 23.008 3.5733 22.336 2.14397 20.992C0.714635 19.648 -3.12328e-05 17.7387 -3.12328e-05 15.264H5.43997C5.43997 16.2027 5.63197 16.9173 6.01597 17.408C6.39997 17.8773 6.95464 18.112 7.67997 18.112C8.3413 18.112 8.8533 17.8987 9.21597 17.472C9.57864 17.0453 9.75997 16.4267 9.75997 15.616V0.319996H15.232ZM25.124 4.704V9.248H32.452V13.472H25.124V18.4H33.412V22.784H19.652V0.319996H33.412V4.704H25.124ZM48.4205 22.784L43.7485 14.304H42.4365V22.784H36.9645V0.319996H46.1485C47.9191 0.319996 49.4231 0.629329 50.6605 1.248C51.9191 1.86666 52.8578 2.71999 53.4765 3.80799C54.0951 4.87466 54.4045 6.06933 54.4045 7.392C54.4045 8.88533 53.9778 10.2187 53.1245 11.392C52.2925 12.5653 51.0551 13.3973 49.4125 13.888L54.5965 22.784H48.4205ZM42.4365 10.432H45.8285C46.8311 10.432 47.5778 10.1867 48.0685 9.696C48.5805 9.20533 48.8365 8.512 48.8365 7.616C48.8365 6.76266 48.5805 6.09066 48.0685 5.6C47.5778 5.10933 46.8311 4.864 45.8285 4.864H42.4365V10.432ZM73.9995 0.319996V4.704H68.0475V22.784H62.5755V4.704H56.6235V0.319996H73.9995ZM90.7297 18.816H82.3457L81.0017 22.784H75.2737L83.4017 0.319996H89.7377L97.8657 22.784H92.0737L90.7297 18.816ZM89.3217 14.592L86.5377 6.368L83.7857 14.592H89.3217ZM111.795 22.784L107.123 14.304H105.811V22.784H100.339V0.319996H109.523C111.294 0.319996 112.798 0.629329 114.035 1.248C115.294 1.86666 116.233 2.71999 116.851 3.80799C117.47 4.87466 117.779 6.06933 117.779 7.392C117.779 8.88533 117.353 10.2187 116.499 11.392C115.667 12.5653 114.43 13.3973 112.787 13.888L117.971 22.784H111.795ZM105.811 10.432H109.203C110.206 10.432 110.953 10.1867 111.443 9.696C111.955 9.20533 112.211 8.512 112.211 7.616C112.211 6.76266 111.955 6.09066 111.443 5.6C110.953 5.10933 110.206 4.864 109.203 4.864H105.811V10.432ZM126.686 0.319996V22.784H121.214V0.319996H126.686ZM138.78 23.008C137.137 23.008 135.665 22.7413 134.364 22.208C133.063 21.6747 132.017 20.8853 131.228 19.84C130.46 18.7947 130.055 17.536 130.012 16.064H135.836C135.921 16.896 136.209 17.536 136.7 17.984C137.191 18.4107 137.831 18.624 138.62 18.624C139.431 18.624 140.071 18.4427 140.54 18.08C141.009 17.696 141.244 17.1733 141.244 16.512C141.244 15.9573 141.052 15.4987 140.668 15.136C140.305 14.7733 139.847 14.4747 139.292 14.24C138.759 14.0053 137.991 13.7387 136.988 13.44C135.537 12.992 134.353 12.544 133.436 12.096C132.519 11.648 131.729 10.9867 131.068 10.112C130.407 9.23733 130.076 8.096 130.076 6.688C130.076 4.59733 130.833 2.96533 132.348 1.792C133.863 0.597329 135.836 -3.8147e-06 138.268 -3.8147e-06C140.743 -3.8147e-06 142.737 0.597329 144.252 1.792C145.767 2.96533 146.577 4.608 146.684 6.72H140.764C140.721 5.99466 140.455 5.42933 139.964 5.024C139.473 4.59733 138.844 4.384 138.076 4.384C137.415 4.384 136.881 4.56533 136.476 4.928C136.071 5.26933 135.868 5.77066 135.868 6.432C135.868 7.15733 136.209 7.72266 136.892 8.128C137.575 8.53333 138.641 8.97066 140.092 9.44C141.543 9.93066 142.716 10.4 143.612 10.848C144.529 11.296 145.319 11.9467 145.98 12.8C146.641 13.6533 146.972 14.752 146.972 16.096C146.972 17.376 146.641 18.5387 145.98 19.584C145.34 20.6293 144.401 21.4613 143.164 22.08C141.927 22.6987 140.465 23.008 138.78 23.008Z" fill="url(#paint0_linear_127_583)"/>
<defs>
<linearGradient id="paint0_linear_127_583" x1="-1.23828" y1="11.784" x2="148.762" y2="11.784" gradientUnits="userSpaceOnUse">
<stop stop-color="#CAB683"/>
<stop offset="0.528846" stop-color="#F5E49F"/>
<stop offset="0.985577" stop-color="#C6B181"/>
</linearGradient>
</defs>
</svg>
