<svg width="40" height="40" viewBox="0 0 40 40" fill="none" xmlns="http://www.w3.org/2000/svg">
<circle cx="20" cy="20" r="20" fill="#1FA2FF"/>
<path d="M25.7224 8.19296C25.6479 8.07297 25.5166 8 25.3753 8H18.1616C17.9854 8 17.829 8.11297 17.7736 8.28026L13.8047 20.2689C13.7635 20.3934 13.7846 20.5303 13.8614 20.6366C13.9382 20.743 14.0615 20.806 14.1927 20.806H17.6247L14.4546 32.277C14.4013 32.47 14.4956 32.6733 14.6774 32.7571C14.7326 32.7825 14.7908 32.7947 14.8483 32.7947C14.9806 32.7947 15.1091 32.7303 15.1872 32.6147L25.0583 18.0029C25.1429 17.8776 25.1514 17.7159 25.0805 17.5824C25.0096 17.4489 24.8707 17.3654 24.7196 17.3654H21.4083L25.7418 8.58962C25.8043 8.46298 25.797 8.31296 25.7224 8.19296ZM20.3842 17.5932C20.3216 17.7199 20.3289 17.8699 20.4035 17.9899C20.478 18.1099 20.6093 18.1828 20.7506 18.1828H23.9501L15.9075 30.0882L18.5556 20.5062C18.5895 20.3831 18.5641 20.2513 18.4868 20.1498C18.4095 20.0482 18.2892 19.9886 18.1616 19.9886H14.7585L18.4568 8.8174H24.7177L20.3842 17.5932Z" fill="white"/>
</svg>
