<svg width="126" height="103" viewBox="0 0 126 103" fill="none" xmlns="http://www.w3.org/2000/svg">
<path d="M20.6044 21.4834C27.738 21.4657 34.8716 21.4523 42.0052 21.4441C45.3173 21.4402 48.6294 21.4348 51.9415 21.4262C54.8277 21.4186 57.7138 21.4137 60.6 21.412C62.1288 21.411 63.6576 21.4087 65.1864 21.4032C66.6244 21.3981 68.0624 21.3965 69.5005 21.3976C70.0291 21.3974 70.5577 21.3959 71.0863 21.393C71.8065 21.3892 72.5266 21.3901 73.2468 21.3922C73.4573 21.39 73.6677 21.3878 73.8846 21.3855C74.7167 21.392 75.3422 21.4276 76.0888 21.8119C76.4615 22.2416 76.4615 22.2416 76.5405 23.142C76.4615 24.0108 76.4615 24.0108 76.2088 24.5163C76.3443 24.5258 76.4799 24.5352 76.6195 24.545C78.0338 24.6636 79.4252 24.8672 80.8214 25.1166C80.9915 25.1454 81.1616 25.1742 81.3368 25.2038C82.4429 25.4086 83.3382 25.6961 84.2967 26.2856C84.7224 26.974 84.7224 26.974 85.0569 27.7991C85.2514 28.247 85.2514 28.247 85.4499 28.7039C85.7134 29.3297 85.9685 29.9577 86.2219 30.5877C87.1189 32.6292 87.8929 33.5404 89.9883 34.3668C90.6154 34.6262 90.6154 34.6262 90.8681 35.1317C90.9419 35.9514 90.9384 36.7734 90.9471 37.596C90.9544 37.8221 90.9618 38.0482 90.9693 38.2812C90.9835 39.7637 90.8196 40.5622 89.8571 41.7032C89.7737 41.7866 89.6903 41.87 89.6044 41.9559C95.4846 42.081 95.4846 42.081 101.484 42.2086C101.567 41.2912 101.65 40.3737 101.736 39.4284C101.892 38.6675 102.056 37.908 102.242 37.1537C103.326 37.5445 103.879 38.367 104.548 39.2547C104.67 39.4134 104.792 39.5722 104.918 39.7357C105.291 40.2218 105.662 40.7097 106.033 41.1977C106.239 41.4661 106.445 41.7343 106.652 42.0023C107.059 42.531 107.466 43.0602 107.872 43.5899C108.525 44.4398 109.185 45.2846 109.845 46.1292C110.297 46.7093 110.747 47.2909 111.198 47.8728C111.794 48.6439 112.398 49.4083 113.008 50.1692C113.29 50.5275 113.571 50.8859 113.852 51.2444C114.052 51.4881 114.052 51.4881 114.256 51.7368C114.84 52.4908 115.122 52.8962 115.176 53.8666C114.791 54.8087 114.21 55.312 113.426 55.9202C113.204 56.0999 113.204 56.0999 112.978 56.2832C111.872 57.1737 110.743 58.0363 109.612 58.8952C106.951 60.9228 104.403 63.0982 101.857 65.2655C100.835 66.1328 99.7952 66.9744 98.7438 67.8052C98.2576 68.1939 97.7844 68.5933 97.3132 68.9999C96.6813 69.5053 96.6813 69.5053 96.1758 69.5053C96.205 68.9944 96.2372 68.4837 96.2706 67.9731C96.2882 67.6886 96.3058 67.4042 96.3239 67.1112C96.4331 66.181 96.6679 65.3466 96.9341 64.4504C96.7368 64.4507 96.5395 64.451 96.3362 64.4513C84.6479 64.4682 72.9595 64.4812 61.2712 64.4891C59.8684 64.4901 58.4656 64.4911 57.0628 64.4921C56.7835 64.4923 56.5043 64.4925 56.2165 64.4927C51.6919 64.496 47.1673 64.5019 42.6427 64.5089C38.0015 64.516 33.3604 64.5202 28.7193 64.5217C25.8544 64.5228 22.9896 64.5261 20.1247 64.5322C18.1614 64.5362 16.1981 64.5374 14.2347 64.5365C13.1012 64.536 11.9677 64.5367 10.8342 64.5408C9.79681 64.5445 8.75943 64.5447 7.722 64.5421C7.34642 64.5418 6.97085 64.5427 6.59528 64.5451C6.08508 64.5481 5.57487 64.546 5.06467 64.5437C4.78117 64.544 4.49766 64.5443 4.20557 64.5446C2.49626 64.3403 1.55101 63.4411 0.506062 62.1678C-0.518841 60.8048 -0.48693 59.5313 -0.373617 57.879C-0.153527 56.4785 0.137511 55.0951 0.432015 53.7086C0.596416 52.9216 0.759574 52.1343 0.9227 51.347C0.963492 51.1515 1.00428 50.9559 1.04631 50.7544C1.30345 49.5123 1.53561 48.2689 1.75005 47.0187C1.82938 46.5655 1.82938 46.5655 1.9103 46.103C2.00731 45.5413 2.10028 44.9789 2.1886 44.4157C2.23252 44.167 2.27644 43.9182 2.3217 43.6619C2.35676 43.4469 2.39183 43.2319 2.42795 43.0103C2.88823 41.9184 4.14863 41.5787 5.17991 41.1276C5.4249 41.02 5.66988 40.9124 5.92229 40.8016C6.18524 40.6873 6.44819 40.573 6.7191 40.4552C6.99231 40.3359 7.26552 40.2165 7.54701 40.0936C8.28771 39.7706 9.02882 39.4487 9.77024 39.1274C10.2543 38.9175 10.7381 38.7072 11.2219 38.4969C12.0372 38.1427 12.853 37.7896 13.6692 37.4375C13.985 37.3011 14.3008 37.1645 14.6164 37.0276C15.0583 36.836 15.5008 36.6458 15.9434 36.4557C16.197 36.3463 16.4506 36.2369 16.7119 36.1243C17.3187 35.89 17.3187 35.89 17.8242 35.89C17.8488 35.6952 17.8733 35.5004 17.8987 35.2997C18.236 32.7798 18.7126 30.2977 19.2178 27.8068C19.3581 27.1145 19.4969 26.4219 19.6354 25.7292C19.7243 25.2871 19.8133 24.8449 19.9024 24.4028C19.9438 24.1967 19.9851 23.9905 20.0277 23.7782C20.1867 22.9962 20.3518 22.2412 20.6044 21.4834Z" fill="url(#paint0_linear_36042_367)"/>
<path d="M20.6044 21.4834C27.7379 21.4657 34.8715 21.4523 42.0051 21.4441C45.3172 21.4402 48.6293 21.4348 51.9414 21.4262C54.8276 21.4186 57.7138 21.4137 60.6 21.412C62.1288 21.411 63.6575 21.4087 65.1863 21.4032C66.6244 21.3981 68.0624 21.3965 69.5004 21.3976C70.029 21.3974 70.5577 21.3959 71.0863 21.393C71.8065 21.3892 72.5265 21.3901 73.2468 21.3922C73.4572 21.39 73.6677 21.3878 73.8845 21.3855C74.722 21.392 75.3406 21.4249 76.0872 21.8222C76.4615 22.2416 76.4615 22.2416 76.5661 22.9771C76.4812 24.3925 76.1123 25.7766 75.798 27.1544C75.117 30.2227 74.5154 33.2991 73.9576 36.3919C73.8993 36.7111 73.841 37.0302 73.781 37.3591C73.7311 37.637 73.6812 37.9149 73.6298 38.2012C73.352 39.5464 73.0034 40.8761 72.6703 42.2086C49.7335 42.2086 26.7967 42.2086 3.16479 42.2086C3.82205 41.7705 4.41146 41.4673 5.1305 41.1522C5.37711 41.0438 5.62373 40.9355 5.87782 40.8238C6.27859 40.6492 6.27859 40.6492 6.68746 40.471C7.10069 40.2903 7.10069 40.2903 7.52228 40.1059C8.27003 39.7795 9.01815 39.454 9.76658 39.1292C10.2525 38.9183 10.7383 38.707 11.2241 38.4958C12.0388 38.1418 12.854 37.789 13.6697 37.4372C13.9853 37.301 14.3008 37.1645 14.6162 37.0277C15.0582 36.8361 15.5007 36.6459 15.9433 36.4557C16.3238 36.2916 16.3238 36.2916 16.7119 36.1243C17.3186 35.89 17.3186 35.89 17.8241 35.89C17.8487 35.6952 17.8733 35.5004 17.8986 35.2997C18.236 32.7798 18.7126 30.2977 19.2178 27.8068C19.3581 27.1145 19.4968 26.4219 19.6353 25.7292C19.7243 25.2871 19.8133 24.8449 19.9024 24.4028C19.9437 24.1967 19.9851 23.9905 20.0277 23.7782C20.1867 22.9962 20.3517 22.2412 20.6044 21.4834Z" fill="#103F78"/>
<path d="M35.2637 24.5163C36.4552 24.4975 37.6465 24.4838 38.8381 24.4747C39.2428 24.4709 39.6475 24.4657 40.0522 24.4591C40.6363 24.4499 41.2203 24.4456 41.8046 24.4423C41.9834 24.4384 42.1622 24.4345 42.3465 24.4304C43.9988 24.4299 45.1183 24.8313 46.3688 25.9222C47.0285 26.7975 47.0397 27.6301 46.979 28.6985C46.7365 30.3902 45.8496 31.7133 44.6154 32.857C43.9392 33.2616 43.6513 33.3625 42.8462 33.3625C42.8984 33.5027 42.9507 33.6428 43.0046 33.7873C43.2419 34.4248 43.4785 35.0626 43.715 35.7004C43.7972 35.921 43.8795 36.1415 43.9643 36.3688C44.0828 36.6889 44.0828 36.6889 44.2037 37.0155C44.3129 37.3093 44.3129 37.3093 44.4243 37.6091C44.6008 38.1223 44.7365 38.6491 44.8681 39.1757C43.2 39.1757 41.5319 39.1757 39.8132 39.1757C38.9211 36.7969 38.9211 36.7969 38.6284 35.9373C38.5649 35.7533 38.5014 35.5692 38.4359 35.3795C38.2967 34.879 38.2967 34.879 38.2967 34.1207C38.1299 34.1207 37.9631 34.1207 37.7912 34.1207C37.7726 34.3822 37.7726 34.3822 37.7537 34.6489C37.6301 36.2019 37.405 37.663 37.033 39.1757C35.5317 39.1757 34.0303 39.1757 32.4835 39.1757C32.4835 37.9104 32.5184 37.0196 32.7708 35.8258C32.8328 35.5289 32.8949 35.232 32.9588 34.926C33.0261 34.6134 33.0934 34.3007 33.1628 33.9786C33.2647 33.4956 33.2647 33.4956 33.3688 33.0029C33.9711 30.1674 34.6066 27.3396 35.2637 24.5163Z" fill="#F9FBFB"/>
<path d="M71.4066 46.7581C72.7411 46.7581 74.0756 46.7581 75.4506 46.7581C76.4703 48.7501 77.393 50.7495 78.2308 52.824C78.2678 52.6493 78.3047 52.4745 78.3428 52.2944C78.5098 51.5072 78.6783 50.7202 78.8469 49.9332C78.905 49.6581 78.9632 49.383 79.0231 49.0995C79.0793 48.838 79.1355 48.5766 79.1934 48.3072C79.245 48.065 79.2966 47.8227 79.3498 47.5732C79.4945 47.0109 79.4945 47.0109 79.7473 46.7581C80.3869 46.7396 81.0194 46.7347 81.6587 46.7423C81.9282 46.744 81.9282 46.744 82.2032 46.7458C82.6483 46.7488 83.0934 46.7533 83.5385 46.7581C83.3494 49.0402 82.8602 51.2639 82.4011 53.5033C82.279 54.1034 82.1571 54.7035 82.0354 55.3036C81.9601 55.6748 81.8845 56.0458 81.8084 56.4168C81.6063 57.4081 81.4302 58.3967 81.2638 59.3955C79.8459 59.3955 78.4279 59.3955 76.9671 59.3955C76.544 58.5275 76.1231 57.6586 75.7033 56.789C75.5828 56.5422 75.4622 56.2954 75.338 56.0411C75.224 55.8041 75.11 55.5671 74.9925 55.3229C74.8866 55.1045 74.7807 54.8861 74.6716 54.6611C74.4396 54.0878 74.4396 54.0878 74.4396 53.3295C74.2728 53.3295 74.106 53.3295 73.9341 53.3295C73.9246 53.4709 73.9152 53.6123 73.9055 53.758C73.7479 55.6802 73.3472 57.5149 72.9231 59.3955C71.5886 59.3955 70.2541 59.3955 68.8792 59.3955C69.1732 56.9898 69.634 54.6765 70.1868 52.3192C70.5385 50.8109 70.8415 49.3143 71.063 47.7809C71.1539 47.2636 71.1539 47.2636 71.4066 46.7581Z" fill="#FCF8F8"/>
<path d="M62.4598 24.488C62.8649 24.4881 63.27 24.4895 63.6751 24.492C63.8879 24.4924 64.1007 24.4928 64.32 24.4931C65.0025 24.4946 65.685 24.4977 66.3674 24.5009C66.829 24.5022 67.2906 24.5034 67.7521 24.5044C68.886 24.5072 70.0199 24.5115 71.1538 24.5167C71.1181 24.9644 71.081 25.4119 71.0433 25.8594C71.0227 26.1087 71.0022 26.3579 70.9811 26.6147C70.9011 27.2969 70.9011 27.2969 70.6483 28.0552C68.8968 28.0552 67.1453 28.0552 65.3407 28.0552C65.2572 28.639 65.1738 29.2229 65.0879 29.8244C66.5892 29.8244 68.0905 29.8244 69.6374 29.8244C69.1635 33.0785 69.1635 33.0785 68.8791 33.3629C68.5404 33.4023 68.1998 33.4262 67.8592 33.4429C67.6548 33.4534 67.4504 33.464 67.2397 33.4749C67.0248 33.4849 66.81 33.4948 66.5886 33.5051C66.3727 33.516 66.1569 33.5269 65.9345 33.5381C65.3996 33.565 64.8646 33.5905 64.3297 33.6156C64.2463 34.1161 64.1629 34.6165 64.0769 35.1321C65.7451 35.2155 67.4132 35.2989 69.1319 35.3849C68.658 38.0387 68.658 38.0387 68.3736 39.1761C65.1208 39.1761 61.8679 39.1761 58.5165 39.1761C58.8405 37.2319 59.1747 35.2994 59.56 33.3678C59.6338 32.9965 59.6338 32.9965 59.7091 32.6176C59.8118 32.1013 59.9148 31.5851 60.0181 31.0688C60.1766 30.275 60.3336 29.4808 60.4906 28.6866C60.591 28.1829 60.6916 27.6792 60.7922 27.1755C60.8391 26.9375 60.8859 26.6996 60.9342 26.4544C60.9781 26.2365 61.022 26.0186 61.0672 25.7941C61.1055 25.6018 61.1439 25.4094 61.1833 25.2112C61.3958 24.3832 61.5367 24.5171 62.4598 24.488Z" fill="#FBFCFC"/>
<path d="M49.4175 24.5164C52.6704 24.5164 55.9233 24.5164 59.2747 24.5164C59.1079 25.684 58.9411 26.8517 58.7692 28.0548C57.0177 28.0548 55.2661 28.0548 53.4615 28.0548C53.3781 28.6387 53.2947 29.2225 53.2088 29.824C54.7101 29.824 56.2114 29.824 57.7582 29.824C57.508 30.9917 57.2578 32.1594 57 33.3625C55.4152 33.3625 53.8305 33.3625 52.1978 33.3625C52.1144 34.0298 52.031 34.697 51.945 35.3845C53.6132 35.3845 55.2813 35.3845 57 35.3845C56.8794 36.6759 56.7491 37.9024 56.4945 39.1757C53.2416 39.1757 49.9888 39.1757 46.6373 39.1757C46.9218 36.3306 46.9218 36.3306 47.2109 34.9027C47.274 34.5893 47.337 34.2758 47.402 33.9529C47.4676 33.633 47.5333 33.313 47.6009 32.9834C47.6636 32.6713 47.7264 32.3591 47.791 32.0376C48.3006 29.5221 48.8606 27.0228 49.4175 24.5164Z" fill="#F9FBFB"/>
<path d="M94.3384 46.9912C95.4119 47.6115 96.1331 48.4192 96.6813 49.5384C96.6961 50.0437 96.6982 50.5497 96.6813 51.0549C95.9809 51.0685 95.2808 51.0786 94.5803 51.0865C94.3818 51.0907 94.1832 51.095 93.9786 51.0993C93.7872 51.101 93.5957 51.1026 93.3985 51.1043C93.2225 51.1069 93.0465 51.1096 92.8651 51.1123C92.3846 51.0549 92.3846 51.0549 91.6263 50.5494C90.5872 50.434 90.0429 50.4338 89.1463 50.9917C88.2678 51.8953 88.0146 52.5943 88.0089 53.8509C88.0047 54.0676 88.0004 54.2843 87.9961 54.5075C88.0441 55.1092 88.0441 55.1092 88.4107 55.5511C89.1553 56.0744 90.0017 55.9568 90.8681 55.8571C91.592 55.6695 91.592 55.6695 92.1318 55.3516C92.257 55.1014 92.257 55.1014 92.3846 54.8461C91.4671 54.8461 90.5496 54.8461 89.6044 54.8461C89.8255 52.3502 89.8255 52.3502 90.1099 52.0659C90.5784 52.0438 91.0477 52.0389 91.5168 52.0412C91.801 52.042 92.0853 52.0428 92.3782 52.0437C92.6774 52.0458 92.9767 52.0479 93.285 52.0501C93.5852 52.0512 93.8855 52.0524 94.1948 52.0536C94.9394 52.0566 95.684 52.0607 96.4285 52.0659C96.0168 56.166 96.0168 56.166 94.5013 57.579C94.1408 57.8583 93.7721 58.1273 93.3956 58.3846C93.235 58.4947 93.0743 58.6048 92.9088 58.7183C91.6342 59.4262 90.3689 59.4975 88.9409 59.5219C88.7598 59.5267 88.5786 59.5314 88.392 59.5362C87.0112 59.5198 86.1917 59.1704 85.0549 58.3846C83.6718 56.6011 83.6181 55.0187 83.7912 52.8241C84.2814 50.6168 85.6071 48.9708 87.3662 47.5994C89.344 46.3999 92.1585 46.2552 94.3384 46.9912Z" fill="#FCF8F8"/>
<path d="M22.1209 46.7582C23.4554 46.7582 24.7899 46.7582 26.1649 46.7582C26.0415 47.4246 25.918 48.091 25.7946 48.7574C25.6479 49.6047 25.5282 50.4564 25.4066 51.3076C26.6577 51.3076 27.9088 51.3076 29.1978 51.3076C29.2448 50.6743 29.2448 50.6743 29.2926 50.0281C29.3814 48.8291 29.6122 47.9616 29.9561 46.7582C31.2072 46.7582 32.4583 46.7582 33.7473 46.7582C33.5915 49.441 33.0215 52.0181 32.4678 54.6407C32.3714 55.1029 32.2751 55.5651 32.179 56.0274C31.9451 57.1505 31.7094 58.2731 31.4726 59.3955C30.2215 59.3955 28.9704 59.3955 27.6814 59.3955C27.6183 57.7249 27.8588 56.2335 28.1869 54.5933C27.0192 54.5933 25.8515 54.5933 24.6484 54.5933C24.3148 56.1781 23.9811 57.7628 23.6374 59.3955C22.3863 59.3955 21.1352 59.3955 19.8462 59.3955C19.9841 57.0079 20.3778 54.7321 20.86 52.3959C20.9849 51.7908 21.1073 51.1852 21.2294 50.5795C21.3079 50.1926 21.3866 49.8058 21.4654 49.4189C21.502 49.2389 21.5386 49.0588 21.5763 48.8733C21.7256 48.1509 21.8874 47.4588 22.1209 46.7582Z" fill="#FCF9F8"/>
<path d="M23.3847 24.5164C26.8043 24.5164 30.224 24.5164 33.7473 24.5164C33.4945 27.0438 33.4945 27.0438 33.2418 28.0548C31.3234 28.1382 29.4051 28.2216 27.4286 28.3076C27.2618 28.8914 27.095 29.4753 26.9231 30.0768C28.2576 30.0768 29.5921 30.0768 30.9671 30.0768C30.7459 32.7622 30.7459 32.7622 30.4616 33.6153C29.0437 33.6153 27.6257 33.6153 26.1649 33.6153C26.0919 34.1105 26.0189 34.6057 25.9437 35.1159C25.7338 36.4862 25.4738 37.8273 25.1539 39.1757C23.6526 39.1757 22.1512 39.1757 20.6044 39.1757C20.766 37.272 21.0571 35.426 21.4259 33.5521C21.5083 33.1277 21.5083 33.1277 21.5924 32.6947C22.1318 29.9544 22.75 27.2361 23.3847 24.5164Z" fill="#F9FAFB"/>
<path d="M42.0879 46.7582C43.1884 46.7361 44.2888 46.7227 45.3894 46.7108C45.8554 46.7013 45.8554 46.7013 46.3308 46.6916C48.3255 46.6754 49.6988 46.7355 51.2974 48.0062C51.9359 49.2576 51.9204 50.4409 51.6923 51.8132C51.0031 53.4595 50.0007 54.3631 48.4066 55.0989C48.1564 55.224 48.1564 55.224 47.9011 55.3516C47.3011 55.3696 46.7005 55.3729 46.1003 55.3674C45.7764 55.3651 45.4526 55.3629 45.1189 55.3605C44.8693 55.3576 44.6198 55.3546 44.3626 55.3516C44.3313 55.6435 44.3001 55.9355 44.2678 56.2362C44.1344 57.3189 43.8865 58.3425 43.6044 59.3956C42.3533 59.3956 41.1022 59.3956 39.8132 59.3956C39.8132 57.4052 39.8132 57.4052 40.022 56.4278C40.0675 56.2104 40.1131 55.9929 40.16 55.7689C40.2097 55.5403 40.2595 55.3117 40.3108 55.0762C40.3865 54.7181 40.3865 54.7181 40.4638 54.3528C40.6244 53.5954 40.7874 52.8385 40.9505 52.0817C41.0603 51.5662 41.1699 51.0507 41.2793 50.5351C41.547 49.2757 41.8168 48.0169 42.0879 46.7582Z" fill="#FCF7F7"/>
<path d="M53.7143 46.7582C54.8148 46.7361 55.9152 46.7227 57.0158 46.7108C57.4818 46.7013 57.4818 46.7013 57.9572 46.6915C59.9494 46.6754 61.3579 46.7127 62.9238 48.0377C63.5059 49.1322 63.4745 50.0935 63.3187 51.3076C62.7957 52.9869 61.9069 54.025 60.4121 54.9251C59.0142 55.5945 57.501 55.4346 55.989 55.3516C55.9555 55.5376 55.9219 55.7237 55.8873 55.9153C55.8427 56.162 55.7981 56.4086 55.7521 56.6627C55.6861 57.0278 55.6861 57.0278 55.6188 57.4002C55.4956 58.0665 55.3637 58.7311 55.2308 59.3955C53.9797 59.3955 52.7286 59.3955 51.4396 59.3955C51.5805 56.9716 51.9789 54.6496 52.4534 52.2741C52.5784 51.6479 52.7008 51.0212 52.8228 50.3944C52.9013 49.9952 52.9799 49.596 53.0587 49.1968C53.0953 49.0099 53.1319 48.823 53.1697 48.6304C53.4321 47.3225 53.4321 47.3225 53.7143 46.7582Z" fill="#FCF9F8"/>
<path d="M18.0769 47.264C18.6742 47.7436 18.9231 48.1021 19.3406 48.7805C19.3406 49.3643 19.3406 49.9482 19.3406 50.5497C17.9227 50.5497 16.5048 50.5497 15.0439 50.5497C15.0439 50.2995 15.0439 50.0493 15.0439 49.7915C14.6269 49.7915 14.2098 49.7915 13.7802 49.7915C14.0211 50.7052 14.2066 51.0049 15.0182 51.5212C15.4532 51.7284 15.4532 51.7284 15.8969 51.9398C17.0818 52.5068 17.8767 52.9597 18.5824 54.0882C18.8378 55.2566 18.7364 56.4877 18.2348 57.5792C17.4572 58.7186 16.3407 59.265 15.0439 59.6486C12.9436 59.917 11.2632 59.8129 9.48346 58.6376C8.89154 58.116 8.73077 57.896 8.47247 57.1211C8.47247 56.5373 8.47247 55.9534 8.47247 55.3519C9.89039 55.3519 11.3083 55.3519 12.7692 55.3519C12.8526 55.6855 12.936 56.0191 13.0219 56.3629C13.3555 56.3629 13.6892 56.3629 14.0329 56.3629C14.0329 56.0293 14.0329 55.6956 14.0329 55.3519C13.8104 55.2418 13.5879 55.1316 13.3586 55.0182C10.1847 53.3907 10.1847 53.3907 9.48346 52.0662C9.25836 50.7927 9.32964 49.8464 9.90997 48.6857C11.9615 46.3569 15.3142 45.6346 18.0769 47.264Z" fill="#FBF6F6"/>
<path d="M72.9231 39.9342C72.8397 40.6848 72.7563 41.4355 72.6704 42.2089C56.3227 42.2089 39.975 42.2089 23.1319 42.2089C23.1319 42.1255 23.1319 42.0421 23.1319 41.9562C28.5203 41.5466 33.9104 41.3656 39.3113 41.2154C46.9696 41.0016 54.621 40.6615 62.2737 40.3024C63.2259 40.2578 64.178 40.2135 65.1302 40.1692C65.7866 40.1385 66.4429 40.107 67.0992 40.0754C69.0418 39.9836 70.9778 39.9089 72.9231 39.9342Z" fill="#0B2851"/>
<path d="M77.7252 26.5386C78.4638 26.632 79.1999 26.733 79.9368 26.8387C80.1453 26.8643 80.3538 26.8899 80.5686 26.9162C81.5255 27.059 82.1146 27.1551 82.8503 27.8063C83.4489 28.8433 83.9901 29.8952 84.502 30.9774C84.6081 31.1923 84.7141 31.4072 84.8234 31.6286C84.9223 31.8363 85.0211 32.044 85.123 32.258C85.2132 32.4458 85.3034 32.6337 85.3963 32.8272C85.5604 33.3627 85.5604 33.3627 85.3076 34.3737C82.305 34.3737 79.3024 34.3737 76.2087 34.3737C76.7795 30.3781 76.7795 30.3781 77.1092 28.8923C77.2035 28.4608 77.2035 28.4608 77.2997 28.0205C77.4725 27.2968 77.4725 27.2968 77.7252 26.5386Z" fill="#FDFAF9"/>
<path d="M65.3406 46.7582C66.5917 46.7582 67.8428 46.7582 69.1319 46.7582C68.9739 48.663 68.6678 50.4957 68.2788 52.366C68.2226 52.6416 68.1663 52.9172 68.1083 53.2012C67.9964 53.7493 67.8841 54.2974 67.7712 54.8454C67.5626 55.8611 67.3596 56.8779 67.1573 57.8949C67.0582 58.3901 66.9592 58.8853 66.8571 59.3955C65.5226 59.3955 64.1881 59.3955 62.8132 59.3955C63.1376 56.9224 63.571 54.5044 64.0988 52.0683C64.221 51.5042 64.3414 50.9397 64.4615 50.3751C65.0476 47.6374 65.0476 47.6374 65.3406 46.7582Z" fill="#FCF7F6"/>
<path d="M36.022 46.7582C37.3565 46.7582 38.691 46.7582 40.0659 46.7582C39.711 48.9155 39.3379 51.0685 38.9444 53.219C38.8927 53.5075 38.8411 53.796 38.7879 54.0933C38.4581 55.8923 38.0439 57.6376 37.5385 59.3955C36.2874 59.3955 35.0363 59.3955 33.7473 59.3955C33.8851 57.0079 34.2789 54.7321 34.7611 52.3959C34.886 51.7908 35.0084 51.1852 35.1305 50.5795C35.209 50.1926 35.2876 49.8058 35.3664 49.4189C35.403 49.2389 35.4396 49.0588 35.4773 48.8733C35.6267 48.1509 35.7884 47.4588 36.022 46.7582Z" fill="#FCF7F6"/>
<path d="M17.5714 36.1431C17.4486 38.256 17.0443 40.112 16.5604 42.209C12.1398 42.209 7.7193 42.209 3.16479 42.209C3.82685 41.7676 4.42388 41.4618 5.14827 41.1437C5.39747 41.034 5.64667 40.9243 5.90342 40.8113C6.30716 40.6352 6.30716 40.6352 6.71905 40.4556C7.13452 40.2739 7.13452 40.2739 7.55838 40.0885C8.45221 39.6986 9.3468 39.3106 10.2417 38.9233C10.3948 38.857 10.5478 38.7906 10.7055 38.7223C11.7608 38.2652 12.8175 37.8116 13.875 37.3594C14.1571 37.2377 14.4393 37.1161 14.73 36.9907C15.1229 36.8238 15.1229 36.8238 15.5237 36.6535C15.7549 36.5547 15.986 36.4559 16.2241 36.3542C16.8131 36.1431 16.8131 36.1431 17.5714 36.1431Z" fill="#0C3056"/>
<path d="M81.011 38.4176C82.3896 39.033 82.9225 39.8712 83.5385 41.1978C83.5385 41.5314 83.5385 41.8651 83.5385 42.2088C80.8695 42.2088 78.2005 42.2088 75.4506 42.2088C75.7454 40.1447 75.7454 40.1447 76.7143 39.1758C78.0952 38.1942 79.3685 38.2215 81.011 38.4176Z" fill="white"/>
<path d="M39.055 28.3076C39.4657 28.3008 39.8764 28.2959 40.2871 28.2918C40.5158 28.2889 40.7445 28.286 40.9802 28.283C41.5824 28.3076 41.5824 28.3076 42.0879 28.5604C42.1803 29.9456 42.1803 29.9456 41.7878 30.5034C41.1715 30.9496 40.771 30.9118 40.0186 30.8825C39.7908 30.8757 39.5631 30.8688 39.3284 30.8618C39.1548 30.853 38.9811 30.8442 38.8022 30.8351C38.7706 29.1607 38.7706 29.1607 39.055 28.3076Z" fill="#18457B"/>
<path d="M49.4175 24.5164C52.6704 24.5164 55.9233 24.5164 59.2747 24.5164C59.1079 25.684 58.9411 26.8517 58.7692 28.0548C57.0177 28.0548 55.2661 28.0548 53.4615 28.0548C53.3781 28.2216 53.2947 28.3884 53.2088 28.5603C53.2088 28.3101 53.2088 28.0599 53.2088 27.8021C54.9603 27.8021 56.7118 27.8021 58.5164 27.8021C58.5998 26.8846 58.6833 25.9671 58.7692 25.0219C55.6831 25.0219 52.5971 25.0219 49.4175 25.0219C49.4175 24.855 49.4175 24.6882 49.4175 24.5164Z" fill="#EEF2F4"/>
<path d="M61.5494 24.5164C64.7189 24.5164 67.8883 24.5164 71.1538 24.5164C71.0704 25.4338 70.987 26.3513 70.9011 27.2966C70.8177 27.2966 70.7343 27.2966 70.6483 27.2966C70.6483 26.5459 70.6483 25.7953 70.6483 25.0219C67.7291 25.0219 64.8099 25.0219 61.8022 25.0219C61.7188 25.7725 61.6354 26.5232 61.5494 27.2966C61.2992 27.5468 61.049 27.797 60.7912 28.0548C60.9272 26.7401 61.1201 25.8045 61.5494 24.5164Z" fill="#F2F6F6"/>
<path d="M57 50.0439C58.555 50.0192 58.555 50.0192 59.022 50.0439C59.2747 50.2966 59.2747 50.2966 59.3379 50.8969C59.2747 51.5604 59.2747 51.5604 59.0062 52.0185C58.2656 52.4724 57.5946 52.3666 56.7473 52.3186C56.8307 51.568 56.9141 50.8173 57 50.0439Z" fill="#FFD901"/>
<path d="M45.3736 50.0439C46.9286 50.0192 46.9286 50.0192 47.3956 50.0439C47.6483 50.2966 47.6483 50.2966 47.7115 50.8969C47.6483 51.5604 47.6483 51.5604 47.3798 52.0185C46.6392 52.4724 45.9682 52.3666 45.1208 52.3186C45.2043 51.568 45.2877 50.8173 45.3736 50.0439Z" fill="#FFD901"/>
<path d="M46.8901 36.6486C47.3956 37.6595 47.3956 37.6595 47.3956 38.165C47.2288 38.165 47.0619 38.165 46.8901 38.165C46.8901 38.4153 46.8901 38.6655 46.8901 38.9233C49.9761 38.9233 53.0622 38.9233 56.2417 38.9233C56.2417 38.256 56.2417 37.5888 56.2417 36.9013C56.4085 36.9013 56.5754 36.9013 56.7472 36.9013C56.6638 37.652 56.5804 38.4026 56.4945 39.176C53.2416 39.176 49.9888 39.176 46.6373 39.176C46.7207 38.342 46.8041 37.5079 46.8901 36.6486Z" fill="#C9DBE7"/>
<path d="M59.022 36.1431C59.1054 36.1431 59.1888 36.1431 59.2747 36.1431C59.3581 36.9771 59.4415 37.8112 59.5275 38.6705C62.4467 38.7539 65.3659 38.8374 68.3736 38.9233C68.3736 39.0067 68.3736 39.0901 68.3736 39.176C65.1208 39.176 61.8679 39.176 58.5165 39.176C58.6833 38.1752 58.8501 37.1743 59.022 36.1431Z" fill="#CDDFE9"/>
<path d="M25.1539 37.4066C25.4066 38.1649 25.4066 38.1649 25.1539 39.1758C23.6526 39.1758 22.1512 39.1758 20.6044 39.1758C20.6044 38.7588 20.6044 38.3418 20.6044 37.9121C20.6878 38.1623 20.7712 38.4126 20.8572 38.6704C22.1083 38.6704 23.3594 38.6704 24.6484 38.6704C24.8152 38.2533 24.982 37.8363 25.1539 37.4066Z" fill="#DDEAEE"/>
<path d="M65.088 29.824C66.5893 29.824 68.0906 29.824 69.6374 29.824C69.554 30.4078 69.4706 30.9917 69.3847 31.5932C69.3012 31.5932 69.2178 31.5932 69.1319 31.5932C69.1319 31.1762 69.1319 30.7591 69.1319 30.3295C67.8808 30.3295 66.6297 30.3295 65.3407 30.3295C65.2573 30.1627 65.1739 29.9958 65.088 29.824Z" fill="#BDCBD5"/>
<path d="M37.7912 34.1208C37.958 34.1208 38.1248 34.1208 38.2967 34.1208C38.4635 34.8715 38.6303 35.6222 38.8022 36.3956C38.6354 36.3956 38.4686 36.3956 38.2967 36.3956C38.1299 36.7292 37.9631 37.0628 37.7912 37.4066C37.6244 37.4066 37.4576 37.4066 37.2857 37.4066C37.4525 36.3223 37.6193 35.238 37.7912 34.1208Z" fill="#295486"/>
<path d="M22.1209 46.7582C23.4554 46.7582 24.7899 46.7582 26.1649 46.7582C26.0815 47.342 25.9981 47.9259 25.9121 48.5274C25.8287 48.5274 25.7453 48.5274 25.6594 48.5274C25.6594 48.027 25.6594 47.5265 25.6594 47.0109C24.5751 47.0109 23.4908 47.0109 22.3737 47.0109C22.4571 47.3446 22.5405 47.6782 22.6264 48.0219C22.3762 48.1887 22.126 48.3555 21.8682 48.5274C21.9516 47.9436 22.035 47.3597 22.1209 46.7582Z" fill="#F4D1D3"/>
<path d="M57 31.3407C57.2734 32.1913 57.2339 32.4271 57 33.3627C55.4153 33.3627 53.8306 33.3627 52.1978 33.3627C52.1978 33.2793 52.1978 33.1959 52.1978 33.1099C53.6991 33.1099 55.2005 33.1099 56.7473 33.1099C56.6639 32.7763 56.5805 32.4427 56.4945 32.0989C56.6613 31.8487 56.8281 31.5985 57 31.3407Z" fill="#EAF1F0"/>
<path d="M44.8681 31.5934C45.1183 31.6768 45.3685 31.7602 45.6263 31.8461C44.0377 33.2543 44.0377 33.2543 43.0989 33.3626C43.0989 33.1958 43.0989 33.029 43.0989 32.8571C43.396 32.8258 43.396 32.8258 43.6992 32.7939C44.3999 32.6731 44.3999 32.6731 44.6943 32.0831C44.7517 31.9215 44.809 31.7599 44.8681 31.5934Z" fill="#DAE6E7"/>
<path d="M86.8242 31.8462C87.0744 31.8462 87.3246 31.8462 87.5824 31.8462C87.5824 32.0964 87.5824 32.3466 87.5824 32.6044C87.7492 32.6044 87.916 32.6044 88.0879 32.6044C88.0879 32.8547 88.0879 33.1049 88.0879 33.3627C88.4215 33.4461 88.7551 33.5295 89.0989 33.6154C88.8487 33.7405 88.8487 33.7405 88.5934 33.8682C87.7662 33.496 87.4004 33.2548 86.9979 32.4307C86.9406 32.2378 86.8832 32.0449 86.8242 31.8462Z" fill="#F3DAD9"/>
<path d="M21.1099 51.5605C21.1933 51.5605 21.2767 51.5605 21.3627 51.5605C21.7338 52.9439 21.474 53.6127 20.8572 54.8463C20.5859 54.0193 20.6316 53.474 20.8414 52.6347C20.8906 52.4327 20.9398 52.2307 20.9904 52.0226C21.0299 51.8701 21.0693 51.7176 21.1099 51.5605Z" fill="#FCF9F8"/>
<path d="M5.69227 40.9451C5.85908 41.0285 6.02589 41.1119 6.19776 41.1978C5.77017 41.714 5.5312 41.9353 4.86788 42.0854C4.66555 42.1001 4.46322 42.1147 4.25477 42.1298C4.05049 42.1464 3.84621 42.1631 3.63573 42.1802C3.40262 42.1943 3.40262 42.1943 3.16479 42.2088C3.98236 41.6638 4.77518 41.2952 5.69227 40.9451Z" fill="#244262"/>
<path d="M61.2967 24.7692C61.3801 24.7692 61.4635 24.7692 61.5494 24.7692C61.57 25.1744 61.5846 25.5799 61.5968 25.9855C61.61 26.3242 61.61 26.3242 61.6235 26.6697C61.537 27.4019 61.3589 27.6064 60.7912 28.0549C60.9225 26.948 61.0583 25.859 61.2967 24.7692Z" fill="#C4D6DF"/>
<path d="M34.2527 28.8132C34.3362 28.8132 34.4196 28.8132 34.5055 28.8132C34.76 30.0858 34.7516 30.8957 34.2527 32.0989C34.0859 32.0989 33.9191 32.0989 33.7473 32.0989C33.9141 31.0147 34.0809 29.9304 34.2527 28.8132Z" fill="#CADAE2"/>
<defs>
<linearGradient id="paint0_linear_36042_367" x1="115.176" y1="45.4454" x2="-0.428406" y2="45.4454" gradientUnits="userSpaceOnUse">
<stop stop-color="#FFDC17"/>
<stop offset="1" stop-color="#FFD900"/>
</linearGradient>
</defs>
</svg>
