<svg width="40" height="40" viewBox="0 0 40 40" fill="none" xmlns="http://www.w3.org/2000/svg">
<circle cx="20" cy="20" r="19.5" fill="url(#paint0_linear_38038_153)" stroke="white"/>
<g clip-path="url(#clip0_38038_153)">
<path d="M8.70312 11.4363C8.70312 11.4363 19.9969 12.3141 22.8827 20.2427C24.1223 23.6485 22.3663 27.4144 18.9605 28.654C15.5547 29.8936 11.7889 28.1376 10.5492 24.7318C8.94603 20.3269 11.0675 16.5618 8.70312 11.4363Z" stroke="white" stroke-width="1.40625" stroke-miterlimit="10" stroke-linecap="round" stroke-linejoin="round"/>
<path d="M16.6537 13.7222C21.3608 7.79518 31.2969 8.76156 31.2969 8.76156C28.0785 13.3986 29.5139 17.4749 27.1701 21.5344C26.2128 23.1925 24.6411 24.2746 22.9086 24.6595" stroke="white" stroke-width="1.40625" stroke-miterlimit="10" stroke-linecap="round" stroke-linejoin="round"/>
<path d="M21.8865 18.2265C23.31 16.23 24.834 14.3052 26.4546 12.4611" stroke="white" stroke-width="1.40625" stroke-miterlimit="10" stroke-linecap="round" stroke-linejoin="round"/>
<path d="M19.9224 31.2969L19.0081 28.7849C17.3771 24.3038 15.3075 19.9948 12.8293 15.9206" stroke="white" stroke-width="1.40625" stroke-miterlimit="10" stroke-linecap="round" stroke-linejoin="round"/>
</g>
<defs>
<linearGradient id="paint0_linear_38038_153" x1="0" y1="20" x2="40" y2="20" gradientUnits="userSpaceOnUse">
<stop stop-color="#1F3C88"/>
<stop offset="0.476562" stop-color="#4DA6FF"/>
<stop offset="1" stop-color="#1F3C88"/>
</linearGradient>
<clipPath id="clip0_38038_153">
<rect width="24" height="24" fill="white" transform="translate(8 8)"/>
</clipPath>
</defs>
</svg>
