<svg width="57" height="35" viewBox="0 0 57 35" fill="none" xmlns="http://www.w3.org/2000/svg">
<path d="M34.8394 10.8224C23.0328 3.77985 16.3738 13.584 15.2007 15.5377C15.1119 15.6856 15.2177 15.8667 15.3901 15.8711C16.5657 15.9014 20.2383 16.0794 22.806 17.1255C27.1149 18.3651 30.4844 20.7928 33.1203 22.1681C37.3038 23.8795 39.3575 24.1711 39.9358 24.2207C40.0398 24.2297 40.1279 24.1651 40.1497 24.063C40.4074 22.8581 41.6671 15.4442 34.8394 10.8224Z" fill="url(#paint0_linear_38030_43)"/>
<path d="M30.8283 0.164272C49.4156 2.45042 54.7267 17.0646 55.8089 20.9023C55.8743 21.1344 55.5912 21.2737 55.4353 21.0897C52.8091 17.9901 42.0083 6.11364 30.2552 5.55062C13.9927 4.77158 3.52236 17.2319 0.742668 20.9946C0.590276 21.2009 0.271136 21.0586 0.348154 20.814C1.85457 16.0291 8.76468 -0.919209 30.8283 0.164272Z" fill="url(#paint1_linear_38030_43)" stroke="url(#paint2_linear_38030_43)" stroke-width="0.229206"/>
<circle cx="35.0686" cy="13.3436" r="2.52127" fill="#F7FAFC"/>
<path d="M28.027 34.7606C25.6321 34.5535 22.8237 33.757 20.7148 32.6868C18.9085 31.77 17.4628 30.7839 15.0583 28.8283C12.9197 27.0889 11.145 25.9023 9.67695 25.2301C9.2492 25.0342 8.89035 24.8473 8.87937 24.8146C8.83671 24.6865 10.3338 24.231 11.5239 24.01C12.3296 23.8605 15.2018 23.8605 16.1483 24.01C18.3353 24.3555 20.1072 24.9313 22.2216 25.9837C22.5056 26.125 22.7379 26.2193 22.7379 26.1933C22.7379 26.113 21.7542 25.1968 21.2346 24.793C19.5402 23.4763 17.2663 22.3201 15.1767 21.7129C13.4863 21.2216 11.8574 21.0148 10.0499 21.062C8.49254 21.1028 6.99934 21.3306 5.80464 21.71C5.35065 21.8542 5.21828 21.8455 5.44557 21.6865C6.29564 21.0922 8.27324 20.0615 9.26955 19.6937C11.3111 18.9399 13.098 18.6162 15.2234 18.6154C16.5809 18.6148 17.5257 18.7152 19.0408 19.0205C21.7681 19.57 24.0128 20.5002 28.4606 22.924C30.6466 24.1151 33.0863 25.3227 34.1544 25.7421C35.9489 26.4467 38.0302 26.9487 39.8454 27.1148C40.788 27.2011 42.6337 27.1576 43.4608 27.0295C45.0882 26.7777 46.6483 26.3281 48.0851 25.6966C48.4984 25.5151 48.9666 25.3103 49.1256 25.2416C49.5231 25.0699 50.0425 24.7729 50.8534 24.2541C51.2314 24.0121 51.5533 23.8267 51.5684 23.8419C51.6379 23.9112 50.5007 25.2306 49.552 26.1816C48.5783 27.1576 47.7691 27.8827 46.9042 28.5543C44.3798 30.5143 42.1846 31.7859 39.4723 32.8592C38.9318 33.0731 38.4116 33.282 38.3162 33.3235C37.7762 33.558 35.8515 34.0881 34.7541 34.3045C33.7201 34.5084 32.5518 34.6702 31.6109 34.7397C30.8684 34.7946 28.575 34.808 28.027 34.7606Z" fill="url(#paint3_linear_38030_43)" stroke="#02BFD5" stroke-width="0.115609"/>
<defs>
<linearGradient id="paint0_linear_38030_43" x1="27.7102" y1="8.31146" x2="27.7102" y2="24.2309" gradientUnits="userSpaceOnUse">
<stop stop-color="#4DA6FF"/>
<stop offset="1" stop-color="#1F3C88"/>
</linearGradient>
<linearGradient id="paint1_linear_38030_43" x1="28.0205" y1="0.114594" x2="28.0205" y2="22.0535" gradientUnits="userSpaceOnUse">
<stop stop-color="#4DA6FF"/>
<stop offset="1" stop-color="#1F3C88"/>
</linearGradient>
<linearGradient id="paint2_linear_38030_43" x1="28.0205" y1="0.114594" x2="28.0205" y2="22.0535" gradientUnits="userSpaceOnUse">
<stop stop-color="#4DA6FF"/>
<stop offset="1" stop-color="#1F3C88"/>
</linearGradient>
<linearGradient id="paint3_linear_38030_43" x1="5.33661" y1="26.7025" x2="51.5715" y2="26.7025" gradientUnits="userSpaceOnUse">
<stop stop-color="#02BFD5"/>
<stop offset="0.490385" stop-color="#D8FFFC"/>
<stop offset="1" stop-color="#02BFD5"/>
</linearGradient>
</defs>
</svg>
