<svg width="48" height="48" viewBox="0 0 48 48" fill="none" xmlns="http://www.w3.org/2000/svg">
<circle cx="24" cy="24" r="23" fill="#279696" stroke="url(#paint0_linear_138_736)" stroke-width="2"/>
<g clip-path="url(#clip0_138_736)">
<mask id="mask0_138_736" style="mask-type:luminance" maskUnits="userSpaceOnUse" x="8" y="8" width="32" height="32">
<path d="M8 8H40V40H8V8Z" fill="white"/>
</mask>
<g mask="url(#mask0_138_736)">
<path d="M8.8235 21.6573C10.721 28.7725 19.9532 27.1638 17.8112 21.8094C17.3524 20.6586 17.1167 19.734 17.1026 18.8396C17.1167 17.9451 17.3524 17.0188 17.8112 15.8697C19.9532 10.5153 10.721 8.90482 8.8235 16.0218C8.3505 17.7966 8.3505 19.8825 8.8235 21.6573Z" stroke="white" stroke-width="0.9375" stroke-miterlimit="10" stroke-linecap="round" stroke-linejoin="round"/>
<path d="M17.1699 12.1945C18.132 11.9064 18.9753 11.5122 19.3597 10.1581C19.5511 9.48101 20.2615 9.08508 20.9401 9.27776C21.6186 9.46864 22.0155 10.1775 21.8242 10.8546C21.3475 12.5375 19.8664 14.1726 18.1214 14.5828" stroke="white" stroke-width="0.9375" stroke-miterlimit="10" stroke-linecap="round" stroke-linejoin="round"/>
<path d="M12.1277 14.5368C12.7017 14.2593 13.3307 14.6677 13.5344 15.4455C13.7382 16.2232 14.3671 16.6298 14.9411 16.3541" stroke="white" stroke-width="0.9375" stroke-miterlimit="10" stroke-linecap="round" stroke-linejoin="round"/>
<path d="M12.1277 23.1422C12.7017 23.4179 13.3307 23.0114 13.5344 22.2335C13.7382 21.4557 14.3671 21.0492 14.9411 21.3249" stroke="white" stroke-width="0.9375" stroke-miterlimit="10" stroke-linecap="round" stroke-linejoin="round"/>
<path d="M11.093 18.8396C11.5236 18.2563 12.2198 18.2563 12.6503 18.8396C13.0809 19.4229 13.7789 19.4229 14.2076 18.8396" stroke="white" stroke-width="0.9375" stroke-miterlimit="10" stroke-linecap="round" stroke-linejoin="round"/>
<path d="M39.1778 21.6573C37.2804 28.7725 28.0463 27.1638 30.1883 21.8094C30.6489 20.6586 30.8846 19.734 30.897 18.8396C30.8846 17.9451 30.6489 17.0188 30.1883 15.8697C28.0463 10.5153 37.2804 8.90482 39.1778 16.0218C39.6491 17.7966 39.6491 19.8825 39.1778 21.6573Z" stroke="white" stroke-width="0.9375" stroke-miterlimit="10" stroke-linecap="round" stroke-linejoin="round"/>
<path d="M30.8297 12.1945C29.8676 11.9064 29.0243 11.5122 28.6398 10.1581C28.4485 9.48101 27.738 9.08508 27.0595 9.27776C26.3809 9.46864 25.9841 10.1775 26.1754 10.8546C26.6538 12.5375 28.1349 14.1726 29.8782 14.5828" stroke="white" stroke-width="0.9375" stroke-miterlimit="10" stroke-linecap="round" stroke-linejoin="round"/>
<path d="M35.8718 14.5368C35.2996 14.2593 34.6689 14.6677 34.4669 15.4455C34.2631 16.2232 33.6324 16.6298 33.0602 16.3541" stroke="white" stroke-width="0.9375" stroke-miterlimit="10" stroke-linecap="round" stroke-linejoin="round"/>
<path d="M35.8718 23.1422C35.2996 23.4179 34.6689 23.0114 34.4669 22.2335C34.2631 21.4557 33.6324 21.0492 33.0602 21.3249" stroke="white" stroke-width="0.9375" stroke-miterlimit="10" stroke-linecap="round" stroke-linejoin="round"/>
<path d="M36.9082 18.8396C36.4777 18.2563 35.7797 18.2563 35.3492 18.8396C34.9204 19.4229 34.2224 19.4229 33.7919 18.8396" stroke="white" stroke-width="0.9375" stroke-miterlimit="10" stroke-linecap="round" stroke-linejoin="round"/>
<path d="M20.5627 30.9768L20.5644 24.8851C20.6034 23.5876 20.3377 22.3713 19.2091 21.3868C18.6316 20.9306 18.0451 20.7698 17.4534 20.8122M17.4551 16.8596C19.1312 17.9926 20.5892 18.7139 21.3989 19.7304C22.5912 21.2311 22.8517 22.8451 22.7277 24.8851V37.6906C22.7277 38.2828 22.2405 38.7708 21.6434 38.7708C21.0481 38.7708 20.5609 38.2828 20.5609 37.6889L20.5627 33.1458" stroke="white" stroke-width="0.9375" stroke-miterlimit="10" stroke-linecap="round" stroke-linejoin="round"/>
<path d="M27.4369 30.9768L27.4351 24.8851C27.3962 23.5876 27.6619 22.3713 28.7904 21.3868C29.3698 20.9306 29.9562 20.7698 30.5462 20.8122M30.5444 16.8596C28.8702 17.9926 27.4103 18.7139 26.6024 19.7304C25.4101 21.2311 25.1496 22.8451 25.2719 24.8851L25.2737 37.6906C25.2737 38.2828 25.7609 38.7708 26.3562 38.7708C26.9514 38.7708 27.4404 38.2828 27.4404 37.6889L27.4386 33.1458" stroke="white" stroke-width="0.9375" stroke-miterlimit="10" stroke-linecap="round" stroke-linejoin="round"/>
</g>
</g>
<defs>
<linearGradient id="paint0_linear_138_736" x1="0" y1="24" x2="48" y2="24" gradientUnits="userSpaceOnUse">
<stop stop-color="#CAB683"/>
<stop offset="0.528846" stop-color="#F5E49F"/>
<stop offset="0.985577" stop-color="#C6B181"/>
</linearGradient>
<clipPath id="clip0_138_736">
<rect width="32" height="32" fill="white" transform="translate(8 8)"/>
</clipPath>
</defs>
</svg>
