<svg width="48" height="48" viewBox="0 0 48 48" fill="none" xmlns="http://www.w3.org/2000/svg">
<circle cx="24" cy="24" r="23" fill="#279696" stroke="url(#paint0_linear_138_769)" stroke-width="2"/>
<path d="M33.9804 16.235L25.8364 11.533" stroke="white" stroke-width="0.9375" stroke-miterlimit="10" stroke-linecap="round" stroke-linejoin="round"/>
<path d="M35.7148 28.6118V19.2405" stroke="white" stroke-width="0.9375" stroke-miterlimit="10" stroke-linecap="round" stroke-linejoin="round"/>
<path d="M25.8028 36.4864L33.9227 31.7983" stroke="white" stroke-width="0.9375" stroke-miterlimit="10" stroke-linecap="round" stroke-linejoin="round"/>
<path d="M14.1262 31.8267L22.2025 36.4895" stroke="white" stroke-width="0.9375" stroke-miterlimit="10" stroke-linecap="round" stroke-linejoin="round"/>
<path d="M12.2852 19.3489V28.6118" stroke="white" stroke-width="0.9375" stroke-miterlimit="10" stroke-linecap="round" stroke-linejoin="round"/>
<path d="M22.1996 11.5122L14.0773 16.2016" stroke="white" stroke-width="0.9375" stroke-miterlimit="10" stroke-linecap="round" stroke-linejoin="round"/>
<path d="M24 12.4769C25.1068 12.4769 26.004 11.5796 26.004 10.4728C26.004 9.366 25.1068 8.46875 24 8.46875C22.8932 8.46875 21.9959 9.366 21.9959 10.4728C21.9959 11.5796 22.8932 12.4769 24 12.4769Z" stroke="white" stroke-width="0.9375" stroke-miterlimit="10" stroke-linecap="round" stroke-linejoin="round"/>
<path d="M24 39.5313C25.1068 39.5313 26.004 38.6341 26.004 37.5273C26.004 36.4204 25.1068 35.5232 24 35.5232C22.8932 35.5232 21.9959 36.4204 21.9959 37.5273C21.9959 38.6341 22.8932 39.5313 24 39.5313Z" stroke="white" stroke-width="0.9375" stroke-miterlimit="10" stroke-linecap="round" stroke-linejoin="round"/>
<path d="M26.0774 20.5716C25.4716 20.2038 24.7605 19.9919 24 19.9919C21.7864 19.9919 19.9919 21.7864 19.9919 24C19.9919 26.2136 21.7864 28.0081 24 28.0081C26.2136 28.0081 28.0081 26.2136 28.0081 24C28.0081 23.3635 27.8597 22.7617 27.5957 22.2272" stroke="white" stroke-width="0.9375" stroke-miterlimit="10" stroke-linecap="round" stroke-linejoin="round"/>
<path d="M12.2851 32.7676C13.3919 32.7676 14.2892 31.8704 14.2892 30.7636C14.2892 29.6568 13.3919 28.7595 12.2851 28.7595C11.1783 28.7595 10.2811 29.6568 10.2811 30.7636C10.2811 31.8704 11.1783 32.7676 12.2851 32.7676Z" stroke="white" stroke-width="0.9375" stroke-miterlimit="10" stroke-linecap="round" stroke-linejoin="round"/>
<path d="M12.2851 19.2405C13.3919 19.2405 14.2892 18.3433 14.2892 17.2365C14.2892 16.1297 13.3919 15.2324 12.2851 15.2324C11.1783 15.2324 10.2811 16.1297 10.2811 17.2365C10.2811 18.3433 11.1783 19.2405 12.2851 19.2405Z" stroke="white" stroke-width="0.9375" stroke-miterlimit="10" stroke-linecap="round" stroke-linejoin="round"/>
<path d="M35.7149 32.7676C36.8217 32.7676 37.7189 31.8704 37.7189 30.7636C37.7189 29.6568 36.8217 28.7595 35.7149 28.7595C34.6081 28.7595 33.7108 29.6568 33.7108 30.7636C33.7108 31.8704 34.6081 32.7676 35.7149 32.7676Z" stroke="white" stroke-width="0.9375" stroke-miterlimit="10" stroke-linecap="round" stroke-linejoin="round"/>
<path d="M35.7149 19.2405C36.8217 19.2405 37.7189 18.3433 37.7189 17.2365C37.7189 16.1297 36.8217 15.2324 35.7149 15.2324C34.6081 15.2324 33.7108 16.1297 33.7108 17.2365C33.7108 18.3433 34.6081 19.2405 35.7149 19.2405Z" stroke="white" stroke-width="0.9375" stroke-miterlimit="10" stroke-linecap="round" stroke-linejoin="round"/>
<path d="M31.7095 17.1824L26.0477 13.9136" stroke="white" stroke-width="0.9375" stroke-miterlimit="10" stroke-linecap="round" stroke-linejoin="round"/>
<path d="M33.7589 27.2668V20.7329" stroke="white" stroke-width="0.9375" stroke-miterlimit="10" stroke-linecap="round" stroke-linejoin="round"/>
<path d="M26.0477 34.0862L31.7095 30.8174" stroke="white" stroke-width="0.9375" stroke-miterlimit="10" stroke-linecap="round" stroke-linejoin="round"/>
<path d="M16.2905 30.8174L21.9523 34.0862" stroke="white" stroke-width="0.9375" stroke-miterlimit="10" stroke-linecap="round" stroke-linejoin="round"/>
<path d="M14.2411 20.7329V27.2668" stroke="white" stroke-width="0.9375" stroke-miterlimit="10" stroke-linecap="round" stroke-linejoin="round"/>
<path d="M21.9523 13.9136L16.2905 17.1824" stroke="white" stroke-width="0.9375" stroke-miterlimit="10" stroke-linecap="round" stroke-linejoin="round"/>
<defs>
<linearGradient id="paint0_linear_138_769" x1="0" y1="24" x2="48" y2="24" gradientUnits="userSpaceOnUse">
<stop stop-color="#CAB683"/>
<stop offset="0.528846" stop-color="#F5E49F"/>
<stop offset="0.985577" stop-color="#C6B181"/>
</linearGradient>
</defs>
</svg>
