<svg width="56" height="56" viewBox="0 0 56 56" fill="none" xmlns="http://www.w3.org/2000/svg">
<g clip-path="url(#clip0_130_873)">
<mask id="mask0_130_873" style="mask-type:luminance" maskUnits="userSpaceOnUse" x="0" y="0" width="56" height="56">
<path d="M-6.10352e-05 -3.05176e-05H55.9999V56H-6.10352e-05V-3.05176e-05Z" fill="white"/>
</mask>
<g mask="url(#mask0_130_873)">
<path d="M50.4042 42.905C49.8852 44.8418 47.8943 46.412 45.9574 46.412C44.0205 46.412 42.8711 44.8418 43.3901 42.905C43.909 40.968 45.8999 39.3979 47.8368 39.3979C49.7737 39.3979 50.9232 40.968 50.4042 42.905Z" stroke="#279696" stroke-width="1.40625" stroke-miterlimit="10" stroke-linecap="round" stroke-linejoin="round"/>
<path d="M46.9058 42.905H46.8971" stroke="#279696" stroke-width="1.40625" stroke-miterlimit="10" stroke-linecap="round" stroke-linejoin="round"/>
<path d="M23.2245 42.905C22.7055 44.8418 20.7147 46.412 18.7777 46.412C16.8408 46.412 15.6914 44.8418 16.2104 42.905C16.7294 40.968 18.7202 39.3979 20.6571 39.3979C22.594 39.3979 23.7435 40.968 23.2245 42.905Z" stroke="#279696" stroke-width="1.40625" stroke-miterlimit="10" stroke-linecap="round" stroke-linejoin="round"/>
<path d="M19.7262 42.905H19.7174" stroke="#279696" stroke-width="1.40625" stroke-miterlimit="10" stroke-linecap="round" stroke-linejoin="round"/>
<path d="M23.2245 42.905H43.3901" stroke="#279696" stroke-width="1.40625" stroke-miterlimit="10" stroke-linecap="round" stroke-linejoin="round"/>
<path d="M36.7675 20.1091H42.4841C42.9682 20.1091 43.2556 20.5017 43.1259 20.9859L37.2527 42.9049" stroke="#279696" stroke-width="1.40625" stroke-miterlimit="10" stroke-linecap="round" stroke-linejoin="round"/>
<path d="M16.2104 42.905H11.8265C11.3423 42.905 11.055 42.5124 11.1847 42.0282L12.8293 35.8907" stroke="#279696" stroke-width="1.40625" stroke-miterlimit="10" stroke-linecap="round" stroke-linejoin="round"/>
<path d="M42.891 21.8626H50.3193C51.1101 21.8626 51.6611 22.3919 51.6648 23.1548L51.7048 31.507L54.6693 33.6266C55.1126 33.9434 55.2827 34.5141 55.1177 35.1301L53.5043 41.1513C53.2449 42.1199 52.2494 42.905 51.2809 42.905H50.4042" stroke="#279696" stroke-width="1.40625" stroke-miterlimit="10" stroke-linecap="round" stroke-linejoin="round"/>
<path d="M54.9138 35.8908H53.1603" stroke="#279696" stroke-width="1.40625" stroke-miterlimit="10" stroke-linecap="round" stroke-linejoin="round"/>
<path d="M49.6532 35.8908H39.1321" stroke="#279696" stroke-width="1.40625" stroke-miterlimit="10" stroke-linecap="round" stroke-linejoin="round"/>
<path d="M51.7047 31.507H45.5673C44.5989 31.507 44.0242 30.7219 44.2837 29.7535L44.9884 27.1232C45.248 26.1548 46.2434 25.3697 47.2118 25.3697H51.5956" stroke="#279696" stroke-width="1.40625" stroke-miterlimit="10" stroke-linecap="round" stroke-linejoin="round"/>
<path d="M33.2605 21.8626C33.2605 28.6417 27.7649 34.1374 20.9858 34.1374C14.2066 34.1374 8.71106 28.6417 8.71106 21.8626C8.71106 15.0836 14.2066 9.58793 20.9858 9.58793C27.7649 9.58793 33.2605 15.0836 33.2605 21.8626Z" stroke="#279696" stroke-width="1.40625" stroke-miterlimit="10" stroke-linecap="round" stroke-linejoin="round"/>
<path d="M22.7393 21.8626C22.7393 22.831 21.9542 23.6161 20.9858 23.6161C20.0173 23.6161 19.2323 22.831 19.2323 21.8626C19.2323 20.8942 20.0173 20.1091 20.9858 20.1091C21.9542 20.1091 22.7393 20.8942 22.7393 21.8626Z" stroke="#279696" stroke-width="1.40625" stroke-miterlimit="10" stroke-linecap="round" stroke-linejoin="round"/>
<path d="M22.3557 20.4927L27.1231 15.7253" stroke="#279696" stroke-width="1.40625" stroke-miterlimit="10" stroke-linecap="round" stroke-linejoin="round"/>
<path d="M17.4788 25.3697L19.6706 23.1777" stroke="#279696" stroke-width="1.40625" stroke-miterlimit="10" stroke-linecap="round" stroke-linejoin="round"/>
<path d="M20.9858 13.095V13.9717" stroke="#279696" stroke-width="1.40625" stroke-miterlimit="10" stroke-linecap="round" stroke-linejoin="round"/>
<path d="M20.9858 29.7535V30.6302" stroke="#279696" stroke-width="1.40625" stroke-miterlimit="10" stroke-linecap="round" stroke-linejoin="round"/>
<path d="M29.7534 21.8626H28.8766" stroke="#279696" stroke-width="1.40625" stroke-miterlimit="10" stroke-linecap="round" stroke-linejoin="round"/>
<path d="M13.0949 21.8626H12.2181" stroke="#279696" stroke-width="1.40625" stroke-miterlimit="10" stroke-linecap="round" stroke-linejoin="round"/>
<path d="M9.58786 33.2605H0.820251" stroke="#279696" stroke-width="1.40625" stroke-miterlimit="10" stroke-linecap="round" stroke-linejoin="round"/>
<path d="M8.71105 36.7676H3.45044" stroke="#279696" stroke-width="1.40625" stroke-miterlimit="10" stroke-linecap="round" stroke-linejoin="round"/>
<path d="M7.83431 40.2746H6.08081" stroke="#279696" stroke-width="1.40625" stroke-miterlimit="10" stroke-linecap="round" stroke-linejoin="round"/>
</g>
</g>
<defs>
<clipPath id="clip0_130_873">
<rect width="56" height="56" fill="white"/>
</clipPath>
</defs>
</svg>
