<svg width="40" height="40" viewBox="0 0 40 40" fill="none" xmlns="http://www.w3.org/2000/svg">
<circle cx="20" cy="20" r="20" fill="#1FA2FF"/>
<path d="M10.4958 19.5816H14.6827C14.7106 19.5816 14.738 19.581 14.7653 19.58" stroke="white" stroke-width="0.820312" stroke-miterlimit="10" stroke-linecap="round" stroke-linejoin="round"/>
<path d="M14.4192 13.9028H14.6828C16.1572 13.9028 17.369 15.0267 17.5085 16.4644" stroke="white" stroke-width="0.820312" stroke-miterlimit="10" stroke-linecap="round" stroke-linejoin="round"/>
<path d="M16.7117 25.9784C16.786 26.2518 16.826 26.5395 16.826 26.8364V27.9794" stroke="white" stroke-width="0.820312" stroke-miterlimit="10" stroke-linecap="round" stroke-linejoin="round"/>
<path d="M13.2657 23.5792H13.5693C14.0811 23.5792 14.5651 23.6973 14.9961 23.9079" stroke="white" stroke-width="0.820312" stroke-miterlimit="10" stroke-linecap="round" stroke-linejoin="round"/>
<path d="M11.3517 23.5792H9.50708" stroke="white" stroke-width="0.820312" stroke-miterlimit="10" stroke-linecap="round" stroke-linejoin="round"/>
<path d="M12.0605 15.9028H13.6779" stroke="white" stroke-width="0.820312" stroke-miterlimit="10" stroke-linecap="round" stroke-linejoin="round"/>
<path d="M13.2051 28.4167V26.9295" stroke="white" stroke-width="0.820312" stroke-miterlimit="10" stroke-linecap="round" stroke-linejoin="round"/>
<path d="M17.3838 11.1488C17.3838 12.5931 18.5552 13.7645 20 13.7645" stroke="white" stroke-width="0.820312" stroke-miterlimit="10" stroke-linecap="round" stroke-linejoin="round"/>
<path d="M23.3912 8.37225C23.6914 8.49585 23.961 8.67796 24.1869 8.90436C24.6309 9.34788 24.9055 9.96147 24.9055 10.6385V11.0694H26.3558C27.834 11.0694 29.0322 12.2676 29.0322 13.7453C29.0322 14.1883 28.9245 14.6055 28.7341 14.9736C28.5438 15.3411 28.2709 15.6588 27.9395 15.9027H29.7125C31.8541 15.9027 33.5898 17.639 33.5898 19.7801C33.5898 20.7174 33.2573 21.5771 32.7039 22.2476C32.151 22.9175 31.3766 23.3987 30.4929 23.5792C31.1584 24.0659 31.591 24.8523 31.591 25.7405C31.591 26.4793 31.2913 27.1487 30.8068 27.6332C30.3228 28.1172 29.6534 28.4169 28.9146 28.4169H26.7949C26.7949 30.2932 25.2741 31.814 23.3972 31.814C21.5209 31.814 20 30.2932 20 28.4169" stroke="white" stroke-width="0.820312" stroke-miterlimit="10" stroke-linecap="round" stroke-linejoin="round"/>
<path d="M20 10.6385C20 9.61639 20.6256 8.7403 21.5143 8.37225" stroke="white" stroke-width="0.820312" stroke-miterlimit="10" stroke-linecap="round" stroke-linejoin="round"/>
<path d="M29.5042 19.5816H25.3375" stroke="white" stroke-width="0.820312" stroke-miterlimit="10" stroke-linecap="round" stroke-linejoin="round"/>
<path d="M22.4971 16.4157C22.6584 15.001 23.8599 13.9028 25.3173 13.9028H25.5809" stroke="white" stroke-width="0.820312" stroke-miterlimit="10" stroke-linecap="round" stroke-linejoin="round"/>
<path d="M23.1741 27.9794V26.8364C23.1741 26.5717 23.2058 26.3147 23.2649 26.0686" stroke="white" stroke-width="0.820312" stroke-miterlimit="10" stroke-linecap="round" stroke-linejoin="round"/>
<path d="M25.1346 23.8477C25.5317 23.6749 25.9697 23.5792 26.4307 23.5792H30.4929" stroke="white" stroke-width="0.820312" stroke-miterlimit="10" stroke-linecap="round" stroke-linejoin="round"/>
<path d="M27.9395 15.9028H26.3221" stroke="white" stroke-width="0.820312" stroke-miterlimit="10" stroke-linecap="round" stroke-linejoin="round"/>
<path d="M26.7949 28.4167V26.9295" stroke="white" stroke-width="0.820312" stroke-miterlimit="10" stroke-linecap="round" stroke-linejoin="round"/>
<path d="M20 13.7645C21.4448 13.7645 22.6162 12.5931 22.6162 11.1488" stroke="white" stroke-width="0.820312" stroke-miterlimit="10" stroke-linecap="round" stroke-linejoin="round"/>
<path d="M20 27.0793V28.4169C20 30.2933 18.4791 31.8141 16.6023 31.8141C14.7259 31.8141 13.2051 30.2933 13.2051 28.4169H11.0854C10.3466 28.4169 9.67719 28.1173 9.1932 27.6333C8.70867 27.1487 8.40898 26.4794 8.40898 25.7405C8.40898 24.8524 8.84156 24.066 9.50711 23.5793C8.62336 23.3988 7.84898 22.9176 7.29609 22.2476C6.74266 21.5772 6.41016 20.7175 6.41016 19.7801C6.41016 17.6391 8.14594 15.9028 10.2875 15.9028H12.0605C11.7291 15.6589 11.4562 15.3412 11.2659 14.9737C11.0755 14.6056 10.9678 14.1884 10.9678 13.7454C10.9678 12.2677 12.166 11.0695 13.6442 11.0695H15.0945V10.6386C15.0945 9.28398 16.1927 8.18585 17.5473 8.18585C18.9019 8.18585 20 9.28398 20 10.6386V15.8569" stroke="white" stroke-width="0.820312" stroke-miterlimit="10" stroke-linecap="round" stroke-linejoin="round"/>
<path d="M24.6533 18.2559C25.2893 19.1659 25.6628 20.2734 25.6628 21.4683C25.6628 24.5674 23.1505 27.0798 20.0514 27.0798C16.9517 27.0798 14.4393 24.5674 14.4393 21.4683C14.4393 18.3686 16.9517 15.8563 20.0514 15.8563C21.2676 15.8563 22.3931 16.2429 23.3118 16.9002" stroke="white" stroke-width="0.820312" stroke-miterlimit="10" stroke-linecap="round" stroke-linejoin="round"/>
<path d="M23.3944 20.9138V22.0223C23.3944 22.3766 23.1073 22.6638 22.7529 22.6638H21.2468V24.1699C21.2468 24.5242 20.9597 24.8113 20.6053 24.8113H19.4968C19.1425 24.8113 18.8553 24.5242 18.8553 24.1699V22.6638H17.3492C16.9949 22.6638 16.7078 22.3766 16.7078 22.0223V20.9138C16.7078 20.5594 16.9949 20.2723 17.3492 20.2723H18.8553V18.7662C18.8553 18.4118 19.1425 18.1247 19.4968 18.1247H20.6053C20.9597 18.1247 21.2468 18.4118 21.2468 18.7662V20.2723H22.7529C23.1073 20.2723 23.3944 20.5594 23.3944 20.9138Z" stroke="white" stroke-width="0.820312" stroke-miterlimit="10" stroke-linecap="round" stroke-linejoin="round"/>
</svg>
