<svg width="48" height="48" viewBox="0 0 48 48" fill="none" xmlns="http://www.w3.org/2000/svg">
<circle cx="24" cy="24" r="23" fill="#279696" stroke="url(#paint0_linear_136_181)" stroke-width="2"/>
<path d="M30.7061 10.2179C30.6219 10.0824 30.4737 10 30.3141 10H22.1679C21.9689 10 21.7922 10.1276 21.7297 10.3165L17.2478 23.8549C17.2012 23.9956 17.225 24.1501 17.3118 24.2702C17.3985 24.3904 17.5377 24.4615 17.6859 24.4615H21.5615L17.9817 37.4154C17.9214 37.6334 18.0279 37.8629 18.2333 37.9576C18.2956 37.9863 18.3613 38 18.4263 38C18.5757 38 18.7207 37.9273 18.809 37.7967L29.9561 21.296C30.0517 21.1546 30.0613 20.9719 29.9812 20.8211C29.9012 20.6704 29.7443 20.5762 29.5736 20.5762H25.8343L30.728 10.6658C30.7986 10.5228 30.7903 10.3534 30.7061 10.2179ZM24.6778 20.8334C24.6071 20.9764 24.6154 21.1458 24.6996 21.2813C24.7837 21.4168 24.932 21.4992 25.0916 21.4992H28.7047L19.6224 34.9436L22.6128 24.1229C22.6511 23.984 22.6225 23.8351 22.5351 23.7205C22.4479 23.6058 22.312 23.5384 22.1679 23.5384H18.3249L22.5012 10.9231H29.5715L24.6778 20.8334Z" fill="white"/>
<defs>
<linearGradient id="paint0_linear_136_181" x1="0" y1="24" x2="48" y2="24" gradientUnits="userSpaceOnUse">
<stop stop-color="#CAB683"/>
<stop offset="0.528846" stop-color="#F5E49F"/>
<stop offset="0.985577" stop-color="#C6B181"/>
</linearGradient>
</defs>
</svg>
