<svg width="48" height="48" viewBox="0 0 48 48" fill="none" xmlns="http://www.w3.org/2000/svg">
<circle cx="24" cy="24" r="23" fill="#279696" stroke="url(#paint0_linear_138_637)" stroke-width="2"/>
<g clip-path="url(#clip0_138_637)">
<mask id="mask0_138_637" style="mask-type:luminance" maskUnits="userSpaceOnUse" x="7" y="8" width="32" height="32">
<path d="M39 8H7V40H39V8Z" fill="white"/>
</mask>
<g mask="url(#mask0_138_637)">
<mask id="mask1_138_637" style="mask-type:luminance" maskUnits="userSpaceOnUse" x="7" y="8" width="32" height="32">
<path d="M7 8H39V40H7V8Z" fill="white"/>
</mask>
<g mask="url(#mask1_138_637)">
<path d="M23.9662 14.4034C23.2052 17.9868 22.6612 22.693 23.3145 27.7017C23.7809 31.2773 24.4144 34.8228 23.5938 39.5303" stroke="white" stroke-width="1.40625" stroke-miterlimit="10" stroke-linecap="round" stroke-linejoin="round"/>
<path d="M30.3626 27.3822C30.3626 27.3822 25.3476 29.7146 23.9359 33.5051" stroke="white" stroke-width="1.40625" stroke-miterlimit="10" stroke-linecap="round" stroke-linejoin="round"/>
<path d="M14.295 27.7071C14.295 27.7071 21.128 29.1071 23.9812 35.6536" stroke="white" stroke-width="1.40625" stroke-miterlimit="10" stroke-linecap="round" stroke-linejoin="round"/>
<path d="M10.5742 25.1541C10.5262 24.8821 10.7962 24.6761 11.0715 24.7745C11.8592 25.0558 13.3062 25.4998 14.5674 25.4884C16.4099 25.4718 21.983 26.2995 21.9258 32.3566C21.9258 32.3566 19.0043 34.0538 15.0236 32.1684C11.8342 30.6578 10.8424 26.6771 10.5742 25.1541Z" stroke="white" stroke-width="1.40625" stroke-miterlimit="10" stroke-linecap="round" stroke-linejoin="round"/>
<path d="M30.4973 31.1987C30.8362 31.0917 31.1869 30.9565 31.5479 30.7871C34.3175 29.4869 35.1893 26.0386 35.4264 24.7191C35.4688 24.4834 35.2354 24.3041 34.9963 24.3885C34.3127 24.63 33.0568 25.0106 31.9634 24.997C30.3659 24.9771 25.5318 25.678 25.5633 30.9296C25.5633 30.9296 26.6237 31.5501 28.3098 31.5469" stroke="white" stroke-width="1.40625" stroke-miterlimit="10" stroke-linecap="round" stroke-linejoin="round"/>
<path d="M29.0162 17.3664C28.7376 13.3916 25.6614 9.96011 24.2941 8.61973C24.0092 8.34042 23.5324 8.46904 23.4154 8.85673C23.0808 9.96548 22.3789 11.9422 21.2901 13.3338C19.6994 15.367 15.9394 22.2462 23.2426 27.217C23.2426 27.217 27.6839 25.4145 28.8693 19.5539" stroke="white" stroke-width="1.40625" stroke-miterlimit="10" stroke-linecap="round" stroke-linejoin="round"/>
</g>
</g>
</g>
<defs>
<linearGradient id="paint0_linear_138_637" x1="0" y1="24" x2="48" y2="24" gradientUnits="userSpaceOnUse">
<stop stop-color="#CAB683"/>
<stop offset="0.528846" stop-color="#F5E49F"/>
<stop offset="0.985577" stop-color="#C6B181"/>
</linearGradient>
<clipPath id="clip0_138_637">
<rect width="32" height="32" fill="white" transform="translate(7 8)"/>
</clipPath>
</defs>
</svg>
