<svg width="172" height="182" viewBox="0 0 172 182" fill="none" xmlns="http://www.w3.org/2000/svg">
<path fill-rule="evenodd" clip-rule="evenodd" d="M1.5 0C0.671573 0 0 0.671573 0 1.5V5.5C0 6.32843 0.671573 7 1.5 7H5.5C6.32843 7 7 6.32843 7 5.5V1.5C7 0.671573 6.32843 0 5.5 0H1.5ZM67.5 0C66.6716 0 66 0.671573 66 1.5V5.5C66 6.32843 66.6716 7 67.5 7H71.5C72.3284 7 73 6.32843 73 5.5V1.5C73 0.671573 72.3284 0 71.5 0H67.5ZM132 1.5C132 0.671573 132.672 0 133.5 0H137.5C138.328 0 139 0.671573 139 1.5V5.5C139 6.32843 138.328 7 137.5 7H133.5C132.672 7 132 6.32843 132 5.5V1.5ZM34.5 0C33.6716 0 33 0.671573 33 1.5V5.5C33 6.32843 33.6716 7 34.5 7H38.5C39.3284 7 40 6.32843 40 5.5V1.5C40 0.671573 39.3284 0 38.5 0H34.5ZM99 1.5C99 0.671573 99.6716 0 100.5 0H104.5C105.328 0 106 0.671573 106 1.5V5.5C106 6.32843 105.328 7 104.5 7H100.5C99.6716 7 99 6.32843 99 5.5V1.5ZM166.5 0C165.672 0 165 0.671573 165 1.5V5.5C165 6.32843 165.672 7 166.5 7H170.5C171.328 7 172 6.32843 172 5.5V1.5C172 0.671573 171.328 0 170.5 0H166.5ZM0 71.5C0 70.6716 0.671573 70 1.5 70H5.5C6.32843 70 7 70.6716 7 71.5V75.5C7 76.3284 6.32843 77 5.5 77H1.5C0.671573 77 0 76.3284 0 75.5V71.5ZM67.5 70C66.6716 70 66 70.6716 66 71.5V75.5C66 76.3284 66.6716 77 67.5 77H71.5C72.3284 77 73 76.3284 73 75.5V71.5C73 70.6716 72.3284 70 71.5 70H67.5ZM132 71.5C132 70.6716 132.672 70 133.5 70H137.5C138.328 70 139 70.6716 139 71.5V75.5C139 76.3284 138.328 77 137.5 77H133.5C132.672 77 132 76.3284 132 75.5V71.5ZM34.5 70C33.6716 70 33 70.6716 33 71.5V75.5C33 76.3284 33.6716 77 34.5 77H38.5C39.3284 77 40 76.3284 40 75.5V71.5C40 70.6716 39.3284 70 38.5 70H34.5ZM99 71.5C99 70.6716 99.6716 70 100.5 70H104.5C105.328 70 106 70.6716 106 71.5V75.5C106 76.3284 105.328 77 104.5 77H100.5C99.6716 77 99 76.3284 99 75.5V71.5ZM166.5 70C165.672 70 165 70.6716 165 71.5V75.5C165 76.3284 165.672 77 166.5 77H170.5C171.328 77 172 76.3284 172 75.5V71.5C172 70.6716 171.328 70 170.5 70H166.5ZM0 141.5C0 140.672 0.671573 140 1.5 140H5.5C6.32843 140 7 140.672 7 141.5V145.5C7 146.328 6.32843 147 5.5 147H1.5C0.671573 147 0 146.328 0 145.5V141.5ZM67.5 140C66.6716 140 66 140.672 66 141.5V145.5C66 146.328 66.6716 147 67.5 147H71.5C72.3284 147 73 146.328 73 145.5V141.5C73 140.672 72.3284 140 71.5 140H67.5ZM132 141.5C132 140.672 132.672 140 133.5 140H137.5C138.328 140 139 140.672 139 141.5V145.5C139 146.328 138.328 147 137.5 147H133.5C132.672 147 132 146.328 132 145.5V141.5ZM34.5 140C33.6716 140 33 140.672 33 141.5V145.5C33 146.328 33.6716 147 34.5 147H38.5C39.3284 147 40 146.328 40 145.5V141.5C40 140.672 39.3284 140 38.5 140H34.5ZM99 141.5C99 140.672 99.6716 140 100.5 140H104.5C105.328 140 106 140.672 106 141.5V145.5C106 146.328 105.328 147 104.5 147H100.5C99.6716 147 99 146.328 99 145.5V141.5ZM166.5 140C165.672 140 165 140.672 165 141.5V145.5C165 146.328 165.672 147 166.5 147H170.5C171.328 147 172 146.328 172 145.5V141.5C172 140.672 171.328 140 170.5 140H166.5ZM0 36.5C0 35.6716 0.671573 35 1.5 35H5.5C6.32843 35 7 35.6716 7 36.5V40.5C7 41.3284 6.32843 42 5.5 42H1.5C0.671573 42 0 41.3284 0 40.5V36.5ZM67.5 35C66.6716 35 66 35.6716 66 36.5V40.5C66 41.3284 66.6716 42 67.5 42H71.5C72.3284 42 73 41.3284 73 40.5V36.5C73 35.6716 72.3284 35 71.5 35H67.5ZM132 36.5C132 35.6716 132.672 35 133.5 35H137.5C138.328 35 139 35.6716 139 36.5V40.5C139 41.3284 138.328 42 137.5 42H133.5C132.672 42 132 41.3284 132 40.5V36.5ZM34.5 35C33.6716 35 33 35.6716 33 36.5V40.5C33 41.3284 33.6716 42 34.5 42H38.5C39.3284 42 40 41.3284 40 40.5V36.5C40 35.6716 39.3284 35 38.5 35H34.5ZM99 36.5C99 35.6716 99.6716 35 100.5 35H104.5C105.328 35 106 35.6716 106 36.5V40.5C106 41.3284 105.328 42 104.5 42H100.5C99.6716 42 99 41.3284 99 40.5V36.5ZM166.5 35C165.672 35 165 35.6716 165 36.5V40.5C165 41.3284 165.672 42 166.5 42H170.5C171.328 42 172 41.3284 172 40.5V36.5C172 35.6716 171.328 35 170.5 35H166.5ZM0 106.5C0 105.672 0.671573 105 1.5 105H5.5C6.32843 105 7 105.672 7 106.5V110.5C7 111.328 6.32843 112 5.5 112H1.5C0.671573 112 0 111.328 0 110.5V106.5ZM67.5 105C66.6716 105 66 105.672 66 106.5V110.5C66 111.328 66.6716 112 67.5 112H71.5C72.3284 112 73 111.328 73 110.5V106.5C73 105.672 72.3284 105 71.5 105H67.5ZM132 106.5C132 105.672 132.672 105 133.5 105H137.5C138.328 105 139 105.672 139 106.5V110.5C139 111.328 138.328 112 137.5 112H133.5C132.672 112 132 111.328 132 110.5V106.5ZM34.5 105C33.6716 105 33 105.672 33 106.5V110.5C33 111.328 33.6716 112 34.5 112H38.5C39.3284 112 40 111.328 40 110.5V106.5C40 105.672 39.3284 105 38.5 105H34.5ZM99 106.5C99 105.672 99.6716 105 100.5 105H104.5C105.328 105 106 105.672 106 106.5V110.5C106 111.328 105.328 112 104.5 112H100.5C99.6716 112 99 111.328 99 110.5V106.5ZM166.5 105C165.672 105 165 105.672 165 106.5V110.5C165 111.328 165.672 112 166.5 112H170.5C171.328 112 172 111.328 172 110.5V106.5C172 105.672 171.328 105 170.5 105H166.5ZM0 176.5C0 175.672 0.671573 175 1.5 175H5.5C6.32843 175 7 175.672 7 176.5V180.5C7 181.328 6.32843 182 5.5 182H1.5C0.671573 182 0 181.328 0 180.5V176.5ZM67.5 175C66.6716 175 66 175.672 66 176.5V180.5C66 181.328 66.6716 182 67.5 182H71.5C72.3284 182 73 181.328 73 180.5V176.5C73 175.672 72.3284 175 71.5 175H67.5ZM132 176.5C132 175.672 132.672 175 133.5 175H137.5C138.328 175 139 175.672 139 176.5V180.5C139 181.328 138.328 182 137.5 182H133.5C132.672 182 132 181.328 132 180.5V176.5ZM34.5 175C33.6716 175 33 175.672 33 176.5V180.5C33 181.328 33.6716 182 34.5 182H38.5C39.3284 182 40 181.328 40 180.5V176.5C40 175.672 39.3284 175 38.5 175H34.5ZM99 176.5C99 175.672 99.6716 175 100.5 175H104.5C105.328 175 106 175.672 106 176.5V180.5C106 181.328 105.328 182 104.5 182H100.5C99.6716 182 99 181.328 99 180.5V176.5ZM166.5 175C165.672 175 165 175.672 165 176.5V180.5C165 181.328 165.672 182 166.5 182H170.5C171.328 182 172 181.328 172 180.5V176.5C172 175.672 171.328 175 170.5 175H166.5Z" fill="url(#paint0_linear_6035_192)"/>
<defs>
<linearGradient id="paint0_linear_6035_192" x1="24.0139" y1="94.0537" x2="142.146" y2="182.411" gradientUnits="userSpaceOnUse">
<stop stop-color="#F08129"/>
<stop offset="0.920226" stop-color="#F08129" stop-opacity="0.05"/>
</linearGradient>
</defs>
</svg>
