<svg width="65" height="185" viewBox="0 0 65 185" fill="none" xmlns="http://www.w3.org/2000/svg">
<path fill-rule="evenodd" clip-rule="evenodd" d="M56 4.5C56 6.98528 58.0147 9 60.5 9C62.9853 9 65 6.98528 65 4.5C65 2.01472 62.9853 0 60.5 0C58.0147 0 56 2.01472 56 4.5ZM56 29.5C56 31.9853 58.0147 34 60.5 34C62.9853 34 65 31.9853 65 29.5C65 27.0147 62.9853 25 60.5 25C58.0147 25 56 27.0147 56 29.5ZM60.5 60C58.0147 60 56 57.9853 56 55.5C56 53.0147 58.0147 51 60.5 51C62.9853 51 65 53.0147 65 55.5C65 57.9853 62.9853 60 60.5 60ZM56 80.5C56 82.9853 58.0147 85 60.5 85C62.9853 85 65 82.9853 65 80.5C65 78.0147 62.9853 76 60.5 76C58.0147 76 56 78.0147 56 80.5ZM41.5 9C39.0147 9 37 6.98528 37 4.5C37 2.01472 39.0147 0 41.5 0C43.9853 0 46 2.01472 46 4.5C46 6.98528 43.9853 9 41.5 9ZM37 29.5C37 31.9853 39.0147 34 41.5 34C43.9853 34 46 31.9853 46 29.5C46 27.0147 43.9853 25 41.5 25C39.0147 25 37 27.0147 37 29.5ZM41.5 60C39.0147 60 37 57.9853 37 55.5C37 53.0147 39.0147 51 41.5 51C43.9853 51 46 53.0147 46 55.5C46 57.9853 43.9853 60 41.5 60ZM37 80.5C37 82.9853 39.0147 85 41.5 85C43.9853 85 46 82.9853 46 80.5C46 78.0147 43.9853 76 41.5 76C39.0147 76 37 78.0147 37 80.5ZM22.5 9C20.0147 9 18 6.98528 18 4.5C18 2.01472 20.0147 0 22.5 0C24.9853 0 27 2.01472 27 4.5C27 6.98528 24.9853 9 22.5 9ZM18 29.5C18 31.9853 20.0147 34 22.5 34C24.9853 34 27 31.9853 27 29.5C27 27.0147 24.9853 25 22.5 25C20.0147 25 18 27.0147 18 29.5ZM22.5 60C20.0147 60 18 57.9853 18 55.5C18 53.0147 20.0147 51 22.5 51C24.9853 51 27 53.0147 27 55.5C27 57.9853 24.9853 60 22.5 60ZM18 80.5C18 82.9853 20.0147 85 22.5 85C24.9853 85 27 82.9853 27 80.5C27 78.0147 24.9853 76 22.5 76C20.0147 76 18 78.0147 18 80.5ZM4.5 9C2.01472 9 0 6.98528 0 4.5C0 2.01472 2.01472 0 4.5 0C6.98528 0 9 2.01472 9 4.5C9 6.98528 6.98528 9 4.5 9ZM0 29.5C0 31.9853 2.01472 34 4.5 34C6.98528 34 9 31.9853 9 29.5C9 27.0147 6.98528 25 4.5 25C2.01472 25 0 27.0147 0 29.5ZM4.5 60C2.01472 60 0 57.9853 0 55.5C0 53.0147 2.01472 51 4.5 51C6.98528 51 9 53.0147 9 55.5C9 57.9853 6.98528 60 4.5 60ZM0 80.5C0 82.9853 2.01472 85 4.5 85C6.98528 85 9 82.9853 9 80.5C9 78.0147 6.98528 76 4.5 76C2.01472 76 0 78.0147 0 80.5ZM56 104.5C56 106.985 58.0147 109 60.5 109C62.9853 109 65 106.985 65 104.5C65 102.015 62.9853 100 60.5 100C58.0147 100 56 102.015 56 104.5ZM56 129.5C56 131.985 58.0147 134 60.5 134C62.9853 134 65 131.985 65 129.5C65 127.015 62.9853 125 60.5 125C58.0147 125 56 127.015 56 129.5ZM60.5 160C58.0147 160 56 157.985 56 155.5C56 153.015 58.0147 151 60.5 151C62.9853 151 65 153.015 65 155.5C65 157.985 62.9853 160 60.5 160ZM56 180.5C56 182.985 58.0147 185 60.5 185C62.9853 185 65 182.985 65 180.5C65 178.015 62.9853 176 60.5 176C58.0147 176 56 178.015 56 180.5ZM41.5 109C39.0147 109 37 106.985 37 104.5C37 102.015 39.0147 100 41.5 100C43.9853 100 46 102.015 46 104.5C46 106.985 43.9853 109 41.5 109ZM37 129.5C37 131.985 39.0147 134 41.5 134C43.9853 134 46 131.985 46 129.5C46 127.015 43.9853 125 41.5 125C39.0147 125 37 127.015 37 129.5ZM41.5 160C39.0147 160 37 157.985 37 155.5C37 153.015 39.0147 151 41.5 151C43.9853 151 46 153.015 46 155.5C46 157.985 43.9853 160 41.5 160ZM37 180.5C37 182.985 39.0147 185 41.5 185C43.9853 185 46 182.985 46 180.5C46 178.015 43.9853 176 41.5 176C39.0147 176 37 178.015 37 180.5ZM22.5 109C20.0147 109 18 106.985 18 104.5C18 102.015 20.0147 100 22.5 100C24.9853 100 27 102.015 27 104.5C27 106.985 24.9853 109 22.5 109ZM18 129.5C18 131.985 20.0147 134 22.5 134C24.9853 134 27 131.985 27 129.5C27 127.015 24.9853 125 22.5 125C20.0147 125 18 127.015 18 129.5ZM22.5 160C20.0147 160 18 157.985 18 155.5C18 153.015 20.0147 151 22.5 151C24.9853 151 27 153.015 27 155.5C27 157.985 24.9853 160 22.5 160ZM18 180.5C18 182.985 20.0147 185 22.5 185C24.9853 185 27 182.985 27 180.5C27 178.015 24.9853 176 22.5 176C20.0147 176 18 178.015 18 180.5ZM4.5 109C2.01472 109 0 106.985 0 104.5C0 102.015 2.01472 100 4.5 100C6.98528 100 9 102.015 9 104.5C9 106.985 6.98528 109 4.5 109ZM0 129.5C0 131.985 2.01472 134 4.5 134C6.98528 134 9 131.985 9 129.5C9 127.015 6.98528 125 4.5 125C2.01472 125 0 127.015 0 129.5ZM4.5 160C2.01472 160 0 157.985 0 155.5C0 153.015 2.01472 151 4.5 151C6.98528 151 9 153.015 9 155.5C9 157.985 6.98528 160 4.5 160ZM0 180.5C0 182.985 2.01472 185 4.5 185C6.98528 185 9 182.985 9 180.5C9 178.015 6.98528 176 4.5 176C2.01472 176 0 178.015 0 180.5Z" fill="url(#paint0_linear_6035_232)"/>
<defs>
<linearGradient id="paint0_linear_6035_232" x1="56.7413" y1="92.0632" x2="-2.52176" y2="107.637" gradientUnits="userSpaceOnUse">
<stop stop-color="#F08129"/>
<stop offset="0.920226" stop-color="#F08129" stop-opacity="0.05"/>
</linearGradient>
</defs>
</svg>
