<svg width="32" height="32" viewBox="0 0 32 32" fill="none" xmlns="http://www.w3.org/2000/svg">
<g id="angulo-pequeno-direito 1">
<path id="Vector" d="M13.5077 20.5331L7.38772 14.4131C7.13939 14.1633 7 13.8253 7 13.4731C7 13.1208 7.13939 12.7829 7.38772 12.5331C7.51167 12.4081 7.65914 12.3089 7.82162 12.2412C7.9841 12.1735 8.15837 12.1387 8.33439 12.1387C8.51041 12.1387 8.68468 12.1735 8.84716 12.2412C9.00964 12.3089 9.15711 12.4081 9.28106 12.5331L15.3877 18.6664C15.5117 18.7914 15.6591 18.8906 15.8216 18.9583C15.9841 19.0259 16.1584 19.0608 16.3344 19.0608C16.5104 19.0608 16.6847 19.0259 16.8472 18.9583C17.0096 18.8906 17.1571 18.7914 17.2811 18.6664L23.3877 12.5331C23.637 12.282 23.9759 12.1402 24.3297 12.139C24.6835 12.1377 25.0233 12.2771 25.2744 12.5264C25.5255 12.7757 25.6672 13.1145 25.6685 13.4684C25.6697 13.8222 25.5304 14.162 25.2811 14.4131L19.1611 20.5331C18.4111 21.2821 17.3944 21.7029 16.3344 21.7029C15.2744 21.7029 14.2577 21.2821 13.5077 20.5331Z" fill="#111"/>
</g>
</svg>
