<svg width="298" height="282" viewBox="0 0 298 282" fill="none" xmlns="http://www.w3.org/2000/svg">
<path d="M-6.31985 104.721V-32H110.447V75.9375C110.447 134.376 104.195 176.461 91.6917 202.192C74.3481 237.517 47.3243 264.119 10.6204 282L-16 235.554C5.78035 225.96 21.9139 210.914 32.4008 190.417C43.2909 169.483 49.341 140.918 50.5511 104.721H-6.31985ZM181.233 104.721V-32H298V75.9375C298 134.376 291.748 176.461 279.245 202.192C261.901 237.517 234.877 264.119 198.173 282L171.553 235.554C193.333 225.96 209.467 210.914 219.954 190.417C230.844 169.483 236.894 140.918 238.104 104.721H181.233Z" fill="white" fill-opacity="0.3"/>
</svg>
