<svg width="112" height="112" viewBox="0 0 112 112" fill="none" xmlns="http://www.w3.org/2000/svg">
<path d="M33.9063 88.3387C31.2111 88.3586 28.6184 87.307 26.6986 85.4153C24.7787 83.5236 23.689 80.9468 23.6691 78.2516L23.6349 73.6324C23.6136 70.9492 22.5318 68.3833 20.6258 66.4946L17.3685 63.285C16.4118 62.3477 15.6498 61.2304 15.1264 59.9976C14.603 58.7648 14.3285 57.4406 14.3186 56.1013C14.3087 54.762 14.5636 53.4339 15.0688 52.1934C15.5739 50.953 16.3193 49.8246 17.262 48.8732L20.4715 45.6159C22.3495 43.6993 23.3932 41.1177 23.3749 38.4344L23.3407 33.8152C23.3208 31.12 24.3724 28.5273 26.2641 26.6075C28.1558 24.6876 30.7327 23.5979 33.4278 23.578L38.047 23.5438C40.7303 23.5225 43.2962 22.4407 45.1849 20.5347L48.3944 17.2774C49.3318 16.3207 50.449 15.5587 51.6818 15.0353C52.9147 14.5119 54.2388 14.2374 55.5782 14.2275C56.9175 14.2176 58.2455 14.4725 59.486 14.9777C60.7264 15.4828 61.8548 16.2282 62.8062 17.1709L66.0635 20.3804C67.9802 22.2584 70.5618 23.3021 73.2451 23.2838L77.8642 23.2497C80.5594 23.2297 83.1521 24.2813 85.072 26.173C86.9918 28.0647 88.0816 30.6416 88.1015 33.3367L88.1356 37.9559C88.157 40.6392 89.2387 43.2051 91.1448 45.0938L94.4021 48.3033C95.3588 49.2407 96.1207 50.3579 96.6441 51.5907C97.1675 52.8236 97.4421 54.1477 97.452 55.4871C97.4619 56.8264 97.2069 58.1545 96.7018 59.3949C96.1966 60.6354 95.4513 61.7637 94.5086 62.7151L91.299 65.9724C89.4211 67.8891 88.3774 70.4707 88.3957 73.154L88.4298 77.7731C88.4497 80.4683 87.3981 83.061 85.5064 84.9809C83.6147 86.9007 81.0379 87.9905 78.3427 88.0104L73.7235 88.0445C71.0403 88.0659 68.4744 89.1476 66.5857 91.0537L63.3761 94.311C62.4388 95.2677 61.3215 96.0296 60.0887 96.553C58.8558 97.0764 57.5317 97.351 56.1924 97.3609C54.8531 97.3708 53.525 97.1158 52.2845 96.6107C51.0441 96.1055 49.9157 95.3602 48.9643 94.4175L45.707 91.2079C43.7904 89.33 41.2087 88.2863 38.5255 88.3046L33.9063 88.3387Z" fill="#1A6FFF" stroke="white" stroke-width="1.5" stroke-linecap="round" stroke-linejoin="round"/>
<path d="M39.4926 50.4761V40.2943H43.5693C44.3183 40.2943 44.9431 40.4053 45.4436 40.6274C45.944 40.8494 46.3202 41.1577 46.5721 41.5521C46.824 41.9432 46.95 42.3939 46.95 42.9043C46.95 43.3021 46.8704 43.6517 46.7113 43.9533C46.5522 44.2516 46.3335 44.4969 46.0551 44.6891C45.78 44.8781 45.4651 45.0123 45.1105 45.0918V45.1913C45.4983 45.2078 45.8612 45.3172 46.1993 45.5194C46.5406 45.7216 46.8174 46.005 47.0295 46.3695C47.2416 46.7308 47.3477 47.1617 47.3477 47.6622C47.3477 48.2024 47.2135 48.6846 46.945 49.1089C46.6798 49.5298 46.2871 49.8629 45.7667 50.1082C45.2464 50.3534 44.605 50.4761 43.8427 50.4761H39.4926ZM41.6453 48.7161H43.4002C44.0002 48.7161 44.4377 48.6018 44.7127 48.3731C44.9878 48.1411 45.1254 47.8328 45.1254 47.4484C45.1254 47.1667 45.0574 46.9181 44.9216 46.7026C44.7857 46.4872 44.5918 46.3182 44.3399 46.1955C44.0913 46.0729 43.7947 46.0116 43.45 46.0116H41.6453V48.7161ZM41.6453 44.5549H43.2412C43.5361 44.5549 43.798 44.5035 44.0267 44.4008C44.2587 44.2947 44.441 44.1456 44.5735 43.9533C44.7094 43.7611 44.7774 43.5308 44.7774 43.2623C44.7774 42.8944 44.6465 42.5978 44.3846 42.3724C44.1261 42.147 43.7582 42.0343 43.2809 42.0343H41.6453V44.5549ZM48.7484 50.4761V40.2943H55.6092V42.0691H50.9011V44.4953H55.2563V46.2701H50.9011V48.7012H55.6291V50.4761H48.7484ZM62.8441 43.2225C62.8044 42.8215 62.6337 42.5099 62.3321 42.2879C62.0305 42.0658 61.6211 41.9548 61.1041 41.9548C60.7528 41.9548 60.4561 42.0045 60.2142 42.1039C59.9722 42.2 59.7866 42.3343 59.6574 42.5066C59.5314 42.679 59.4684 42.8745 59.4684 43.0933C59.4618 43.2756 59.4999 43.4346 59.5828 43.5705C59.669 43.7064 59.7866 43.8241 59.9358 43.9235C60.0849 44.0196 60.2573 44.1042 60.4528 44.1771C60.6484 44.2467 60.8572 44.3063 61.0792 44.356L61.994 44.5748C62.4381 44.6742 62.8458 44.8068 63.217 44.9725C63.5882 45.1382 63.9097 45.3421 64.1815 45.584C64.4533 45.826 64.6637 46.111 64.8129 46.4391C64.9654 46.7673 65.0432 47.1435 65.0466 47.5677C65.0432 48.1908 64.8842 48.731 64.5693 49.1884C64.2577 49.6425 63.807 49.9955 63.217 50.2474C62.6304 50.496 61.9227 50.6203 61.0941 50.6203C60.2722 50.6203 59.5563 50.4943 58.9464 50.2424C58.3399 49.9905 57.8659 49.6176 57.5245 49.1238C57.1865 48.6266 57.0092 48.0118 56.9926 47.2793H59.0757C59.0989 47.6207 59.1967 47.9058 59.369 48.1345C59.5447 48.3598 59.7783 48.5305 60.07 48.6465C60.365 48.7592 60.6981 48.8156 61.0693 48.8156C61.4339 48.8156 61.7504 48.7625 62.0189 48.6565C62.2906 48.5504 62.5011 48.4029 62.6502 48.214C62.7994 48.0251 62.874 47.808 62.874 47.5627C62.874 47.334 62.806 47.1418 62.6701 46.986C62.5376 46.8302 62.342 46.6977 62.0835 46.5883C61.8283 46.4789 61.5151 46.3795 61.1439 46.29L60.0352 46.0116C59.1768 45.8028 58.499 45.4763 58.0018 45.0322C57.5047 44.5881 57.2577 43.9898 57.261 43.2374C57.2577 42.621 57.4218 42.0824 57.7532 41.6217C58.088 41.161 58.547 40.8014 59.1304 40.5428C59.7137 40.2843 60.3766 40.1551 61.119 40.1551C61.8747 40.1551 62.5342 40.2843 63.0977 40.5428C63.6645 40.8014 64.1053 41.161 64.4201 41.6217C64.735 42.0824 64.8974 42.616 64.9074 43.2225H62.8441ZM66.1067 42.0691V40.2943H74.469V42.0691H71.3518V50.4761H69.2239V42.0691H66.1067ZM36.3487 59.2943L38.8096 67.0301H38.9041L41.37 59.2943H43.7563L40.2464 69.4761H37.4722L33.9573 59.2943H36.3487ZM45.3833 69.4761H43.0765L46.5914 59.2943H49.3655L52.8755 69.4761H50.5687L48.0182 61.621H47.9387L45.3833 69.4761ZM45.2391 65.4739H50.688V67.1543H45.2391V65.4739ZM54.101 69.4761V59.2943H56.2537V67.7012H60.6187V69.4761H54.101ZM68.3334 59.2943H70.4861V65.9065C70.4861 66.6489 70.3088 67.2985 69.9541 67.8553C69.6028 68.4122 69.1106 68.8463 68.4776 69.1579C67.8445 69.4661 67.1071 69.6203 66.2652 69.6203C65.42 69.6203 64.6809 69.4661 64.0479 69.1579C63.4148 68.8463 62.9227 68.4122 62.5713 67.8553C62.22 67.2985 62.0443 66.6489 62.0443 65.9065V59.2943H64.197V65.7225C64.197 66.1103 64.2816 66.455 64.4506 66.7566C64.6229 67.0582 64.8649 67.2952 65.1764 67.4676C65.488 67.6399 65.8509 67.7261 66.2652 67.7261C66.6828 67.7261 67.0458 67.6399 67.354 67.4676C67.6655 67.2952 67.9058 67.0582 68.0749 66.7566C68.2472 66.455 68.3334 66.1103 68.3334 65.7225V59.2943ZM72.2572 69.4761V59.2943H79.118V61.0691H74.4099V63.4953H78.765V65.2701H74.4099V67.7012H79.1379V69.4761H72.2572Z" fill="white"/>
</svg>
