<svg width="3966" height="519" viewBox="0 0 3966 519" fill="none" xmlns="http://www.w3.org/2000/svg">
<path d="M453.02 183.949H345.396C343.43 170.024 339.417 157.657 333.356 146.845C327.294 135.87 319.513 126.532 310.012 118.833C300.511 111.134 289.536 105.237 277.086 101.141C264.8 97.0461 251.449 94.9984 237.034 94.9984C210.988 94.9984 188.3 101.469 168.97 114.41C149.64 127.188 134.651 145.862 124.003 170.434C113.355 194.842 108.032 224.492 108.032 259.384C108.032 295.259 113.355 325.401 124.003 349.809C134.815 374.217 149.886 392.646 169.215 405.095C188.545 417.545 210.906 423.77 236.297 423.77C250.548 423.77 263.735 421.886 275.857 418.118C288.143 414.351 299.037 408.863 308.538 401.655C318.039 394.284 325.902 385.356 332.127 374.872C338.516 364.388 342.939 352.43 345.396 338.997L453.02 339.488C450.236 362.586 443.274 384.864 432.134 406.324C421.159 427.619 406.334 446.704 387.659 463.576C369.149 480.285 347.034 493.554 321.315 503.383C295.761 513.048 266.848 517.88 234.577 517.88C189.692 517.88 149.558 507.724 114.175 487.411C78.9549 467.098 51.1067 437.694 30.6302 399.198C10.3175 360.702 0.161086 314.097 0.161086 259.384C0.161086 204.507 10.4813 157.82 31.1216 119.325C51.762 80.8286 79.7739 51.5062 115.157 31.3573C150.541 11.0445 190.347 0.888149 234.577 0.888149C263.735 0.888149 290.764 4.98346 315.664 13.1741C340.727 21.3647 362.924 33.323 382.254 49.049C401.583 64.6112 417.309 83.6953 429.432 106.301C441.717 128.908 449.58 154.79 453.02 183.949ZM699.353 518.372C660.53 518.372 627.112 510.509 599.1 494.783C571.252 478.893 549.793 456.45 534.722 427.456C519.651 398.297 512.116 363.815 512.116 324.008C512.116 285.185 519.651 251.112 534.722 221.789C549.793 192.467 571.006 169.615 598.363 153.234C625.884 136.852 658.155 128.662 695.176 128.662C720.076 128.662 743.255 132.675 764.715 140.702C786.338 148.565 805.176 160.441 821.23 176.331C837.447 192.221 850.061 212.206 859.07 236.287C868.08 260.203 872.585 288.215 872.585 320.322V349.071H553.888V284.202H774.052C774.052 269.131 770.776 255.78 764.223 244.15C757.671 232.519 748.579 223.427 736.948 216.875C725.481 210.159 712.131 206.8 696.896 206.8C681.006 206.8 666.919 210.486 654.633 217.858C642.51 225.065 633.009 234.812 626.129 247.098C619.249 259.22 615.727 272.735 615.563 287.642V349.317C615.563 367.992 619.003 384.127 625.884 397.724C632.927 411.32 642.838 421.804 655.615 429.176C668.393 436.547 683.545 440.233 701.073 440.233C712.704 440.233 723.352 438.595 733.017 435.319C742.682 432.042 750.954 427.128 757.834 420.576C764.715 414.023 769.957 405.996 773.56 396.495L870.374 402.884C865.459 426.145 855.385 446.458 840.15 463.822C825.079 481.022 805.586 494.455 781.669 504.12C757.916 513.621 730.478 518.372 699.353 518.372ZM1141.65 133.576V212.206H914.357V133.576H1141.65ZM965.958 43.1518H1070.63V395.021C1070.63 404.686 1072.11 412.221 1075.06 417.627C1078.01 422.869 1082.1 426.555 1087.34 428.684C1092.75 430.814 1098.97 431.879 1106.02 431.879C1110.93 431.879 1115.85 431.469 1120.76 430.65C1125.68 429.667 1129.44 428.93 1132.06 428.439L1148.53 506.331C1143.28 507.969 1135.91 509.853 1126.41 511.983C1116.91 514.276 1105.36 515.669 1091.77 516.16C1066.54 517.143 1044.42 513.785 1025.42 506.086C1006.58 498.386 991.922 486.428 981.438 470.211C970.954 453.993 965.794 433.517 965.958 408.781V43.1518ZM1317.46 518.126C1293.38 518.126 1271.92 513.949 1253.08 505.594C1234.24 497.076 1219.33 484.544 1208.36 467.999C1197.55 451.29 1192.14 430.486 1192.14 405.587C1192.14 384.619 1195.99 367.009 1203.69 352.757C1211.39 338.506 1221.87 327.039 1235.14 318.357C1248.41 309.675 1263.48 303.122 1280.36 298.699C1297.39 294.276 1315.25 291.164 1333.92 289.362C1355.87 287.068 1373.56 284.939 1387 282.973C1400.43 280.844 1410.18 277.731 1416.24 273.636C1422.3 269.541 1425.33 263.479 1425.33 255.453V253.978C1425.33 238.416 1420.41 226.376 1410.59 217.858C1400.92 209.339 1387.16 205.08 1369.31 205.08C1350.47 205.08 1335.48 209.258 1324.34 217.612C1313.2 225.803 1305.83 236.123 1302.22 248.573L1205.41 240.71C1210.33 217.776 1219.99 197.954 1234.41 181.246C1248.82 164.373 1267.41 151.432 1290.18 142.422C1313.12 133.249 1339.66 128.662 1369.8 128.662C1390.76 128.662 1410.83 131.119 1430 136.033C1449.33 140.948 1466.45 148.565 1481.35 158.885C1496.42 169.205 1508.3 182.474 1516.98 198.692C1525.66 214.745 1530.01 233.993 1530.01 256.436V511H1430.73V458.662H1427.79C1421.73 470.456 1413.62 480.859 1403.46 489.868C1393.3 498.714 1381.1 505.676 1366.85 510.754C1352.6 515.669 1336.13 518.126 1317.46 518.126ZM1347.44 445.885C1362.83 445.885 1376.43 442.854 1388.23 436.793C1400.02 430.568 1409.28 422.214 1415.99 411.73C1422.71 401.246 1426.07 389.369 1426.07 376.1V336.048C1422.79 338.178 1418.29 340.144 1412.55 341.946C1406.98 343.584 1400.68 345.14 1393.63 346.614C1386.59 347.925 1379.54 349.153 1372.5 350.3C1365.46 351.283 1359.07 352.184 1353.33 353.003C1341.05 354.805 1330.32 357.672 1321.14 361.603C1311.97 365.535 1304.85 370.858 1299.77 377.575C1294.69 384.127 1292.15 392.318 1292.15 402.147C1292.15 416.398 1297.31 427.292 1307.63 434.827C1318.11 442.199 1331.38 445.885 1347.44 445.885ZM1781.74 518.372C1743.08 518.372 1709.83 510.181 1681.98 493.8C1654.3 477.255 1633 454.321 1618.1 424.998C1603.35 395.676 1595.98 361.931 1595.98 323.762C1595.98 285.103 1603.43 251.194 1618.34 222.035C1633.41 192.712 1654.79 169.861 1682.47 153.479C1710.16 136.934 1743.08 128.662 1781.25 128.662C1814.18 128.662 1843.01 134.641 1867.75 146.599C1892.48 158.558 1912.06 175.348 1926.47 196.972C1940.89 218.595 1948.83 243.986 1950.31 273.144H1851.53C1848.74 254.306 1841.37 239.153 1829.41 227.686C1817.62 216.056 1802.14 210.24 1782.97 210.24C1766.76 210.24 1752.59 214.663 1740.46 223.509C1728.5 232.191 1719.17 244.887 1712.45 261.596C1705.73 278.304 1702.38 298.535 1702.38 322.288C1702.38 346.369 1705.65 366.845 1712.21 383.718C1718.92 400.59 1728.34 413.45 1740.46 422.296C1752.59 431.141 1766.76 435.564 1782.97 435.564C1794.93 435.564 1805.66 433.107 1815.16 428.193C1824.83 423.278 1832.77 416.153 1839 406.815C1845.38 397.314 1849.56 385.929 1851.53 372.66H1950.31C1948.67 401.491 1940.81 426.882 1926.72 448.833C1912.79 470.62 1893.55 487.657 1868.97 499.943C1844.4 512.229 1815.33 518.372 1781.74 518.372ZM2187.86 518.372C2149.69 518.372 2116.68 510.263 2088.83 494.045C2061.15 477.664 2039.77 454.894 2024.7 425.736C2009.63 396.413 2002.09 362.422 2002.09 323.762C2002.09 284.775 2009.63 250.702 2024.7 221.543C2039.77 192.221 2061.15 169.451 2088.83 153.234C2116.68 136.852 2149.69 128.662 2187.86 128.662C2226.02 128.662 2258.95 136.852 2286.63 153.234C2314.48 169.451 2335.94 192.221 2351.01 221.543C2366.08 250.702 2373.62 284.775 2373.62 323.762C2373.62 362.422 2366.08 396.413 2351.01 425.736C2335.94 454.894 2314.48 477.664 2286.63 494.045C2258.95 510.263 2226.02 518.372 2187.86 518.372ZM2188.35 437.284C2205.71 437.284 2220.21 432.37 2231.84 422.541C2243.47 412.549 2252.23 398.952 2258.13 381.752C2264.19 364.552 2267.22 344.976 2267.22 323.025C2267.22 301.074 2264.19 281.499 2258.13 264.299C2252.23 247.098 2243.47 233.502 2231.84 223.509C2220.21 213.517 2205.71 208.52 2188.35 208.52C2170.82 208.52 2156.08 213.517 2144.12 223.509C2132.32 233.502 2123.4 247.098 2117.33 264.299C2111.44 281.499 2108.49 301.074 2108.49 323.025C2108.49 344.976 2111.44 364.552 2117.33 381.752C2123.4 398.952 2132.32 412.549 2144.12 422.541C2156.08 432.37 2170.82 437.284 2188.35 437.284ZM2546.36 292.802V511H2441.68V133.576H2541.44V200.166H2545.87C2554.22 178.215 2568.23 160.851 2587.89 148.074C2607.54 135.132 2631.38 128.662 2659.39 128.662C2685.6 128.662 2708.45 134.395 2727.94 145.862C2747.44 157.329 2762.59 173.71 2773.4 195.006C2784.21 216.138 2789.62 241.365 2789.62 270.687V511H2684.94V289.362C2685.11 266.264 2679.21 248.245 2667.25 235.304C2655.29 222.199 2638.83 215.646 2617.86 215.646C2603.77 215.646 2591.33 218.677 2580.51 224.738C2569.87 230.799 2561.51 239.645 2555.45 251.275C2549.55 262.742 2546.52 276.584 2546.36 292.802ZM3011.2 517.143C2982.53 517.143 2956.57 509.771 2933.3 495.028C2910.21 480.121 2891.86 458.252 2878.26 429.421C2864.83 400.427 2858.11 364.879 2858.11 322.78C2858.11 279.533 2865.08 243.576 2879 214.909C2892.92 186.078 2911.44 164.537 2934.53 150.285C2957.79 135.87 2983.27 128.662 3010.95 128.662C3032.08 128.662 3049.69 132.266 3063.78 139.473C3078.03 146.517 3089.5 155.363 3098.18 166.011C3107.03 176.495 3113.74 186.815 3118.33 196.972H3121.52V7.76827H3225.96V511H3122.75V450.553H3118.33C3113.42 461.037 3106.45 471.439 3097.44 481.759C3088.6 491.916 3077.05 500.352 3062.8 507.069C3048.71 513.785 3031.51 517.143 3011.2 517.143ZM3044.37 433.844C3061.24 433.844 3075.49 429.258 3087.12 420.084C3098.92 410.747 3107.93 397.724 3114.15 381.015C3120.54 364.306 3123.74 344.73 3123.74 322.288C3123.74 299.846 3120.62 280.352 3114.4 263.807C3108.17 247.262 3099.16 234.485 3087.37 225.475C3075.58 216.465 3061.24 211.96 3044.37 211.96C3027.17 211.96 3012.67 216.629 3000.88 225.966C2989.08 235.304 2980.15 248.245 2974.09 264.79C2968.03 281.335 2965 300.501 2965 322.288C2965 344.239 2968.03 363.651 2974.09 380.523C2980.32 397.232 2989.25 410.337 3000.88 419.838C3012.67 429.176 3027.17 433.844 3044.37 433.844ZM3482.55 518.372C3444.38 518.372 3411.37 510.263 3383.52 494.045C3355.84 477.664 3334.46 454.894 3319.39 425.736C3304.32 396.413 3296.78 362.422 3296.78 323.762C3296.78 284.775 3304.32 250.702 3319.39 221.543C3334.46 192.221 3355.84 169.451 3383.52 153.234C3411.37 136.852 3444.38 128.662 3482.55 128.662C3520.72 128.662 3553.64 136.852 3581.33 153.234C3609.17 169.451 3630.63 192.221 3645.7 221.543C3660.77 250.702 3668.31 284.775 3668.31 323.762C3668.31 362.422 3660.77 396.413 3645.7 425.736C3630.63 454.894 3609.17 477.664 3581.33 494.045C3553.64 510.263 3520.72 518.372 3482.55 518.372ZM3483.04 437.284C3500.4 437.284 3514.9 432.37 3526.53 422.541C3538.16 412.549 3546.93 398.952 3552.82 381.752C3558.88 364.552 3561.91 344.976 3561.91 323.025C3561.91 301.074 3558.88 281.499 3552.82 264.299C3546.93 247.098 3538.16 233.502 3526.53 223.509C3514.9 213.517 3500.4 208.52 3483.04 208.52C3465.51 208.52 3450.77 213.517 3438.81 223.509C3427.01 233.502 3418.09 247.098 3412.03 264.299C3406.13 281.499 3403.18 301.074 3403.18 323.025C3403.18 344.976 3406.13 364.552 3412.03 381.752C3418.09 398.952 3427.01 412.549 3438.81 422.541C3450.77 432.37 3465.51 437.284 3483.04 437.284ZM3736.37 511V133.576H3837.86V199.429H3841.79C3848.67 176.004 3860.22 158.312 3876.43 146.354C3892.65 134.231 3911.33 128.17 3932.46 128.17C3937.7 128.17 3943.35 128.498 3949.41 129.153C3955.47 129.809 3960.8 130.709 3965.38 131.856V224.738C3960.47 223.263 3953.67 221.953 3944.99 220.806C3936.31 219.66 3928.36 219.086 3921.15 219.086C3905.76 219.086 3892 222.444 3879.87 229.161C3867.92 235.713 3858.41 244.887 3851.37 256.681C3844.49 268.476 3841.05 282.072 3841.05 297.471V511H3736.37Z" fill="url(#paint0_linear_32_47)" fill-opacity="0.08"/>
<defs>
<linearGradient id="paint0_linear_32_47" x1="1971.5" y1="-159" x2="1971.5" y2="473" gradientUnits="userSpaceOnUse">
<stop offset="0.32497" stop-color="#522867" stop-opacity="0"/>
<stop offset="1" stop-color="#522867"/>
</linearGradient>
</defs>
</svg>
