<svg width="1920" height="476" viewBox="0 0 1920 476" fill="none" xmlns="http://www.w3.org/2000/svg">
<g opacity="0.25">
<line y1="-0.5" x2="805" y2="-0.5" transform="matrix(4.37114e-08 1 1 -4.37114e-08 1007 0)" stroke="white"/>
<line y1="-0.5" x2="805" y2="-0.5" transform="matrix(4.37114e-08 1 1 -4.37114e-08 1007 0)" stroke="white"/>
<line y1="-0.5" x2="805" y2="-0.5" transform="matrix(4.37114e-08 1 1 -4.37114e-08 970 0)" stroke="white"/>
<line y1="-0.5" x2="805" y2="-0.5" transform="matrix(4.37114e-08 1 1 -4.37114e-08 970 0)" stroke="white"/>
<line y1="-0.5" x2="805" y2="-0.5" transform="matrix(4.37114e-08 1 1 -4.37114e-08 933 0)" stroke="white"/>
<line y1="-0.5" x2="805" y2="-0.5" transform="matrix(4.37114e-08 1 1 -4.37114e-08 933 0)" stroke="white"/>
<line y1="-0.5" x2="805" y2="-0.5" transform="matrix(4.37114e-08 1 1 -4.37114e-08 896 0)" stroke="white"/>
<line y1="-0.5" x2="805" y2="-0.5" transform="matrix(4.37114e-08 1 1 -4.37114e-08 896 0)" stroke="white"/>
<line y1="-0.5" x2="805" y2="-0.5" transform="matrix(4.37114e-08 1 1 -4.37114e-08 859 0)" stroke="white"/>
<line y1="-0.5" x2="805" y2="-0.5" transform="matrix(4.37114e-08 1 1 -4.37114e-08 859 0)" stroke="white"/>
<line y1="-0.5" x2="805" y2="-0.5" transform="matrix(4.37114e-08 1 1 -4.37114e-08 822 0)" stroke="white"/>
<line y1="-0.5" x2="805" y2="-0.5" transform="matrix(4.37114e-08 1 1 -4.37114e-08 822 0)" stroke="white"/>
<line y1="-0.5" x2="805" y2="-0.5" transform="matrix(4.37114e-08 1 1 -4.37114e-08 785 0)" stroke="white"/>
<line y1="-0.5" x2="805" y2="-0.5" transform="matrix(4.37114e-08 1 1 -4.37114e-08 785 0)" stroke="white"/>
<line y1="-0.5" x2="805" y2="-0.5" transform="matrix(4.37114e-08 1 1 -4.37114e-08 748 0)" stroke="white"/>
<line y1="-0.5" x2="805" y2="-0.5" transform="matrix(4.37114e-08 1 1 -4.37114e-08 748 0)" stroke="white"/>
<line y1="-0.5" x2="805" y2="-0.5" transform="matrix(4.37114e-08 1 1 -4.37114e-08 711 0)" stroke="white"/>
<line y1="-0.5" x2="805" y2="-0.5" transform="matrix(4.37114e-08 1 1 -4.37114e-08 711 0)" stroke="white"/>
<line y1="-0.5" x2="805" y2="-0.5" transform="matrix(4.37114e-08 1 1 -4.37114e-08 674 0)" stroke="white"/>
<line y1="-0.5" x2="805" y2="-0.5" transform="matrix(4.37114e-08 1 1 -4.37114e-08 674 0)" stroke="white"/>
<line y1="-0.5" x2="805" y2="-0.5" transform="matrix(4.37114e-08 1 1 -4.37114e-08 637 0)" stroke="white"/>
<line y1="-0.5" x2="805" y2="-0.5" transform="matrix(4.37114e-08 1 1 -4.37114e-08 637 0)" stroke="white"/>
<line y1="-0.5" x2="805" y2="-0.5" transform="matrix(4.37114e-08 1 1 -4.37114e-08 600 0)" stroke="white"/>
<line y1="-0.5" x2="805" y2="-0.5" transform="matrix(4.37114e-08 1 1 -4.37114e-08 600 0)" stroke="white"/>
<line y1="-0.5" x2="805" y2="-0.5" transform="matrix(4.37114e-08 1 1 -4.37114e-08 563 0)" stroke="white"/>
<line y1="-0.5" x2="805" y2="-0.5" transform="matrix(4.37114e-08 1 1 -4.37114e-08 563 0)" stroke="white"/>
<line y1="-0.5" x2="805" y2="-0.5" transform="matrix(4.37114e-08 1 1 -4.37114e-08 526 0)" stroke="white"/>
<line y1="-0.5" x2="805" y2="-0.5" transform="matrix(4.37114e-08 1 1 -4.37114e-08 526 0)" stroke="white"/>
<line y1="-0.5" x2="805" y2="-0.5" transform="matrix(4.37114e-08 1 1 -4.37114e-08 489 0)" stroke="white"/>
<line y1="-0.5" x2="805" y2="-0.5" transform="matrix(4.37114e-08 1 1 -4.37114e-08 489 0)" stroke="white"/>
<line y1="-0.5" x2="805" y2="-0.5" transform="matrix(4.37114e-08 1 1 -4.37114e-08 452 0)" stroke="white"/>
<line y1="-0.5" x2="805" y2="-0.5" transform="matrix(4.37114e-08 1 1 -4.37114e-08 452 0)" stroke="white"/>
<line y1="-0.5" x2="805" y2="-0.5" transform="matrix(4.37114e-08 1 1 -4.37114e-08 415 0)" stroke="white"/>
<line y1="-0.5" x2="805" y2="-0.5" transform="matrix(4.37114e-08 1 1 -4.37114e-08 415 0)" stroke="white"/>
<line y1="-0.5" x2="805" y2="-0.5" transform="matrix(4.37114e-08 1 1 -4.37114e-08 380 0)" stroke="white"/>
<line y1="-0.5" x2="805" y2="-0.5" transform="matrix(4.37114e-08 1 1 -4.37114e-08 380 0)" stroke="white"/>
<line y1="-0.5" x2="805" y2="-0.5" transform="matrix(4.37114e-08 1 1 -4.37114e-08 343 0)" stroke="white"/>
<line y1="-0.5" x2="805" y2="-0.5" transform="matrix(4.37114e-08 1 1 -4.37114e-08 343 0)" stroke="white"/>
<line y1="-0.5" x2="805" y2="-0.5" transform="matrix(4.37114e-08 1 1 -4.37114e-08 306 0)" stroke="white"/>
<line y1="-0.5" x2="805" y2="-0.5" transform="matrix(4.37114e-08 1 1 -4.37114e-08 306 0)" stroke="white"/>
<line y1="-0.5" x2="805" y2="-0.5" transform="matrix(4.37114e-08 1 1 -4.37114e-08 269 0)" stroke="white"/>
<line y1="-0.5" x2="805" y2="-0.5" transform="matrix(4.37114e-08 1 1 -4.37114e-08 269 0)" stroke="white"/>
<line y1="-0.5" x2="805" y2="-0.5" transform="matrix(4.37114e-08 1 1 -4.37114e-08 232 0)" stroke="white"/>
<line y1="-0.5" x2="805" y2="-0.5" transform="matrix(4.37114e-08 1 1 -4.37114e-08 232 0)" stroke="white"/>
<line y1="-0.5" x2="805" y2="-0.5" transform="matrix(4.37114e-08 1 1 -4.37114e-08 195 0)" stroke="white"/>
<line y1="-0.5" x2="805" y2="-0.5" transform="matrix(4.37114e-08 1 1 -4.37114e-08 195 0)" stroke="white"/>
<line y1="-0.5" x2="805" y2="-0.5" transform="matrix(4.37114e-08 1 1 -4.37114e-08 158 0)" stroke="white"/>
<line y1="-0.5" x2="805" y2="-0.5" transform="matrix(4.37114e-08 1 1 -4.37114e-08 158 0)" stroke="white"/>
<line y1="-0.5" x2="805" y2="-0.5" transform="matrix(4.37114e-08 1 1 -4.37114e-08 121 0)" stroke="white"/>
<line y1="-0.5" x2="805" y2="-0.5" transform="matrix(4.37114e-08 1 1 -4.37114e-08 121 0)" stroke="white"/>
<line y1="-0.5" x2="805" y2="-0.5" transform="matrix(4.37114e-08 1 1 -4.37114e-08 84 0)" stroke="white"/>
<line y1="-0.5" x2="805" y2="-0.5" transform="matrix(4.37114e-08 1 1 -4.37114e-08 84 0)" stroke="white"/>
<line y1="-0.5" x2="805" y2="-0.5" transform="matrix(4.37114e-08 1 1 -4.37114e-08 47 0)" stroke="white"/>
<line y1="-0.5" x2="805" y2="-0.5" transform="matrix(4.37114e-08 1 1 -4.37114e-08 47 0)" stroke="white"/>
<line y1="-0.5" x2="805" y2="-0.5" transform="matrix(4.37114e-08 1 1 -4.37114e-08 10 0)" stroke="white"/>
<line y1="-0.5" x2="805" y2="-0.5" transform="matrix(4.37114e-08 1 1 -4.37114e-08 10 0)" stroke="white"/>
<line y1="-0.5" x2="981.094" y2="-0.5" transform="matrix(1 -8.74228e-08 -8.74228e-08 -1 25.9062 41.9995)" stroke="white"/>
<line y1="-0.5" x2="981.094" y2="-0.5" transform="matrix(1 -8.74228e-08 -8.74228e-08 -1 25.9062 41.9995)" stroke="white"/>
<line y1="-0.5" x2="981.094" y2="-0.5" transform="matrix(1 -8.74228e-08 -8.74228e-08 -1 25.9062 87.0933)" stroke="white"/>
<line y1="-0.5" x2="981.094" y2="-0.5" transform="matrix(1 -8.74228e-08 -8.74228e-08 -1 25.9062 87.0933)" stroke="white"/>
<line y1="-0.5" x2="981.094" y2="-0.5" transform="matrix(1 -8.74228e-08 -8.74228e-08 -1 25.9062 132.187)" stroke="white"/>
<line y1="-0.5" x2="981.094" y2="-0.5" transform="matrix(1 -8.74228e-08 -8.74228e-08 -1 25.9062 132.187)" stroke="white"/>
<line y1="-0.5" x2="981.094" y2="-0.5" transform="matrix(1 -8.74228e-08 -8.74228e-08 -1 25.9062 177.281)" stroke="white"/>
<line y1="-0.5" x2="981.094" y2="-0.5" transform="matrix(1 -8.74228e-08 -8.74228e-08 -1 25.9062 177.281)" stroke="white"/>
<line y1="-0.5" x2="981.094" y2="-0.5" transform="matrix(1 -8.74228e-08 -8.74228e-08 -1 25.9062 222.375)" stroke="white"/>
<line y1="-0.5" x2="981.094" y2="-0.5" transform="matrix(1 -8.74228e-08 -8.74228e-08 -1 25.9062 222.375)" stroke="white"/>
<line y1="-0.5" x2="981.094" y2="-0.5" transform="matrix(1 -8.74228e-08 -8.74228e-08 -1 25.9062 267.468)" stroke="white"/>
<line y1="-0.5" x2="981.094" y2="-0.5" transform="matrix(1 -8.74228e-08 -8.74228e-08 -1 25.9062 267.468)" stroke="white"/>
<line y1="-0.5" x2="981.094" y2="-0.5" transform="matrix(1 -8.74228e-08 -8.74228e-08 -1 25.9062 312.562)" stroke="white"/>
<line y1="-0.5" x2="981.094" y2="-0.5" transform="matrix(1 -8.74228e-08 -8.74228e-08 -1 25.9062 312.562)" stroke="white"/>
<line y1="-0.5" x2="981.094" y2="-0.5" transform="matrix(1 -8.74228e-08 -8.74228e-08 -1 25.9062 357.656)" stroke="white"/>
<line y1="-0.5" x2="981.094" y2="-0.5" transform="matrix(1 -8.74228e-08 -8.74228e-08 -1 25.9062 357.656)" stroke="white"/>
<line y1="-0.5" x2="981.094" y2="-0.5" transform="matrix(1 -8.74228e-08 -8.74228e-08 -1 25.9062 402.75)" stroke="white"/>
<line y1="-0.5" x2="981.094" y2="-0.5" transform="matrix(1 -8.74228e-08 -8.74228e-08 -1 25.9062 402.75)" stroke="white"/>
<line y1="-0.5" x2="981.094" y2="-0.5" transform="matrix(1 -8.74228e-08 -8.74228e-08 -1 25.9062 447.843)" stroke="white"/>
<line y1="-0.5" x2="981.094" y2="-0.5" transform="matrix(1 -8.74228e-08 -8.74228e-08 -1 25.9062 447.843)" stroke="white"/>
</g>
<g opacity="0.25">
<line x1="1007.5" y1="2.18557e-08" x2="1007.5" y2="805" stroke="white"/>
<line x1="1007.5" y1="2.18557e-08" x2="1007.5" y2="805" stroke="white"/>
<line x1="1044.5" y1="2.18557e-08" x2="1044.5" y2="805" stroke="white"/>
<line x1="1044.5" y1="2.18557e-08" x2="1044.5" y2="805" stroke="white"/>
<line x1="1081.5" y1="2.18557e-08" x2="1081.5" y2="805" stroke="white"/>
<line x1="1081.5" y1="2.18557e-08" x2="1081.5" y2="805" stroke="white"/>
<line x1="1118.5" y1="2.18557e-08" x2="1118.5" y2="805" stroke="white"/>
<line x1="1118.5" y1="2.18557e-08" x2="1118.5" y2="805" stroke="white"/>
<line x1="1155.5" y1="2.18557e-08" x2="1155.5" y2="805" stroke="white"/>
<line x1="1155.5" y1="2.18557e-08" x2="1155.5" y2="805" stroke="white"/>
<line x1="1192.5" y1="2.18557e-08" x2="1192.5" y2="805" stroke="white"/>
<line x1="1192.5" y1="2.18557e-08" x2="1192.5" y2="805" stroke="white"/>
<line x1="1229.5" y1="2.18557e-08" x2="1229.5" y2="805" stroke="white"/>
<line x1="1229.5" y1="2.18557e-08" x2="1229.5" y2="805" stroke="white"/>
<line x1="1266.5" y1="2.18557e-08" x2="1266.5" y2="805" stroke="white"/>
<line x1="1266.5" y1="2.18557e-08" x2="1266.5" y2="805" stroke="white"/>
<line x1="1303.5" y1="2.18557e-08" x2="1303.5" y2="805" stroke="white"/>
<line x1="1303.5" y1="2.18557e-08" x2="1303.5" y2="805" stroke="white"/>
<line x1="1340.5" y1="2.18557e-08" x2="1340.5" y2="805" stroke="white"/>
<line x1="1340.5" y1="2.18557e-08" x2="1340.5" y2="805" stroke="white"/>
<line x1="1377.5" y1="2.18557e-08" x2="1377.5" y2="805" stroke="white"/>
<line x1="1377.5" y1="2.18557e-08" x2="1377.5" y2="805" stroke="white"/>
<line x1="1414.5" y1="2.18557e-08" x2="1414.5" y2="805" stroke="white"/>
<line x1="1414.5" y1="2.18557e-08" x2="1414.5" y2="805" stroke="white"/>
<line x1="1451.5" y1="2.18557e-08" x2="1451.5" y2="805" stroke="white"/>
<line x1="1451.5" y1="2.18557e-08" x2="1451.5" y2="805" stroke="white"/>
<line x1="1488.5" y1="2.18557e-08" x2="1488.5" y2="805" stroke="white"/>
<line x1="1488.5" y1="2.18557e-08" x2="1488.5" y2="805" stroke="white"/>
<line x1="1525.5" y1="2.18557e-08" x2="1525.5" y2="805" stroke="white"/>
<line x1="1525.5" y1="2.18557e-08" x2="1525.5" y2="805" stroke="white"/>
<line x1="1562.5" y1="2.18557e-08" x2="1562.5" y2="805" stroke="white"/>
<line x1="1562.5" y1="2.18557e-08" x2="1562.5" y2="805" stroke="white"/>
<line x1="1599.5" y1="2.18557e-08" x2="1599.5" y2="805" stroke="white"/>
<line x1="1599.5" y1="2.18557e-08" x2="1599.5" y2="805" stroke="white"/>
<line x1="1634.5" y1="2.18557e-08" x2="1634.5" y2="805" stroke="white"/>
<line x1="1634.5" y1="2.18557e-08" x2="1634.5" y2="805" stroke="white"/>
<line x1="1671.5" y1="2.18557e-08" x2="1671.5" y2="805" stroke="white"/>
<line x1="1671.5" y1="2.18557e-08" x2="1671.5" y2="805" stroke="white"/>
<line x1="1708.5" y1="2.18557e-08" x2="1708.5" y2="805" stroke="white"/>
<line x1="1708.5" y1="2.18557e-08" x2="1708.5" y2="805" stroke="white"/>
<line x1="1745.5" y1="2.18557e-08" x2="1745.5" y2="805" stroke="white"/>
<line x1="1745.5" y1="2.18557e-08" x2="1745.5" y2="805" stroke="white"/>
<line x1="1782.5" y1="2.18557e-08" x2="1782.5" y2="805" stroke="white"/>
<line x1="1782.5" y1="2.18557e-08" x2="1782.5" y2="805" stroke="white"/>
<line x1="1819.5" y1="2.18557e-08" x2="1819.5" y2="805" stroke="white"/>
<line x1="1819.5" y1="2.18557e-08" x2="1819.5" y2="805" stroke="white"/>
<line x1="1856.5" y1="2.18557e-08" x2="1856.5" y2="805" stroke="white"/>
<line x1="1856.5" y1="2.18557e-08" x2="1856.5" y2="805" stroke="white"/>
<line x1="1893.5" y1="2.18557e-08" x2="1893.5" y2="805" stroke="white"/>
<line x1="1893.5" y1="2.18557e-08" x2="1893.5" y2="805" stroke="white"/>
<line x1="1988.09" y1="42.4995" x2="1007" y2="42.4994" stroke="white"/>
<line x1="1988.09" y1="42.4995" x2="1007" y2="42.4994" stroke="white"/>
<line x1="1988.09" y1="87.5933" x2="1007" y2="87.5932" stroke="white"/>
<line x1="1988.09" y1="87.5933" x2="1007" y2="87.5932" stroke="white"/>
<line x1="1988.09" y1="132.687" x2="1007" y2="132.687" stroke="white"/>
<line x1="1988.09" y1="132.687" x2="1007" y2="132.687" stroke="white"/>
<line x1="1988.09" y1="177.781" x2="1007" y2="177.781" stroke="white"/>
<line x1="1988.09" y1="177.781" x2="1007" y2="177.781" stroke="white"/>
<line x1="1988.09" y1="222.875" x2="1007" y2="222.874" stroke="white"/>
<line x1="1988.09" y1="222.875" x2="1007" y2="222.874" stroke="white"/>
<line x1="1988.09" y1="267.968" x2="1007" y2="267.968" stroke="white"/>
<line x1="1988.09" y1="267.968" x2="1007" y2="267.968" stroke="white"/>
<line x1="1988.09" y1="313.062" x2="1007" y2="313.062" stroke="white"/>
<line x1="1988.09" y1="313.062" x2="1007" y2="313.062" stroke="white"/>
<line x1="1988.09" y1="358.156" x2="1007" y2="358.156" stroke="white"/>
<line x1="1988.09" y1="358.156" x2="1007" y2="358.156" stroke="white"/>
<line x1="1988.09" y1="403.25" x2="1007" y2="403.249" stroke="white"/>
<line x1="1988.09" y1="403.25" x2="1007" y2="403.249" stroke="white"/>
<line x1="1988.09" y1="448.343" x2="1007" y2="448.343" stroke="white"/>
<line x1="1988.09" y1="448.343" x2="1007" y2="448.343" stroke="white"/>
</g>
</svg>
