<svg width="112" height="112" viewBox="0 0 112 112" fill="none" xmlns="http://www.w3.org/2000/svg">
<path d="M33.9063 88.3387C31.2111 88.3586 28.6184 87.307 26.6986 85.4153C24.7787 83.5236 23.689 80.9468 23.6691 78.2516L23.6349 73.6324C23.6136 70.9492 22.5318 68.3833 20.6258 66.4946L17.3685 63.285C16.4118 62.3477 15.6498 61.2304 15.1264 59.9976C14.603 58.7648 14.3285 57.4406 14.3186 56.1013C14.3087 54.762 14.5636 53.4339 15.0688 52.1934C15.5739 50.953 16.3193 49.8246 17.262 48.8732L20.4715 45.6159C22.3495 43.6993 23.3932 41.1177 23.3749 38.4344L23.3407 33.8152C23.3208 31.12 24.3724 28.5273 26.2641 26.6075C28.1558 24.6876 30.7327 23.5979 33.4278 23.578L38.047 23.5438C40.7303 23.5225 43.2962 22.4407 45.1849 20.5347L48.3944 17.2774C49.3318 16.3207 50.449 15.5587 51.6818 15.0353C52.9147 14.5119 54.2388 14.2374 55.5782 14.2275C56.9175 14.2176 58.2455 14.4725 59.486 14.9777C60.7264 15.4828 61.8548 16.2282 62.8062 17.1709L66.0635 20.3804C67.9802 22.2584 70.5618 23.3021 73.2451 23.2838L77.8642 23.2497C80.5594 23.2297 83.1521 24.2813 85.072 26.173C86.9918 28.0647 88.0816 30.6416 88.1015 33.3367L88.1356 37.9559C88.157 40.6392 89.2387 43.2051 91.1448 45.0938L94.4021 48.3033C95.3588 49.2407 96.1207 50.3579 96.6441 51.5907C97.1675 52.8236 97.4421 54.1477 97.452 55.4871C97.4619 56.8264 97.2069 58.1545 96.7018 59.3949C96.1966 60.6354 95.4513 61.7637 94.5086 62.7151L91.299 65.9724C89.4211 67.8891 88.3774 70.4707 88.3957 73.154L88.4298 77.7731C88.4497 80.4683 87.3981 83.061 85.5064 84.9809C83.6147 86.9007 81.0379 87.9905 78.3427 88.0104L73.7235 88.0445C71.0403 88.0659 68.4744 89.1476 66.5857 91.0537L63.3761 94.311C62.4388 95.2677 61.3215 96.0296 60.0887 96.553C58.8558 97.0764 57.5317 97.351 56.1924 97.3609C54.8531 97.3708 53.525 97.1158 52.2845 96.6107C51.0441 96.1055 49.9157 95.3602 48.9643 94.4175L45.707 91.2079C43.7904 89.33 41.2087 88.2863 38.5255 88.3046L33.9063 88.3387Z" fill="#1A6FFF" stroke="white" stroke-width="1.5" stroke-linecap="round" stroke-linejoin="round"/>
<path d="M43.0516 43.5854C42.982 43.3435 42.8842 43.1297 42.7583 42.9441C42.6323 42.7552 42.4782 42.5961 42.2959 42.4668C42.1169 42.3343 41.9114 42.2332 41.6794 42.1636C41.4507 42.094 41.1972 42.0592 40.9188 42.0592C40.3984 42.0592 39.941 42.1884 39.5466 42.447C39.1555 42.7055 38.8506 43.0817 38.6318 43.5755C38.4131 44.066 38.3037 44.6659 38.3037 45.3752C38.3037 46.0845 38.4114 46.6877 38.6269 47.1849C38.8423 47.682 39.1472 48.0615 39.5416 48.3234C39.9361 48.5819 40.4017 48.7112 40.9387 48.7112C41.4259 48.7112 41.8418 48.625 42.1865 48.4526C42.5345 48.277 42.7997 48.0301 42.982 47.7119C43.1676 47.3937 43.2604 47.0175 43.2604 46.5833L43.6979 46.6479H41.0729V45.0272H45.3335V46.3099C45.3335 47.2048 45.1446 47.9737 44.7668 48.6167C44.3889 49.2564 43.8686 49.7502 43.2057 50.0982C42.5428 50.4429 41.7838 50.6153 40.9287 50.6153C39.9742 50.6153 39.1356 50.4048 38.4131 49.9839C37.6906 49.5596 37.1271 48.9581 36.7228 48.1792C36.3217 47.397 36.1212 46.469 36.1212 45.3951C36.1212 44.5698 36.2405 43.834 36.4791 43.1877C36.7211 42.5381 37.0592 41.9879 37.4933 41.5372C37.9275 41.0864 38.433 40.7434 39.0097 40.508C39.5864 40.2727 40.2112 40.1551 40.884 40.1551C41.4607 40.1551 41.9976 40.2396 42.4948 40.4086C42.9919 40.5743 43.4327 40.8096 43.8172 41.1146C44.205 41.4195 44.5215 41.7824 44.7668 42.2033C45.0121 42.621 45.1695 43.0817 45.2391 43.5854H43.0516ZM56.3071 45.3852C56.3071 46.4955 56.0966 47.4401 55.6757 48.219C55.2581 48.9979 54.688 49.5928 53.9655 50.0038C53.2462 50.4114 52.4375 50.6153 51.5393 50.6153C50.6345 50.6153 49.8225 50.4098 49.1033 49.9988C48.384 49.5878 47.8156 48.9929 47.398 48.214C46.9804 47.4351 46.7716 46.4922 46.7716 45.3852C46.7716 44.2748 46.9804 43.3302 47.398 42.5514C47.8156 41.7725 48.384 41.1792 49.1033 40.7715C49.8225 40.3605 50.6345 40.1551 51.5393 40.1551C52.4375 40.1551 53.2462 40.3605 53.9655 40.7715C54.688 41.1792 55.2581 41.7725 55.6757 42.5514C56.0966 43.3302 56.3071 44.2748 56.3071 45.3852ZM54.1246 45.3852C54.1246 44.6659 54.0168 44.0594 53.8014 43.5656C53.5893 43.0717 53.2893 42.6972 52.9016 42.442C52.5138 42.1868 52.0597 42.0592 51.5393 42.0592C51.019 42.0592 50.5649 42.1868 50.1771 42.442C49.7893 42.6972 49.4877 43.0717 49.2723 43.5656C49.0602 44.0594 48.9541 44.6659 48.9541 45.3852C48.9541 46.1044 49.0602 46.7109 49.2723 47.2048C49.4877 47.6986 49.7893 48.0731 50.1771 48.3283C50.5649 48.5836 51.019 48.7112 51.5393 48.7112C52.0597 48.7112 52.5138 48.5836 52.9016 48.3283C53.2893 48.0731 53.5893 47.6986 53.8014 47.2048C54.0168 46.7109 54.1246 46.1044 54.1246 45.3852ZM67.2583 45.3852C67.2583 46.4955 67.0478 47.4401 66.6269 48.219C66.2093 48.9979 65.6392 49.5928 64.9166 50.0038C64.1974 50.4114 63.3887 50.6153 62.4905 50.6153C61.5857 50.6153 60.7737 50.4098 60.0544 49.9988C59.3352 49.5878 58.7668 48.9929 58.3492 48.214C57.9316 47.4351 57.7228 46.4922 57.7228 45.3852C57.7228 44.2748 57.9316 43.3302 58.3492 42.5514C58.7668 41.7725 59.3352 41.1792 60.0544 40.7715C60.7737 40.3605 61.5857 40.1551 62.4905 40.1551C63.3887 40.1551 64.1974 40.3605 64.9166 40.7715C65.6392 41.1792 66.2093 41.7725 66.6269 42.5514C67.0478 43.3302 67.2583 44.2748 67.2583 45.3852ZM65.0757 45.3852C65.0757 44.6659 64.968 44.0594 64.7526 43.5656C64.5405 43.0717 64.2405 42.6972 63.8527 42.442C63.4649 42.1868 63.0109 42.0592 62.4905 42.0592C61.9701 42.0592 61.5161 42.1868 61.1283 42.442C60.7405 42.6972 60.4389 43.0717 60.2235 43.5656C60.0113 44.0594 59.9053 44.6659 59.9053 45.3852C59.9053 46.1044 60.0113 46.7109 60.2235 47.2048C60.4389 47.6986 60.7405 48.0731 61.1283 48.3283C61.5161 48.5836 61.9701 48.7112 62.4905 48.7112C63.0109 48.7112 63.4649 48.5836 63.8527 48.3283C64.2405 48.0731 64.5405 47.6986 64.7526 47.2048C64.968 46.7109 65.0757 46.1044 65.0757 45.3852ZM72.4623 50.4761H68.8529V40.2943H72.4921C73.5163 40.2943 74.3979 40.4981 75.137 40.9058C75.8761 41.3101 76.4445 41.8918 76.8422 42.6508C77.2433 43.4098 77.4438 44.3179 77.4438 45.3752C77.4438 46.4358 77.2433 47.3473 76.8422 48.1096C76.4445 48.8719 75.8728 49.4569 75.127 49.8646C74.3846 50.2722 73.4964 50.4761 72.4623 50.4761ZM71.0056 48.6316H72.3728C73.0091 48.6316 73.5444 48.5189 73.9786 48.2935C74.4161 48.0649 74.7442 47.7119 74.963 47.2346C75.185 46.754 75.2961 46.1342 75.2961 45.3752C75.2961 44.6229 75.185 44.008 74.963 43.5308C74.7442 43.0535 74.4178 42.7022 73.9836 42.4768C73.5494 42.2514 73.0141 42.1387 72.3778 42.1387H71.0056V48.6316ZM36.3486 59.2943L38.8096 67.0301H38.904L41.3699 59.2943H43.7563L40.2464 69.4761H37.4722L33.9573 59.2943H36.3486ZM45.3833 69.4761H43.0764L46.5914 59.2943H49.3655L52.8754 69.4761H50.5686L48.0182 61.621H47.9387L45.3833 69.4761ZM45.2391 65.4739H50.6879V67.1543H45.2391V65.4739ZM54.1009 69.4761V59.2943H56.2536V67.7012H60.6187V69.4761H54.1009ZM68.3334 59.2943H70.4861V65.9065C70.4861 66.6489 70.3087 67.2985 69.9541 67.8553C69.6028 68.4122 69.1106 68.8463 68.4775 69.1579C67.8445 69.4661 67.107 69.6203 66.2652 69.6203C65.42 69.6203 64.6809 69.4661 64.0479 69.1579C63.4148 68.8463 62.9226 68.4122 62.5713 67.8553C62.22 67.2985 62.0443 66.6489 62.0443 65.9065V59.2943H64.197V65.7225C64.197 66.1103 64.2815 66.455 64.4506 66.7566C64.6229 67.0582 64.8649 67.2952 65.1764 67.4676C65.488 67.6399 65.8509 67.7261 66.2652 67.7261C66.6828 67.7261 67.0457 67.6399 67.354 67.4676C67.6655 67.2952 67.9058 67.0582 68.0748 66.7566C68.2472 66.455 68.3334 66.1103 68.3334 65.7225V59.2943ZM72.2572 69.4761V59.2943H79.118V61.0691H74.4099V63.4953H78.765V65.2701H74.4099V67.7012H79.1379V69.4761H72.2572Z" fill="white"/>
</svg>
