<svg width="56" height="56" viewBox="0 0 56 56" fill="none" xmlns="http://www.w3.org/2000/svg">
<circle cx="28" cy="28" r="28" fill="#1b4929"/>
<path fill-rule="evenodd" clip-rule="evenodd" d="M34.6667 40H21.3333C19.86 40 18.6667 38.8067 18.6667 37.3333V26.6667C18.6667 25.1933 19.86 24 21.3333 24H34.6667C36.14 24 37.3333 25.1933 37.3333 26.6667V37.3333C37.3333 38.8067 36.14 40 34.6667 40Z" stroke="white" stroke-width="1.5" stroke-linecap="round" stroke-linejoin="round"/>
<path d="M28 34.7867V31.3333" stroke="white" stroke-width="1.5" stroke-linecap="round" stroke-linejoin="round"/>
<path d="M28.707 29.6263C29.0976 30.0168 29.0976 30.65 28.707 31.0405C28.3165 31.431 27.6834 31.431 27.2928 31.0405C26.9023 30.65 26.9023 30.0168 27.2928 29.6263C27.6834 29.2357 28.3165 29.2357 28.707 29.6263" stroke="white" stroke-width="1.5" stroke-linecap="round" stroke-linejoin="round"/>
<path d="M22.6667 24V21.3333V21.3333C22.6667 18.388 25.0547 16 28 16V16C30.9453 16 33.3333 18.388 33.3333 21.3333V21.3333V24" stroke="white" stroke-width="1.5" stroke-linecap="round" stroke-linejoin="round"/>
</svg>
