<svg width="40" height="40" viewBox="0 0 40 40" fill="none" xmlns="http://www.w3.org/2000/svg">
<circle cx="20" cy="20" r="20" fill="#DCB63B"/>
<path d="M14.6974 22.3714L11.5714 25.5714L14.0714 27.0714L15.5714 29.5714L19.4704 25.4764" stroke="white" stroke-width="1.5" stroke-linecap="round" stroke-linejoin="round"/>
<path d="M21.6724 25.4764L25.5714 29.5714L27.0714 27.0714L29.5714 25.5714L26.4454 22.3714" stroke="white" stroke-width="1.5" stroke-linecap="round" stroke-linejoin="round"/>
<path d="M25.5211 13.6217C28.2548 16.3553 28.2548 20.7875 25.5211 23.5212C22.7875 26.2548 18.3553 26.2548 15.6216 23.5212C12.888 20.7875 12.888 16.3553 15.6216 13.6217C18.3553 10.888 22.7875 10.888 25.5211 13.6217" stroke="white" stroke-width="1.5" stroke-linecap="round" stroke-linejoin="round"/>
<path fill-rule="evenodd" clip-rule="evenodd" d="M20.5704 21.1554L22.3674 22.0994C22.7174 22.2834 23.1264 21.9864 23.0594 21.5964L22.7164 19.5954L24.1704 18.1794C24.4534 17.9034 24.2974 17.4224 23.9064 17.3654L21.8974 17.0734L20.9994 15.2524C20.8244 14.8974 20.3194 14.8974 20.1444 15.2524L19.2464 17.0734L17.2364 17.3664C16.8454 17.4234 16.6894 17.9044 16.9724 18.1804L18.4264 19.5964L18.0834 21.5974C18.0164 21.9874 18.4254 22.2844 18.7754 22.1004L20.5724 21.1564H20.5704V21.1554Z" stroke="white" stroke-width="1.5" stroke-linecap="round" stroke-linejoin="round"/>
</svg>
