<svg width="56" height="56" viewBox="0 0 56 56" fill="none" xmlns="http://www.w3.org/2000/svg">
<circle cx="28" cy="28" r="28" fill="#1B4929"/>
<path d="M35.8213 35.3453C36.5435 36.0675 36.5435 37.2377 35.8213 37.9587C35.0992 38.6808 33.929 38.6808 33.208 37.9587C32.4858 37.2365 32.4858 36.0663 33.208 35.3453C33.9302 34.6232 35.1003 34.6232 35.8213 35.3453" stroke="white" stroke-width="1.5" stroke-linecap="round" stroke-linejoin="round"/>
<path d="M22.988 35.3454C23.7102 36.0675 23.7102 37.2377 22.988 37.9587C22.2658 38.6809 21.0957 38.6809 20.3747 37.9587C19.6537 37.2365 19.6525 36.0664 20.3747 35.3454C21.0968 34.6244 22.2658 34.6232 22.988 35.3454" stroke="white" stroke-width="1.5" stroke-linecap="round" stroke-linejoin="round"/>
<path d="M25.6667 18.6667H30.3333C30.9773 18.6667 31.5 19.1894 31.5 19.8334V31.5H16.3333" stroke="white" stroke-width="1.5" stroke-linecap="round" stroke-linejoin="round"/>
<path d="M19.8333 36.652H17.5C16.856 36.652 16.3333 36.1294 16.3333 35.4854V29.1667" stroke="white" stroke-width="1.5" stroke-linecap="round" stroke-linejoin="round"/>
<path d="M31.5 22.1667H36.5435C37.0207 22.1667 37.45 22.4572 37.6262 22.9005L39.4998 27.5835C39.6095 27.8589 39.6667 28.1529 39.6667 28.4492V35.3885C39.6667 36.0325 39.144 36.5552 38.5 36.5552H36.3638" stroke="white" stroke-width="1.5" stroke-linecap="round" stroke-linejoin="round"/>
<path d="M32.6667 36.6567H23.5317" stroke="white" stroke-width="1.5" stroke-linecap="round" stroke-linejoin="round"/>
<path d="M39.6667 30.3334H35V25.6667H38.7333" stroke="white" stroke-width="1.5" stroke-linecap="round" stroke-linejoin="round"/>
<path d="M16.3333 18.6667H22.1667" stroke="white" stroke-width="1.5" stroke-linecap="round" stroke-linejoin="round"/>
<path d="M16.3333 22.1667H19.8333" stroke="white" stroke-width="1.5" stroke-linecap="round" stroke-linejoin="round"/>
<path d="M17.5 25.6667H16.3333" stroke="white" stroke-width="1.5" stroke-linecap="round" stroke-linejoin="round"/>
</svg>
