<svg width="32" height="32" viewBox="0 0 32 32" fill="none" xmlns="http://www.w3.org/2000/svg">
<path d="M11.3314 13.3322C11.3314 15.9106 13.4216 18.0008 16 18.0008V18.0008C18.5784 18.0008 20.6686 15.9106 20.6686 13.3322" stroke="#0E0703" stroke-width="2" stroke-linecap="round" stroke-linejoin="round"/>
<path d="M11.3314 9.33055V8.66361C11.3314 6.0852 13.4216 3.995 16 3.995V3.995C18.5784 3.995 20.6686 6.0852 20.6686 8.66361V9.33055" stroke="#0E0703" stroke-width="2" stroke-linecap="round" stroke-linejoin="round"/>
<path fill-rule="evenodd" clip-rule="evenodd" d="M8.61566 9.33055C7.20693 9.33055 6.04103 10.4259 5.95315 11.8319L5.34089 21.6281C5.23754 23.2818 5.82238 24.9047 6.95689 26.1124C8.09141 27.32 9.67466 28.005 11.3316 28.005H20.6684C22.3254 28.005 23.9086 27.32 25.0432 26.1124C26.1777 24.9047 26.7625 23.2818 26.6592 21.6281L26.0469 11.8319C25.9591 10.4259 24.7931 9.33055 23.3844 9.33055H8.61566Z" stroke="#0E0703" stroke-width="2" stroke-linecap="round" stroke-linejoin="round"/>
</svg>
