<svg width="40" height="40" viewBox="0 0 40 40" fill="none" xmlns="http://www.w3.org/2000/svg">
<circle cx="20" cy="20" r="20" fill="#F08129"/>
<path d="M14.4057 21.7143L11.4286 24.7619L13.8095 26.1905L15.2381 28.5714L18.9514 24.6714" stroke="white" stroke-width="1.07143" stroke-linecap="round" stroke-linejoin="round"/>
<path d="M21.0486 24.6714L24.7619 28.5714L26.1905 26.1905L28.5714 24.7619L25.5943 21.7143" stroke="white" stroke-width="1.07143" stroke-linecap="round" stroke-linejoin="round"/>
<path d="M24.714 13.3812C27.3175 15.9847 27.3175 20.2058 24.714 22.8093C22.1105 25.4128 17.8894 25.4128 15.2859 22.8093C12.6824 20.2058 12.6824 15.9847 15.2859 13.3812C17.8894 10.7777 22.1105 10.7777 24.714 13.3812" stroke="white" stroke-width="1.07143" stroke-linecap="round" stroke-linejoin="round"/>
<path fill-rule="evenodd" clip-rule="evenodd" d="M19.999 20.5562L21.7105 21.4552C22.0438 21.6305 22.4333 21.3476 22.3695 20.9762L22.0428 19.0705L23.4276 17.7219C23.6971 17.459 23.5486 17.001 23.1762 16.9467L21.2628 16.6686L20.4076 14.9343C20.2409 14.5962 19.76 14.5962 19.5933 14.9343L18.7381 16.6686L16.8238 16.9476C16.4514 17.0019 16.3028 17.46 16.5724 17.7229L17.9571 19.0714L17.6305 20.9771C17.5667 21.3486 17.9562 21.6314 18.2895 21.4562L20.0009 20.5571H19.999V20.5562Z" stroke="white" stroke-width="1.07143" stroke-linecap="round" stroke-linejoin="round"/>
</svg>
