<svg width="32" height="33" viewBox="0 0 32 33" fill="none" xmlns="http://www.w3.org/2000/svg">
<path d="M28 16.5C28 9.884 22.616 4.5 16 4.5C9.38267 4.5 4 9.88267 4 16.5" stroke="#FF1F1F" stroke-width="2" stroke-linecap="round" stroke-linejoin="round"/>
<path d="M16 28.5C22.6173 28.5 28 23.116 28 16.5" stroke="#FF1F1F" stroke-width="2" stroke-linecap="round" stroke-linejoin="round"/>
<path d="M4 16.5C4 23.1173 9.38267 28.5 16 28.5" stroke="#FF1F1F" stroke-width="2" stroke-linecap="round" stroke-linejoin="round"/>
<path d="M20.4373 13.1934C20.2533 13.1934 20.104 13.3428 20.1053 13.5268C20.1053 13.7108 20.2546 13.8601 20.4386 13.8601C20.6226 13.8601 20.772 13.7108 20.772 13.5268C20.772 13.3428 20.6226 13.1934 20.4373 13.1934" stroke="#FF1F1F" stroke-width="2" stroke-linecap="round" stroke-linejoin="round"/>
<path d="M11.5187 13.1666C11.3347 13.1666 11.1853 13.3159 11.1867 13.4999C11.1867 13.6839 11.336 13.8333 11.52 13.8333C11.704 13.8333 11.8533 13.6839 11.8533 13.4999C11.8533 13.3159 11.704 13.1666 11.5187 13.1666" stroke="#FF1F1F" stroke-width="2" stroke-linecap="round" stroke-linejoin="round"/>
<path d="M11.3333 21.8333C11.3333 21.8333 13.084 20.084 16 20.084C18.9173 20.084 20.6666 21.8333 20.6666 21.8333" stroke="#FF1F1F" stroke-width="2" stroke-linecap="round" stroke-linejoin="round"/>
</svg>
