<svg width="40" height="40" viewBox="0 0 40 40" fill="none" xmlns="http://www.w3.org/2000/svg">
<circle cx="20" cy="20" r="20" fill="#1FA2FF"/>
<mask id="mask0_32071_421" style="mask-type:luminance" maskUnits="userSpaceOnUse" x="6" y="6" width="28" height="28">
<path d="M6 6H34V34H6V6Z" fill="white"/>
</mask>
<g mask="url(#mask0_32071_421)">
<path d="M17.3597 14.13C16.4875 14.1467 15.7669 13.4532 15.7502 12.581" stroke="white" stroke-width="0.820312" stroke-miterlimit="10" stroke-linecap="round" stroke-linejoin="round"/>
<path d="M15.1518 21.0812C15.0209 20.1361 15.5047 19.2102 16.3781 18.8683" stroke="white" stroke-width="0.820312" stroke-miterlimit="10" stroke-linecap="round" stroke-linejoin="round"/>
<path d="M16.8916 15.0995C16.8916 14.4157 17.4459 13.8614 18.1297 13.8614" stroke="white" stroke-width="0.820312" stroke-miterlimit="10" stroke-linecap="round" stroke-linejoin="round"/>
<path d="M18.1296 20.6015C18.1296 20.0851 18.5483 19.6664 19.0648 19.6664C19.5812 19.6664 19.9999 20.0851 19.9999 20.6015V21.5366" stroke="white" stroke-width="0.820312" stroke-miterlimit="10" stroke-linecap="round" stroke-linejoin="round"/>
<path d="M16.4515 17.1065C17.0756 16.9197 17.7329 17.2743 17.9196 17.8983" stroke="white" stroke-width="0.820312" stroke-miterlimit="10" stroke-linecap="round" stroke-linejoin="round"/>
<path d="M17.3617 17.2051C17.4912 16.8839 17.7603 16.6224 18.1178 16.5155" stroke="white" stroke-width="0.820312" stroke-miterlimit="10" stroke-linecap="round" stroke-linejoin="round"/>
<path d="M18.5825 12.4659C19.0766 12.1771 19.7112 12.3435 19.9999 12.8376" stroke="white" stroke-width="0.820312" stroke-miterlimit="10" stroke-linecap="round" stroke-linejoin="round"/>
<path d="M22.6403 14.13C23.5124 14.1467 24.233 13.4532 24.2497 12.581" stroke="white" stroke-width="0.820312" stroke-miterlimit="10" stroke-linecap="round" stroke-linejoin="round"/>
<path d="M24.8482 21.0812C24.9791 20.1361 24.4953 19.2102 23.6219 18.8683" stroke="white" stroke-width="0.820312" stroke-miterlimit="10" stroke-linecap="round" stroke-linejoin="round"/>
<path d="M23.1084 15.0995C23.1084 14.4157 22.5541 13.8614 21.8702 13.8614" stroke="white" stroke-width="0.820312" stroke-miterlimit="10" stroke-linecap="round" stroke-linejoin="round"/>
<path d="M21.8703 20.6015C21.8703 20.0851 21.4516 19.6664 20.9351 19.6664C20.4187 19.6664 20 20.0851 20 20.6015V21.5366" stroke="white" stroke-width="0.820312" stroke-miterlimit="10" stroke-linecap="round" stroke-linejoin="round"/>
<path d="M23.5484 17.1065C22.9244 16.9197 22.2671 17.2743 22.0803 17.8983" stroke="white" stroke-width="0.820312" stroke-miterlimit="10" stroke-linecap="round" stroke-linejoin="round"/>
<path d="M22.6382 17.2051C22.5087 16.8839 22.2396 16.6224 21.8821 16.5155" stroke="white" stroke-width="0.820312" stroke-miterlimit="10" stroke-linecap="round" stroke-linejoin="round"/>
<path d="M21.4174 12.4659C20.9233 12.1771 20.2887 12.3435 20 12.8376" stroke="white" stroke-width="0.820312" stroke-miterlimit="10" stroke-linecap="round" stroke-linejoin="round"/>
<path d="M25.5478 8.13473C23.9698 7.04595 22.0562 6.40884 19.9937 6.41016C14.5971 6.41355 10.2194 10.7943 10.2194 16.1909C10.2194 18.8258 11.2616 21.2171 12.9561 22.9756C14.1989 24.2653 15.0997 25.8256 15.6178 27.5148" stroke="white" stroke-width="0.820312" stroke-miterlimit="10" stroke-linecap="round" stroke-linejoin="round"/>
<path d="M24.3936 27.5154C24.9291 25.8065 25.8586 24.2302 27.1093 22.907C28.7652 21.1552 29.7805 18.7916 29.7805 16.1907C29.7805 13.5365 28.7233 11.1293 27.007 9.36712" stroke="white" stroke-width="0.820312" stroke-miterlimit="10" stroke-linecap="round" stroke-linejoin="round"/>
<path d="M15.6469 29.5388C15.0876 29.5388 14.6342 29.0854 14.6342 28.5261C14.6342 27.9667 15.0876 27.5133 15.6469 27.5133H24.3529C24.9122 27.5133 25.3656 27.9667 25.3656 28.5261C25.3656 29.0854 24.9122 29.5388 24.3529 29.5388" stroke="white" stroke-width="0.820312" stroke-miterlimit="10" stroke-linecap="round" stroke-linejoin="round"/>
<path d="M18.6984 29.5388H24.3529C24.9122 29.5388 25.3657 29.9923 25.3657 30.5516C25.3657 31.1109 24.9122 31.5643 24.3529 31.5643H15.6469C15.0876 31.5643 14.6342 31.1109 14.6342 30.5516C14.6342 29.9923 15.0876 29.5388 15.6469 29.5388H16.781" stroke="white" stroke-width="0.820312" stroke-miterlimit="10" stroke-linecap="round" stroke-linejoin="round"/>
<path d="M23.7228 33.5898H16.2772C15.7178 33.5898 15.2644 33.1364 15.2644 32.5771C15.2644 32.0177 15.7178 31.5643 16.2772 31.5643H23.7228C24.2822 31.5643 24.7356 32.0177 24.7356 32.5771C24.7356 33.1364 24.2822 33.5898 23.7228 33.5898Z" stroke="white" stroke-width="0.820312" stroke-miterlimit="10" stroke-linecap="round" stroke-linejoin="round"/>
<path d="M20 11.2001C20 10.5806 19.5188 10.0552 18.8998 10.0296C18.882 10.0289 18.8642 10.0285 18.8462 10.0285C18.3004 10.0285 17.8418 10.3712 17.7102 10.8355C17.6705 10.9758 17.5291 11.0715 17.3715 11.0714H17.3683C16.4743 11.0714 15.7494 11.7382 15.7494 12.5609C15.7494 12.6408 15.7564 12.7193 15.7696 12.7958C15.7947 12.9405 15.7133 13.0841 15.5663 13.1404C14.8998 13.3953 14.4311 13.9998 14.4311 14.7053C14.4311 14.9246 14.4764 15.1341 14.5588 15.3265C14.6066 15.438 14.5826 15.5655 14.4943 15.6538C14.1704 15.9775 13.9724 16.4095 13.9724 16.8843C13.9724 17.3154 14.1357 17.7112 14.4082 18.0229C14.4943 18.1215 14.5092 18.2567 14.446 18.369C14.3049 18.6193 14.2397 18.9039 14.225 19.205C14.1947 19.8238 14.6054 20.2994 14.8819 20.5473C15.0295 20.6797 15.1189 20.8553 15.1466 21.0432C15.3084 22.1411 16.3314 22.9874 17.5691 22.9874C17.6524 22.9874 17.7347 22.9834 17.8158 22.9757C17.8797 22.9697 17.9438 22.9808 18.0016 23.0066C18.1859 23.0886 18.3925 23.1348 18.611 23.1348C19.182 23.1348 19.6732 22.8208 19.8921 22.3703C19.9663 22.2176 20 22.0485 20 21.8788V11.2001Z" stroke="white" stroke-width="0.820312" stroke-miterlimit="10" stroke-linecap="round" stroke-linejoin="round"/>
<path d="M20 11.2001C20 10.5806 20.4812 10.0552 21.1003 10.0296C21.118 10.0289 21.1359 10.0285 21.1539 10.0285C21.6996 10.0285 22.1582 10.3712 22.2898 10.8355C22.3295 10.9758 22.4709 11.0715 22.6286 11.0714H22.6317C23.5258 11.0714 24.2506 11.7382 24.2506 12.5609C24.2506 12.6408 24.2436 12.7193 24.2304 12.7958C24.2053 12.9405 24.2867 13.0841 24.4337 13.1404C25.1002 13.3953 25.5689 13.9998 25.5689 14.7053C25.5689 14.9246 25.5237 15.1341 25.4412 15.3265C25.3934 15.438 25.4174 15.5655 25.5057 15.6538C25.8296 15.9775 26.0276 16.4095 26.0276 16.8843C26.0276 17.3154 25.8644 17.7112 25.5919 18.0229C25.5057 18.1215 25.4908 18.2567 25.5541 18.369C25.6951 18.6193 25.7603 18.9039 25.7751 19.205C25.8053 19.8238 25.3946 20.2994 25.1181 20.5473C24.9705 20.6797 24.8811 20.8553 24.8535 21.0432C24.6916 22.1411 23.6687 22.9874 22.4309 22.9874C22.3476 22.9874 22.2653 22.9834 22.1842 22.9757C22.1203 22.9697 22.0562 22.9808 21.9984 23.0066C21.8141 23.0886 21.6075 23.1348 21.389 23.1348C20.818 23.1348 20.3268 22.8208 20.108 22.3703C20.0338 22.2176 20 22.0485 20 21.8788" stroke="white" stroke-width="0.820312" stroke-miterlimit="10" stroke-linecap="round" stroke-linejoin="round"/>
</g>
</svg>
