<svg width="40" height="40" viewBox="0 0 40 40" fill="none" xmlns="http://www.w3.org/2000/svg">
<circle cx="20" cy="20" r="20" fill="#1FA2FF"/>
<g clip-path="url(#clip0_32078_23)">
<mask id="mask0_32078_23" style="mask-type:luminance" maskUnits="userSpaceOnUse" x="6" y="6" width="28" height="28">
<path d="M5.99997 6H34V34H5.99997V6Z" fill="white"/>
</mask>
<g mask="url(#mask0_32078_23)">
<path d="M17.3596 14.1298C16.4874 14.1466 15.7668 13.4531 15.7502 12.5809" stroke="white" stroke-width="0.820312" stroke-miterlimit="10" stroke-linecap="round" stroke-linejoin="round"/>
<path d="M15.1517 21.0813C15.0208 20.1362 15.5046 19.2103 16.378 18.8684" stroke="white" stroke-width="0.820312" stroke-miterlimit="10" stroke-linecap="round" stroke-linejoin="round"/>
<path d="M16.8914 15.0996C16.8914 14.4158 17.4458 13.8615 18.1296 13.8615" stroke="white" stroke-width="0.820312" stroke-miterlimit="10" stroke-linecap="round" stroke-linejoin="round"/>
<path d="M18.1296 20.6015C18.1296 20.0851 18.5483 19.6664 19.0648 19.6664C19.5812 19.6664 19.9999 20.0851 19.9999 20.6015V21.5366" stroke="white" stroke-width="0.820312" stroke-miterlimit="10" stroke-linecap="round" stroke-linejoin="round"/>
<path d="M16.4514 17.1064C17.0754 16.9196 17.7327 17.2742 17.9195 17.8982" stroke="white" stroke-width="0.820312" stroke-miterlimit="10" stroke-linecap="round" stroke-linejoin="round"/>
<path d="M17.3616 17.2051C17.4911 16.8839 17.7602 16.6224 18.1177 16.5155" stroke="white" stroke-width="0.820312" stroke-miterlimit="10" stroke-linecap="round" stroke-linejoin="round"/>
<path d="M18.5824 12.4659C19.0765 12.1771 19.7111 12.3435 19.9998 12.8376" stroke="white" stroke-width="0.820312" stroke-miterlimit="10" stroke-linecap="round" stroke-linejoin="round"/>
<path d="M22.6402 14.1298C23.5123 14.1466 24.2329 13.4531 24.2496 12.5809" stroke="white" stroke-width="0.820312" stroke-miterlimit="10" stroke-linecap="round" stroke-linejoin="round"/>
<path d="M24.8481 21.0813C24.9789 20.1362 24.4952 19.2103 23.6218 18.8684" stroke="white" stroke-width="0.820312" stroke-miterlimit="10" stroke-linecap="round" stroke-linejoin="round"/>
<path d="M23.1083 15.0996C23.1083 14.4158 22.554 13.8615 21.8701 13.8615" stroke="white" stroke-width="0.820312" stroke-miterlimit="10" stroke-linecap="round" stroke-linejoin="round"/>
<path d="M21.8702 20.6015C21.8702 20.0851 21.4515 19.6664 20.935 19.6664C20.4186 19.6664 19.9999 20.0851 19.9999 20.6015V21.5366" stroke="white" stroke-width="0.820312" stroke-miterlimit="10" stroke-linecap="round" stroke-linejoin="round"/>
<path d="M23.5483 17.1064C22.9243 16.9196 22.267 17.2742 22.0802 17.8982" stroke="white" stroke-width="0.820312" stroke-miterlimit="10" stroke-linecap="round" stroke-linejoin="round"/>
<path d="M22.6382 17.2051C22.5087 16.8839 22.2396 16.6224 21.882 16.5155" stroke="white" stroke-width="0.820312" stroke-miterlimit="10" stroke-linecap="round" stroke-linejoin="round"/>
<path d="M21.4173 12.4659C20.9233 12.1771 20.2887 12.3435 19.9999 12.8376" stroke="white" stroke-width="0.820312" stroke-miterlimit="10" stroke-linecap="round" stroke-linejoin="round"/>
<path d="M25.5477 8.1346C23.9697 7.04583 22.056 6.40872 19.9936 6.41003C14.597 6.41343 10.2192 10.7942 10.2192 16.1907C10.2193 18.8257 11.2614 21.217 12.9559 22.9755C14.1988 24.2652 15.0996 25.8255 15.6176 27.5146" stroke="white" stroke-width="0.820312" stroke-miterlimit="10" stroke-linecap="round" stroke-linejoin="round"/>
<path d="M24.3935 27.5154C24.929 25.8065 25.8585 24.2302 27.1092 22.907C28.7651 21.1552 29.7805 18.7916 29.7805 16.1907C29.7805 13.5365 28.7232 11.1293 27.0069 9.36712" stroke="white" stroke-width="0.820312" stroke-miterlimit="10" stroke-linecap="round" stroke-linejoin="round"/>
<path d="M15.6469 29.5388C15.0875 29.5388 14.6341 29.0854 14.6341 28.5261C14.6341 27.9667 15.0875 27.5133 15.6469 27.5133H24.3529C24.9122 27.5133 25.3656 27.9667 25.3656 28.5261C25.3656 29.0854 24.9122 29.5388 24.3529 29.5388" stroke="white" stroke-width="0.820312" stroke-miterlimit="10" stroke-linecap="round" stroke-linejoin="round"/>
<path d="M18.6983 29.5387H24.3529C24.9122 29.5387 25.3657 29.9922 25.3657 30.5515C25.3657 31.1108 24.9122 31.5642 24.3529 31.5642H15.6469C15.0876 31.5642 14.6341 31.1108 14.6341 30.5515C14.6341 29.9922 15.0876 29.5387 15.6469 29.5387H16.781" stroke="white" stroke-width="0.820312" stroke-miterlimit="10" stroke-linecap="round" stroke-linejoin="round"/>
<path d="M23.7227 33.5898H16.2771C15.7177 33.5898 15.2643 33.1364 15.2643 32.5771C15.2643 32.0177 15.7177 31.5643 16.2771 31.5643H23.7227C24.2821 31.5643 24.7355 32.0177 24.7355 32.5771C24.7355 33.1364 24.2821 33.5898 23.7227 33.5898Z" stroke="white" stroke-width="0.820312" stroke-miterlimit="10" stroke-linecap="round" stroke-linejoin="round"/>
<path d="M19.9999 11.2001C19.9999 10.5806 19.5186 10.0552 18.8996 10.0296C18.8818 10.0289 18.864 10.0285 18.846 10.0285C18.3002 10.0285 17.8416 10.3712 17.7101 10.8355C17.6703 10.9758 17.529 11.0715 17.3713 11.0714H17.3682C16.4741 11.0714 15.7493 11.7382 15.7493 12.5609C15.7493 12.6408 15.7562 12.7193 15.7695 12.7958C15.7946 12.9405 15.7132 13.0841 15.5661 13.1404C14.8997 13.3953 14.4309 13.9998 14.4309 14.7053C14.4309 14.9246 14.4762 15.1341 14.5586 15.3265C14.6064 15.438 14.5825 15.5655 14.4942 15.6538C14.1703 15.9775 13.9723 16.4095 13.9723 16.8843C13.9723 17.3154 14.1355 17.7112 14.408 18.0229C14.4942 18.1215 14.5091 18.2567 14.4458 18.369C14.3048 18.6193 14.2396 18.9039 14.2248 19.205C14.1946 19.8238 14.6052 20.2994 14.8818 20.5473C15.0293 20.6797 15.1187 20.8553 15.1464 21.0432C15.3083 22.1411 16.3313 22.9874 17.5689 22.9874C17.6523 22.9874 17.7345 22.9834 17.8156 22.9757C17.8796 22.9697 17.9436 22.9808 18.0014 23.0066C18.1857 23.0886 18.3923 23.1348 18.6109 23.1348C19.1818 23.1348 19.673 22.8208 19.8919 22.3703C19.9661 22.2176 19.9999 22.0485 19.9999 21.8788V11.2001Z" stroke="white" stroke-width="0.820312" stroke-miterlimit="10" stroke-linecap="round" stroke-linejoin="round"/>
<path d="M19.9998 11.2001C19.9998 10.5806 20.4811 10.0552 21.1001 10.0296C21.1179 10.0289 21.1357 10.0285 21.1537 10.0285C21.6995 10.0285 22.1581 10.3712 22.2896 10.8355C22.3294 10.9758 22.4707 11.0715 22.6284 11.0714H22.6315C23.5256 11.0714 24.2504 11.7382 24.2504 12.5609C24.2504 12.6408 24.2435 12.7193 24.2303 12.7958C24.2052 12.9405 24.2865 13.0841 24.4336 13.1404C25.1001 13.3953 25.5688 13.9998 25.5688 14.7053C25.5688 14.9246 25.5235 15.1341 25.4411 15.3265C25.3933 15.438 25.4172 15.5655 25.5055 15.6538C25.8294 15.9775 26.0274 16.4095 26.0274 16.8843C26.0274 17.3154 25.8642 17.7112 25.5917 18.0229C25.5055 18.1215 25.4906 18.2567 25.5539 18.369C25.6949 18.6193 25.7601 18.9039 25.7749 19.205C25.8051 19.8238 25.3945 20.2994 25.1179 20.5473C24.9704 20.6797 24.881 20.8553 24.8533 21.0432C24.6914 22.1411 23.6685 22.9874 22.4308 22.9874C22.3474 22.9874 22.2652 22.9834 22.1841 22.9757C22.1201 22.9697 22.0561 22.9808 21.9983 23.0066C21.814 23.0886 21.6074 23.1348 21.3889 23.1348C20.8179 23.1348 20.3267 22.8208 20.1078 22.3703C20.0336 22.2176 19.9998 22.0485 19.9998 21.8788" stroke="white" stroke-width="0.820312" stroke-miterlimit="10" stroke-linecap="round" stroke-linejoin="round"/>
</g>
</g>
<defs>
<clipPath id="clip0_32078_23">
<rect width="28" height="28" fill="white" transform="translate(6 6)"/>
</clipPath>
</defs>
</svg>
