<svg width="40" height="40" viewBox="0 0 40 40" fill="none" xmlns="http://www.w3.org/2000/svg">
<circle cx="20" cy="20" r="20" fill="#1FA2FF"/>
<path d="M31.426 17.6446C31.6823 17.2353 32.0147 16.4109 31.8912 14.9824C31.7927 13.8423 31.3221 13.1598 30.9449 12.7879C30.6945 12.5416 30.4508 12.3937 30.2863 12.3119C30.1506 11.9479 29.796 11.0945 29.1857 10.2742C28.1804 8.92301 26.9354 8.27359 25.5682 8.3804C25.4556 8.12427 25.2634 7.74722 24.9756 7.36975C24.2931 6.4736 23.4016 6 22.3978 6C21.5271 6 20.7935 6.37854 20.2763 7.09503C20.0915 7.35095 19.936 7.64938 19.8091 7.98734C19.1501 6.23862 17.8686 6 17.2211 6C16.2171 6 15.3256 6.4736 14.6431 7.36975C14.3558 7.74701 14.1635 8.12405 14.0507 8.37998C13.0063 8.29645 12.0452 8.64914 11.1886 9.43057C11.0209 9.58374 11.0091 9.84372 11.1621 10.0116C11.315 10.1793 11.5752 10.1913 11.7429 10.0381C12.494 9.35282 13.3372 9.08151 14.2494 9.23233C14.451 9.26566 14.6456 9.14646 14.708 8.95227C14.7146 8.93091 15.4123 6.82224 17.2211 6.82224C18.5891 6.82224 19.3624 8.14542 19.3983 10.548V29.3443C19.3981 29.3657 19.3706 31.4887 18.2428 32.5672C17.7874 33.0028 17.2243 33.2017 16.5213 33.1754C14.9838 33.1175 14.6506 32.5209 14.2648 31.8302C14.0387 31.4259 13.7826 30.9676 13.2864 30.6397C12.9018 30.3859 12.3996 30.2377 11.8679 30.0807C10.5906 29.7034 9.14313 29.2759 8.62531 27.2717C8.3083 26.0443 8.54435 25.0419 8.73511 24.5126C9.06559 24.7333 9.51783 25.0255 9.79298 25.1631C9.99357 25.2633 10.2444 25.1795 10.3446 24.9791C10.4462 24.776 10.3638 24.529 10.1608 24.4276C9.83677 24.2656 9.1316 23.7914 8.83594 23.5872C8.57917 23.2746 8.11539 22.3578 8.0355 20.8904C7.96372 19.5738 8.45313 18.6794 8.76417 18.2502C9.04487 18.4873 9.47938 18.8182 9.97135 19.0641C10.1719 19.1643 10.4227 19.0806 10.5229 18.8802C10.6246 18.677 10.5422 18.4301 10.339 18.3286C9.70475 18.0114 9.15894 17.5079 9.03889 17.3934C9.02735 17.3806 9.01496 17.3682 9.00107 17.3566C8.79087 17.146 8.43049 16.4005 8.54713 15.0531C8.62745 14.1226 8.99958 13.5958 9.31553 13.3108C9.41358 13.7067 9.63383 14.226 10.1149 14.7972C10.2591 14.9685 10.5227 14.9912 10.6943 14.847C10.8679 14.7007 10.8901 14.4413 10.7438 14.2676C10.0705 13.4681 10.0583 12.8449 10.0656 12.7039C10.1217 12.5426 10.3548 11.9103 10.7786 11.228C10.8983 11.0351 10.8391 10.7815 10.6462 10.6619C10.4531 10.5421 10.1997 10.6012 10.0799 10.7943C9.68275 11.4341 9.43943 12.0259 9.3324 12.3123C8.8917 12.532 7.87977 13.2226 7.72767 14.9824C7.60419 16.4109 7.93659 17.2353 8.19272 17.6444C7.80778 18.1368 7.12311 19.2598 7.21433 20.935C7.3032 22.5675 7.8035 23.5276 8.07822 23.9388C7.84067 24.4696 7.39271 25.7877 7.82914 27.4772C8.46339 29.9326 10.2967 30.4742 11.635 30.8694C12.1063 31.0084 12.5513 31.1398 12.833 31.3261C13.1625 31.5436 13.3406 31.8623 13.5468 32.2314C13.9676 32.9844 14.4912 33.9218 16.4903 33.9972C17.1555 34.0222 17.8224 33.8742 18.3821 33.5048C18.5353 33.4038 18.6786 33.2882 18.8113 33.1615C19.2857 32.7076 19.6006 32.1255 19.8093 31.5536C20.0183 32.1255 20.3331 32.7076 20.8076 33.1615C21.2778 33.6112 21.8766 33.8906 22.5213 33.972C22.7225 33.9974 22.9259 34.0047 23.1286 33.997C25.1277 33.9218 25.6513 32.9844 26.0719 32.2314C26.2783 31.8623 26.4564 31.5436 26.7858 31.3261C27.0678 31.1398 27.5126 31.0084 27.9838 30.8694C28.5914 30.6899 29.2801 30.4866 29.9206 30.0965C30.1145 29.9783 30.1758 29.7254 30.0577 29.5314C29.9398 29.3375 29.6866 29.2759 29.4927 29.3941C28.9441 29.7282 28.3376 29.9074 27.751 30.0807C27.4791 30.161 27.215 30.2392 26.9704 30.3302V28.8592C27.5745 28.6812 28.017 28.122 28.017 27.461C28.017 26.6571 27.3631 26.0032 26.5592 26.0032C25.7553 26.0032 25.1014 26.6571 25.1014 27.461C25.1014 28.122 25.5438 28.6812 26.148 28.8592V30.7764C25.7692 31.0879 25.5502 31.4795 25.3541 31.8302C25.007 32.4517 24.702 32.9966 23.5245 33.1419V30.9828C23.5245 30.7557 23.3403 30.5718 23.1132 30.5718C22.8862 30.5718 22.702 30.7557 22.702 30.9828V33.1647C22.1797 33.115 21.7443 32.9187 21.3782 32.5692C20.2571 31.4993 20.221 29.3804 20.2208 29.3441V28.4005H22.0661C22.2931 28.4005 22.4773 28.2164 22.4773 27.9893C22.4773 27.7622 22.2931 27.5781 22.0661 27.5781H20.2208V24.833H22.1662L23.7588 26.05C23.937 26.1861 24.1991 26.1509 24.3352 25.9729C24.4729 25.7924 24.4386 25.5343 24.258 25.3966L22.555 24.0952C22.4833 24.0405 22.3955 24.0108 22.3053 24.0108H20.2208V21.3238H21.4446C21.6226 21.928 22.1818 22.3704 22.8428 22.3704C23.6467 22.3704 24.3006 21.7165 24.3006 20.9126C24.3006 20.1087 23.6467 19.4548 22.8428 19.4548C22.1818 19.4548 21.6226 19.8973 21.4446 20.5014H20.2208V17.8146H22.3053C22.3955 17.8146 22.4833 17.7849 22.555 17.73L24.258 16.4287C24.4386 16.2909 24.4729 16.0328 24.3352 15.8523C24.1974 15.672 23.9393 15.6374 23.7588 15.7754L22.1662 16.9922H20.2208V13.7838H22.0661C22.2931 13.7838 22.4773 13.5996 22.4773 13.3726C22.4773 13.1457 22.2931 12.9616 22.0661 12.9616H20.2208V10.5489C20.2562 8.14584 21.0293 6.82224 22.3978 6.82224C24.0545 6.82224 24.7673 8.55536 24.8914 8.89609V10.8655C24.2871 11.0434 23.8449 11.6029 23.8449 12.2639C23.8449 13.0677 24.4988 13.7216 25.3024 13.7216C26.1063 13.7216 26.7602 13.0677 26.7602 12.2639C26.7602 11.6029 26.3178 11.0436 25.7137 10.8655V9.19537C26.7609 9.14282 27.7014 9.66428 28.5145 10.7495C28.9048 11.2707 29.1827 11.8176 29.3545 12.2068H28.4438C28.2167 12.2068 28.0326 12.3907 28.0326 12.6178C28.0326 12.8449 28.2167 13.0291 28.4438 13.0291H29.8819C30.0966 13.1233 30.9451 13.586 31.072 15.0531C31.1735 16.2285 30.9124 16.9456 30.7045 17.2496H28.9475C28.7866 16.6194 28.2143 16.1518 27.5348 16.1518C26.7309 16.1518 26.077 16.8057 26.077 17.6096C26.077 18.4134 26.7309 19.0673 27.5348 19.0673C28.177 19.0673 28.7232 18.6497 28.917 18.0718H30.7146C30.9577 18.3596 31.5496 19.1923 31.5879 20.5016H28.5813C28.3541 20.5016 28.1701 20.6857 28.1701 20.9126C28.1701 21.1397 28.3541 21.3238 28.5813 21.3238H31.5473C31.4245 22.415 31.0918 23.1452 30.8599 23.4842H28.0392C27.8121 23.4842 27.6282 23.6683 27.6282 23.8954C27.6282 24.1225 27.8121 24.3066 28.0392 24.3066H30.8026C30.9914 24.7463 31.3578 25.8605 30.9934 27.2717C30.8853 27.6904 30.7302 28.0628 30.5324 28.3783C30.4119 28.5708 30.4702 28.8246 30.6627 28.945C30.8528 29.064 31.1104 29.0046 31.2294 28.815C31.4719 28.4279 31.6603 27.9778 31.7898 27.4775C32.226 25.7877 31.7782 24.4699 31.5407 23.9388C31.8154 23.5278 32.3157 22.5675 32.4046 20.935C32.4958 19.26 31.8111 18.1368 31.426 17.6446ZM25.9239 27.461C25.9239 27.1107 26.2088 26.8257 26.5592 26.8257C26.9095 26.8257 27.1945 27.1107 27.1945 27.461C27.1945 27.8113 26.9095 28.0965 26.5592 28.0965C26.2088 28.0965 25.9239 27.8113 25.9239 27.461ZM22.8426 20.2773C23.1929 20.2773 23.4781 20.5623 23.4781 20.9126C23.4781 21.2632 23.1929 21.5481 22.8426 21.5481C22.4922 21.5481 22.2073 21.2632 22.2073 20.9126C22.2073 20.5623 22.4922 20.2773 22.8426 20.2773ZM25.938 12.2639C25.938 12.6142 25.6528 12.8992 25.3024 12.8992C24.9521 12.8992 24.6671 12.6142 24.6671 12.2639C24.6671 11.9135 24.9521 11.6283 25.3024 11.6283C25.6528 11.6283 25.938 11.9135 25.938 12.2639ZM27.5348 18.2449C27.1845 18.2449 26.8995 17.9599 26.8995 17.6096C26.8995 17.2592 27.1845 16.9742 27.5348 16.9742C27.8852 16.9742 28.1701 17.2592 28.1701 17.6096C28.1701 17.9599 27.8852 18.2449 27.5348 18.2449Z" fill="white"/>
<path d="M25.8424 20.5015C25.6153 20.5015 25.4314 20.6856 25.4314 20.9125C25.4314 21.1396 25.6153 21.3237 25.8424 21.3237H26.9366C27.1639 21.3237 27.3478 21.1396 27.3478 20.9125C27.3478 20.6856 27.1639 20.5015 26.9366 20.5015H25.8424Z" fill="white"/>
<path d="M11.898 27.7473C11.6735 27.711 11.4629 27.8633 11.4266 28.0876C11.3902 28.3117 11.5426 28.5227 11.7669 28.5591C11.7737 28.5601 12.4688 28.6753 13.1813 29.0111C14.0663 29.4283 14.5448 29.9696 14.604 30.6203C14.6234 30.8339 14.8027 30.9944 15.0131 30.9944C15.0255 30.9944 15.0381 30.9937 15.0507 30.9927C15.2769 30.9719 15.4435 30.772 15.423 30.546C15.2196 28.31 12.0337 27.7693 11.898 27.7473Z" fill="white"/>
<path d="M17.0664 26.229C16.8556 26.1447 16.6163 26.247 16.5317 26.4576C16.5067 26.5196 15.9342 27.9951 16.9656 29.5913C17.0872 29.7795 17.3458 29.8352 17.5341 29.7134C17.7248 29.5902 17.7795 29.3358 17.6562 29.145C16.8652 27.9205 17.2758 26.8137 17.2956 26.7618C17.3787 26.5516 17.2766 26.3134 17.0664 26.229Z" fill="white"/>
<path d="M17.1606 12.6145C16.9846 12.758 16.9581 13.0169 17.1017 13.193C17.1166 13.2113 18.5827 15.0649 17.4332 18.4101C17.3593 18.625 17.4736 18.8589 17.6883 18.9326C17.9004 19.0056 18.1379 18.8892 18.2108 18.6773C19.5073 14.9045 17.8117 12.7627 17.7391 12.6734C17.5956 12.4974 17.3366 12.4709 17.1606 12.6145Z" fill="white"/>
<path d="M18.9614 20.9339C18.8723 20.725 18.6311 20.6278 18.422 20.7167C17.7081 21.0202 17.0657 20.9897 16.5126 20.6254C16.0807 20.3411 15.8547 19.9508 15.8491 19.9414C15.7387 19.7438 15.4894 19.6725 15.2911 19.7823C15.0925 19.8921 15.0205 20.1424 15.1305 20.3411C15.1429 20.3633 15.4388 20.8908 16.0269 21.29C16.3749 21.5261 16.8677 21.7468 17.4945 21.7468C17.8649 21.7468 18.2823 21.6696 18.7439 21.4733C18.9529 21.3842 19.0503 21.1428 18.9614 20.9339Z" fill="white"/>
<path d="M10.2452 21.1704C10.1542 21.3783 10.2489 21.6208 10.4565 21.712C10.4653 21.7158 11.3317 22.1012 12.0912 22.8273C12.3308 23.0565 12.5327 23.2924 12.6966 23.534C12.7034 23.5453 12.7107 23.5564 12.7186 23.5673C13.1962 24.2881 13.3377 25.0616 13.1381 25.8768C13.0841 26.0972 13.2193 26.3198 13.4398 26.3739C13.6574 26.4271 13.8837 26.2899 13.9369 26.0722C14.0922 25.4373 14.0836 24.8155 13.9168 24.2197C14.3564 24.3718 14.7593 24.4278 15.1146 24.4278C16.0705 24.4278 16.6798 24.0223 16.721 23.9939C16.9084 23.8655 16.9573 23.6085 16.8289 23.4214C16.7005 23.234 16.4461 23.1855 16.2587 23.3139C16.2083 23.3473 15.0214 24.1056 13.3421 23.0232C13.1477 22.7446 12.9145 22.4748 12.6417 22.2161C11.7771 21.3962 10.8261 20.976 10.7859 20.9585C10.5783 20.8677 10.3362 20.9626 10.2452 21.1704Z" fill="white"/>
<path d="M11.2892 17.0008C11.1576 17.1854 11.2008 17.442 11.3847 17.574C11.4009 17.5855 12.9986 18.7545 13.0204 20.7431C13.023 20.9685 13.2065 21.1496 13.4314 21.1496H13.4361C13.6632 21.1473 13.8452 20.961 13.8426 20.7341C13.8161 18.3172 11.9412 16.9603 11.8613 16.9039C11.6765 16.7727 11.4208 16.8163 11.2892 17.0008Z" fill="white"/>
<path d="M13.6119 10.8735C13.422 10.7489 13.1671 10.8021 13.0426 10.992C12.9817 11.085 11.5596 13.2968 12.3757 15.6623C12.4487 15.874 12.6865 15.9898 12.8986 15.9167C13.1131 15.8428 13.2272 15.6087 13.153 15.394C13.0129 14.9877 12.955 14.5826 12.9503 14.1949C13.9394 16.0372 15.7193 16.6657 15.8129 16.6975C16.0246 16.7697 16.261 16.6531 16.3337 16.4418C16.4074 16.2275 16.2933 15.9938 16.079 15.9195C15.9823 15.8859 13.7332 15.0778 13.2261 12.5447C13.4478 11.8863 13.7228 11.4541 13.7307 11.4421C13.8548 11.2522 13.8016 10.9978 13.6119 10.8735Z" fill="white"/>
<path d="M15.4305 10.8151C15.2083 10.8625 15.0665 11.0808 15.1139 11.303C15.1551 11.4961 15.3256 11.6285 15.5155 11.6285C15.5439 11.6285 15.5727 11.6255 15.6016 11.6193C17.0946 11.3015 17.7728 10.4333 18.0788 9.76104C18.4086 9.03579 18.3808 8.38103 18.3793 8.35347C18.3682 8.12746 18.1774 7.954 17.9506 7.96404C17.7246 7.97386 17.549 8.1657 17.5579 8.39192C17.5609 8.47161 17.6094 10.3513 15.4305 10.8151Z" fill="white"/>
</svg>
