<svg width="40" height="40" viewBox="0 0 40 40" fill="none" xmlns="http://www.w3.org/2000/svg">
<circle cx="20" cy="20" r="20" fill="#1FA2FF"/>
<path d="M10.4958 19.5815H14.6827C14.7106 19.5815 14.738 19.5809 14.7653 19.5798" stroke="white" stroke-width="0.820312" stroke-miterlimit="10" stroke-linecap="round" stroke-linejoin="round"/>
<path d="M14.4191 13.9028H14.6827C16.1571 13.9028 17.369 15.0267 17.5084 16.4644" stroke="white" stroke-width="0.820312" stroke-miterlimit="10" stroke-linecap="round" stroke-linejoin="round"/>
<path d="M16.7117 25.9783C16.786 26.2517 16.826 26.5394 16.826 26.8363V27.9793" stroke="white" stroke-width="0.820312" stroke-miterlimit="10" stroke-linecap="round" stroke-linejoin="round"/>
<path d="M13.2658 23.5791H13.5693C14.0812 23.5791 14.5652 23.6972 14.9961 23.9078" stroke="white" stroke-width="0.820312" stroke-miterlimit="10" stroke-linecap="round" stroke-linejoin="round"/>
<path d="M11.3517 23.5791H9.50708" stroke="white" stroke-width="0.820312" stroke-miterlimit="10" stroke-linecap="round" stroke-linejoin="round"/>
<path d="M12.0605 15.9028H13.6779" stroke="white" stroke-width="0.820312" stroke-miterlimit="10" stroke-linecap="round" stroke-linejoin="round"/>
<path d="M13.2051 28.4166V26.9294" stroke="white" stroke-width="0.820312" stroke-miterlimit="10" stroke-linecap="round" stroke-linejoin="round"/>
<path d="M17.3837 11.1487C17.3837 12.593 18.5551 13.7644 20 13.7644" stroke="white" stroke-width="0.820312" stroke-miterlimit="10" stroke-linecap="round" stroke-linejoin="round"/>
<path d="M23.3912 8.37231C23.6914 8.49591 23.961 8.67802 24.1869 8.90442C24.6309 9.34794 24.9055 9.96153 24.9055 10.6386V11.0695H26.3558C27.834 11.0695 29.0322 12.2677 29.0322 13.7454C29.0322 14.1883 28.9245 14.6056 28.7341 14.9736C28.5438 15.3411 28.2709 15.6589 27.9395 15.9028H29.7125C31.8541 15.9028 33.5898 17.6391 33.5898 19.7801C33.5898 20.7175 33.2573 21.5772 32.7039 22.2476C32.151 22.9175 31.3766 23.3988 30.4929 23.5793C31.1584 24.066 31.591 24.8524 31.591 25.7405C31.591 26.4793 31.2913 27.1487 30.8068 27.6333C30.3228 28.1172 29.6534 28.4169 28.9146 28.4169H26.7949C26.7949 30.2933 25.2741 31.8141 23.3972 31.8141C21.5209 31.8141 20 30.2933 20 28.4169" stroke="white" stroke-width="0.820312" stroke-miterlimit="10" stroke-linecap="round" stroke-linejoin="round"/>
<path d="M20 10.6386C20 9.61645 20.6256 8.74036 21.5143 8.37231" stroke="white" stroke-width="0.820312" stroke-miterlimit="10" stroke-linecap="round" stroke-linejoin="round"/>
<path d="M29.5042 19.5815H25.3375" stroke="white" stroke-width="0.820312" stroke-miterlimit="10" stroke-linecap="round" stroke-linejoin="round"/>
<path d="M22.497 16.4157C22.6583 15.001 23.8598 13.9028 25.3172 13.9028H25.5808" stroke="white" stroke-width="0.820312" stroke-miterlimit="10" stroke-linecap="round" stroke-linejoin="round"/>
<path d="M23.1741 27.9794V26.8364C23.1741 26.5717 23.2058 26.3147 23.2649 26.0686" stroke="white" stroke-width="0.820312" stroke-miterlimit="10" stroke-linecap="round" stroke-linejoin="round"/>
<path d="M25.1346 23.8476C25.5316 23.6748 25.9697 23.5791 26.4307 23.5791H30.4929" stroke="white" stroke-width="0.820312" stroke-miterlimit="10" stroke-linecap="round" stroke-linejoin="round"/>
<path d="M27.9395 15.9028H26.3221" stroke="white" stroke-width="0.820312" stroke-miterlimit="10" stroke-linecap="round" stroke-linejoin="round"/>
<path d="M26.7949 28.4166V26.9294" stroke="white" stroke-width="0.820312" stroke-miterlimit="10" stroke-linecap="round" stroke-linejoin="round"/>
<path d="M20 13.7644C21.4448 13.7644 22.6162 12.593 22.6162 11.1487" stroke="white" stroke-width="0.820312" stroke-miterlimit="10" stroke-linecap="round" stroke-linejoin="round"/>
<path d="M20 27.0792V28.4169C20 30.2932 18.4791 31.8141 16.6023 31.8141C14.7259 31.8141 13.2051 30.2932 13.2051 28.4169H11.0854C10.3466 28.4169 9.67719 28.1172 9.1932 27.6332C8.70867 27.1487 8.40898 26.4793 8.40898 25.7405C8.40898 24.8524 8.84156 24.0659 9.50711 23.5792C8.62336 23.3988 7.84898 22.9175 7.29609 22.2476C6.74266 21.5771 6.41016 20.7174 6.41016 19.7801C6.41016 17.6391 8.14594 15.9027 10.2875 15.9027H12.0605C11.7291 15.6588 11.4562 15.3411 11.2659 14.9736C11.0755 14.6056 10.9678 14.1883 10.9678 13.7453C10.9678 12.2677 12.166 11.0695 13.6442 11.0695H15.0945V10.6385C15.0945 9.28392 16.1927 8.18579 17.5473 8.18579C18.9019 8.18579 20 9.28392 20 10.6385V15.8568" stroke="white" stroke-width="0.820312" stroke-miterlimit="10" stroke-linecap="round" stroke-linejoin="round"/>
<path d="M24.6534 18.2559C25.2894 19.1659 25.6629 20.2733 25.6629 21.4682C25.6629 24.5674 23.1506 27.0797 20.0514 27.0797C16.9517 27.0797 14.4394 24.5674 14.4394 21.4682C14.4394 18.3685 16.9517 15.8562 20.0514 15.8562C21.2677 15.8562 22.3931 16.2428 23.3119 16.9002" stroke="white" stroke-width="0.820312" stroke-miterlimit="10" stroke-linecap="round" stroke-linejoin="round"/>
<path d="M23.3945 20.9138V22.0223C23.3945 22.3767 23.1074 22.6638 22.753 22.6638H21.2469V24.1699C21.2469 24.5243 20.9598 24.8114 20.6054 24.8114H19.4969C19.1425 24.8114 18.8554 24.5243 18.8554 24.1699V22.6638H17.3493C16.9949 22.6638 16.7078 22.3767 16.7078 22.0223V20.9138C16.7078 20.5594 16.9949 20.2723 17.3493 20.2723H18.8554V18.7662C18.8554 18.4119 19.1425 18.1248 19.4969 18.1248H20.6054C20.9598 18.1248 21.2469 18.4119 21.2469 18.7662V20.2723H22.753C23.1074 20.2723 23.3945 20.5594 23.3945 20.9138Z" stroke="white" stroke-width="0.820312" stroke-miterlimit="10" stroke-linecap="round" stroke-linejoin="round"/>
</svg>
