<svg width="786" height="761" viewBox="0 0 786 761" fill="none" xmlns="http://www.w3.org/2000/svg">
<g opacity="0.15">
<mask id="mask0_26053_362" style="mask-type:luminance" maskUnits="userSpaceOnUse" x="328" y="77" width="513" height="610">
<path d="M840.03 679.699L831.356 77.2212L328.518 84.4603L337.192 686.938L840.03 679.699Z" fill="white"/>
</mask>
<g mask="url(#mask0_26053_362)">
<path d="M741.806 734.279C728.553 670.484 703.786 609.972 686.625 547.258C679.337 520.644 668.748 488.947 684.586 463.427C690.63 453.701 699.229 445.863 708.217 438.905C719.204 430.404 730.843 422.563 742.764 415.434C769.362 399.562 798.553 387.334 829.132 381.827C853.241 377.494 877.993 377.671 902.049 382.322C926.133 386.974 949.262 395.786 971.146 406.754C996.592 419.49 1019.43 435.504 1039.39 455.834C1059.17 475.978 1075.86 498.876 1092.05 521.929C1100.36 533.755 1108.63 545.602 1116.94 557.412C1126.51 570.993 1135.89 584.768 1143.46 599.573C1151.01 614.311 1156.12 629.927 1159.2 646.186C1162.09 661.443 1163.46 676.93 1164.76 692.382C1167.37 723.646 1169.69 755.074 1167.88 786.459C1166.29 814.241 1161.34 842.063 1150.86 867.93C1140.13 894.392 1123.36 917.369 1101.87 936.12C1080.11 955.108 1054.83 969.636 1028.89 982.114C1001 995.53 971.902 1007.85 941.256 1013.18C914.73 1017.8 886.654 1016.76 861.545 1006.42C835.355 995.628 816.881 974.582 803.871 949.946C791.137 925.835 783.07 899.507 774.788 873.621C764.915 842.718 757.657 811.057 751.03 779.317C747.898 764.308 744.894 749.281 741.801 734.268C741.588 733.21 738.465 730.525 738.733 731.844C745.393 764.114 751.614 796.496 759.643 828.461C766.937 857.513 775.814 886.364 786.241 914.455C795.602 939.682 807.47 964.789 826.285 984.419C844.669 1003.6 869.092 1014.72 895.295 1018.11C924.61 1021.91 954.029 1016.21 981.716 1006.6C1010.67 996.542 1039.13 983.239 1065.46 967.559C1090.96 952.384 1114.8 933.67 1132.51 909.638C1149.13 887.103 1159.53 860.579 1165.3 833.31C1171.56 803.719 1172.36 773.299 1171.1 743.169C1170.44 727.416 1169.23 711.696 1167.92 695.989C1166.56 679.747 1165.18 663.465 1162.05 647.447C1159.01 631.862 1154.11 616.886 1147.04 602.644C1139.67 587.81 1130.46 573.967 1120.98 560.415C1104.14 536.333 1087.65 511.895 1069.68 488.648C1052.35 466.243 1033.09 445.129 1010.35 428.09C989.068 412.16 964.722 399.791 939.897 390.362C917.051 381.689 892.989 376.1 868.505 375.251C841.486 374.317 814.719 379.319 789.343 388.45C759.841 399.066 732.496 415.06 707.492 433.875C697.936 441.073 688.669 449.144 682.163 459.307C675.508 469.704 672.846 481.366 673.265 493.633C673.822 509.774 678.411 525.731 682.574 541.248C686.768 556.859 691.461 572.344 696.349 587.751C706.568 619.936 717.675 651.865 726.934 684.354C731.401 700.054 735.419 715.871 738.733 731.844C738.958 732.897 742.069 735.587 741.801 734.268L741.806 734.279Z" fill="white"/>
<path d="M1100.1 558.053C1108.53 570.031 1116.96 582.047 1124.07 594.862C1131.2 607.698 1136.59 621.241 1139.88 635.563C1143.02 649.258 1144.54 663.254 1145.75 677.232C1146.95 690.933 1148.01 704.665 1148.72 718.394C1151.29 769.162 1147.58 823.523 1118.9 867.243C1104.89 888.601 1085.33 905.663 1063.96 919.397C1041.95 933.535 1017.9 944.771 993.552 954.262C968.927 963.857 942.781 970.925 916.157 970.105C892.591 969.381 868.828 962.519 850.539 947.208C831.763 931.5 820.258 908.895 811.351 886.536C801.932 862.891 794.078 838.344 787.377 813.811C779.85 786.232 774.044 758.223 768.187 730.251C762.32 702.229 754.846 674.789 746.121 647.53C737.22 619.727 727.559 592.16 719.309 564.146C715.322 550.618 711.366 536.954 708.71 523.098C706.316 510.578 705.509 497.459 710.616 485.488C715.531 473.976 724.818 464.995 734.542 457.431C745.39 448.982 756.992 441.322 768.896 434.447C792.677 420.695 818.68 410.177 845.83 405.526C867 401.899 888.668 402.127 909.772 406.072C931.074 410.06 951.554 417.709 970.961 427.242C993.553 438.325 1014.05 452.197 1031.97 469.932C1049.67 487.447 1064.63 507.438 1078.95 527.746C1086.05 537.824 1093.02 547.981 1100.1 558.07C1101.11 559.516 1103.67 560.583 1101.91 558.072C1072.95 516.766 1045.03 473.216 1003.16 443.633C983.992 430.089 962.173 419.432 940.093 411.543C919.736 404.272 898.346 399.808 876.698 399.447C852.364 399.032 828.325 403.918 805.552 412.352C778.635 422.321 752.916 437.137 730.454 455.011C720.945 462.569 712.122 471.522 707.37 482.889C702.42 494.731 703.235 507.806 705.554 520.17C708.259 534.562 712.413 548.76 716.559 562.798C720.732 576.892 725.238 590.883 729.838 604.844C739.136 633.114 748.756 661.314 756.387 690.098C764.009 718.832 769.096 748.177 775.764 777.143C782.014 804.302 789.705 830.931 798.582 857.327C806.321 880.36 814.791 903.526 828.282 923.897C841.337 943.602 859.286 959.264 881.786 967.119C904.883 975.168 929.98 975.264 953.783 970.571C981.054 965.195 1007.18 954.155 1032.1 942.09C1055.75 930.636 1078.66 916.953 1097.89 898.874C1116.57 881.301 1130.36 859.762 1139.02 835.664C1147.78 811.32 1151.48 785.45 1152.28 759.668C1153.15 731.6 1150.95 703.429 1148.37 675.492C1147.05 661.181 1145.26 646.849 1141.62 632.915C1138.01 619.193 1132.36 606.207 1125.36 593.887C1118.3 581.482 1110.11 569.763 1101.9 558.105C1100.89 556.659 1098.32 555.597 1100.09 558.102L1100.1 558.053Z" fill="white"/>
<path d="M1087.5 564.824C1102.29 586.025 1116.37 607.552 1122.21 633.107C1124.93 645.023 1126.26 657.199 1127.31 669.358C1128.35 681.44 1129.25 693.535 1129.8 705.656C1131.85 750.278 1128 798.038 1102.59 836.272C1077.31 874.321 1033.32 896.046 991.734 911.537C969.794 919.714 946.511 925.539 922.938 924.424C902.043 923.434 881.112 916.939 865.085 903.125C848.646 888.959 838.518 868.867 830.552 849.05C822.002 827.764 814.714 805.772 808.575 783.674C801.85 759.494 796.577 734.955 791.26 710.438C785.928 685.832 778.897 661.755 771.073 637.848C763.14 613.625 754.646 589.571 747.43 565.104C743.956 553.299 740.353 541.336 738.36 529.172C736.516 517.988 736.745 506.602 742.253 496.433C747.53 486.7 756.166 479.227 764.982 472.773C774.91 465.495 785.326 458.79 796.112 452.866C817.134 441.33 840.013 432.628 863.791 429.01C882.661 426.142 901.961 426.642 920.664 430.44C939.454 434.25 957.508 441.121 974.625 449.676C994.29 459.496 1012.09 471.779 1027.71 487.3C1043.22 502.697 1056.37 520.242 1068.93 538.067C1075.18 546.939 1081.29 555.903 1087.49 564.83C1087.79 565.272 1088.98 566.838 1089.65 566.577C1090.37 566.29 1089.62 565.187 1089.35 564.794C1063.96 528.197 1039.11 489.747 1002.21 463.558C985.328 451.577 966.245 442.123 946.823 435.039C928.844 428.472 909.929 424.312 890.763 423.72C843.644 422.24 798.182 442.492 761.019 470.212C752.143 476.831 743.623 484.549 738.593 494.574C733.545 504.649 733.503 515.851 735.298 526.758C737.356 539.233 741.067 551.513 744.645 563.624C748.275 575.874 752.204 588.038 756.239 600.165C764.582 625.285 773.313 650.305 780.367 675.843C787.237 700.705 791.883 726.112 797.827 751.207C803.63 775.713 810.696 799.746 818.942 823.535C825.98 843.872 833.562 864.348 845.439 882.427C856.926 899.94 872.616 914.078 892.396 921.458C912.986 929.136 935.587 929.579 957.038 925.682C980.938 921.339 1003.93 912.065 1025.85 901.825C1046.74 892.068 1066.99 880.273 1084.02 864.582C1100.58 849.317 1112.86 830.524 1120.69 809.436C1128.62 788.117 1132.18 765.405 1133.1 742.743C1134.09 718.015 1132.3 693.168 1130.07 668.56C1128.92 655.941 1127.35 643.318 1124.15 631.044C1120.98 618.903 1116.04 607.407 1109.91 596.49C1103.74 585.517 1096.57 575.145 1089.37 564.839C1089.07 564.396 1087.88 562.831 1087.21 563.091C1086.49 563.379 1087.24 564.482 1087.51 564.874L1087.5 564.824Z" fill="white"/>
<path d="M1074.93 571.591C1081.29 580.858 1087.65 590.158 1092.99 600.075C1098.25 609.874 1102.22 620.179 1104.65 631.046C1106.98 641.496 1108.13 652.174 1109.01 662.834C1109.86 673.191 1110.59 683.567 1110.98 693.962C1112.44 732.316 1108.24 773.504 1085.88 805.949C1074.75 822.114 1059.43 834.831 1042.69 844.863C1025.35 855.246 1006.38 863.302 987.252 869.756C952.29 881.545 908.728 885.518 879.308 858.676C865.584 846.159 856.95 829.086 849.995 812.132C842.314 793.381 835.639 774.073 830.037 754.613C824.067 733.853 819.323 712.774 814.563 691.717C809.747 670.399 803.2 649.544 796.236 628.845C789.242 608.024 781.869 587.326 775.631 566.258C772.617 556.062 769.36 545.64 768.148 535.044C767.045 525.46 768.51 516.259 773.965 508.174C779.455 500.045 787.399 493.88 795.389 488.362C804.198 482.294 813.294 476.663 822.798 471.752C841.031 462.339 860.765 455.381 881.148 452.657C914.605 448.192 947.474 456.577 977.298 471.597C994.353 480.194 1009.74 490.972 1023.29 504.471C1036.65 517.796 1048.05 532.941 1058.88 548.349C1064.3 556.044 1069.59 563.831 1074.92 571.596C1075.21 572.017 1076.43 573.622 1077.09 573.339C1077.81 573.024 1077.1 571.971 1076.8 571.55C1054.85 539.603 1033.04 506.263 1001.04 483.362C986.404 472.888 969.892 464.634 953.038 458.369C937.371 452.538 920.88 448.774 904.144 448.017C863.3 446.165 824.158 462.792 791.237 485.864C783.278 491.449 775.413 497.781 770.211 506.142C765.254 514.1 764.027 523.026 765.028 532.249C766.193 542.949 769.498 553.471 772.531 563.766C775.714 574.578 779.201 585.286 782.789 595.974C790.005 617.468 797.633 638.822 804.011 660.589C810.357 682.261 814.69 704.434 820.099 726.345C825.38 747.784 831.73 768.827 839.222 789.604C845.53 807.095 852.167 824.675 862.255 840.408C872.258 855.991 885.852 868.868 903.182 875.822C920.413 882.742 939.464 883.811 957.709 881.21C978.71 878.207 998.982 870.627 1018.33 862.148C1036.75 854.063 1054.65 844.151 1069.75 830.706C1084.28 817.767 1095.18 801.695 1102.27 783.608C1109.54 765.038 1112.98 745.098 1113.99 725.246C1115.05 704.193 1113.64 683.012 1111.78 662.042C1110.82 651.126 1109.47 640.196 1106.76 629.56C1104.03 618.874 1099.76 608.739 1094.41 599.103C1089.12 589.573 1082.97 580.543 1076.8 571.567C1076.5 571.147 1075.28 569.541 1074.63 569.824C1073.9 570.139 1074.62 571.192 1074.91 571.613L1074.93 571.591Z" fill="white"/>
<path d="M1062.17 578.486C1072.67 594.024 1082.59 609.797 1086.79 628.322C1088.82 637.226 1089.79 646.339 1090.51 655.434C1091.21 664.188 1091.76 672.954 1092.02 681.725C1092.92 714.07 1088.51 748.866 1069.03 775.765C1059.2 789.323 1045.83 799.812 1031.29 807.93C1016.3 816.291 999.968 822.664 983.51 827.462C967.447 832.142 950.529 834.812 933.833 832.549C918.633 830.48 904.235 824.419 893.243 813.559C882.175 802.625 875.035 788.282 869.077 774.103C862.402 758.205 856.491 741.931 851.529 725.414C846.31 708.037 842.212 690.403 837.853 672.797C833.373 654.73 827.466 637.05 821.358 619.465C815.261 601.902 808.964 584.406 803.706 566.57C801.23 558.207 798.491 549.546 798.341 540.766C798.203 532.704 801.175 525.655 806.446 519.634C812.119 513.165 819.334 508.258 826.537 503.643C834.188 498.735 842.1 494.235 850.334 490.388C865.654 483.209 882.142 478.098 899.011 476.337C927.409 473.375 955.144 480.966 980.278 493.85C994.576 501.172 1007.41 510.469 1018.76 521.839C1029.98 533.069 1039.6 545.791 1048.7 558.76C1053.26 565.278 1057.72 571.888 1062.18 578.481C1062.54 579.007 1063.68 580.445 1064.49 580.105C1065.32 579.754 1064.8 578.65 1064.44 578.123C1046.05 550.928 1027.39 522.922 1000.49 503.329C988.052 494.256 973.975 487.144 959.607 481.695C946.261 476.624 932.272 473.219 918 472.308C883.805 470.126 850.923 482.624 822.576 500.972C815.36 505.647 808.131 510.697 802.63 517.386C797.695 523.398 795.039 530.365 795.101 538.178C795.181 547.099 797.912 555.915 800.407 564.405C803.091 573.556 806.064 582.626 809.127 591.653C815.304 609.819 821.926 627.829 827.636 646.133C833.275 664.199 837.278 682.641 842.018 700.94C846.785 719.295 852.296 737.407 859.051 755.123C864.661 769.834 870.318 784.645 878.654 798.083C887.043 811.604 898.354 823.2 913.006 829.796C927.204 836.184 943.1 837.937 958.506 836.514C976.615 834.836 994.209 829.038 1011 822.256C1026.78 815.871 1042.16 807.954 1055.23 796.94C1067.89 786.27 1077.52 772.818 1083.89 757.566C1090.34 742.095 1093.68 725.368 1094.86 708.692C1096.13 690.815 1095.09 672.787 1093.56 654.951C1092.77 645.832 1091.65 636.694 1089.46 627.786C1087.21 618.595 1083.61 609.859 1079.1 601.544C1074.7 593.435 1069.6 585.752 1064.44 578.112C1064.08 577.586 1062.94 576.148 1062.13 576.488C1061.3 576.839 1061.82 577.943 1062.18 578.469L1062.17 578.486Z" fill="white"/>
<path d="M767.345 374.236C744.34 383.652 724.349 399.105 703.637 412.54C695.201 418.009 683.849 422.646 674.213 417.228C665.083 412.102 661.52 400.597 658.142 391.392C641 344.748 626.949 296.535 602.59 252.943C590.622 231.525 576.05 211.841 558.555 194.6C541.07 177.382 521.72 161.959 502.933 146.201C494.103 138.793 484.704 131.681 477.585 122.523C470.321 113.175 467.46 101.339 465.04 89.9769C461.388 72.8828 457.392 55.0915 459.172 37.5185C463.525 -5.85628 507.384 -30.1381 545.841 -38.6274C586.449 -47.5869 629.077 -43.1683 667.985 -29.0699C709.618 -13.9945 746.188 11.8172 776.556 43.8438C784.891 52.6312 792.442 62.0077 800.304 71.2092C807.877 80.0566 816.386 88.026 824.337 96.5179C832.405 105.145 839.552 114.33 844.773 124.984C849.661 134.962 853.291 145.508 855.905 156.301C866.082 198.448 861.209 242.395 868.857 284.904C870.715 295.25 873.841 305.597 873.409 316.206C872.994 326.561 868.246 335.567 860.244 342.073C852.63 348.272 843.29 352.001 834.017 354.947C823.2 358.377 812.096 360.852 801.104 363.683C789.691 366.63 778.3 369.827 767.356 374.231C765.658 374.91 768.237 378.465 769.646 377.895C792.118 368.853 816.201 365.446 839.063 357.719C848.19 354.637 857.409 350.625 864.66 344.147C872.164 337.454 876.389 328.409 876.797 318.356C877.246 307.467 874.066 296.832 872.165 286.22C870.174 275.187 869.024 264.029 868.244 252.847C866.7 230.775 866.538 208.597 864.11 186.588C861.69 164.684 856.763 142.927 846.699 123.201C835.7 101.639 816.615 86.9224 801.293 68.7106C793.304 59.2139 785.454 49.6928 776.858 40.7285C768.234 31.736 759.166 23.1583 749.588 15.1759C732.884 1.25756 714.709 -10.7798 695.263 -20.5124C658.073 -39.1174 616.233 -49.1723 574.573 -46.6298C551.77 -45.2181 528.75 -40.2535 508.138 -30.2756C489.059 -21.0354 471.293 -6.64667 461.979 12.7921C454.756 27.8485 454.452 44.5336 456.607 60.7941C457.904 70.5593 459.892 80.2573 461.986 89.8915C464.391 100.934 467.361 112.336 474.007 121.676C480.835 131.284 490.159 138.787 499.154 146.254C508.727 154.198 518.159 162.331 527.687 170.324C547.155 186.66 565.987 203.61 581.208 224.092C612.035 265.584 628.519 315.512 645.409 363.762C649.509 375.477 653.406 387.341 658.095 398.832C661.792 407.874 667.09 417.304 676.43 421.431C685.666 425.512 696.179 422.361 704.341 417.294C715.149 410.581 725.484 403.097 736.192 396.2C746.871 389.33 757.832 382.71 769.618 377.895C771.31 377.205 768.732 373.649 767.329 374.23L767.345 374.236Z" fill="white"/>
<path d="M727.188 7.01516C744.666 19.3953 760.432 34.0703 774.701 50.0244C781.599 57.7314 788.01 65.7914 795.274 73.1756C802.311 80.3396 809.641 87.2564 815.968 95.0829C828.413 110.466 835.086 129.885 838.774 149.103C842.334 167.646 843.232 186.559 844.419 205.363C845.017 214.831 845.686 224.306 846.792 233.725C847.913 243.232 849.789 252.52 851.663 261.89C853.473 270.922 854.691 280.52 850.953 289.239C847.623 297.003 841.118 302.692 833.915 306.816C826.271 311.189 817.806 314 809.404 316.508C798.813 319.667 788.095 322.383 777.536 325.637C766.987 328.885 756.74 332.742 746.981 337.922C737.138 343.156 727.731 349.111 718.367 355.156C713.799 358.103 709.231 361.079 704.647 363.993C700.227 366.789 695.861 369.614 690.807 371.128C686.375 372.457 681.55 372.867 677.123 371.289C673.041 369.834 669.922 366.752 667.581 363.18C665.08 359.356 663.322 355.113 661.68 350.857C659.658 345.62 657.702 340.352 655.78 335.069C651.946 324.579 648.233 314.059 644.421 303.559C629.691 262.948 613.297 221.814 585.122 188.425C571.26 172.006 554.63 158.243 538.345 144.318C530.569 137.667 522.742 131.026 515.078 124.239C507.393 117.436 500.628 110.184 496.981 100.438C493.53 91.2529 491.838 81.4016 490.036 71.7795C488.623 64.2236 487.394 56.5671 487.12 48.8824C486.607 34.22 490.294 20.3968 498.985 8.47905C522.219 -23.3555 565.426 -34.838 603.055 -34.7408C638.809 -34.6582 674.13 -24.1434 705.253 -6.80583C712.804 -2.59797 720.108 2.01254 727.173 6.98171C727.889 7.48879 728.862 7.38383 729.033 6.4444C729.227 5.41174 728.164 4.34525 727.426 3.82114C697.566 -17.1949 662.891 -31.8874 626.595 -36.7867C589.001 -41.8642 546.707 -36.6496 515.369 -13.8344C501.646 -3.8503 489.809 10.0707 485.576 26.8107C481.87 41.4884 483.969 56.7934 486.756 71.4463C488.596 81.0914 490.349 90.9551 493.815 100.173C497.509 110.02 504.033 117.713 511.702 124.743C527.57 139.287 544.58 152.584 560.521 167.053C568.786 174.565 576.746 182.411 583.906 190.99C591.034 199.53 597.414 208.654 603.185 218.161C614.924 237.478 624.077 258.221 632.27 279.24C640.577 300.559 647.872 322.248 655.896 343.66C659.153 352.35 662.193 361.906 668.74 368.783C675.201 375.564 684.16 377.471 693.035 374.808C697.789 373.381 701.95 370.844 706.113 368.224C710.948 365.177 715.734 362.058 720.543 358.956C730.008 352.837 739.517 346.779 749.477 341.476C769.772 330.652 792.373 326.158 814.176 319.423C829.968 314.544 848.815 307.268 854.912 290.316C858.036 281.627 856.896 272.251 855.143 263.397C853.216 253.684 851.253 244.069 850.118 234.214C845.688 195.804 848.283 155.755 833.101 119.354C829.102 109.787 824.041 100.831 817.453 92.7996C810.92 84.825 803.378 77.7766 796.191 70.4106C788.783 62.808 782.236 54.4581 775.115 46.5972C767.746 38.4714 760.012 30.6684 751.847 23.3411C744.083 16.3704 735.934 9.85433 727.426 3.82114C726.709 3.31406 725.736 3.41902 725.566 4.35845C725.371 5.39111 726.445 6.45233 727.173 6.98171L727.188 7.01516Z" fill="white"/>
<path d="M722.182 8.36954C737.376 18.8007 751.091 31.212 763.556 44.7591C769.586 51.3212 775.235 58.1726 781.547 64.4652C787.692 70.5776 794.074 76.4967 799.565 83.2177C810.447 96.5305 816.279 113.618 819.699 130.249C823.04 146.509 824.078 163.12 825.493 179.634C826.201 187.891 827.003 196.144 828.202 204.346C829.387 212.487 831.426 220.416 832.81 228.517C834.185 236.541 834.197 244.826 830.193 252.144C826.724 258.487 821.019 263.213 814.832 266.775C808.198 270.603 800.95 273.275 793.692 275.693C784.722 278.674 775.616 281.282 766.646 284.263C757.626 287.253 748.79 290.662 740.372 295.073C731.921 299.5 723.778 304.463 715.65 309.46C711.612 311.939 707.6 314.447 703.54 316.909C699.659 319.26 695.807 321.788 691.529 323.385C684.38 326.065 675.523 326.224 670.131 320.002C667.588 317.071 665.955 313.382 664.463 309.846C662.625 305.491 660.948 301.073 659.26 296.661C655.816 287.664 652.518 278.598 649.169 269.57C636.194 234.581 622.24 199.223 598.636 169.853C587.062 155.449 573.126 143.292 559.25 131.175C552.585 125.349 545.96 119.463 539.347 113.571C532.652 107.623 526.58 101.435 523.419 92.8911C520.523 85.0537 519.068 76.6584 517.542 68.4602C516.318 61.8518 515.304 55.171 515.103 48.4478C514.713 35.636 518.013 23.5362 525.558 13.0875C545.52 -14.5567 581.342 -25.8249 614.152 -26.3161C645.041 -26.7734 675.619 -18.0147 702.712 -3.46528C709.399 0.127396 715.875 4.07936 722.149 8.35778C722.856 8.84255 723.012 8.50959 722.785 7.82599C722.49 6.94229 721.514 5.94395 720.754 5.43036C694.682 -12.3561 664.614 -24.8598 633.163 -28.624C600.463 -32.5487 564.396 -27.056 538.021 -6.12039C526.552 2.97674 516.807 15.119 513.485 29.6289C510.536 42.5309 512.672 55.9502 515.153 68.7429C516.79 77.1477 518.339 85.7437 521.802 93.627C525.381 101.783 531.605 108.295 538.102 114.227C551.831 126.755 566.289 138.515 579.768 151.324C593.821 164.681 605.6 179.751 615.256 196.561C625.065 213.639 632.802 231.846 639.897 250.193C646.98 268.517 653.408 287.096 660.714 305.343C663.555 312.429 666.983 319.688 673.101 324.559C679.322 329.503 687.204 329.532 694.408 326.826C698.681 325.218 702.538 322.701 706.419 320.35C710.669 317.77 714.894 315.135 719.133 312.533C727.356 307.478 735.616 302.473 744.183 298.033C761.552 289.041 780.694 284.612 799.089 278.286C812.781 273.58 828.591 266.947 834.486 252.572C837.579 245.03 836.858 236.888 835.357 229.06C833.704 220.445 831.754 211.956 830.616 203.248C826.254 169.865 827.546 135.027 813.418 103.719C809.72 95.5102 805.064 87.9034 799.234 81.0424C793.489 74.2771 786.984 68.2393 780.726 61.9755C774.269 55.492 768.516 48.3901 762.279 41.7075C755.837 34.7941 749.052 28.1653 741.933 21.9538C735.198 16.0653 728.135 10.5501 720.769 5.49138C720.063 5.0066 719.906 5.33956 720.133 6.02317C720.428 6.90687 721.404 7.90521 722.165 8.4188L722.182 8.36954Z" fill="white"/>
<path d="M715.589 9.88701C728.287 18.2376 739.822 28.2554 750.332 39.1934C755.555 44.6231 760.451 50.3433 765.849 55.5948C771.171 60.773 776.73 65.7579 781.539 71.4375C800.255 93.4878 802.831 124.127 805.94 151.651C806.745 158.758 807.6 165.854 808.776 172.908C809.938 179.874 811.875 186.691 812.97 193.661C813.992 200.215 813.646 206.733 810.533 212.703C807.651 218.209 802.906 222.454 797.723 225.774C792.204 229.307 786.144 231.896 780.046 234.23C772.674 237.042 765.166 239.51 757.731 242.161C750.207 244.855 742.745 247.737 735.593 251.333C728.49 254.918 721.583 258.861 714.708 262.871C707.799 266.897 700.976 271.277 693.787 274.795C688.192 277.532 680.785 279.461 675.019 276.088C669.553 272.886 667.161 265.97 664.852 260.446C661.686 252.873 658.72 245.205 655.77 237.543C644.426 208.03 633.156 177.923 614.329 152.202C604.996 139.453 593.611 128.655 581.946 118.072C576.421 113.071 570.986 107.973 565.484 102.962C560.144 98.0925 554.405 93.0153 551.362 86.3108C548.377 79.7291 547.168 72.4315 545.832 65.3849C544.782 59.8396 543.871 54.2422 543.612 48.5824C543.113 37.7043 545.573 27.4059 551.702 18.3209C567.755 -5.47282 596.888 -16.6103 624.657 -17.6122C650.438 -18.5486 676.191 -11.5755 699 0.196651C704.681 3.13232 710.207 6.37339 715.556 9.87524C716.23 10.3207 717.189 10.3864 717.332 9.41877C717.464 8.42885 716.447 7.31374 715.697 6.82245C693.371 -7.76857 667.764 -18.015 641.099 -20.7116C613.316 -23.5217 583.763 -17.9815 562.027 0.477C552.54 8.54309 544.263 18.9698 541.447 31.3177C538.92 42.3703 540.539 53.77 542.641 64.7504C544.038 72.0687 545.351 79.6444 548.552 86.4241C551.774 93.2484 557.169 98.6378 562.654 103.698C574.224 114.368 586.243 124.661 597.282 135.882C620.385 159.338 634.062 189.372 645.941 219.615C648.946 227.278 651.867 234.967 654.833 242.635C657.789 250.281 660.698 258.003 664.133 265.45C666.889 271.403 670.668 277.501 676.952 280.18C683.082 282.795 690.038 281.324 695.837 278.559C702.969 275.15 709.725 270.801 716.549 266.829C723.76 262.633 730.992 258.455 738.44 254.706C753.214 247.267 769.323 243.057 784.645 236.981C796.039 232.461 808.571 226.339 814.167 214.737C817.17 208.505 817.313 201.674 816.278 194.949C815.17 187.808 813.182 180.824 812.002 173.676C807.304 145.212 807.656 115.372 795.204 88.7405C791.957 81.8053 788.005 75.2845 782.995 69.468C778.007 63.6685 772.303 58.5203 766.83 53.1953C761.308 47.8251 756.332 41.9377 750.957 36.4163C745.528 30.8386 739.873 25.4764 733.918 20.4605C728.115 15.5639 722.029 10.9918 715.686 6.82772C715.012 6.38229 714.042 6.32184 713.91 7.28419C713.778 8.27411 714.795 9.38922 715.545 9.8805L715.589 9.88701Z" fill="white"/>
<path d="M709.568 11.5166C719.921 17.9058 729.349 25.7139 738.044 34.1949C742.427 38.4804 746.545 43.0136 751.04 47.1913C755.373 51.2274 759.858 55.1235 763.824 59.5375C779.892 77.4517 783.173 102.481 786.736 125.304C787.642 131.122 788.592 136.946 789.802 142.716C790.962 148.264 792.692 153.747 793.288 159.398C793.855 164.817 792.899 170.068 790.155 174.8C787.687 179.075 784.025 182.495 780.028 185.323C770.319 192.198 758.714 196.096 747.733 200.422C741.733 202.791 735.733 205.188 729.943 208.031C724.114 210.878 718.407 213.982 712.705 217.069C707.02 220.163 701.335 223.256 695.565 226.199C690.75 228.65 685.471 231.102 679.905 230.375C674.509 229.663 671.55 225.388 669.268 220.874C666.428 215.233 664.028 209.343 661.628 203.508C651.899 179.9 643.036 155.584 628.918 134.145C621.931 123.534 613.555 114.316 604.443 105.5C599.978 101.185 595.524 96.8649 591.088 92.5231C586.894 88.4074 582.24 84.4137 579.183 79.3251C576.152 74.2923 575.119 68.2344 574.045 62.5506C573.163 57.8531 572.36 53.1187 572.054 48.3403C571.497 39.4799 573.266 30.9807 577.999 23.3868C584.191 13.4537 593.542 5.09769 603.854 -0.38483C613.557 -5.53906 624.366 -8.11991 635.272 -8.87826C656.111 -10.3176 677.005 -5.11419 695.7 3.92303C700.448 6.20882 705.073 8.75664 709.568 11.5166C710.373 12.0092 711.437 11.7794 711.641 10.7966C711.87 9.72057 710.923 8.64014 710.085 8.13585C691.493 -3.25446 670.384 -11.1656 648.52 -12.7336C638.084 -13.4926 627.47 -12.7222 617.313 -10.1763C605.441 -7.18912 594.419 -1.01653 585.569 7.41695C577.959 14.6648 571.393 23.5469 569.194 33.9946C567.236 43.2783 568.753 52.8444 570.499 62.0295C571.638 68.0236 572.822 74.2284 575.84 79.6084C578.862 85.0271 583.531 89.3411 587.952 93.6219C592.514 98.0272 597.008 102.492 601.576 106.881C606.246 111.371 610.866 115.927 615.13 120.8C632.64 140.815 642.953 165.892 652.83 190.248C655.318 196.382 657.783 202.528 660.371 208.615C662.765 214.235 664.997 220.232 668.306 225.392C671.338 230.11 675.53 233.586 681.229 234.277C686.868 234.956 692.285 232.739 697.201 230.24C709.181 224.161 720.744 217.256 732.845 211.433C744.868 205.647 757.629 201.626 769.741 196.058C779.155 191.735 789.08 186.068 794.059 176.571C796.642 171.642 797.487 166.184 796.944 160.672C796.355 154.745 794.525 149.022 793.321 143.209C788.431 119.594 787.549 94.8235 776.414 72.9439C773.561 67.336 770.122 62.0733 765.908 57.3945C761.732 52.7662 757.025 48.661 752.47 44.4158C747.846 40.1083 743.604 35.4289 739.07 31.0242C734.536 26.6195 729.809 22.4145 724.85 18.4967C720.141 14.761 715.205 11.2961 710.08 8.1247C709.274 7.63218 708.21 7.86196 708.006 8.84475C707.778 9.92077 708.724 11.0012 709.562 11.5055L709.568 11.5166Z" fill="white"/>
<path d="M703.945 12.8077C711.954 17.263 719.304 22.7517 726.151 28.8192C729.596 31.8699 732.866 35.1264 736.35 38.145C739.835 41.1635 743.426 44.0907 746.65 47.3958C759.91 60.9221 764.068 80.3003 768.046 98.1408C769.074 102.742 770.117 107.35 771.327 111.906C772.488 116.24 773.806 120.622 773.699 125.159C773.505 133.038 768.956 139.808 763.076 144.712C756.116 150.507 747.701 154.317 739.493 157.988C730.416 162.042 721.414 166.169 712.522 170.614C708.019 172.862 703.506 175.116 698.962 177.275C694.947 179.171 690.889 181.291 686.598 182.513C682.906 183.561 678.233 184.09 674.952 181.616C671.757 179.211 670.019 174.809 668.299 171.339C659.519 153.611 652.797 134.925 643.091 117.634C638.271 109.042 632.693 100.984 626.084 93.6587C622.882 90.1114 619.545 86.6824 616.297 83.1838C613.12 79.7474 609.76 76.3565 606.892 72.6513C604.03 68.9572 602.791 64.7149 601.905 60.1828C601.153 56.3652 600.468 52.4885 600.175 48.604C599.644 41.559 600.734 34.7711 604.141 28.5263C608.392 20.7505 614.702 13.694 621.959 8.61706C628.948 3.72165 637.006 1.0623 645.412 -0.110909C661.454 -2.35328 677.864 1.0667 692.645 7.3294C696.502 8.97182 700.272 10.8054 703.939 12.8241C704.62 13.198 705.559 13.3956 705.692 12.3782C705.813 11.4486 704.815 10.2016 704.057 9.78184C689.03 1.52224 672.197 -4.23506 654.921 -4.49172C646.821 -4.60795 638.54 -3.60292 630.878 -0.88501C622.12 2.22746 614.529 7.89812 608.501 14.9168C603.16 21.1346 598.588 28.1751 597.163 36.362C595.845 43.9116 597.175 51.7248 598.652 59.1552C599.594 63.8652 600.969 68.4249 603.754 72.3875C606.555 76.3836 610.056 79.8714 613.334 83.4646C620.133 90.9321 627.405 97.9579 633.181 106.291C644.976 123.331 652.409 142.827 660.889 161.596C663.044 166.361 665.26 171.083 667.726 175.7C669.668 179.352 672.055 183.107 675.731 185.231C683.785 189.869 693.038 184.831 700.459 181.341C709.965 176.867 719.223 171.868 728.76 167.488C738.051 163.223 747.629 159.478 756.551 154.461C763.446 150.579 770.187 145.65 774.037 138.555C775.965 134.985 777.106 130.874 777.109 126.808C777.12 122.153 775.842 117.684 774.657 113.238C769.646 94.481 767.353 74.7809 757.355 57.7646C754.837 53.4714 751.905 49.4283 748.445 45.8531C745.091 42.3907 741.394 39.2956 737.752 36.1466C734.062 32.9524 730.598 29.515 726.931 26.2827C723.339 23.1239 719.612 20.1108 715.748 17.2988C712.003 14.5668 708.105 12.0574 704.057 9.80941C703.376 9.43552 702.437 9.23786 702.304 10.2553C702.184 11.1849 703.181 12.4319 703.939 12.8517L703.945 12.8077Z" fill="white"/>
<path d="M698.484 14.5546C704.283 17.1619 709.721 20.6216 714.826 24.4159C720.024 28.2894 725.436 32.1568 730.219 36.5395C740.364 45.8089 745.632 59.045 749.924 71.7736C751.967 77.8046 754.571 83.9255 753.641 90.4192C752.907 95.5658 750.321 100.196 746.794 103.962C742.566 108.467 737.294 111.856 731.931 114.852C725.736 118.309 719.275 121.291 712.858 124.308C706.58 127.272 700.245 130.086 693.752 132.565C688.789 134.472 681.444 138.008 676.221 135.061C673.807 133.705 672.284 130.824 670.895 128.548C669.113 125.639 667.487 122.63 665.917 119.593C662.729 113.448 659.793 107.171 656.745 100.946C653.633 94.6154 650.437 88.3102 646.722 82.3188C643.166 76.5791 638.844 71.3518 634.907 65.8738C633.003 63.2273 631.027 60.6013 630.089 57.4304C629.218 54.4597 628.804 51.273 628.487 48.2044C627.951 42.8527 628.505 37.5863 630.729 32.6497C633.214 27.1675 636.485 21.7912 640.741 17.4906C644.85 13.3413 649.815 10.6288 655.415 9.08904C666.622 5.9931 678.608 7.49312 689.499 11.0646C692.549 12.0655 695.529 13.2359 698.462 14.5375C699.374 14.9387 699.987 14.1857 699.896 13.3287C699.766 12.2446 698.81 11.346 697.865 10.9331C686.247 5.79518 673.428 2.58845 660.661 3.96681C654.949 4.57734 649.182 6.14095 644.223 9.09625C638.805 12.3225 634.634 17.2373 631.348 22.5526C628.206 27.6229 625.518 33.0785 624.919 39.0886C624.328 44.9997 625.168 51.5442 626.883 57.1983C627.925 60.6473 629.962 63.545 632.048 66.4328C634.14 69.3317 636.232 72.2031 638.38 75.0482C642.852 80.9684 646.617 87.2368 650.049 93.8121C653.496 100.421 656.654 107.194 659.945 113.877C663.094 120.286 666.273 126.817 670.377 132.679C672.152 135.223 674.276 137.643 677.211 138.862C679.981 140.022 683.065 139.998 685.979 139.468C689.23 138.873 692.353 137.631 695.44 136.459C698.896 135.141 702.309 133.734 705.701 132.255C712.587 129.25 719.384 126.027 726.122 122.709C732.542 119.555 738.994 116.208 744.659 111.802C748.966 108.445 752.887 104.303 755.146 99.2679C757.718 93.5669 757.856 87.4471 756.198 81.4799C754.315 74.6912 751.897 67.9236 749.253 61.3992C746.53 54.6799 743.2 48.2337 738.902 42.3946C734.567 36.505 729.253 31.9504 723.449 27.5722C717.878 23.3704 712.488 19.0015 706.485 15.4132C703.704 13.7399 700.83 12.2465 697.87 10.9166C696.969 10.5102 696.334 11.2737 696.437 12.1255C696.567 13.2096 697.529 14.0918 698.468 14.5211L698.484 14.5546Z" fill="white"/>
<path d="M696.367 85.2515C692.122 86.6287 687.774 87.9043 683.356 88.6268C681.346 88.9621 679.224 89.146 677.222 88.632C675.16 88.1057 673.517 86.8221 672.073 85.2947C665.764 78.6049 661.539 69.7998 658.905 61.0746C654.598 46.8397 653.537 25.5897 669.047 17.5985C676.068 13.9836 684.567 14.2522 692.12 15.691C698.442 16.8925 704.469 19.4332 710.103 22.5002C716.3 25.8612 722.232 29.9333 727.165 35.0089C731.44 39.4133 734.744 44.7942 734.812 51.0897C734.882 58.2843 730.868 64.5431 725.769 69.31C719.272 75.3914 711.106 79.615 702.897 82.8777C700.737 83.7337 698.557 84.5175 696.367 85.2515C695.222 85.6284 697.764 89.1332 698.825 88.782C708.145 85.7043 717.41 81.6434 725.224 75.6082C731.186 70.9931 736.617 64.7332 737.707 57.0186C738.718 49.8317 735.789 43.2236 731.485 37.6326C726.715 31.4574 720.484 26.4629 713.914 22.3102C707.855 18.489 701.249 15.2125 694.354 13.2314C686.544 10.987 677.533 10.1277 669.708 12.7316C651.85 18.6951 651.123 40.462 655.041 55.8355C657.534 65.6221 661.912 75.0099 668.109 82.9934C670.822 86.4856 674.082 90.3872 678.413 91.8472C682.606 93.2765 687.269 91.9749 691.407 90.9208C693.904 90.2875 696.37 89.5597 698.82 88.7709C699.954 88.3993 697.424 84.8892 696.362 85.2404L696.367 85.2515Z" fill="white"/>
<path d="M633.342 384.474C636.403 394.306 639.324 404.191 642.108 414.1C644.656 423.165 647.424 432.263 649.174 441.514C650.756 449.89 651.277 458.59 648.742 466.851C646.194 475.145 641.057 482.316 635.471 488.826C611.1 517.27 580.094 540.529 546.511 556.972C531.769 564.192 516.894 570.752 503.062 579.696C491.15 587.393 480.124 596.418 470.403 606.762C460.145 617.702 451.396 629.96 443.65 642.782C439.576 649.519 435.373 656.386 432.362 663.671C429.411 670.792 427.735 678.333 426.989 685.995C425.504 701.219 427.326 716.601 425.527 731.796C423.715 747.106 418.408 762.09 409.986 775.012C401.73 787.679 390.44 798.369 376.936 805.263C362.455 812.66 346.113 815.48 329.96 815.061C296.304 814.193 263.872 800.555 235.047 784.041C205.029 766.85 177.929 744.804 154.117 719.76C101.919 664.835 66.9086 596.203 42.9759 524.837C30.5082 487.659 20.5779 449.5 12.8939 411.045C5.64181 374.718 1.01972 337.463 4.14922 300.393C5.58259 283.529 8.5461 266.325 16.5372 251.22C24.9315 235.351 38.8258 223.391 53.2979 213.203C78.8848 195.189 105.883 178.923 133.688 164.568C189.967 135.513 251.833 114.075 315.624 112.047C378.564 110.039 441.701 129.184 493.143 165.525C518.581 183.501 540.987 205.596 559.711 230.465C582.378 260.564 599.758 294.427 613.811 329.302C621.098 347.394 627.501 365.835 633.332 384.451C633.666 385.534 636.997 388.23 636.308 386.046C614.369 316.043 583.397 246.664 530.498 194.415C485.705 150.177 426.687 120.346 364.299 111.279C300.553 102.021 235.949 115.697 176.923 139.831C146.653 152.2 117.545 167.376 89.615 184.355C75.9746 192.636 62.481 201.257 49.4752 210.507C35.1914 220.661 21.7231 232.57 13.421 248.259C5.04366 264.106 2.1758 282.206 0.840004 299.883C-0.551265 318.308 -0.0967949 336.831 1.6347 355.227C5.21411 393.221 13.7791 430.769 23.4688 467.609C43.3812 543.342 72.5969 617.955 119.571 681.224C160.072 735.78 214.463 783.71 278.88 807.501C309.187 818.692 344.405 824.196 374.983 810.918C403.677 798.446 422.805 770.132 427.951 739.761C430.579 724.242 428.827 708.46 429.819 692.827C430.308 685.082 431.573 677.394 434.182 670.066C437.174 661.617 441.923 653.797 446.541 646.162C462.138 620.334 481.998 598.22 507.605 582.011C522.02 572.886 537.59 566.353 552.756 558.674C570.265 549.806 586.867 539.104 602.186 526.839C616.673 515.239 630.934 502.206 642.244 487.429C647.222 480.933 651.402 473.641 652.936 465.511C654.459 457.415 653.505 449.097 651.781 441.115C647.798 422.541 641.973 404.167 636.319 386.041C635.984 384.958 632.653 382.263 633.343 384.446L633.342 384.474Z" fill="white"/>
<path d="M374.23 131.272C433.169 146.263 485.74 179.507 523.39 227.418C546.287 256.563 563.626 290.05 577.339 324.377C584.262 341.727 590.29 359.432 595.718 377.31C600.822 394.128 606.065 411.181 609.599 428.399C611.214 436.268 612.017 444.467 610.03 452.36C608.11 459.99 603.712 466.675 598.777 472.687C587.893 485.968 574.999 497.852 561.527 508.454C548.044 519.061 533.541 528.377 518.267 536.202C504.467 543.277 490.293 549.274 477.153 557.606C453.936 572.318 435.703 592.246 421.376 615.593C413.84 627.879 407.093 640.133 405.195 654.625C403.357 668.639 404.979 682.819 403.675 696.867C401.071 725.056 385.494 752.716 360.411 766.714C333.261 781.879 300.336 778.688 271.764 769.555C211.246 750.21 160.009 706.505 122.36 656.315C79.4746 599.134 52.5751 531.65 34.3074 462.982C25.4129 429.531 17.6637 395.443 13.8053 361.018C11.8712 343.78 11.0658 326.392 11.936 309.058C12.7424 293.09 14.5728 276.721 20.4375 261.733C31.9457 232.271 61.0026 215.224 86.5407 199.129C111.273 183.552 137.003 169.48 163.773 157.699C216.79 134.357 274.942 119.664 333.193 124.507C347.129 125.659 360.939 127.961 374.499 131.35C375.239 131.532 374.188 129.738 374.124 129.632C373.633 128.909 372.885 128.076 372.001 127.852C313.984 113.34 253.388 120.746 197.385 139.988C169.122 149.705 141.903 162.298 115.767 176.752C102.931 183.849 90.3552 191.41 78.0356 199.341C65.0333 207.703 51.7311 216.152 40.2331 226.544C28.0651 237.54 19.3366 250.852 14.7285 266.624C10.0491 282.62 8.81615 299.649 8.59142 316.242C8.12361 350.977 13.8998 385.479 21.3462 419.3C37.121 490.891 60.2444 561.699 98.9405 624.39C131.99 677.923 177.049 725.583 232.934 755.393C260.008 769.842 290.753 781.413 321.869 780.74C336.742 780.413 351.609 776.925 364.516 769.399C377.025 762.102 387.205 751.227 394.387 738.713C401.512 726.307 405.838 712.278 406.865 698.02C407.894 683.706 406.289 669.218 408.617 655C411.093 639.881 419.201 626.67 427.392 613.98C434.941 602.301 443.546 591.297 453.56 581.632C463.428 572.118 474.571 564.034 486.404 557.124C500.657 548.813 516.03 542.727 530.394 534.622C546.022 525.811 560.763 515.414 574.3 503.65C581.079 497.762 587.552 491.542 593.707 484.995C599.234 479.113 604.755 473.015 608.726 465.944C616.564 452.016 614.36 437.183 610.562 422.381C605.927 404.305 600.86 386.324 595.193 368.544C583.83 332.985 569.735 298.28 550.952 265.952C534.458 237.575 514.254 211.536 489.709 189.674C467.602 169.975 442.313 153.96 415.082 142.325C401.21 136.398 386.87 131.645 372.254 127.924C370.998 127.603 373.215 131.029 374.219 131.278L374.23 131.272Z" fill="white"/>
<path d="M355.28 142.633C409.702 156.607 458.322 187.693 492.636 232.352C513.36 259.319 529.149 290.333 541.489 321.926C547.784 338.059 553.205 354.536 558.054 371.161C562.638 386.847 567.398 402.791 570.456 418.857C571.848 426.137 572.421 433.762 570.333 440.98C568.287 448.055 564.028 454.198 559.324 459.773C549.118 471.861 537.321 482.777 524.867 492.503C512.048 502.524 498.237 511.281 483.697 518.583C471.111 524.908 458.394 530.639 446.606 538.455C425.792 552.251 409.626 570.78 396.785 592.075C393.175 598.062 389.446 604.172 386.867 610.695C384.498 616.682 383.192 622.985 382.552 629.369C381.261 642.347 382.708 655.492 380.938 668.437C377.388 694.564 361.795 719.505 337.798 731.326C312.195 743.933 282.014 739.856 255.863 731.257C200.658 713.085 154.627 673.331 120.48 627.147C81.7339 574.748 57.2769 513.189 40.7661 450.523C32.4728 419.038 25.3417 386.894 21.9513 354.471C20.3252 338.984 19.6619 323.369 20.4426 307.809C21.1907 292.96 22.8953 277.769 28.2132 263.789C38.6856 236.234 65.3567 220.287 89.107 205.2C111.755 190.811 135.347 177.844 159.896 166.962C208.978 145.219 263.007 131.586 316.972 136.188C329.888 137.29 342.687 139.443 355.259 142.616C356.959 143.041 354.808 139.352 353.557 139.042C299.864 125.516 243.7 132.084 191.806 149.891C165.906 158.779 140.939 170.308 116.999 183.548C105.146 190.099 93.5314 197.097 82.1627 204.442C70.1952 212.166 57.972 219.982 47.3379 229.49C36.0226 239.606 27.6668 251.801 23.191 266.351C18.7393 280.808 17.4099 296.245 17.0046 311.301C16.116 343.413 21.0889 375.375 27.6979 406.701C41.6878 473.039 62.713 538.796 97.9499 597.106C127.795 646.48 168.677 690.957 219.869 718.537C244.667 731.893 272.85 742.396 301.302 742.899C315.175 743.14 329.089 740.607 341.515 734.289C353.323 728.278 363.153 718.973 370.407 707.938C377.786 696.708 382.55 683.808 384.235 670.481C385.911 657.307 384.441 643.969 385.885 630.796C387.457 616.567 393.998 604.6 401.412 592.604C408.356 581.375 416.269 570.725 425.571 561.342C434.438 552.396 444.49 544.718 455.24 538.17C468.098 530.339 482.038 524.685 495.198 517.407C509.76 509.345 523.489 499.808 536.144 489.006C542.482 483.599 548.535 477.877 554.297 471.857C559.353 466.565 564.391 461.118 568.342 454.929C572.207 448.877 574.567 442.294 574.906 435.098C575.242 428.039 573.844 421.008 572.211 414.169C568.281 397.615 563.792 381.175 558.846 364.896C548.683 331.471 535.845 298.967 518.625 268.506C503.475 241.703 485.037 217.067 462.063 196.454C441.571 178.065 418.073 163.1 392.744 152.286C380.046 146.854 366.923 142.482 353.546 139.048C351.857 138.618 353.991 142.301 355.247 142.622L355.28 142.633Z" fill="white"/>
<path d="M336.533 153.817C386.246 166.714 431.171 195.29 462.047 236.595C480.693 261.529 495.011 290.265 505.979 319.328C511.513 333.993 516.256 348.949 520.467 364.048C524.51 378.531 528.68 393.254 531.325 408.069C532.534 414.848 533.011 421.864 531.029 428.555C529.166 434.862 525.363 440.353 521.179 445.356C511.843 456.514 500.987 466.563 489.559 475.545C477.924 484.694 465.409 492.73 452.217 499.45C440.917 505.208 429.497 510.45 418.907 517.51C399.266 530.615 384.211 548.319 372.293 568.566C369.132 573.944 365.904 579.382 363.775 585.27C361.716 590.96 360.676 596.96 360.232 602.98C359.344 614.963 360.451 627.068 358.329 638.952C354.099 662.714 339.192 684.862 316.899 695.006C292.906 705.912 265.082 701.54 240.918 693.598C190.887 677.142 149.791 641.426 119.035 599.423C83.5651 550.987 61.2544 494.06 46.4662 436.227C39.1611 407.643 32.9664 378.494 30.0427 349.11C28.595 334.52 28.049 319.818 28.9195 305.171C29.718 291.757 31.3779 278.059 36.1581 265.424C45.7315 240.067 69.9777 225.25 91.7886 211.284C112.508 198.01 134.097 186.057 156.58 176.055C201.513 156.067 250.885 143.692 300.323 147.773C312.54 148.781 324.641 150.813 336.527 153.834C337.986 154.209 335.776 150.656 334.679 150.383C285.322 137.837 233.726 143.625 185.969 159.97C162.093 168.148 139.088 178.778 117.05 191.051C106.079 197.159 95.3414 203.674 84.8384 210.543C73.86 217.703 62.6586 224.97 52.9766 233.837C42.7034 243.242 35.2666 254.554 31.2204 267.906C27.143 281.422 25.881 295.818 25.5093 309.876C24.7122 339.149 29.0487 368.262 34.8916 396.868C47.3637 457.854 66.5102 518.361 98.7646 571.943C125.739 616.741 162.472 657.626 208.968 682.569C231.598 694.712 257.468 704.044 283.334 704.99C296.072 705.453 308.952 703.504 320.531 698.05C331.732 692.775 341.183 684.372 348.202 674.198C354.994 664.35 359.575 652.969 361.556 641.165C363.614 628.888 362.313 616.398 363.479 604.051C364.043 598.112 365.261 592.259 367.455 586.71C370.005 580.241 373.755 574.175 377.374 568.266C383.679 557.994 390.816 548.214 399.219 539.556C407.323 531.216 416.525 524.048 426.399 517.927C438.13 510.656 450.87 505.404 462.892 498.664C476.099 491.255 488.563 482.534 500.05 472.665C505.804 467.725 511.316 462.504 516.553 457.018C521.299 452.05 526.064 446.922 529.694 441.063C533.128 435.541 535.222 429.493 535.452 422.962C535.682 416.403 534.421 409.948 532.97 403.583C529.434 388.179 525.504 372.839 521.052 357.663C512.056 327 500.388 297.435 484.911 269.451C471.353 244.924 454.826 222.427 434.019 203.545C415.5 186.734 394.3 173.057 371.397 163.02C359.517 157.816 347.205 153.633 334.652 150.382C333.204 150.002 335.408 153.544 336.499 153.833L336.533 153.817Z" fill="white"/>
<path d="M317.74 165.05C363.085 176.954 404.226 203.321 431.863 241.492C439.979 252.702 446.711 264.823 453.037 277.123C459.701 290.082 465.597 303.349 470.556 317.058C475.49 330.683 479.628 344.589 483.279 358.616C486.69 371.733 490.301 385.07 492.365 398.482C493.27 404.355 493.47 410.41 491.708 416.152C489.826 422.304 485.934 427.578 481.783 432.388C473.23 442.29 463.545 451.295 453.247 459.349C442.635 467.66 431.228 474.954 419.209 481.066C408.864 486.332 398.54 491.357 389.001 498.043C371.352 510.426 358.053 527.056 347.445 545.688C344.648 550.595 342 555.527 340.382 560.968C338.89 566.01 338.231 571.23 337.932 576.458C337.3 587.597 338.003 598.789 335.472 609.747C330.418 631.621 315.484 651.286 294.144 659.29C271.669 667.72 246.456 662.755 224.407 655.452C179.531 640.585 143.169 607.502 116.14 569.521C84.5559 525.128 64.8069 473.25 51.9149 420.617C45.5696 394.731 40.2731 368.321 37.9646 341.742C36.8347 328.721 36.5283 315.624 37.429 302.571C38.2743 290.267 39.9193 277.722 44.416 266.162C53.3735 243.168 75.5195 229.507 95.3788 216.721C114.035 204.708 133.491 193.898 153.762 184.872C194.705 166.631 239.708 155.542 284.731 159.43C295.863 160.392 306.908 162.268 317.724 165.044C319.062 165.394 316.845 161.913 315.803 161.641C271.078 150.153 224.389 155.043 181.006 169.677C159.151 177.051 138.114 186.765 117.986 198.001C108.048 203.552 98.3164 209.484 88.7925 215.74C78.8654 222.268 68.7599 228.88 59.9412 236.89C50.5594 245.41 43.5833 255.618 39.7252 267.722C35.8436 279.891 34.5412 292.902 34.0122 305.616C32.924 332.135 36.5037 358.605 41.5174 384.589C52.2804 440.396 69.4139 495.744 98.3743 544.95C122.117 585.3 154.5 622.634 195.886 645.504C216.328 656.798 239.696 665.047 263.094 666.859C274.795 667.757 286.729 666.691 297.719 662.415C308.432 658.243 317.684 651.066 324.712 642.006C331.512 633.245 336.29 622.889 338.68 612.065C341.15 600.862 340.277 589.424 341.067 578.073C341.456 572.571 342.312 567.107 344.107 561.869C346.162 555.88 349.475 550.361 352.702 544.951C358.36 535.475 364.764 526.396 372.316 518.331C379.516 510.649 387.698 503.976 396.547 498.284C406.981 491.558 418.359 486.717 429.164 480.661C441.203 473.927 452.568 465.997 463.052 457.037C468.311 452.55 473.349 447.798 478.144 442.82C482.59 438.198 487.06 433.428 490.514 428.007C493.734 422.954 495.745 417.423 496.035 411.395C496.322 405.505 495.256 399.667 494.034 393.93C491.067 379.962 487.734 366.058 483.923 352.298C480.076 338.404 475.681 324.647 470.49 311.198C465.225 297.592 458.879 284.47 452.048 271.59C440.121 249.103 425.486 228.534 406.786 211.168C389.852 195.462 370.37 182.651 349.256 173.283C338.442 168.489 327.237 164.629 315.798 161.63C314.46 161.28 316.676 164.761 317.718 165.033L317.74 165.05Z" fill="white"/>
<path d="M298.886 176.325C339.363 187.105 376.316 210.867 400.696 245.23C404.326 250.348 407.43 255.797 410.45 261.298C413.577 266.995 416.843 272.612 419.868 278.356C425.905 289.784 430.595 301.97 434.805 314.178C439.056 326.503 442.579 339.077 445.62 351.755C448.504 363.785 451.588 376.034 453.181 388.304C453.887 393.699 453.901 399.215 452.101 404.415C450.255 409.718 446.816 414.274 443.163 418.467C435.332 427.47 426.514 435.683 417.109 443.029C407.558 450.498 397.293 457.062 386.485 462.561C377.283 467.247 368.217 472.018 359.866 478.157C344.189 489.664 332.552 504.991 323.164 521.874C320.634 526.423 318.495 531.047 317.288 536.144C316.142 540.967 315.761 545.906 315.572 550.85C315.184 560.974 315.218 570.982 312.289 580.778C306.413 600.449 291.685 617.344 271.656 623.187C251.167 629.152 228.61 624.353 208.861 617.763C169.48 604.625 137.902 574.628 114.556 541.127C86.6257 501.063 69.1577 454.45 57.9823 407.157C52.5035 383.943 48.0224 360.271 46.1533 336.471C45.2231 324.623 45.0115 312.709 45.9131 300.842C46.7534 289.741 48.2989 278.429 52.3127 267.983C60.3062 247.136 79.9052 234.636 97.8204 222.932C114.722 211.883 132.415 201.988 150.864 193.754C187.696 177.318 228.207 167.518 268.703 171.089C278.905 171.986 288.998 173.752 298.902 176.331C300.377 176.711 298.179 173.154 297.06 172.864C256.287 162.265 213.599 166.588 174.053 180.105C154.535 186.771 135.76 195.499 117.814 205.636C108.886 210.67 100.154 216.061 91.6303 221.75C82.6869 227.704 73.6032 233.766 65.7374 241.108C57.3647 248.906 51.225 258.228 47.7632 269.15C44.283 280.148 43.0209 291.858 42.4758 303.324C41.32 327.216 44.2852 351.085 48.5613 374.554C57.7421 424.93 72.9389 474.906 98.7009 519.417C119.451 555.248 147.608 588.687 184.025 609.294C202.261 619.611 222.968 626.498 243.812 628.766C254.608 629.941 265.721 629.535 276.103 626.106C285.917 622.863 294.588 617.024 301.399 609.267C307.977 601.77 312.809 592.711 315.579 583.125C318.48 573.096 318.253 562.853 318.739 552.532C318.966 547.584 319.458 542.647 320.725 537.849C322.141 532.502 324.643 527.721 327.36 522.933C332.449 513.985 338.214 505.372 345.057 497.654C351.419 490.478 358.704 484.188 366.641 478.817C375.906 472.533 386.026 468.001 395.769 462.555C406.601 456.5 416.834 449.35 426.277 441.304C431.024 437.263 435.571 433.002 439.908 428.527C443.935 424.376 447.97 420.098 451.189 415.278C454.198 410.761 456.224 405.809 456.666 400.364C457.091 394.968 456.258 389.593 455.246 384.302C452.768 371.399 449.957 358.544 446.68 345.827C440.233 320.793 431.888 295.755 419.102 273.182C412.921 262.286 407.358 251.139 399.756 241.133C393.472 232.85 386.515 225.075 378.953 217.954C363.688 203.589 346.018 191.899 326.87 183.376C317.231 179.077 307.259 175.603 297.06 172.891C295.591 172.494 297.794 176.063 298.901 176.358L298.886 176.325Z" fill="white"/>
<path d="M279.953 187.665C316.084 197.442 348.65 219.048 370.091 249.931C373.339 254.615 376.034 259.63 378.6 264.718C381.167 269.807 383.833 274.848 386.489 279.894C391.863 290.093 395.758 301.114 399.268 312.071C402.798 323.072 405.635 334.279 408.05 345.575C410.326 356.228 412.773 367.101 413.913 377.949C414.408 382.665 414.35 387.48 412.72 391.972C411.014 396.705 407.906 400.75 404.628 404.493C397.483 412.64 389.482 420.099 380.942 426.764C372.368 433.444 363.168 439.288 353.491 444.239C345.439 448.354 337.624 452.944 330.498 458.532C316.791 469.272 306.034 483.774 298.276 499.287C294.262 507.306 293.503 516.037 293.177 524.85C292.832 534.054 292.125 542.925 288.802 551.599C282.132 569.04 267.85 582.779 249.323 586.631C239.774 588.617 229.921 588.169 220.329 586.684C211.066 585.262 201.759 583.111 192.927 579.972C159.103 567.918 132.453 541.255 112.707 512.027C88.6856 476.458 73.6119 435.465 64.1798 393.798C59.4179 372.796 55.6643 351.358 54.2898 329.848C53.6305 319.44 53.5849 308.975 54.4753 298.586C55.3294 288.583 56.8376 278.434 60.5023 269.039C67.7303 250.585 84.9242 239.317 100.805 228.791C115.818 218.853 131.552 209.951 148.011 202.615C180.92 187.95 217.161 179.388 253.312 182.883C262.312 183.748 271.233 185.372 279.974 187.682C280.989 187.953 280.831 186.636 280.617 186.096C280.224 185.15 279.344 184.297 278.346 184.032C242.051 174.455 203.92 178.004 168.634 189.973C151.097 195.922 134.239 203.8 118.162 212.959C110.267 217.464 102.546 222.283 95.0176 227.364C87.0974 232.713 79.0807 238.176 72.1203 244.749C64.6812 251.752 59.1591 260.101 55.9891 269.82C52.8373 279.463 51.5576 289.75 50.8946 299.84C49.4778 321.36 51.8493 342.932 55.3986 364.139C62.9123 408.934 76.0632 453.249 98.3354 493.025C116.02 524.617 140.158 554.54 171.763 573.041C187.949 582.513 205.962 588.258 224.529 590.728C234.115 591.998 244.035 592.183 253.491 589.886C262.643 587.665 271.043 583.044 277.778 576.455C284.197 570.178 289.106 562.351 292.23 553.949C295.476 545.229 296.163 536.286 296.503 527.071C296.68 522.392 296.869 517.68 297.789 513.072C298.734 508.372 300.459 504.025 302.76 499.83C307.264 491.607 312.286 483.645 318.334 476.466C323.809 469.954 330.084 464.182 336.992 459.229C344.936 453.528 353.608 449.338 362.116 444.598C371.831 439.179 380.999 432.778 389.48 425.582C393.843 421.886 398.013 417.98 401.995 413.878C405.581 410.18 409.158 406.377 412.089 402.129C414.843 398.143 416.733 393.827 417.327 388.992C417.914 384.256 417.283 379.454 416.522 374.781C414.691 363.481 412.529 352.202 409.984 341.035C407.389 329.646 404.278 318.378 400.472 307.343C398.586 301.906 396.656 296.49 394.443 291.166C392.171 285.72 389.463 280.562 386.695 275.365C381.318 265.276 376.662 255.01 369.854 245.761C364.336 238.261 358.177 231.255 351.466 224.81C337.929 211.824 322.11 201.251 305.023 193.541C296.412 189.657 287.486 186.521 278.373 184.06C277.359 183.789 277.517 185.105 277.731 185.645C278.123 186.592 279.003 187.445 280.001 187.71L279.953 187.665Z" fill="white"/>
<path d="M261.58 198.835C293.321 207.603 322.184 226.853 340.415 254.547C345.855 262.806 349.794 271.869 353.56 280.973C357.353 290.16 361.174 299.293 363.959 308.86C366.74 318.388 368.877 328.084 370.637 337.848C371.54 342.85 372.342 347.871 373.084 352.907C373.788 357.662 374.579 362.456 374.918 367.247C375.195 371.357 374.974 375.539 373.48 379.421C371.862 383.649 368.951 387.274 365.979 390.627C359.612 397.792 352.58 404.386 345.028 410.283C337.515 416.149 329.493 421.109 321.111 425.626C314.221 429.343 307.589 433.579 301.584 438.623C295.95 443.356 290.974 448.788 286.626 454.714C284.219 457.991 282.001 461.411 279.926 464.9C277.868 468.368 275.764 471.884 274.278 475.64C271.359 483.059 271.378 491.014 270.865 498.852C270.341 506.927 268.676 514.722 265.081 522.011C261.63 529.027 256.732 535.376 250.583 540.23C243.804 545.571 235.702 548.715 227.177 549.808C218.63 550.912 209.936 550.176 201.456 548.821C193.568 547.568 185.75 545.941 178.238 543.174C149.374 532.556 127.047 509.183 110.622 483.869C90.2305 452.437 77.4808 416.51 69.8025 380.002C65.866 361.296 62.9036 342.199 62.115 323.084C61.7304 313.952 61.9037 304.788 62.8751 295.697C63.798 287.052 65.2752 278.282 68.5359 270.169C75.0691 253.911 90.2199 243.716 104.228 234.307C117.356 225.49 131.168 217.659 145.611 211.222C174.524 198.347 206.349 191.176 238.059 194.449C246 195.268 253.866 196.736 261.57 198.812C262.272 198.999 261.203 197.226 261.15 197.143C260.653 196.436 259.933 195.576 259.056 195.336C227.051 186.732 193.46 189.611 162.282 200.173C147.057 205.33 132.422 212.199 118.512 220.226C111.492 224.277 104.642 228.629 97.9688 233.239C90.9759 238.068 83.9195 243.023 77.839 248.976C71.3804 255.312 66.738 262.809 63.9846 271.418C61.1776 280.203 59.9636 289.531 59.3323 298.706C58.0469 317.328 59.849 336.018 62.6726 354.418C68.7079 393.828 80.0648 432.813 99.3878 467.846C114.402 495.053 134.753 521.2 161.675 537.466C168.145 541.38 174.972 544.689 182.12 547.15C189.762 549.788 197.719 551.362 205.707 552.541C222.965 555.097 241.266 554.174 255.065 542.272C261.056 537.112 265.728 530.515 268.941 523.311C272.375 515.594 273.608 507.607 274.061 499.238C274.491 491.195 274.931 483.145 278.599 475.809C282.284 468.45 286.819 461.332 291.945 454.889C296.713 448.901 302.213 443.536 308.324 438.919C315.119 433.787 322.586 429.962 329.951 425.748C338.44 420.881 346.434 415.169 353.849 408.778C357.578 405.557 361.158 402.163 364.586 398.621C367.827 395.263 371.099 391.796 373.675 387.893C376.085 384.246 377.615 380.237 377.967 375.871C378.304 371.675 377.721 367.464 377.163 363.309C375.813 353.228 374.257 343.176 372.242 333.218C370.242 323.321 367.845 313.421 364.574 303.865C361.293 294.259 357.268 284.841 353.208 275.548C349.4 266.819 344.932 258.482 339.375 250.728C334.6 244.051 329.225 237.78 323.364 232.038C311.453 220.356 297.53 210.798 282.374 203.826C274.851 200.369 267.053 197.573 259.071 195.369C258.381 195.177 259.438 196.955 259.492 197.039C259.994 197.756 260.708 198.605 261.586 198.846L261.58 198.835Z" fill="white"/>
<path d="M241.658 210.273C268.718 217.938 293.285 234.676 308.709 258.417C313.241 265.387 316.575 272.881 319.411 280.678C322.314 288.676 325.46 296.696 327.691 304.915C332.123 321.233 334.142 338.362 335.263 355.206C335.506 358.868 335.51 362.603 334.339 366.129C333.168 369.627 330.875 372.714 328.491 375.463C323.059 381.75 316.966 387.532 310.5 392.753C304.061 397.948 297.167 402.294 290.008 406.424C284.179 409.79 278.599 413.598 273.594 418.102C268.825 422.386 264.633 427.283 260.962 432.535C256.955 438.259 252.842 444.565 250.711 451.257C248.609 457.868 248.805 464.867 248.011 471.678C247.206 478.522 244.989 485.119 241.48 491.058C237.987 496.976 233.27 502.148 227.493 505.913C221.077 510.087 213.5 511.974 205.922 512.416C198.266 512.867 190.59 512.004 183.012 510.973C176.776 510.127 170.644 508.549 164.812 506.189C141.279 496.668 123.42 476.722 110.171 455.65C93.3104 428.837 82.6754 398.457 76.5217 367.488C73.3256 351.42 71.13 335.015 70.6219 318.631C70.38 310.754 70.5852 302.871 71.4565 295.041C72.3059 287.453 73.5889 279.716 76.3316 272.557C79.1921 265.07 83.8612 258.842 89.7901 253.493C95.0268 248.756 100.829 244.612 106.64 240.6C117.673 232.977 129.315 226.239 141.542 220.712C166.469 209.446 193.899 203.395 221.287 206.351C228.182 207.091 235.013 208.447 241.702 210.28C242.705 210.556 243.467 209.801 243.423 208.813C243.381 207.714 242.422 206.694 241.391 206.417C213.684 198.799 184.492 200.8 157.381 209.837C144.148 214.245 131.491 220.22 119.463 227.236C113.582 230.667 107.84 234.361 102.263 238.262C96.2493 242.479 90.2048 246.833 84.9313 251.982C79.1674 257.595 74.8939 264.14 72.2351 271.736C69.6521 279.147 68.3666 286.995 67.5845 294.783C65.956 311.002 66.9833 327.359 69.0361 343.49C73.3699 377.622 82.5753 411.473 98.6122 442.029C110.65 464.983 126.834 487.274 148.836 501.582C159.899 508.781 172.042 513.357 185.138 515.07C200.411 517.063 216.887 518.08 230.384 509.293C242.135 501.631 249.876 488.103 251.648 474.297C252.537 467.4 252.267 460.3 254.293 453.589C255.39 449.989 257.289 446.706 259.171 443.472C260.951 440.395 262.861 437.393 264.928 434.494C268.83 429.038 273.355 424.065 278.488 419.746C283.953 415.147 289.998 411.516 296.174 407.959C303.467 403.765 310.335 398.845 316.713 393.379C323.03 387.955 329.364 381.992 334.282 375.251C336.508 372.196 338.151 368.802 338.787 365.065C339.397 361.477 339.193 357.809 338.893 354.201C338.163 345.231 337.24 336.258 335.885 327.352C334.593 318.839 332.959 310.296 330.458 302.054C327.964 293.795 324.91 285.623 321.853 277.562C318.88 269.733 315.252 262.282 310.521 255.352C306.532 249.503 302.056 244.008 297.072 238.97C286.846 228.634 274.791 220.171 261.626 213.978C255.103 210.907 248.319 208.41 241.38 206.45C240.371 206.163 239.604 206.934 239.659 207.917C239.7 209.016 240.67 210.031 241.69 210.313L241.658 210.273Z" fill="white"/>
<path d="M223.045 221.339C246.041 228.018 266.797 242.519 279.306 263.15C282.806 268.916 285.355 275.035 287.261 281.499C289.266 288.257 291.318 295.088 292.896 301.953C296.057 315.665 296.42 330.126 296.408 344.137C296.409 347.314 296.237 350.532 295.093 353.54C293.909 356.663 291.819 359.313 289.634 361.79C285.015 367.026 279.941 371.904 274.545 376.333C264.801 384.316 253.234 389.682 244.428 398.817C240.576 402.818 237.243 407.31 234.318 412.032C231.055 417.282 228.273 422.509 227.241 428.67C226.265 434.517 226.247 440.457 224.497 446.166C222.741 451.891 219.838 457.325 215.946 461.876C211.855 466.672 206.7 470.483 200.744 472.627C194.705 474.797 188.249 475.39 181.872 475.374C176.086 475.365 170.176 475.237 164.462 474.226C159.539 473.359 154.747 471.817 150.204 469.735C131.727 461.304 118.204 444.533 108.104 427.415C94.7245 404.741 86.399 379.339 81.9899 353.452C79.6904 339.946 78.3009 326.201 78.3502 312.5C78.3908 299.676 79.5021 286.087 84.1971 274.052C86.6614 267.748 90.5051 262.401 95.4033 257.756C99.659 253.715 104.406 250.164 109.171 246.741C118.367 240.136 128.157 234.3 138.462 229.584C159.391 220.016 182.553 215.121 205.544 217.834C211.464 218.53 217.323 219.704 223.045 221.339C225.506 222.045 223.793 218.272 222.313 217.853C198.893 211.169 174.221 212.318 151.178 219.98C140.157 223.643 129.586 228.661 119.616 234.609C114.668 237.559 109.852 240.761 105.192 244.148C100.089 247.866 94.9762 251.739 90.582 256.296C85.9676 261.079 82.5217 266.634 80.3121 272.9C78.0906 279.199 76.8535 285.879 76.0371 292.496C74.3598 305.984 74.8191 319.636 76.1426 333.125C78.9243 361.717 86.1498 390.161 99.0458 415.914C108.5 434.811 120.906 453.172 138.197 465.735C146.583 471.826 156.202 476.257 166.456 477.989C172.369 478.988 178.523 479.11 184.514 479.063C191.047 479.006 197.658 478.366 203.79 476.016C215.542 471.504 224.133 460.875 227.776 449.009C229.532 443.284 229.671 437.368 230.564 431.492C231.548 425.027 234.668 419.504 238.128 414.038C244.568 403.879 253.122 395.885 263.368 389.629C269.531 385.873 275.347 381.641 280.772 376.87C286.062 372.218 291.405 367.159 295.545 361.427C297.452 358.795 298.762 355.967 299.353 352.77C299.936 349.644 299.848 346.454 299.814 343.292C299.737 335.937 299.517 328.568 298.866 321.239C298.224 313.96 297.23 306.684 295.337 299.614C293.479 292.704 291.634 285.734 289.409 278.944C281.518 254.837 262.008 235.466 239.529 224.452C233.997 221.745 228.238 219.542 222.33 217.831C219.864 217.114 221.577 220.887 223.062 221.317L223.045 221.339Z" fill="white"/>
<path d="M432.977 780.671C446.602 749.542 446.032 714.369 457.067 682.375C462.26 667.323 470.031 653.454 480.766 641.648C490.721 630.702 502.665 621.803 515.165 613.965C540.248 598.235 567.74 586.277 590.834 567.491C603.691 557.03 613.593 543.749 625.797 532.627C631.721 527.239 638.905 521.311 646.775 519.149C651.76 517.778 655.048 519.716 656.926 524.475C658.55 528.549 659.644 532.888 660.929 537.081C683.405 610.39 704.963 684.091 723.093 758.62C740.184 828.839 749.876 903.084 788.177 965.893C797.194 980.686 808.104 993.972 818.926 1007.45C829.974 1021.2 841.037 1035.53 847.492 1052.12C858.98 1081.65 846.451 1113.8 835.34 1141.54C823.072 1172.19 807.155 1201.44 784.695 1225.87C763.281 1249.17 736.44 1266.99 707.117 1278.73C648.498 1302.2 582.499 1301.39 523.887 1278.46C464.642 1255.28 414.98 1211.94 379.869 1159.3C359.325 1128.49 343.894 1094.8 331.439 1060.02C320.846 1030.45 310.768 1000.56 311.639 968.754C312.425 939.949 321.702 911.855 339.291 888.918C359.335 862.776 386.067 843.144 407.834 818.63C417.971 807.203 426.699 794.64 432.971 780.688C433.644 779.197 430.464 776.158 429.697 777.856C415.818 808.737 390.072 830.399 366.14 853.303C353.985 864.933 342.099 877.132 332.449 890.976C324.132 902.907 317.826 916.181 313.799 930.151C305.914 957.465 306.718 986.664 313.652 1014.09C317.993 1031.25 324.05 1048.12 330.147 1064.73C336.643 1082.45 343.912 1099.89 352.324 1116.79C381.942 1176.22 426.22 1228.44 483.858 1262.22C538.41 1294.2 602.475 1307.4 664.912 1295.43C696.025 1289.46 726.131 1277.53 752.36 1259.66C779.72 1241.01 801.601 1215.85 818.153 1187.27C826.453 1172.94 833.257 1157.89 839.373 1142.51C845.08 1128.14 850.402 1113.51 853.43 1098.32C856.459 1083.13 856.519 1068.21 851.029 1053.58C845.045 1037.61 834.88 1023.59 824.395 1010.31C813.041 995.909 801.146 982.038 791.481 966.392C781.556 950.31 773.458 933.187 766.711 915.549C753.062 879.911 744.902 842.498 736.77 805.319C720.176 729.423 699.207 654.571 676.97 580.154C674.16 570.735 671.31 561.321 668.45 551.913C665.764 543.076 663.504 533.929 660.218 525.294C658.156 519.858 654.195 514.733 647.846 514.948C640.366 515.193 632.686 521.138 627.157 525.63C613.891 536.408 603.919 550.581 590.915 561.684C579.205 571.686 566.091 579.869 552.752 587.49C526.612 602.424 498.495 615.686 477.902 638.296C467.285 649.95 459.437 663.597 454.183 678.433C448.486 694.527 445.536 711.412 442.566 728.169C439.553 745.097 436.635 762.021 429.697 777.856C429.04 779.352 432.232 782.387 432.971 780.688L432.977 780.671Z" fill="white"/>
<path d="M642.603 568.943C646.242 570.757 647.153 576.096 648.326 579.619C649.772 583.982 651.207 588.35 652.637 592.707C655.388 601.104 658.111 609.527 660.801 617.939C666.103 634.569 671.249 651.244 676.179 667.981C686.124 701.809 695.02 735.928 703.549 770.138C711.831 803.389 718.693 836.955 726.98 870.189C735.202 903.112 745.32 935.863 761.202 965.975C768.582 979.959 777.201 993.072 786.926 1005.53C796.792 1018.16 807.283 1030.42 815.478 1044.25C823.321 1057.48 828.133 1071.6 827.062 1087.09C826.046 1101.6 821.617 1115.79 816.6 1129.37C806.28 1157.28 793.142 1184.12 774.545 1207.5C756.192 1230.58 733.106 1249.21 706.66 1262.25C654.539 1287.96 593.221 1291.64 537.971 1274.27C483.794 1257.23 436.432 1221.5 402.033 1176.66C380.989 1149.22 364.683 1118.61 351.891 1086.55C345.531 1070.63 339.994 1054.4 334.835 1038.04C330.84 1025.36 328.027 1012.36 327.024 999.086C325.061 973.121 329.967 946.804 342.83 924.025C357.538 897.989 381.396 878.855 402.517 858.287C412.782 848.286 422.552 837.699 430.419 825.68C438.96 812.606 444.511 798.312 447.936 783.126C454.622 753.473 457.304 721.606 474.122 695.419C489.111 672.059 513.005 657.477 536.681 644.198C548.754 637.42 560.94 630.794 572.417 623.043C584.599 614.822 595.054 605.195 604.962 594.38C610.244 588.613 615.582 582.82 621.7 577.9C624.711 575.469 627.91 573.263 631.306 571.414C634.651 569.603 638.756 567.61 642.614 568.966C644.918 569.773 642.966 566.072 641.702 565.619C634.937 563.249 627.881 567.944 622.528 571.713C615.819 576.449 610.054 582.376 604.501 588.379C594.291 599.419 584.032 609.635 571.631 618.232C548.483 634.275 522.172 645.239 499.653 662.24C488.475 670.682 478.525 680.685 470.949 692.512C462.603 705.535 457.664 720.318 454.045 735.268C450.322 750.69 447.96 766.396 444.39 781.855C440.717 797.758 434.396 812.675 425.021 826.061C407.518 851.058 382.488 869.326 361.935 891.59C352.255 902.079 343.44 913.359 336.985 926.144C330.97 938.039 326.951 950.9 324.95 964.078C320.8 991.361 325.598 1017.84 334.016 1043.81C344.532 1076.25 356.932 1108.15 373.832 1137.84C403.445 1189.91 446.522 1234.44 500.181 1261.73C552.351 1288.26 612.527 1296.08 669.296 1280.8C697.522 1273.2 724.415 1260.12 747.166 1241.67C771.169 1222.21 789.943 1196.87 803.872 1169.42C810.579 1156.21 816.262 1142.4 821.205 1128.44C825.935 1115.09 829.929 1101.11 830.492 1086.88C831.745 1055.51 808.87 1029.99 790.652 1006.92C779.963 993.377 770.486 979.169 762.602 963.8C754.502 948.001 747.907 931.464 742.362 914.609C731.339 881.153 724.256 846.601 716.473 812.297C700.51 741.954 681.188 672.352 658.925 603.743C656.341 595.785 653.729 587.828 651.1 579.891C649.241 574.278 647.364 568.427 641.713 565.614C639.575 564.551 641.458 568.366 642.625 568.96L642.603 568.943Z" fill="white"/>
<path d="M632.206 618.664C635.659 620.347 636.644 625.609 637.843 628.957C639.239 632.866 640.635 636.775 642.019 640.69C644.638 648.085 647.224 655.497 649.749 662.923C654.975 678.238 659.996 693.636 664.666 709.131C673.951 739.972 681.586 771.277 689.195 802.554C696.687 833.354 703.236 864.408 711.239 895.076C718.982 924.762 728.519 954.174 742.861 981.399C749.754 994.467 757.807 1006.73 766.805 1018.45C776.028 1030.45 785.864 1042.18 793.12 1055.53C799.837 1067.87 803.332 1080.71 801.901 1094.77C800.584 1107.69 796.577 1120.26 792.008 1132.36C782.247 1158.19 769.521 1182.7 751.852 1204.06C734.836 1224.6 713.895 1241.3 689.933 1253.05C642.042 1276.56 585.82 1280.04 535.089 1264.06C485.131 1248.34 441.378 1215.46 409.806 1173.95C390.803 1148.98 376.037 1121.23 364.452 1092.13C358.668 1077.6 353.59 1062.8 348.906 1047.88C345.282 1036.34 342.848 1024.42 341.972 1012.35C340.264 988.743 344.803 964.767 356.413 944.04C369.85 920.049 391.696 902.316 411.158 883.431C420.705 874.164 429.856 864.402 437.266 853.294C445.167 841.436 450.49 828.449 453.885 814.642C460.536 787.486 463.449 758.074 479.021 734.098C492.912 712.716 514.738 699.329 536.444 687.048C547.518 680.782 558.695 674.619 569.195 667.397C580.233 659.813 589.606 650.928 598.659 641.104C603.471 635.872 608.382 630.649 614.002 626.263C618.674 622.612 626.238 616.681 632.572 618.804C633.946 619.26 631.809 615.715 630.719 615.343C624.61 613.291 617.975 617.896 613.237 621.292C607.014 625.758 601.687 631.314 596.519 636.918C587.207 647.002 577.683 656.203 566.326 664.007C545.012 678.652 520.843 688.837 500.404 704.814C490.275 712.734 481.315 722.119 474.613 733.138C467.252 745.246 462.869 758.866 459.483 772.547C455.982 786.678 453.562 801.048 449.891 815.136C446.17 829.466 439.764 842.787 431 854.725C414.343 877.441 391.259 894.286 372.483 915.083C363.787 924.712 355.991 935.089 350.294 946.793C344.956 957.754 341.441 969.546 339.747 981.61C336.249 1006.38 340.794 1030.39 348.445 1053.9C358.149 1083.72 369.679 1113.05 385.405 1140.26C412.87 1187.8 452.552 1228.52 501.91 1253.26C549.845 1277.29 604.845 1284.23 656.807 1270C682.672 1262.92 707.281 1250.86 728.138 1233.95C749.899 1216.3 767.347 1193.52 780.343 1168.8C786.595 1156.91 791.84 1144.46 796.41 1131.84C800.909 1119.45 804.743 1106.45 805.35 1093.21C806.655 1064.44 786.262 1040.89 769.699 1019.5C749.796 993.806 735.615 965.101 725.253 934.374C714.921 903.742 708.093 872.097 700.853 840.646C693.541 808.956 685.841 777.313 677.491 745.882C668.973 713.834 658.911 682.27 647.977 650.968C645.474 643.818 642.948 636.679 640.389 629.555C638.469 624.188 636.585 618.205 631.068 615.532C629.038 614.554 631.24 618.206 632.211 618.675L632.206 618.664Z" fill="white"/>
<path d="M620.899 668.567C623.88 669.942 624.787 673.25 625.909 676.088C627.256 679.489 628.596 682.906 629.921 686.317C632.444 692.817 634.929 699.321 637.358 705.852C642.424 719.47 647.228 733.197 651.589 747.053C660.402 775.047 666.94 803.652 673.666 832.195C680.237 860.089 686.485 888.109 693.865 915.812C701.107 943.02 709.939 969.929 722.811 995.052C729.046 1007.22 736.255 1018.76 744.426 1029.71C752.527 1040.57 761.165 1051.13 767.81 1062.98C773.993 1074.02 777.849 1085.77 776.861 1098.52C775.922 1110.57 772.26 1122.31 767.997 1133.55C759.1 1157.02 747.244 1179.14 731.024 1198.39C715.285 1217.07 696.21 1232.5 674.266 1243.32C630.857 1264.72 580.084 1268.24 533.949 1253.94C489.096 1240.04 449.726 1210.93 420.889 1174.14C403.296 1151.7 389.508 1126.6 378.738 1100.24C373.359 1087.05 368.659 1073.6 364.325 1060.04C360.94 1049.43 358.436 1038.64 357.445 1027.53C355.543 1006.2 359.204 984.464 369.301 965.473C380.926 943.593 400.252 927.254 417.898 910.386C426.534 902.135 434.897 893.564 441.987 883.916C449.59 873.562 455.354 862.058 458.936 849.717C466.16 824.842 468.788 797.8 482.408 775.237C494.544 755.133 514.379 742.44 534.285 730.996C544.327 725.231 554.488 719.602 564.057 713.066C574.051 706.247 582.675 698.316 590.862 689.432C595.21 684.719 599.603 679.986 604.608 675.973C608.704 672.689 615.673 666.944 621.33 668.759C623.866 669.566 622.621 665.6 620.857 665.042C615.287 663.267 609.566 666.977 605.156 670.028C599.491 673.943 594.63 678.898 589.95 683.917C581.425 693.069 572.86 701.559 562.555 708.729C543.221 722.195 521.265 731.58 502.715 746.216C493.623 753.386 485.594 761.854 479.492 771.718C472.611 782.849 468.493 795.471 465.159 808.05C461.7 821.056 459.189 834.31 455.467 847.25C451.781 860.064 445.572 871.955 437.549 882.575C422.027 903.131 400.901 918.548 383.843 937.729C376.05 946.495 369.07 955.914 363.988 966.523C359.299 976.319 356.144 986.85 354.561 997.593C351.274 1019.86 355.046 1041.74 361.921 1062.94C370.767 1090.23 381.294 1117.06 395.666 1141.95C420.757 1185.41 457.228 1222.48 502.453 1244.85C523.642 1255.33 546.548 1262.51 570.051 1265.27C594.429 1268.12 619.401 1266.13 643.067 1259.68C666.639 1253.25 689.095 1242.27 708.204 1227C728.089 1211.12 744.524 1190.67 756.775 1168.42C762.711 1157.62 767.65 1146.25 771.92 1134.7C776.09 1123.46 779.67 1111.69 780.482 1099.66C782.25 1073.05 764.327 1051.3 749.211 1031.3C731.572 1007.98 718.611 982.171 708.949 954.604C699.262 926.954 692.63 898.38 685.946 869.899C679.162 840.946 672.546 811.915 665.124 783.113C657.646 754.106 648.24 725.751 637.612 697.755C635.227 691.462 632.787 685.196 630.324 678.94C628.336 673.892 626.677 667.694 621.327 665.229C618.69 664.005 618.994 667.68 620.866 668.556L620.899 668.567Z" fill="white"/>
</g>
</g>
</svg>
