<svg width="212" height="51" viewBox="0 0 212 51" fill="none" xmlns="http://www.w3.org/2000/svg">
<path d="M44.8501 40.5793V12.9509H52.4382V23.4575L60.8435 12.9509H69.4044L59.3648 25.3253L70.1049 40.5793H61.3883L54.5395 30.423L52.4382 32.6021V40.5793H44.8501ZM72.1134 34.3921C72.1134 33.0172 72.4896 31.8109 73.2419 30.7732C73.9943 29.7095 75.0319 28.8794 76.355 28.2827C77.704 27.6861 79.2346 27.3877 80.9468 27.3877C81.751 27.3877 82.5033 27.4526 83.2037 27.5823C83.9301 27.712 84.5527 27.9066 85.0716 28.166V27.5434C85.0716 26.5835 84.7862 25.8701 84.2155 25.4031C83.6707 24.9362 82.7757 24.7027 81.5305 24.7027C80.389 24.7027 79.3124 24.8973 78.3007 25.2864C77.3148 25.6496 76.2772 26.1944 75.1876 26.9208L73.0474 22.329C74.4223 21.447 75.8621 20.7984 77.3667 20.3833C78.8973 19.9423 80.5317 19.7218 82.2698 19.7218C85.5126 19.7218 88.016 20.4612 89.7801 21.9399C91.5701 23.3926 92.4651 25.5588 92.4651 28.4384V32.4075C92.4651 33.108 92.5688 33.6009 92.7764 33.8862C92.9839 34.1457 93.3471 34.3013 93.866 34.3532V40.5793C93.2693 40.709 92.6986 40.7998 92.1538 40.8517C91.6349 40.9295 91.168 40.9684 90.7529 40.9684C89.4298 40.9684 88.4181 40.735 87.7177 40.268C87.0432 39.7751 86.6021 39.0617 86.3946 38.1278L86.239 37.3884C85.331 38.5558 84.2803 39.4508 83.087 40.0734C81.8936 40.6701 80.6225 40.9684 79.2735 40.9684C77.9245 40.9684 76.7052 40.6831 75.6156 40.1124C74.5261 39.5416 73.67 38.7634 73.0474 37.7776C72.4248 36.7658 72.1134 35.6373 72.1134 34.3921ZM84.0987 34.898C84.3841 34.6904 84.6176 34.4699 84.7992 34.2365C84.9808 33.977 85.0716 33.7176 85.0716 33.4582V31.9406C84.6565 31.7849 84.1766 31.6552 83.6318 31.5514C83.1129 31.4477 82.646 31.3958 82.2309 31.3958C81.3489 31.3958 80.5965 31.6163 79.9739 32.0573C79.3773 32.4983 79.0789 33.0561 79.0789 33.7306C79.0789 34.0938 79.1827 34.431 79.3902 34.7423C79.5978 35.0277 79.8831 35.2612 80.2463 35.4428C80.6095 35.5984 81.0246 35.6762 81.4915 35.6762C81.9326 35.6762 82.3865 35.6114 82.8535 35.4817C83.3464 35.326 83.7615 35.1315 84.0987 34.898ZM112.764 26.4149C111.337 26.4149 110.04 26.5705 108.872 26.8818C107.705 27.1932 106.836 27.712 106.265 28.4384V40.5793H98.8715V20.1109H105.642V24.0023C106.369 22.6273 107.277 21.5767 108.366 20.8503C109.456 20.098 110.61 19.7218 111.83 19.7218C112.115 19.7218 112.31 19.7218 112.413 19.7218C112.543 19.7218 112.66 19.7348 112.764 19.7607V26.4149ZM117.239 42.6417C117.836 42.8493 118.381 43.0049 118.873 43.1087C119.392 43.2384 119.859 43.3032 120.274 43.3032C120.819 43.3032 121.273 43.1995 121.636 42.9919C122 42.8103 122.285 42.512 122.492 42.0969C122.7 41.6819 122.83 41.176 122.882 40.5793L115.449 20.1109H123.037L126.929 32.9912L130.081 20.1109H136.968L130.042 43.0309C129.652 44.3539 129.017 45.5083 128.135 46.4941C127.253 47.5059 126.202 48.2841 124.983 48.8289C123.764 49.3997 122.454 49.685 121.053 49.685C120.404 49.685 119.756 49.6202 119.107 49.4905C118.484 49.3867 117.862 49.2051 117.239 48.9457V42.6417Z" fill="#144E66"/>
<path d="M141.159 12.1726H148.552V32.4464C148.552 33.1988 148.708 33.7825 149.019 34.1975C149.356 34.5867 149.836 34.7812 150.459 34.7812C150.77 34.7812 151.107 34.7294 151.471 34.6256C151.834 34.5218 152.171 34.3791 152.482 34.1975L153.416 39.6454C152.534 40.0605 151.536 40.3847 150.42 40.6182C149.33 40.8517 148.293 40.9684 147.307 40.9684C145.335 40.9684 143.818 40.4626 142.754 39.4508C141.69 38.4131 141.159 36.9474 141.159 35.0536V12.1726ZM157.482 40.5793V20.1109H164.875V40.5793H157.482ZM157.482 18.3988V12.1726H164.875V18.3988H157.482ZM181.029 40.9684C179.239 40.9684 177.644 40.6961 176.243 40.1513C174.842 39.5805 173.662 38.8152 172.702 37.8554C171.768 36.8955 171.054 35.793 170.562 34.5478C170.069 33.3025 169.822 31.9925 169.822 30.6175C169.822 28.6459 170.25 26.8429 171.106 25.2086C171.962 23.5483 173.221 22.2252 174.881 21.2394C176.541 20.2277 178.591 19.7218 181.029 19.7218C183.468 19.7218 185.517 20.2147 187.178 21.2005C188.838 22.1863 190.096 23.4834 190.952 25.0918C191.808 26.7003 192.236 28.4514 192.236 30.3451C192.236 30.7343 192.21 31.1364 192.158 31.5514C192.132 31.9406 192.094 32.2908 192.042 32.6021H177.683C177.735 33.3285 177.929 33.9251 178.266 34.3921C178.63 34.8331 179.071 35.1574 179.589 35.3649C180.134 35.5725 180.692 35.6762 181.263 35.6762C182.067 35.6762 182.819 35.4946 183.52 35.1315C184.246 34.7683 184.726 34.2624 184.959 33.6138L191.224 35.4039C190.68 36.4934 189.914 37.4533 188.929 38.2834C187.969 39.1136 186.827 39.7751 185.504 40.268C184.181 40.735 182.69 40.9684 181.029 40.9684ZM177.527 28.166H184.298C184.22 27.4915 184.026 26.9208 183.714 26.4538C183.429 25.9868 183.04 25.6237 182.547 25.3642C182.08 25.1048 181.535 24.9751 180.912 24.9751C180.29 24.9751 179.732 25.1048 179.239 25.3642C178.772 25.6237 178.383 25.9868 178.072 26.4538C177.786 26.9208 177.605 27.4915 177.527 28.166ZM198.438 40.5793V28.0492H195.909V22.4847H198.438V20.2666C198.438 18.5544 198.749 17.0627 199.372 15.7916C199.995 14.5204 200.864 13.5346 201.979 12.8342C203.121 12.1337 204.444 11.7835 205.948 11.7835C206.83 11.7835 207.738 11.8873 208.672 12.0948C209.606 12.2764 210.592 12.5618 211.63 12.9509L210.384 18.5544C209.969 18.3988 209.502 18.269 208.984 18.1653C208.465 18.0615 208.011 18.0096 207.622 18.0096C207.025 18.0096 206.571 18.1783 206.26 18.5155C205.974 18.8268 205.832 19.3197 205.832 19.9942V22.4847H210.307V28.0492H205.832V40.5793H198.438Z" fill="#5DA399"/>
<path d="M24.5993 21.2339C27.379 26.7933 23.9043 30.268 21.8196 31.3104" stroke="#5DA399" stroke-width="1.73732" stroke-linecap="round"/>
<path d="M28.7688 17.0643C31.896 24.7085 31.2011 29.9205 24.9467 36.1748" stroke="#5DA399" stroke-width="1.73732" stroke-linecap="round"/>
<path d="M31.8959 12.1998C35.718 18.4541 39.5401 29.9204 28.0738 40.6918" stroke="#5DA399" stroke-width="1.73732" stroke-linecap="round"/>
<path d="M6.18372 16.0219C15.2178 14.9795 13.8279 24.361 13.8279 24.361C12.7855 28.5306 11.0482 28.5306 10.3533 30.6154C10.2375 30.9628 9.65835 32.3527 9.65835 33.3951C10.0058 36.5223 8.96343 37.2172 8.2685 37.5647C5.83625 38.2596 5.2211 37.2724 4.4464 35.8273C3.66641 34.3725 5.14133 33.3951 5.14133 31.6578C4.97534 30.5104 4.55524 30.2679 4.09894 28.8781C3.40402 27.4882 5.14133 26.0984 5.14133 26.0984" stroke="#144E66" stroke-width="2.08478" stroke-linecap="round"/>
<path d="M7.57353 10.4626C7.57353 10.4626 10.3532 6.29299 13.8279 7.33539C16.955 8.03032 18.5115 10.4546 19.0398 13.5897C19.3587 15.482 18.3449 18.4542 18.3449 18.4542" stroke="#144E66" stroke-width="2.08478" stroke-linecap="round"/>
<path d="M2.01418 40.6918C2.01418 40.6918 1.31925 49.031 9.65838 49.3784C12.984 48.9016 14.3516 46.2568 15.5653 43.1241C16.8407 39.8319 14.9069 35.8273 15.2178 34.09C16.6077 27.4882 20.0823 23.6661 22.862 17.7592C25.6417 11.8524 23.1012 5.08426 17.3026 2.81832C13.1878 1.21035 9.51954 2.00658 6.18374 4.9031C4.25057 6.5817 3.52464 8.03563 2.70911 10.4625C2.01216 12.5365 2.01418 16.0219 2.01418 16.0219" stroke="#144E66" stroke-width="2.08478" stroke-linecap="round"/>
<path d="M6.53119 21.5814C9.90449 21.3165 11.3957 23.3187 12.0906 27.1408" stroke="#144E66" stroke-width="2.08478" stroke-linecap="round"/>
</svg>
