<svg width="17" height="23" viewBox="0 0 17 23" fill="none" xmlns="http://www.w3.org/2000/svg">
<path d="M16.5 8.62538C16.5008 7.23507 16.1503 5.8671 15.4809 4.64853C14.8116 3.42996 13.8451 2.40031 12.6713 1.65523C11.4975 0.910143 10.1544 0.473787 8.76683 0.38669C7.37925 0.299592 5.99217 0.564578 4.73441 1.15704C3.47665 1.74949 2.38901 2.6502 1.57253 3.77551C0.756038 4.90081 0.23718 6.21421 0.0641462 7.59371C-0.108888 8.97322 0.0695136 10.3741 0.58278 11.6662C1.09605 12.9583 1.92753 14.0997 3 14.9844V22.1254C2.99991 22.2533 3.03253 22.3791 3.09477 22.4908C3.157 22.6026 3.24678 22.6966 3.35558 22.7638C3.46437 22.8311 3.58856 22.8694 3.71634 22.8752C3.84412 22.8809 3.97124 22.8539 4.08563 22.7966L8.25 20.7191L12.4153 22.8013C12.5197 22.8513 12.6342 22.8766 12.75 22.8754C12.9489 22.8754 13.1397 22.7964 13.2803 22.6557C13.421 22.5151 13.5 22.3243 13.5 22.1254V14.9844C14.4384 14.2116 15.194 13.2406 15.7127 12.1411C16.2314 11.0417 16.5003 9.84105 16.5 8.62538ZM1.5 8.62538C1.5 7.29036 1.89588 5.98532 2.63758 4.87528C3.37928 3.76525 4.43349 2.90009 5.66689 2.3892C6.90029 1.8783 8.25749 1.74463 9.56686 2.00508C10.8762 2.26553 12.079 2.90841 13.023 3.85241C13.967 4.79642 14.6099 5.99915 14.8703 7.30852C15.1308 8.6179 14.9971 9.9751 14.4862 11.2085C13.9753 12.4419 13.1101 13.4961 12.0001 14.2378C10.8901 14.9795 9.58503 15.3754 8.25 15.3754C6.4604 15.3734 4.74466 14.6616 3.47922 13.3962C2.21378 12.1307 1.50199 10.415 1.5 8.62538ZM12 20.9123L8.58469 19.2051C8.48049 19.1529 8.36558 19.1258 8.24906 19.1258C8.13255 19.1258 8.01764 19.1529 7.91344 19.2051L4.5 20.9123V15.9726C5.66097 16.566 6.94618 16.8754 8.25 16.8754C9.55382 16.8754 10.839 16.566 12 15.9726V20.9123ZM8.25 13.8754C9.28835 13.8754 10.3034 13.5675 11.1667 12.9906C12.0301 12.4137 12.703 11.5938 13.1004 10.6345C13.4977 9.67516 13.6017 8.61956 13.3991 7.60116C13.1966 6.58276 12.6965 5.6473 11.9623 4.91307C11.2281 4.17885 10.2926 3.67883 9.27423 3.47626C8.25583 3.27369 7.20022 3.37766 6.24091 3.77502C5.2816 4.17238 4.46166 4.84528 3.88479 5.70864C3.30791 6.572 3 7.58703 3 8.62538C3.00149 10.0173 3.55509 11.3518 4.53934 12.3361C5.52358 13.3203 6.85807 13.8739 8.25 13.8754ZM8.25 4.87538C8.99168 4.87538 9.71671 5.09532 10.3334 5.50737C10.9501 5.91943 11.4307 6.5051 11.7146 7.19032C11.9984 7.87554 12.0726 8.62954 11.9279 9.35697C11.7833 10.0844 11.4261 10.7526 10.9017 11.277C10.3772 11.8015 9.70902 12.1586 8.98159 12.3033C8.25416 12.448 7.50016 12.3738 6.81494 12.0899C6.12972 11.8061 5.54405 11.3255 5.13199 10.7088C4.71994 10.0921 4.5 9.36706 4.5 8.62538C4.5 7.63082 4.89509 6.67699 5.59835 5.97373C6.30161 5.27047 7.25544 4.87538 8.25 4.87538Z" fill="#5DA399"/>
</svg>
