<svg xmlns="http://www.w3.org/2000/svg" width="24" height="24" fill="none" viewBox="0 0 24 24"><g clip-path="url(#a)"><path fill="#fff" d="M9.1 19a2.5 2.5 0 1 1 0 5 2.5 2.5 0 0 1 0-5m10.4 0a2.5 2.5 0 1 1 0 5 2.5 2.5 0 0 1 0-5M9.1 21a.5.5 0 1 0 0 1 .5.5 0 0 0 0-1m10.4 0a.5.5 0 1 0 0 1 .5.5 0 0 0 0-1M22 2a2 2 0 0 1 1.88 2.682l-.092.212-4 8a2 2 0 0 1-1.54 1.09L18 14h-8q-.183 0-.364-.034L8.618 16H21a1 1 0 0 1 .18 1.984L21 18H8.618a2 2 0 0 1-1.88-2.68l.092-.214 1.242-2.488-3.86-7.724a2 2 0 0 1-.1-.232L2.78 2H1a1 1 0 0 1-.984-.82L0 1A1 1 0 0 1 .82.016L1 0h2.4a1 1 0 0 1 .796.394l.1.16L5.018 2zm0 2H6.018l3.876 7.752.066.168.04.08h8z"/></g><defs><clipPath id="a"><path fill="#fff" d="M0 0h24v24H0z"/></clipPath></defs></svg>