<svg width="484" height="75" viewBox="0 0 484 75" fill="none" xmlns="http://www.w3.org/2000/svg">
<path d="M15 24L469 24" stroke="url(#paint0_linear_80_86)" stroke-width="6" stroke-linecap="round"/>
<circle cx="31.5" cy="24" r="24" fill="#2FB164"/>
<path d="M40 20L29 31L24 26" stroke="white" stroke-width="2" stroke-linecap="round" stroke-linejoin="round"/>
<path d="M7.28125 68.0703C7.28125 67.8359 7.24479 67.6276 7.17188 67.4453C7.10417 67.263 6.98177 67.0964 6.80469 66.9453C6.6276 66.7943 6.3776 66.6484 6.05469 66.5078C5.73698 66.362 5.33073 66.2135 4.83594 66.0625C4.29427 65.8958 3.79427 65.7109 3.33594 65.5078C2.88281 65.2995 2.48698 65.0599 2.14844 64.7891C1.8099 64.513 1.54688 64.1979 1.35938 63.8438C1.17188 63.4844 1.07812 63.0703 1.07812 62.6016C1.07812 62.138 1.17448 61.7161 1.36719 61.3359C1.5651 60.9557 1.84375 60.6276 2.20312 60.3516C2.56771 60.0703 2.9974 59.8542 3.49219 59.7031C3.98698 59.5469 4.53385 59.4688 5.13281 59.4688C5.97656 59.4688 6.70312 59.625 7.3125 59.9375C7.92708 60.25 8.39844 60.6693 8.72656 61.1953C9.0599 61.7214 9.22656 62.3021 9.22656 62.9375H7.28125C7.28125 62.5625 7.20052 62.2318 7.03906 61.9453C6.88281 61.6536 6.64323 61.4245 6.32031 61.2578C6.0026 61.0911 5.59896 61.0078 5.10938 61.0078C4.64583 61.0078 4.26042 61.0781 3.95312 61.2188C3.64583 61.3594 3.41667 61.5495 3.26562 61.7891C3.11458 62.0286 3.03906 62.2995 3.03906 62.6016C3.03906 62.8151 3.08854 63.0104 3.1875 63.1875C3.28646 63.3594 3.4375 63.5208 3.64062 63.6719C3.84375 63.8177 4.09896 63.9557 4.40625 64.0859C4.71354 64.2161 5.07552 64.3411 5.49219 64.4609C6.1224 64.6484 6.67188 64.8568 7.14062 65.0859C7.60938 65.3099 8 65.5651 8.3125 65.8516C8.625 66.138 8.85938 66.4635 9.01562 66.8281C9.17188 67.1875 9.25 67.5964 9.25 68.0547C9.25 68.5339 9.15365 68.9661 8.96094 69.3516C8.76823 69.7318 8.49219 70.0573 8.13281 70.3281C7.77865 70.5938 7.35156 70.7995 6.85156 70.9453C6.35677 71.0859 5.80469 71.1562 5.19531 71.1562C4.64844 71.1562 4.10938 71.0833 3.57812 70.9375C3.05208 70.7917 2.57292 70.5703 2.14062 70.2734C1.70833 69.9714 1.36458 69.5964 1.10938 69.1484C0.854167 68.6953 0.726562 68.1667 0.726562 67.5625H2.6875C2.6875 67.9323 2.75 68.2474 2.875 68.5078C3.00521 68.7682 3.1849 68.9818 3.41406 69.1484C3.64323 69.3099 3.90885 69.4297 4.21094 69.5078C4.51823 69.5859 4.84635 69.625 5.19531 69.625C5.65365 69.625 6.03646 69.5599 6.34375 69.4297C6.65625 69.2995 6.89062 69.1172 7.04688 68.8828C7.20312 68.6484 7.28125 68.3776 7.28125 68.0703ZM12.6562 59V71H10.7812V59H12.6562ZM12.3281 66.4609L11.7188 66.4531C11.724 65.8698 11.8047 65.3307 11.9609 64.8359C12.1224 64.3411 12.3464 63.9115 12.6328 63.5469C12.9245 63.1771 13.2734 62.8932 13.6797 62.6953C14.0859 62.4922 14.5365 62.3906 15.0312 62.3906C15.4479 62.3906 15.8229 62.4479 16.1562 62.5625C16.4948 62.6771 16.7865 62.862 17.0312 63.1172C17.276 63.3672 17.4609 63.6953 17.5859 64.1016C17.7161 64.5026 17.7812 64.9922 17.7812 65.5703V71H15.8906V65.5547C15.8906 65.1484 15.8307 64.8255 15.7109 64.5859C15.5964 64.3464 15.4271 64.1745 15.2031 64.0703C14.9792 63.9609 14.7057 63.9062 14.3828 63.9062C14.0443 63.9062 13.7448 63.974 13.4844 64.1094C13.2292 64.2448 13.0156 64.4297 12.8438 64.6641C12.6719 64.8984 12.5417 65.1693 12.4531 65.4766C12.3698 65.7839 12.3281 66.112 12.3281 66.4609ZM21.7031 62.5469V71H19.8125V62.5469H21.7031ZM19.6875 60.3281C19.6875 60.0417 19.7812 59.8047 19.9688 59.6172C20.1615 59.4245 20.4271 59.3281 20.7656 59.3281C21.099 59.3281 21.362 59.4245 21.5547 59.6172C21.7474 59.8047 21.8438 60.0417 21.8438 60.3281C21.8438 60.6094 21.7474 60.8438 21.5547 61.0312C21.362 61.2188 21.099 61.3125 20.7656 61.3125C20.4271 61.3125 20.1615 61.2188 19.9688 61.0312C19.7812 60.8438 19.6875 60.6094 19.6875 60.3281ZM25.6562 64.1719V74.25H23.7734V62.5469H25.5078L25.6562 64.1719ZM31.1641 66.6953V66.8594C31.1641 67.474 31.0911 68.0443 30.9453 68.5703C30.8047 69.0911 30.5938 69.5469 30.3125 69.9375C30.0365 70.3229 29.6953 70.6224 29.2891 70.8359C28.8828 71.0495 28.4141 71.1562 27.8828 71.1562C27.3568 71.1562 26.8958 71.0599 26.5 70.8672C26.1094 70.6693 25.7786 70.3906 25.5078 70.0312C25.237 69.6719 25.0182 69.25 24.8516 68.7656C24.6901 68.276 24.5755 67.7396 24.5078 67.1562V66.5234C24.5755 65.9036 24.6901 65.3411 24.8516 64.8359C25.0182 64.3307 25.237 63.8958 25.5078 63.5312C25.7786 63.1667 26.1094 62.8854 26.5 62.6875C26.8906 62.4896 27.3464 62.3906 27.8672 62.3906C28.3984 62.3906 28.8698 62.4948 29.2812 62.7031C29.6927 62.9062 30.0391 63.1979 30.3203 63.5781C30.6016 63.9531 30.8125 64.4062 30.9531 64.9375C31.0938 65.4635 31.1641 66.0495 31.1641 66.6953ZM29.2812 66.8594V66.6953C29.2812 66.3047 29.2448 65.9427 29.1719 65.6094C29.099 65.2708 28.9844 64.974 28.8281 64.7188C28.6719 64.4635 28.4714 64.2656 28.2266 64.125C27.987 63.9792 27.6979 63.9062 27.3594 63.9062C27.026 63.9062 26.7396 63.9635 26.5 64.0781C26.2604 64.1875 26.0599 64.3411 25.8984 64.5391C25.737 64.737 25.612 64.9688 25.5234 65.2344C25.4349 65.4948 25.3724 65.7786 25.3359 66.0859V67.6016C25.3984 67.9766 25.5052 68.3203 25.6562 68.6328C25.8073 68.9453 26.0208 69.1953 26.2969 69.3828C26.5781 69.5651 26.9375 69.6562 27.375 69.6562C27.7135 69.6562 28.0026 69.5833 28.2422 69.4375C28.4818 69.2917 28.6771 69.0911 28.8281 68.8359C28.9844 68.5755 29.099 68.276 29.1719 67.9375C29.2448 67.599 29.2812 67.2396 29.2812 66.8594ZM34.6562 64.1719V74.25H32.7734V62.5469H34.5078L34.6562 64.1719ZM40.1641 66.6953V66.8594C40.1641 67.474 40.0911 68.0443 39.9453 68.5703C39.8047 69.0911 39.5938 69.5469 39.3125 69.9375C39.0365 70.3229 38.6953 70.6224 38.2891 70.8359C37.8828 71.0495 37.4141 71.1562 36.8828 71.1562C36.3568 71.1562 35.8958 71.0599 35.5 70.8672C35.1094 70.6693 34.7786 70.3906 34.5078 70.0312C34.237 69.6719 34.0182 69.25 33.8516 68.7656C33.6901 68.276 33.5755 67.7396 33.5078 67.1562V66.5234C33.5755 65.9036 33.6901 65.3411 33.8516 64.8359C34.0182 64.3307 34.237 63.8958 34.5078 63.5312C34.7786 63.1667 35.1094 62.8854 35.5 62.6875C35.8906 62.4896 36.3464 62.3906 36.8672 62.3906C37.3984 62.3906 37.8698 62.4948 38.2812 62.7031C38.6927 62.9062 39.0391 63.1979 39.3203 63.5781C39.6016 63.9531 39.8125 64.4062 39.9531 64.9375C40.0938 65.4635 40.1641 66.0495 40.1641 66.6953ZM38.2812 66.8594V66.6953C38.2812 66.3047 38.2448 65.9427 38.1719 65.6094C38.099 65.2708 37.9844 64.974 37.8281 64.7188C37.6719 64.4635 37.4714 64.2656 37.2266 64.125C36.987 63.9792 36.6979 63.9062 36.3594 63.9062C36.026 63.9062 35.7396 63.9635 35.5 64.0781C35.2604 64.1875 35.0599 64.3411 34.8984 64.5391C34.737 64.737 34.612 64.9688 34.5234 65.2344C34.4349 65.4948 34.3724 65.7786 34.3359 66.0859V67.6016C34.3984 67.9766 34.5052 68.3203 34.6562 68.6328C34.8073 68.9453 35.0208 69.1953 35.2969 69.3828C35.5781 69.5651 35.9375 69.6562 36.375 69.6562C36.7135 69.6562 37.0026 69.5833 37.2422 69.4375C37.4818 69.2917 37.6771 69.0911 37.8281 68.8359C37.9844 68.5755 38.099 68.276 38.1719 67.9375C38.2448 67.599 38.2812 67.2396 38.2812 66.8594ZM43.7812 62.5469V71H41.8906V62.5469H43.7812ZM41.7656 60.3281C41.7656 60.0417 41.8594 59.8047 42.0469 59.6172C42.2396 59.4245 42.5052 59.3281 42.8438 59.3281C43.1771 59.3281 43.4401 59.4245 43.6328 59.6172C43.8255 59.8047 43.9219 60.0417 43.9219 60.3281C43.9219 60.6094 43.8255 60.8438 43.6328 61.0312C43.4401 61.2188 43.1771 61.3125 42.8438 61.3125C42.5052 61.3125 42.2396 61.2188 42.0469 61.0312C41.8594 60.8438 41.7656 60.6094 41.7656 60.3281ZM47.7109 64.3516V71H45.8281V62.5469H47.6016L47.7109 64.3516ZM47.375 66.4609L46.7656 66.4531C46.7708 65.8542 46.8542 65.3047 47.0156 64.8047C47.1823 64.3047 47.4115 63.875 47.7031 63.5156C48 63.1562 48.3542 62.8802 48.7656 62.6875C49.1771 62.4896 49.6354 62.3906 50.1406 62.3906C50.5469 62.3906 50.9141 62.4479 51.2422 62.5625C51.5755 62.6719 51.8594 62.8516 52.0938 63.1016C52.3333 63.3516 52.5156 63.6771 52.6406 64.0781C52.7656 64.474 52.8281 64.9609 52.8281 65.5391V71H50.9375V65.5312C50.9375 65.125 50.8776 64.8047 50.7578 64.5703C50.6432 64.3307 50.474 64.1615 50.25 64.0625C50.0312 63.9583 49.7578 63.9062 49.4297 63.9062C49.1068 63.9062 48.8177 63.974 48.5625 64.1094C48.3073 64.2448 48.0911 64.4297 47.9141 64.6641C47.7422 64.8984 47.6094 65.1693 47.5156 65.4766C47.4219 65.7839 47.375 66.112 47.375 66.4609ZM60.1641 62.5469H61.875V70.7656C61.875 71.526 61.7135 72.1719 61.3906 72.7031C61.0677 73.2344 60.6172 73.638 60.0391 73.9141C59.4609 74.1953 58.7917 74.3359 58.0312 74.3359C57.7083 74.3359 57.349 74.2891 56.9531 74.1953C56.5625 74.1016 56.1823 73.9505 55.8125 73.7422C55.4479 73.5391 55.1432 73.2708 54.8984 72.9375L55.7812 71.8281C56.0833 72.1875 56.4167 72.4505 56.7812 72.6172C57.1458 72.7839 57.5286 72.8672 57.9297 72.8672C58.362 72.8672 58.7292 72.7865 59.0312 72.625C59.3385 72.4688 59.5755 72.237 59.7422 71.9297C59.9089 71.6224 59.9922 71.2474 59.9922 70.8047V64.4609L60.1641 62.5469ZM54.4219 66.8672V66.7031C54.4219 66.0625 54.5 65.4792 54.6562 64.9531C54.8125 64.4219 55.0365 63.9661 55.3281 63.5859C55.6198 63.2005 55.974 62.9062 56.3906 62.7031C56.8073 62.4948 57.2786 62.3906 57.8047 62.3906C58.3516 62.3906 58.8177 62.4896 59.2031 62.6875C59.5938 62.8854 59.9193 63.1693 60.1797 63.5391C60.4401 63.9036 60.6432 64.3411 60.7891 64.8516C60.9401 65.3568 61.0521 65.9193 61.125 66.5391V67.0625C61.0573 67.6667 60.9427 68.2188 60.7812 68.7188C60.6198 69.2188 60.4062 69.651 60.1406 70.0156C59.875 70.3802 59.5469 70.6615 59.1562 70.8594C58.7708 71.0573 58.3151 71.1562 57.7891 71.1562C57.2734 71.1562 56.8073 71.0495 56.3906 70.8359C55.9792 70.6224 55.625 70.3229 55.3281 69.9375C55.0365 69.5521 54.8125 69.099 54.6562 68.5781C54.5 68.0521 54.4219 67.4818 54.4219 66.8672ZM56.3047 66.7031V66.8672C56.3047 67.2526 56.3411 67.612 56.4141 67.9453C56.4922 68.2786 56.6094 68.5729 56.7656 68.8281C56.9271 69.0781 57.1302 69.276 57.375 69.4219C57.625 69.5625 57.9193 69.6328 58.2578 69.6328C58.7005 69.6328 59.0625 69.5391 59.3438 69.3516C59.6302 69.1641 59.849 68.9115 60 68.5938C60.1562 68.2708 60.2656 67.9115 60.3281 67.5156V66.1016C60.2969 65.7943 60.2318 65.5078 60.1328 65.2422C60.0391 64.9766 59.9115 64.7448 59.75 64.5469C59.5885 64.3438 59.3854 64.1875 59.1406 64.0781C58.8958 63.9635 58.6068 63.9062 58.2734 63.9062C57.9349 63.9062 57.6406 63.9792 57.3906 64.125C57.1406 64.2708 56.9349 64.4714 56.7734 64.7266C56.6172 64.9818 56.5 65.2786 56.4219 65.6172C56.3438 65.9557 56.3047 66.3177 56.3047 66.7031Z" fill="#64416D"/>
<circle cx="239" cy="24" r="24" fill="#2FB164"/>
<path d="M248 20L237 31L232 26" stroke="white" stroke-width="2" stroke-linecap="round" stroke-linejoin="round"/>
<path d="M221.398 65V65.625C221.398 66.4844 221.286 67.2552 221.062 67.9375C220.839 68.6198 220.518 69.2005 220.102 69.6797C219.69 70.1589 219.195 70.526 218.617 70.7812C218.039 71.0312 217.398 71.1562 216.695 71.1562C215.997 71.1562 215.359 71.0312 214.781 70.7812C214.208 70.526 213.711 70.1589 213.289 69.6797C212.867 69.2005 212.539 68.6198 212.305 67.9375C212.076 67.2552 211.961 66.4844 211.961 65.625V65C211.961 64.1406 212.076 63.3724 212.305 62.6953C212.534 62.013 212.857 61.4323 213.273 60.9531C213.695 60.4688 214.193 60.1016 214.766 59.8516C215.344 59.5964 215.982 59.4688 216.68 59.4688C217.383 59.4688 218.023 59.5964 218.602 59.8516C219.18 60.1016 219.677 60.4688 220.094 60.9531C220.51 61.4323 220.831 62.013 221.055 62.6953C221.284 63.3724 221.398 64.1406 221.398 65ZM219.438 65.625V64.9844C219.438 64.349 219.375 63.7891 219.25 63.3047C219.13 62.8151 218.951 62.4062 218.711 62.0781C218.477 61.7448 218.188 61.4948 217.844 61.3281C217.5 61.1562 217.112 61.0703 216.68 61.0703C216.247 61.0703 215.862 61.1562 215.523 61.3281C215.185 61.4948 214.896 61.7448 214.656 62.0781C214.422 62.4062 214.242 62.8151 214.117 63.3047C213.992 63.7891 213.93 64.349 213.93 64.9844V65.625C213.93 66.2604 213.992 66.8229 214.117 67.3125C214.242 67.8021 214.424 68.2161 214.664 68.5547C214.909 68.888 215.201 69.1406 215.539 69.3125C215.878 69.4792 216.263 69.5625 216.695 69.5625C217.133 69.5625 217.521 69.4792 217.859 69.3125C218.198 69.1406 218.484 68.888 218.719 68.5547C218.953 68.2161 219.13 67.8021 219.25 67.3125C219.375 66.8229 219.438 66.2604 219.438 65.625ZM225.062 64.1719V74.25H223.18V62.5469H224.914L225.062 64.1719ZM230.57 66.6953V66.8594C230.57 67.474 230.497 68.0443 230.352 68.5703C230.211 69.0911 230 69.5469 229.719 69.9375C229.443 70.3229 229.102 70.6224 228.695 70.8359C228.289 71.0495 227.82 71.1562 227.289 71.1562C226.763 71.1562 226.302 71.0599 225.906 70.8672C225.516 70.6693 225.185 70.3906 224.914 70.0312C224.643 69.6719 224.424 69.25 224.258 68.7656C224.096 68.276 223.982 67.7396 223.914 67.1562V66.5234C223.982 65.9036 224.096 65.3411 224.258 64.8359C224.424 64.3307 224.643 63.8958 224.914 63.5312C225.185 63.1667 225.516 62.8854 225.906 62.6875C226.297 62.4896 226.753 62.3906 227.273 62.3906C227.805 62.3906 228.276 62.4948 228.688 62.7031C229.099 62.9062 229.445 63.1979 229.727 63.5781C230.008 63.9531 230.219 64.4062 230.359 64.9375C230.5 65.4635 230.57 66.0495 230.57 66.6953ZM228.688 66.8594V66.6953C228.688 66.3047 228.651 65.9427 228.578 65.6094C228.505 65.2708 228.391 64.974 228.234 64.7188C228.078 64.4635 227.878 64.2656 227.633 64.125C227.393 63.9792 227.104 63.9062 226.766 63.9062C226.432 63.9062 226.146 63.9635 225.906 64.0781C225.667 64.1875 225.466 64.3411 225.305 64.5391C225.143 64.737 225.018 64.9688 224.93 65.2344C224.841 65.4948 224.779 65.7786 224.742 66.0859V67.6016C224.805 67.9766 224.911 68.3203 225.062 68.6328C225.214 68.9453 225.427 69.1953 225.703 69.3828C225.984 69.5651 226.344 69.6562 226.781 69.6562C227.12 69.6562 227.409 69.5833 227.648 69.4375C227.888 69.2917 228.083 69.0911 228.234 68.8359C228.391 68.5755 228.505 68.276 228.578 67.9375C228.651 67.599 228.688 67.2396 228.688 66.8594ZM236.047 62.5469V63.9219H231.281V62.5469H236.047ZM232.656 60.4766H234.539V68.6641C234.539 68.9245 234.576 69.125 234.648 69.2656C234.727 69.401 234.833 69.4922 234.969 69.5391C235.104 69.5859 235.263 69.6094 235.445 69.6094C235.576 69.6094 235.701 69.6016 235.82 69.5859C235.94 69.5703 236.036 69.5547 236.109 69.5391L236.117 70.9766C235.961 71.0234 235.779 71.0651 235.57 71.1016C235.367 71.138 235.133 71.1562 234.867 71.1562C234.435 71.1562 234.052 71.0807 233.719 70.9297C233.385 70.7734 233.125 70.5208 232.938 70.1719C232.75 69.8229 232.656 69.3594 232.656 68.7812V60.4766ZM239.516 62.5469V71H237.625V62.5469H239.516ZM237.5 60.3281C237.5 60.0417 237.594 59.8047 237.781 59.6172C237.974 59.4245 238.24 59.3281 238.578 59.3281C238.911 59.3281 239.174 59.4245 239.367 59.6172C239.56 59.8047 239.656 60.0417 239.656 60.3281C239.656 60.6094 239.56 60.8438 239.367 61.0312C239.174 61.2188 238.911 61.3125 238.578 61.3125C238.24 61.3125 237.974 61.2188 237.781 61.0312C237.594 60.8438 237.5 60.6094 237.5 60.3281ZM241.219 66.8672V66.6875C241.219 66.0781 241.307 65.513 241.484 64.9922C241.661 64.4661 241.917 64.0104 242.25 63.625C242.589 63.2344 243 62.9323 243.484 62.7188C243.974 62.5 244.526 62.3906 245.141 62.3906C245.76 62.3906 246.312 62.5 246.797 62.7188C247.286 62.9323 247.701 63.2344 248.039 63.625C248.378 64.0104 248.635 64.4661 248.812 64.9922C248.99 65.513 249.078 66.0781 249.078 66.6875V66.8672C249.078 67.4766 248.99 68.0417 248.812 68.5625C248.635 69.0833 248.378 69.5391 248.039 69.9297C247.701 70.3151 247.289 70.6172 246.805 70.8359C246.32 71.0495 245.771 71.1562 245.156 71.1562C244.536 71.1562 243.982 71.0495 243.492 70.8359C243.008 70.6172 242.596 70.3151 242.258 69.9297C241.919 69.5391 241.661 69.0833 241.484 68.5625C241.307 68.0417 241.219 67.4766 241.219 66.8672ZM243.102 66.6875V66.8672C243.102 67.2474 243.141 67.6068 243.219 67.9453C243.297 68.2839 243.419 68.5807 243.586 68.8359C243.753 69.0911 243.966 69.2917 244.227 69.4375C244.487 69.5833 244.797 69.6562 245.156 69.6562C245.505 69.6562 245.807 69.5833 246.062 69.4375C246.323 69.2917 246.536 69.0911 246.703 68.8359C246.87 68.5807 246.992 68.2839 247.07 67.9453C247.154 67.6068 247.195 67.2474 247.195 66.8672V66.6875C247.195 66.3125 247.154 65.9583 247.07 65.625C246.992 65.2865 246.867 64.987 246.695 64.7266C246.529 64.4661 246.315 64.263 246.055 64.1172C245.799 63.9661 245.495 63.8906 245.141 63.8906C244.786 63.8906 244.479 63.9661 244.219 64.1172C243.964 64.263 243.753 64.4661 243.586 64.7266C243.419 64.987 243.297 65.2865 243.219 65.625C243.141 65.9583 243.102 66.3125 243.102 66.6875ZM252.523 64.3516V71H250.641V62.5469H252.414L252.523 64.3516ZM252.188 66.4609L251.578 66.4531C251.583 65.8542 251.667 65.3047 251.828 64.8047C251.995 64.3047 252.224 63.875 252.516 63.5156C252.812 63.1562 253.167 62.8802 253.578 62.6875C253.99 62.4896 254.448 62.3906 254.953 62.3906C255.359 62.3906 255.727 62.4479 256.055 62.5625C256.388 62.6719 256.672 62.8516 256.906 63.1016C257.146 63.3516 257.328 63.6771 257.453 64.0781C257.578 64.474 257.641 64.9609 257.641 65.5391V71H255.75V65.5312C255.75 65.125 255.69 64.8047 255.57 64.5703C255.456 64.3307 255.286 64.1615 255.062 64.0625C254.844 63.9583 254.57 63.9062 254.242 63.9062C253.919 63.9062 253.63 63.974 253.375 64.1094C253.12 64.2448 252.904 64.4297 252.727 64.6641C252.555 64.8984 252.422 65.1693 252.328 65.4766C252.234 65.7839 252.188 66.112 252.188 66.4609ZM264.305 68.7109C264.305 68.5234 264.258 68.3542 264.164 68.2031C264.07 68.0469 263.891 67.9062 263.625 67.7812C263.365 67.6562 262.979 67.5417 262.469 67.4375C262.021 67.3385 261.609 67.2214 261.234 67.0859C260.865 66.9453 260.547 66.776 260.281 66.5781C260.016 66.3802 259.81 66.1458 259.664 65.875C259.518 65.6042 259.445 65.2917 259.445 64.9375C259.445 64.5938 259.521 64.2682 259.672 63.9609C259.823 63.6536 260.039 63.3828 260.32 63.1484C260.602 62.9141 260.943 62.7292 261.344 62.5938C261.75 62.4583 262.203 62.3906 262.703 62.3906C263.411 62.3906 264.018 62.5104 264.523 62.75C265.034 62.9844 265.424 63.3047 265.695 63.7109C265.966 64.112 266.102 64.5651 266.102 65.0703H264.219C264.219 64.8464 264.161 64.638 264.047 64.4453C263.938 64.2474 263.771 64.0885 263.547 63.9688C263.323 63.8438 263.042 63.7812 262.703 63.7812C262.38 63.7812 262.112 63.8333 261.898 63.9375C261.69 64.0365 261.534 64.1667 261.43 64.3281C261.331 64.4896 261.281 64.6667 261.281 64.8594C261.281 65 261.307 65.1276 261.359 65.2422C261.417 65.3516 261.51 65.4531 261.641 65.5469C261.771 65.6354 261.948 65.7188 262.172 65.7969C262.401 65.875 262.688 65.9505 263.031 66.0234C263.677 66.1589 264.232 66.3333 264.695 66.5469C265.164 66.7552 265.523 67.026 265.773 67.3594C266.023 67.6875 266.148 68.1042 266.148 68.6094C266.148 68.9844 266.068 69.3281 265.906 69.6406C265.75 69.9479 265.521 70.2161 265.219 70.4453C264.917 70.6693 264.555 70.8438 264.133 70.9688C263.716 71.0938 263.247 71.1562 262.727 71.1562C261.961 71.1562 261.312 71.0208 260.781 70.75C260.25 70.474 259.846 70.1224 259.57 69.6953C259.299 69.263 259.164 68.8151 259.164 68.3516H260.984C261.005 68.7005 261.102 68.9792 261.273 69.1875C261.451 69.3906 261.669 69.5391 261.93 69.6328C262.195 69.7214 262.469 69.7656 262.75 69.7656C263.089 69.7656 263.372 69.7214 263.602 69.6328C263.831 69.5391 264.005 69.4141 264.125 69.2578C264.245 69.0964 264.305 68.9141 264.305 68.7109Z" fill="#64416D"/>
<circle cx="449.5" cy="24" r="24" fill="#E0E0E0"/>
<path d="M458 20L447 31L442 26" stroke="#FEFEFE" stroke-width="2" stroke-linecap="round" stroke-linejoin="round"/>
<path d="M422.273 68.0703C422.273 67.8359 422.237 67.6276 422.164 67.4453C422.096 67.263 421.974 67.0964 421.797 66.9453C421.62 66.7943 421.37 66.6484 421.047 66.5078C420.729 66.362 420.323 66.2135 419.828 66.0625C419.286 65.8958 418.786 65.7109 418.328 65.5078C417.875 65.2995 417.479 65.0599 417.141 64.7891C416.802 64.513 416.539 64.1979 416.352 63.8438C416.164 63.4844 416.07 63.0703 416.07 62.6016C416.07 62.138 416.167 61.7161 416.359 61.3359C416.557 60.9557 416.836 60.6276 417.195 60.3516C417.56 60.0703 417.99 59.8542 418.484 59.7031C418.979 59.5469 419.526 59.4688 420.125 59.4688C420.969 59.4688 421.695 59.625 422.305 59.9375C422.919 60.25 423.391 60.6693 423.719 61.1953C424.052 61.7214 424.219 62.3021 424.219 62.9375H422.273C422.273 62.5625 422.193 62.2318 422.031 61.9453C421.875 61.6536 421.635 61.4245 421.312 61.2578C420.995 61.0911 420.591 61.0078 420.102 61.0078C419.638 61.0078 419.253 61.0781 418.945 61.2188C418.638 61.3594 418.409 61.5495 418.258 61.7891C418.107 62.0286 418.031 62.2995 418.031 62.6016C418.031 62.8151 418.081 63.0104 418.18 63.1875C418.279 63.3594 418.43 63.5208 418.633 63.6719C418.836 63.8177 419.091 63.9557 419.398 64.0859C419.706 64.2161 420.068 64.3411 420.484 64.4609C421.115 64.6484 421.664 64.8568 422.133 65.0859C422.602 65.3099 422.992 65.5651 423.305 65.8516C423.617 66.138 423.852 66.4635 424.008 66.8281C424.164 67.1875 424.242 67.5964 424.242 68.0547C424.242 68.5339 424.146 68.9661 423.953 69.3516C423.76 69.7318 423.484 70.0573 423.125 70.3281C422.771 70.5938 422.344 70.7995 421.844 70.9453C421.349 71.0859 420.797 71.1562 420.188 71.1562C419.641 71.1562 419.102 71.0833 418.57 70.9375C418.044 70.7917 417.565 70.5703 417.133 70.2734C416.701 69.9714 416.357 69.5964 416.102 69.1484C415.846 68.6953 415.719 68.1667 415.719 67.5625H417.68C417.68 67.9323 417.742 68.2474 417.867 68.5078C417.997 68.7682 418.177 68.9818 418.406 69.1484C418.635 69.3099 418.901 69.4297 419.203 69.5078C419.51 69.5859 419.839 69.625 420.188 69.625C420.646 69.625 421.029 69.5599 421.336 69.4297C421.648 69.2995 421.883 69.1172 422.039 68.8828C422.195 68.6484 422.273 68.3776 422.273 68.0703ZM430.875 69.0078V62.5469H432.766V71H430.984L430.875 69.0078ZM431.141 67.25L431.773 67.2344C431.773 67.8021 431.711 68.3255 431.586 68.8047C431.461 69.2786 431.268 69.6927 431.008 70.0469C430.747 70.3958 430.414 70.6693 430.008 70.8672C429.602 71.0599 429.115 71.1562 428.547 71.1562C428.135 71.1562 427.758 71.0964 427.414 70.9766C427.07 70.8568 426.773 70.6719 426.523 70.4219C426.279 70.1719 426.089 69.8464 425.953 69.4453C425.818 69.0443 425.75 68.5651 425.75 68.0078V62.5469H427.633V68.0234C427.633 68.3307 427.669 68.5885 427.742 68.7969C427.815 69 427.914 69.1641 428.039 69.2891C428.164 69.4141 428.31 69.5026 428.477 69.5547C428.643 69.6068 428.82 69.6328 429.008 69.6328C429.544 69.6328 429.966 69.5286 430.273 69.3203C430.586 69.1068 430.807 68.8203 430.938 68.4609C431.073 68.1016 431.141 67.6979 431.141 67.25ZM436.578 64.2656V71H434.695V62.5469H436.469L436.578 64.2656ZM436.273 66.4609L435.633 66.4531C435.633 65.8698 435.706 65.3307 435.852 64.8359C435.997 64.3411 436.211 63.9115 436.492 63.5469C436.773 63.1771 437.122 62.8932 437.539 62.6953C437.961 62.4922 438.448 62.3906 439 62.3906C439.385 62.3906 439.737 62.4479 440.055 62.5625C440.378 62.6719 440.656 62.8464 440.891 63.0859C441.13 63.3255 441.312 63.6328 441.438 64.0078C441.568 64.3828 441.633 64.8359 441.633 65.3672V71H439.75V65.5312C439.75 65.1198 439.688 64.7969 439.562 64.5625C439.443 64.3281 439.268 64.1615 439.039 64.0625C438.815 63.9583 438.547 63.9062 438.234 63.9062C437.88 63.9062 437.578 63.974 437.328 64.1094C437.083 64.2448 436.883 64.4297 436.727 64.6641C436.57 64.8984 436.456 65.1693 436.383 65.4766C436.31 65.7839 436.273 66.112 436.273 66.4609ZM441.516 65.9609L440.633 66.1562C440.633 65.6458 440.703 65.1641 440.844 64.7109C440.99 64.2526 441.201 63.8516 441.477 63.5078C441.758 63.1589 442.104 62.8854 442.516 62.6875C442.927 62.4896 443.398 62.3906 443.93 62.3906C444.362 62.3906 444.747 62.4505 445.086 62.5703C445.43 62.6849 445.721 62.8672 445.961 63.1172C446.201 63.3672 446.383 63.6927 446.508 64.0938C446.633 64.4896 446.695 64.9688 446.695 65.5312V71H444.805V65.5234C444.805 65.0964 444.742 64.7656 444.617 64.5312C444.497 64.2969 444.326 64.1354 444.102 64.0469C443.878 63.9531 443.609 63.9062 443.297 63.9062C443.005 63.9062 442.747 63.9609 442.523 64.0703C442.305 64.1745 442.12 64.3229 441.969 64.5156C441.818 64.7031 441.703 64.9193 441.625 65.1641C441.552 65.4089 441.516 65.6745 441.516 65.9609ZM450.516 64.2656V71H448.633V62.5469H450.406L450.516 64.2656ZM450.211 66.4609L449.57 66.4531C449.57 65.8698 449.643 65.3307 449.789 64.8359C449.935 64.3411 450.148 63.9115 450.43 63.5469C450.711 63.1771 451.06 62.8932 451.477 62.6953C451.898 62.4922 452.385 62.3906 452.938 62.3906C453.323 62.3906 453.674 62.4479 453.992 62.5625C454.315 62.6719 454.594 62.8464 454.828 63.0859C455.068 63.3255 455.25 63.6328 455.375 64.0078C455.505 64.3828 455.57 64.8359 455.57 65.3672V71H453.688V65.5312C453.688 65.1198 453.625 64.7969 453.5 64.5625C453.38 64.3281 453.206 64.1615 452.977 64.0625C452.753 63.9583 452.484 63.9062 452.172 63.9062C451.818 63.9062 451.516 63.974 451.266 64.1094C451.021 64.2448 450.82 64.4297 450.664 64.6641C450.508 64.8984 450.393 65.1693 450.32 65.4766C450.247 65.7839 450.211 66.112 450.211 66.4609ZM455.453 65.9609L454.57 66.1562C454.57 65.6458 454.641 65.1641 454.781 64.7109C454.927 64.2526 455.138 63.8516 455.414 63.5078C455.695 63.1589 456.042 62.8854 456.453 62.6875C456.865 62.4896 457.336 62.3906 457.867 62.3906C458.299 62.3906 458.685 62.4505 459.023 62.5703C459.367 62.6849 459.659 62.8672 459.898 63.1172C460.138 63.3672 460.32 63.6927 460.445 64.0938C460.57 64.4896 460.633 64.9688 460.633 65.5312V71H458.742V65.5234C458.742 65.0964 458.68 64.7656 458.555 64.5312C458.435 64.2969 458.263 64.1354 458.039 64.0469C457.815 63.9531 457.547 63.9062 457.234 63.9062C456.943 63.9062 456.685 63.9609 456.461 64.0703C456.242 64.1745 456.057 64.3229 455.906 64.5156C455.755 64.7031 455.641 64.9193 455.562 65.1641C455.49 65.4089 455.453 65.6745 455.453 65.9609ZM467.336 69.3047V65.2734C467.336 64.9714 467.281 64.7109 467.172 64.4922C467.062 64.2734 466.896 64.1042 466.672 63.9844C466.453 63.8646 466.177 63.8047 465.844 63.8047C465.536 63.8047 465.271 63.8568 465.047 63.9609C464.823 64.0651 464.648 64.2057 464.523 64.3828C464.398 64.5599 464.336 64.7604 464.336 64.9844H462.461C462.461 64.651 462.542 64.3281 462.703 64.0156C462.865 63.7031 463.099 63.4245 463.406 63.1797C463.714 62.9349 464.081 62.7422 464.508 62.6016C464.935 62.4609 465.414 62.3906 465.945 62.3906C466.581 62.3906 467.143 62.4974 467.633 62.7109C468.128 62.9245 468.516 63.2474 468.797 63.6797C469.083 64.1068 469.227 64.6432 469.227 65.2891V69.0469C469.227 69.4323 469.253 69.7786 469.305 70.0859C469.362 70.388 469.443 70.651 469.547 70.875V71H467.617C467.529 70.7969 467.458 70.5391 467.406 70.2266C467.359 69.9089 467.336 69.6016 467.336 69.3047ZM467.609 65.8594L467.625 67.0234H466.273C465.924 67.0234 465.617 67.0573 465.352 67.125C465.086 67.1875 464.865 67.2812 464.688 67.4062C464.51 67.5312 464.378 67.6823 464.289 67.8594C464.201 68.0365 464.156 68.237 464.156 68.4609C464.156 68.6849 464.208 68.8906 464.312 69.0781C464.417 69.2604 464.568 69.4036 464.766 69.5078C464.969 69.612 465.214 69.6641 465.5 69.6641C465.885 69.6641 466.221 69.5859 466.508 69.4297C466.799 69.2682 467.029 69.0729 467.195 68.8438C467.362 68.6094 467.451 68.388 467.461 68.1797L468.07 69.0156C468.008 69.2292 467.901 69.4583 467.75 69.7031C467.599 69.9479 467.401 70.1823 467.156 70.4062C466.917 70.625 466.628 70.8047 466.289 70.9453C465.956 71.0859 465.57 71.1562 465.133 71.1562C464.581 71.1562 464.089 71.0469 463.656 70.8281C463.224 70.6042 462.885 70.3047 462.641 69.9297C462.396 69.5495 462.273 69.1198 462.273 68.6406C462.273 68.1927 462.357 67.7969 462.523 67.4531C462.695 67.1042 462.945 66.8125 463.273 66.5781C463.607 66.3438 464.013 66.1667 464.492 66.0469C464.971 65.9219 465.518 65.8594 466.133 65.8594H467.609ZM473.086 64.1562V71H471.203V62.5469H473L473.086 64.1562ZM475.672 62.4922L475.656 64.2422C475.542 64.2214 475.417 64.2057 475.281 64.1953C475.151 64.1849 475.021 64.1797 474.891 64.1797C474.568 64.1797 474.284 64.2266 474.039 64.3203C473.794 64.4089 473.589 64.5391 473.422 64.7109C473.26 64.8776 473.135 65.0807 473.047 65.3203C472.958 65.5599 472.906 65.8281 472.891 66.125L472.461 66.1562C472.461 65.625 472.513 65.1328 472.617 64.6797C472.721 64.2266 472.878 63.8281 473.086 63.4844C473.299 63.1406 473.565 62.8724 473.883 62.6797C474.206 62.487 474.578 62.3906 475 62.3906C475.115 62.3906 475.237 62.401 475.367 62.4219C475.503 62.4427 475.604 62.4661 475.672 62.4922ZM479.445 70.0781L481.742 62.5469H483.758L480.367 72.2891C480.289 72.4974 480.188 72.724 480.062 72.9688C479.938 73.2135 479.773 73.4453 479.57 73.6641C479.372 73.888 479.125 74.0677 478.828 74.2031C478.531 74.3438 478.172 74.4141 477.75 74.4141C477.583 74.4141 477.422 74.3984 477.266 74.3672C477.115 74.3411 476.971 74.3125 476.836 74.2812L476.828 72.8438C476.88 72.849 476.943 72.8542 477.016 72.8594C477.094 72.8646 477.156 72.8672 477.203 72.8672C477.516 72.8672 477.776 72.8281 477.984 72.75C478.193 72.6771 478.362 72.5573 478.492 72.3906C478.628 72.224 478.742 72 478.836 71.7188L479.445 70.0781ZM478.148 62.5469L480.156 68.875L480.492 70.8594L479.188 71.1953L476.117 62.5469H478.148Z" fill="#3F2942"/>
<defs>
<linearGradient id="paint0_linear_80_86" x1="15" y1="24.5" x2="469" y2="24.5" gradientUnits="userSpaceOnUse">
<stop offset="0.4949" stop-color="#2FB164"/>
<stop offset="0.495" stop-color="#E0E0E0"/>
</linearGradient>
</defs>
</svg>
