<svg width="24" height="24" viewBox="0 0 24 24" fill="none" xmlns="http://www.w3.org/2000/svg">
<g clip-path="url(#clip0_42_1204)">
<path d="M23.5566 0.0736243C23.2887 -0.0331101 22.9829 0.0339211 22.7845 0.243124C21.372 1.73197 20.2703 3.45345 19.5099 5.35962C19.3808 5.68358 19.2632 6.01062 19.1557 6.34016C17.4447 4.18522 14.829 2.89564 12.0235 2.89564C10.2404 2.89564 8.5162 3.41455 7.04508 4.3767V0.727952C7.04508 0.33889 6.72966 0.023468 6.34059 0.023468C5.95153 0.023468 5.63611 0.33889 5.63611 0.727952V5.65948H4.227V0.727952C4.227 0.33889 3.91158 0.023468 3.52252 0.023468C3.13345 0.023468 2.81803 0.33889 2.81803 0.727952V5.65948H1.40902V0.727952C1.40902 0.33889 1.09359 0.023468 0.704531 0.023468C0.315469 0.023468 0 0.33889 0 0.727952V6.36397V7.77298C0 8.69141 0.589031 9.4745 1.40902 9.76531V21.863C1.40902 23.0284 2.35716 23.9765 3.52252 23.9765C4.68788 23.9765 5.63602 23.0284 5.63602 21.863V18.4877C7.32234 20.1498 9.60361 21.1043 12.0235 21.1043C15.2192 21.1043 18.1382 19.4258 19.773 16.7813V21.863C19.773 23.0284 20.7211 23.9765 21.8865 23.9765C23.0519 23.9765 24 23.0284 24 21.863V0.727952C24 0.439624 23.8244 0.180452 23.5566 0.0736243ZM4.227 21.863C4.227 22.2515 3.91097 22.5675 3.52252 22.5675C3.13406 22.5675 2.81803 22.2515 2.81803 21.863V9.88648H4.22705L4.227 21.863ZM4.93153 8.47747H2.1135C1.72505 8.47747 1.40902 8.16144 1.40902 7.77298V7.0685H5.63602V7.77298C5.63602 8.16144 5.31998 8.47747 4.93153 8.47747ZM12.0235 19.8037C9.47213 19.8037 7.09987 18.5661 5.63602 16.4834V9.76531C6.456 9.4745 7.04503 8.69141 7.04503 7.77298V5.99047C8.44298 4.83102 10.1972 4.19628 12.0235 4.19628C14.7705 4.19628 17.305 5.63923 18.7142 7.98237C18.4818 9.07677 18.364 10.1941 18.364 11.3252V14.818C18.364 15.181 18.6385 15.4796 18.9912 15.518C17.6778 18.1166 14.9898 19.8037 12.0235 19.8037ZM22.591 21.863C22.591 22.2515 22.275 22.5675 21.8865 22.5675C21.498 22.5675 21.182 22.2515 21.182 21.863V14.818C21.182 14.4289 20.8666 14.1135 20.4775 14.1135H19.773V11.3252C19.773 8.18375 20.763 5.17189 22.591 2.67012L22.591 21.863Z" fill="#6A3035"/>
<path d="M12.0234 7.12271C9.33406 7.12271 7.14612 9.31065 7.14612 12C7.14612 14.6894 9.33406 16.8773 12.0234 16.8773C14.7128 16.8773 16.9007 14.6894 16.9007 12C16.9007 9.31065 14.7128 7.12271 12.0234 7.12271ZM12.0234 15.5767C10.0512 15.5767 8.44671 13.9722 8.44671 12C8.44671 10.0278 10.0512 8.42331 12.0234 8.42331C13.9956 8.42331 15.6001 10.0278 15.6001 12C15.6001 13.9722 13.9956 15.5767 12.0234 15.5767Z" fill="#6A3035"/>
</g>
<defs>
<clipPath id="clip0_42_1204">
<rect width="24" height="24" fill="white"/>
</clipPath>
</defs>
</svg>
