<svg width="24" height="24" viewBox="0 0 24 24" fill="none" xmlns="http://www.w3.org/2000/svg">
<path d="M19.6263 8.84161C18.9142 7.44635 17.9253 5.98078 16.6871 4.48572C14.5931 1.95741 12.5295 0.232192 12.4427 0.160049C12.1862 -0.0532683 11.8139 -0.0532683 11.5572 0.160049C11.4704 0.232192 9.40685 1.95741 7.31304 4.48572C6.0747 5.98078 5.08593 7.44635 4.37384 8.84161C3.46216 10.6274 3 12.3113 3 13.8462C3 16.9759 3.9071 19.5862 5.62335 21.3953C7.21673 23.0749 9.48137 24 12 24C14.5188 24 16.7832 23.0749 18.3766 21.3953C20.0929 19.5862 21 16.9759 21 13.8462C21 12.3113 20.5378 10.6274 19.6263 8.84161ZM12 22.6153C7.37383 22.6153 4.38464 19.1733 4.38464 13.8462C4.38464 8.80737 10.3125 3.12672 12 1.61207C13.6877 3.1269 19.6153 8.80737 19.6153 13.8462C19.6153 19.1733 16.6261 22.6153 12 22.6153Z" fill="#6A3035"/>
<path d="M12.1598 17.633C11.345 17.6783 10.5481 17.3734 9.97191 16.7973C9.09594 15.9214 8.90642 14.6151 9.40282 13.5525C9.46929 13.5795 9.54088 13.5967 9.61614 13.6018C9.63188 13.6029 9.64745 13.6034 9.66301 13.6034C10.0243 13.6034 10.3286 13.3229 10.3531 12.9571L10.413 12.058C10.4264 11.8588 10.353 11.6636 10.2118 11.5225C10.0706 11.3813 9.87541 11.308 9.6762 11.3212L8.77715 11.3811C8.39556 11.4065 8.10699 11.7365 8.13244 12.1179C8.14471 12.3023 8.22838 12.4643 8.35418 12.5804C7.37347 14.2141 7.58605 16.3696 8.99303 17.7764C9.79174 18.5753 10.8774 19.0221 12.0018 19.0221C12.0798 19.0221 12.1582 19.0199 12.2366 19.0155C12.6183 18.9944 12.9106 18.6678 12.8893 18.286C12.8683 17.9042 12.5416 17.6122 12.1598 17.633Z" fill="#6A3035"/>
<path d="M11.7339 10.5247C11.3523 10.5487 11.0623 10.8772 11.0861 11.2588C11.1099 11.6405 11.4393 11.9311 11.8202 11.9066C12.6417 11.8557 13.4465 12.1596 14.028 12.7412C14.5698 13.2828 14.8681 14.0032 14.8681 14.7693C14.8681 15.197 14.7749 15.6104 14.5984 15.9865C14.5318 15.9593 14.4598 15.9417 14.3838 15.9367C14.0029 15.9118 13.6724 16.1999 13.647 16.5815L13.5871 17.4805C13.5737 17.6797 13.6472 17.8749 13.7883 18.0161C13.9185 18.1465 14.0949 18.219 14.2778 18.219C14.293 18.219 14.3084 18.2184 14.3239 18.2173L15.223 18.1574C15.6046 18.132 15.8931 17.802 15.8677 17.4206C15.8554 17.237 15.7723 17.0753 15.647 16.9592C16.0418 16.3048 16.2528 15.5531 16.2528 14.7693C16.2528 13.6333 15.8104 12.5652 15.0071 11.7621C14.1449 10.8999 12.9521 10.4489 11.7339 10.5247Z" fill="#6A3035"/>
</svg>
