<svg xmlns="http://www.w3.org/2000/svg" width="30" height="30" fill="none" viewBox="0 0 30 30"><g fill="#6a3035" clip-path="url(#a)"><path d="M9.127 19.969c-1.164 0-2.11.946-2.11 2.11 0 1.162.946 2.108 2.11 2.108s2.11-.946 2.11-2.109-.947-2.11-2.11-2.11m0 2.812a.704.704 0 1 1 .001-1.408.704.704 0 0 1-.001 1.408m.703-4.92a.703.703 0 1 1-1.406 0 .703.703 0 0 1 1.406 0"/><path d="M26.283 15.75h-1.886a8.8 8.8 0 0 0-4.997 1.545 8 8 0 0 0-1.338-.786l-2.607-5.83v-3.46c1.163 0 2.11-.947 2.11-2.11S16.617 3 15.454 3h-7.03c-1.164 0-2.11.946-2.11 2.11 0 1.162.946 2.109 2.11 2.109v3.46L3.52 21.642A3.514 3.514 0 0 0 6.516 27h11.62c2.746 0 5.237-1.107 6.832-3.037a8.73 8.73 0 0 0 2.018-5.624v-1.886a.703.703 0 0 0-.703-.703m-8.903 3.462-.444-.444a.703.703 0 1 0-.994.995l.657.658a8.8 8.8 0 0 0-.707 1.741 6.7 6.7 0 0 1-1.746-4.526v-.48h.48c1.297 0 2.562.375 3.639 1.066a9 9 0 0 0-.885.99M10.533 7.22a.703.703 0 0 0 0-1.407h-2.11a.704.704 0 0 1 0-1.406h7.032a.704.704 0 0 1 0 1.407h-2.11a.703.703 0 1 0 0 1.406h.704v3.61q0 .149.06.286l1.078 2.409a4.33 4.33 0 0 1-2.901-.495 5.77 5.77 0 0 0-3.043-.74l.525-1.174a.7.7 0 0 0 .062-.287v-3.61zM4.667 24.5a2.11 2.11 0 0 1 .069-2.147 1 1 0 0 0 .049-.09l3.792-8.482a4.36 4.36 0 0 1 3.015.472 5.73 5.73 0 0 0 4.182.585l.482 1.078c-1.183-.241-1.972-.144-2.814-.165a.703.703 0 0 0-.703.703v1.183a8.12 8.12 0 0 0 2.847 6.186 9 9 0 0 0 .026 1.772H6.516c-.77 0-1.479-.42-1.85-1.095m20.913-6.16a7.33 7.33 0 0 1-1.695 4.728c-1.328 1.606-3.423 2.527-5.748 2.527l3.018-3.019a.703.703 0 1 0-.994-.994l-3.198 3.198a7.4 7.4 0 0 1 1.652-4.862 7.4 7.4 0 0 1 5.782-2.76h1.183z"/></g><defs><clipPath id="a"><path fill="#fff" d="M3 3h24v24H3z"/></clipPath></defs></svg>