<svg width="18" height="18" viewBox="0 0 18 18" fill="none" xmlns="http://www.w3.org/2000/svg">
<path d="M15.9905 2.80264C15.9784 2.59622 15.891 2.40141 15.7448 2.2552C15.5986 2.109 15.4038 2.02157 15.1974 2.00951C12.413 1.84568 9.95276 2.17404 7.88487 2.98475C5.90628 3.76029 4.3812 4.96264 3.47276 6.4617C2.23386 8.5085 2.23104 10.9933 3.44112 13.3657L2.21557 14.5912C2.13709 14.6697 2.07483 14.7629 2.03236 14.8654C1.98988 14.968 1.96802 15.0779 1.96802 15.1889C1.96802 15.2999 1.98988 15.4098 2.03236 15.5123C2.07483 15.6149 2.13709 15.7081 2.21557 15.7865C2.37408 15.9451 2.58907 16.0341 2.81323 16.0341C2.92423 16.0341 3.03413 16.0122 3.13668 15.9698C3.23923 15.9273 3.3324 15.865 3.41089 15.7865L4.63643 14.561C5.81347 15.1615 7.01862 15.4645 8.1837 15.4645C9.36742 15.4682 10.5291 15.1446 11.5404 14.5294C13.0395 13.6209 14.2418 12.0951 15.0174 10.1172C15.826 8.04795 16.1543 5.58701 15.9905 2.80264ZM10.6636 13.0837C9.25104 13.9394 7.59378 14.0041 5.90206 13.289L11.8463 7.34482C11.9248 7.26634 11.987 7.17316 12.0295 7.07062C12.072 6.96807 12.0938 6.85816 12.0938 6.74717C12.0938 6.63617 12.072 6.52626 12.0295 6.42372C11.987 6.32117 11.9248 6.228 11.8463 6.14951C11.7678 6.07103 11.6746 6.00877 11.5721 5.96629C11.4695 5.92382 11.3596 5.90195 11.2486 5.90195C11.1376 5.90195 11.0277 5.92382 10.9252 5.96629C10.8226 6.00877 10.7295 6.07103 10.651 6.14951L4.71097 12.0979C3.998 10.4104 4.06268 8.74896 4.9219 7.33639C6.39214 4.90849 9.88175 3.5592 14.3438 3.66256C14.4408 8.12318 13.0915 11.6135 10.6636 13.0837Z" fill="#C9A227"/>
</svg>
