<svg width="18" height="18" viewBox="0 0 18 18" fill="none" xmlns="http://www.w3.org/2000/svg">
<path d="M15.4167 2.58542C14.6614 1.83025 13.6371 1.40601 12.569 1.40601C11.501 1.40601 10.4767 1.83025 9.72138 2.58542L2.58536 9.72143C1.83012 10.4767 1.40582 11.501 1.40582 12.5691C1.40582 13.6372 1.83012 14.6615 2.58536 15.4167C3.34061 16.172 4.36494 16.5963 5.43302 16.5963C6.50109 16.5963 7.52543 16.172 8.28067 15.4167L15.4167 8.27862C16.1704 7.52297 16.5936 6.49927 16.5936 5.43202C16.5936 4.36477 16.1704 3.34107 15.4167 2.58542ZM7.08606 14.2214C6.87238 14.4527 6.61418 14.6385 6.32696 14.7675C6.03974 14.8966 5.72942 14.9664 5.41459 14.9726C5.09976 14.9788 4.78692 14.9214 4.49482 14.8038C4.20273 14.6861 3.9374 14.5107 3.71474 14.2881C3.49208 14.0654 3.31668 13.8001 3.19905 13.508C3.08143 13.2159 3.02401 12.903 3.03023 12.5882C3.03646 12.2734 3.1062 11.9631 3.23527 11.6758C3.36434 11.3886 3.55009 11.1304 3.78138 10.9167L6.74997 7.94534L10.0547 11.25L7.08606 14.2214ZM14.2228 7.08542L11.25 10.0547L7.94528 6.75003L10.9174 3.77862C11.3612 3.36858 11.9465 3.14623 12.5506 3.15818C13.1547 3.17012 13.7308 3.41542 14.158 3.84268C14.5853 4.26993 14.8306 4.84598 14.8425 5.4501C14.8545 6.05421 14.6321 6.6395 14.2221 7.08331L14.2228 7.08542ZM13.5358 5.30932C13.6145 5.38771 13.6769 5.48085 13.7195 5.58341C13.7621 5.68597 13.784 5.79593 13.784 5.90698C13.784 6.01803 13.7621 6.12799 13.7195 6.23055C13.6769 6.3331 13.6145 6.42625 13.5358 6.50464L11.8483 8.19214C11.7698 8.27062 11.6767 8.33288 11.5741 8.37535C11.4716 8.41783 11.3617 8.43969 11.2507 8.43969C11.1397 8.43969 11.0298 8.41783 10.9272 8.37535C10.8247 8.33288 10.7315 8.27062 10.653 8.19214C10.5745 8.11365 10.5123 8.02047 10.4698 7.91793C10.4273 7.81538 10.4055 7.70547 10.4055 7.59448C10.4055 7.48348 10.4273 7.37358 10.4698 7.27103C10.5123 7.16848 10.5745 7.07531 10.653 6.99682L12.3405 5.30932C12.4189 5.23066 12.512 5.16825 12.6146 5.12566C12.7172 5.08308 12.8271 5.06116 12.9382 5.06116C13.0492 5.06116 13.1592 5.08308 13.2617 5.12566C13.3643 5.16825 13.4574 5.23066 13.5358 5.30932Z" fill="#C9A227"/>
</svg>
