<svg width="18" height="18" viewBox="0 0 18 18" fill="none" xmlns="http://www.w3.org/2000/svg">
<path d="M16.084 7.03477C15.8365 6.77672 15.5813 6.51023 15.4976 6.30844C15.423 6.12844 15.4174 5.75789 15.4125 5.43164C15.402 4.72852 15.3886 3.85383 14.767 3.23297C14.1455 2.61211 13.2715 2.60016 12.5684 2.5875C12.2421 2.58258 11.8716 2.57695 11.6916 2.50242C11.4898 2.41875 11.2233 2.16352 10.9652 1.91602C10.4674 1.43859 9.84727 0.84375 9 0.84375C8.15273 0.84375 7.53258 1.43859 7.03477 1.91602C6.77672 2.16352 6.51023 2.41875 6.30844 2.50242C6.12844 2.57695 5.75789 2.58258 5.43164 2.5875C4.72852 2.60156 3.85383 2.61141 3.23438 3.23438C2.61492 3.85734 2.60156 4.72852 2.5875 5.43164C2.58258 5.75789 2.57695 6.12844 2.50242 6.30844C2.41875 6.51023 2.16352 6.77672 1.91602 7.03477C1.43859 7.53258 0.84375 8.15625 0.84375 9C0.84375 9.84375 1.43859 10.4674 1.91602 10.9688C2.16352 11.2268 2.41875 11.4933 2.50242 11.6951C2.57695 11.8751 2.58258 12.2456 2.5875 12.5719C2.59805 13.275 2.61141 14.1497 3.23297 14.7705C3.85453 15.3914 4.72852 15.4034 5.43164 15.416C5.75789 15.4209 6.12844 15.4266 6.30844 15.5011C6.51023 15.5848 6.77672 15.84 7.03477 16.0875C7.53258 16.5614 8.15625 17.1562 9 17.1562C9.84375 17.1562 10.4674 16.5614 10.9652 16.084C11.2233 15.8365 11.4898 15.5813 11.6916 15.4976C11.8716 15.423 12.2421 15.4174 12.5684 15.4125C13.2715 15.402 14.1462 15.3886 14.767 14.767C15.3879 14.1455 15.3998 13.2715 15.4125 12.5684C15.4174 12.2421 15.423 11.8716 15.4976 11.6916C15.5813 11.4898 15.8365 11.2233 16.084 10.9652C16.5614 10.4674 17.1562 9.84727 17.1562 9C17.1562 8.15273 16.5614 7.53258 16.084 7.03477ZM14.8662 9.79734C14.5273 10.1489 14.1434 10.5511 13.9388 11.0461C13.7405 11.5242 13.7327 12.0417 13.7278 12.543C13.7222 12.9199 13.7145 13.4367 13.5766 13.5738C13.4388 13.7109 12.9227 13.7194 12.5459 13.725C12.0445 13.7327 11.527 13.7405 11.0489 13.9359C10.5567 14.1405 10.1538 14.5245 9.80016 14.8634C9.54703 15.1059 9.16875 15.4688 9 15.4688C8.83125 15.4688 8.45297 15.1059 8.20266 14.8662C7.85109 14.5273 7.44891 14.1434 6.95391 13.9388C6.47578 13.7405 5.95828 13.7327 5.45695 13.7278C5.08008 13.7222 4.56328 13.7145 4.42617 13.5766C4.28906 13.4388 4.28062 12.9227 4.275 12.5459C4.26727 12.0445 4.25953 11.527 4.06406 11.0489C3.85945 10.5567 3.47555 10.1538 3.13664 9.80016C2.89406 9.54703 2.53125 9.16875 2.53125 9C2.53125 8.83125 2.89406 8.45297 3.13383 8.20266C3.47273 7.85109 3.85664 7.44891 4.06125 6.95391C4.25953 6.47578 4.26727 5.95828 4.27219 5.45695C4.28062 5.08008 4.28906 4.56328 4.42969 4.42969C4.57031 4.29609 5.08359 4.28414 5.46047 4.27852C5.9618 4.27078 6.4793 4.26305 6.95742 4.06758C7.44961 3.86297 7.8525 3.47906 8.20617 3.14016C8.45297 2.89406 8.83125 2.53125 9 2.53125C9.16875 2.53125 9.54703 2.89406 9.79734 3.13383C10.1489 3.47273 10.5511 3.85664 11.0461 4.06125C11.5242 4.25953 12.0417 4.26727 12.543 4.27219C12.9199 4.27781 13.4367 4.28555 13.5738 4.42336C13.7109 4.56117 13.7194 5.07727 13.725 5.45414C13.7327 5.95547 13.7405 6.47297 13.9359 6.95109C14.1405 7.44328 14.5245 7.84617 14.8634 8.19984C15.1031 8.45016 15.4659 8.82844 15.4659 8.99719C15.4659 9.16594 15.1059 9.54703 14.8662 9.79734ZM12.4095 6.71555C12.4881 6.79393 12.5505 6.88708 12.5931 6.98964C12.6357 7.0922 12.6576 7.20215 12.6576 7.3132C12.6576 7.42425 12.6357 7.53421 12.5931 7.63677C12.5505 7.73933 12.4881 7.83247 12.4095 7.91086L8.47195 11.8484C8.39357 11.927 8.30042 11.9894 8.19786 12.032C8.0953 12.0746 7.98535 12.0965 7.8743 12.0965C7.76325 12.0965 7.65329 12.0746 7.55073 12.032C7.44817 11.9894 7.35503 11.927 7.27664 11.8484L5.58914 10.1609C5.51065 10.0824 5.4484 9.9892 5.40592 9.88665C5.36345 9.78411 5.34158 9.6742 5.34158 9.5632C5.34158 9.45221 5.36345 9.3423 5.40592 9.23975C5.4484 9.13721 5.51065 9.04403 5.58914 8.96555C5.66763 8.88706 5.7608 8.8248 5.86335 8.78233C5.96589 8.73985 6.0758 8.71799 6.1868 8.71799C6.29779 8.71799 6.4077 8.73985 6.51025 8.78233C6.61279 8.8248 6.70597 8.88706 6.78445 8.96555L7.875 10.0547L11.2155 6.71344C11.294 6.63513 11.3872 6.57306 11.4897 6.53078C11.5922 6.4885 11.7021 6.46684 11.8129 6.46703C11.9238 6.46723 12.0336 6.48928 12.1359 6.53192C12.2383 6.57456 12.3312 6.63696 12.4095 6.71555Z" fill="#C9A227"/>
</svg>
