<svg width="20" height="21" viewBox="0 0 20 21" fill="none" xmlns="http://www.w3.org/2000/svg">
<path fill-rule="evenodd" clip-rule="evenodd" d="M9.99481 20.5C11.308 20.5 12.6084 20.2413 13.8216 19.7388C15.0349 19.2362 16.1373 18.4997 17.0659 17.5711C17.9945 16.6425 18.7311 15.5401 19.2336 14.3268C19.7362 13.1136 19.9948 11.8132 19.9948 10.5C19.9948 9.18678 19.7362 7.88642 19.2336 6.67317C18.7311 5.45991 17.9945 4.35752 17.0659 3.42893C16.1373 2.50035 15.0349 1.76375 13.8216 1.2612C12.6084 0.758658 11.308 0.5 9.99481 0.5C7.34265 0.5 4.79911 1.55357 2.92374 3.42893C1.04838 5.3043 -0.00518799 7.84784 -0.00518799 10.5C-0.00518799 13.1522 1.04838 15.6957 2.92374 17.5711C4.79911 19.4464 7.34265 20.5 9.99481 20.5ZM9.73703 14.5444L15.2926 7.87778L13.5859 6.45556L8.80815 12.1878L6.33592 9.71445L4.76481 11.2856L8.09815 14.6189L8.95815 15.4789L9.73703 14.5444Z" fill="#04AC48"/>
</svg>
