<svg width="879" height="761" viewBox="0 0 879 761" fill="none" xmlns="http://www.w3.org/2000/svg">
<path d="M834.806 734.279C821.553 670.484 796.786 609.972 779.625 547.258C772.337 520.644 761.748 488.947 777.586 463.427C783.63 453.701 792.229 445.863 801.217 438.905C812.204 430.404 823.843 422.563 835.764 415.434C862.362 399.562 891.553 387.334 922.132 381.827C946.241 377.494 970.993 377.671 995.049 382.322C1019.13 386.974 1042.26 395.786 1064.15 406.754C1089.59 419.49 1112.43 435.504 1132.39 455.834C1152.17 475.978 1168.86 498.876 1185.05 521.929C1193.36 533.755 1201.63 545.602 1209.94 557.412C1219.51 570.993 1228.89 584.768 1236.46 599.573C1244.01 614.311 1249.12 629.927 1252.2 646.186C1255.09 661.443 1256.46 676.93 1257.76 692.382C1260.37 723.646 1262.69 755.074 1260.88 786.459C1259.29 814.241 1254.34 842.063 1243.86 867.93C1233.13 894.392 1216.36 917.369 1194.87 936.12C1173.11 955.108 1147.83 969.636 1121.89 982.114C1094 995.53 1064.9 1007.85 1034.26 1013.18C1007.73 1017.8 979.654 1016.76 954.545 1006.42C928.355 995.628 909.881 974.582 896.871 949.946C884.137 925.835 876.07 899.507 867.788 873.621C857.915 842.718 850.657 811.057 844.03 779.317C840.898 764.308 837.894 749.281 834.801 734.268C834.588 733.21 831.465 730.525 831.733 731.844C838.393 764.114 844.614 796.496 852.643 828.461C859.937 857.513 868.814 886.364 879.241 914.455C888.602 939.682 900.47 964.789 919.285 984.419C937.669 1003.6 962.092 1014.72 988.295 1018.11C1017.61 1021.91 1047.03 1016.21 1074.72 1006.6C1103.67 996.542 1132.13 983.239 1158.46 967.559C1183.96 952.384 1207.8 933.67 1225.51 909.638C1242.13 887.103 1252.53 860.579 1258.3 833.31C1264.56 803.719 1265.36 773.299 1264.1 743.169C1263.44 727.416 1262.23 711.696 1260.92 695.989C1259.56 679.747 1258.18 663.465 1255.05 647.447C1252.01 631.862 1247.11 616.886 1240.04 602.644C1232.67 587.81 1223.46 573.967 1213.98 560.415C1197.14 536.333 1180.65 511.895 1162.68 488.648C1145.35 466.243 1126.09 445.129 1103.35 428.09C1082.07 412.16 1057.72 399.791 1032.9 390.362C1010.05 381.689 985.989 376.1 961.505 375.251C934.486 374.317 907.719 379.319 882.343 388.45C852.841 399.066 825.496 415.06 800.492 433.875C790.936 441.073 781.669 449.144 775.163 459.307C768.508 469.704 765.846 481.366 766.265 493.633C766.822 509.774 771.411 525.731 775.574 541.248C779.768 556.859 784.461 572.344 789.349 587.751C799.568 619.936 810.675 651.865 819.934 684.354C824.401 700.054 828.419 715.871 831.733 731.844C831.958 732.897 835.069 735.587 834.801 734.268L834.806 734.279Z" fill="white"/>
<path d="M1193.1 558.053C1201.53 570.031 1209.96 582.047 1217.07 594.862C1224.2 607.698 1229.59 621.241 1232.88 635.563C1236.02 649.258 1237.54 663.254 1238.75 677.232C1239.95 690.933 1241.01 704.665 1241.72 718.394C1244.29 769.162 1240.58 823.523 1211.9 867.243C1197.89 888.601 1178.33 905.663 1156.96 919.397C1134.95 933.535 1110.9 944.771 1086.55 954.262C1061.93 963.857 1035.78 970.925 1009.16 970.105C985.591 969.381 961.828 962.519 943.539 947.208C924.763 931.5 913.258 908.895 904.351 886.536C894.932 862.891 887.078 838.344 880.377 813.811C872.85 786.232 867.044 758.223 861.187 730.251C855.32 702.229 847.846 674.789 839.121 647.53C830.22 619.727 820.559 592.16 812.309 564.146C808.322 550.618 804.366 536.954 801.71 523.098C799.316 510.578 798.509 497.459 803.616 485.488C808.531 473.976 817.818 464.995 827.542 457.431C838.39 448.982 849.992 441.322 861.896 434.447C885.677 420.695 911.68 410.177 938.83 405.526C960 401.899 981.668 402.127 1002.77 406.072C1024.07 410.06 1044.55 417.709 1063.96 427.242C1086.55 438.325 1107.05 452.197 1124.97 469.932C1142.67 487.447 1157.63 507.438 1171.95 527.746C1179.05 537.824 1186.02 547.981 1193.1 558.07C1194.11 559.516 1196.67 560.583 1194.91 558.072C1165.95 516.766 1138.03 473.216 1096.16 443.633C1076.99 430.089 1055.17 419.432 1033.09 411.543C1012.74 404.272 991.346 399.808 969.698 399.447C945.364 399.032 921.325 403.918 898.552 412.352C871.635 422.321 845.916 437.137 823.454 455.011C813.945 462.569 805.122 471.522 800.37 482.889C795.42 494.731 796.235 507.806 798.554 520.17C801.259 534.562 805.413 548.76 809.559 562.798C813.732 576.892 818.238 590.883 822.838 604.844C832.136 633.114 841.756 661.314 849.387 690.098C857.009 718.832 862.096 748.177 868.764 777.143C875.014 804.302 882.705 830.931 891.582 857.327C899.321 880.36 907.791 903.526 921.282 923.897C934.337 943.602 952.286 959.264 974.786 967.119C997.883 975.168 1022.98 975.264 1046.78 970.571C1074.05 965.195 1100.18 954.155 1125.1 942.09C1148.75 930.636 1171.66 916.953 1190.89 898.874C1209.57 881.301 1223.36 859.762 1232.02 835.664C1240.78 811.32 1244.48 785.45 1245.28 759.668C1246.15 731.6 1243.95 703.429 1241.37 675.492C1240.05 661.181 1238.26 646.849 1234.62 632.915C1231.01 619.193 1225.36 606.207 1218.36 593.887C1211.3 581.482 1203.11 569.763 1194.9 558.105C1193.89 556.659 1191.32 555.597 1193.09 558.102L1193.1 558.053Z" fill="white"/>
<path d="M1180.5 564.824C1195.29 586.025 1209.37 607.552 1215.21 633.107C1217.93 645.023 1219.26 657.199 1220.31 669.358C1221.35 681.44 1222.25 693.535 1222.8 705.656C1224.85 750.278 1221 798.038 1195.59 836.272C1170.31 874.321 1126.32 896.046 1084.73 911.537C1062.79 919.714 1039.51 925.539 1015.94 924.424C995.043 923.434 974.112 916.939 958.085 903.125C941.646 888.959 931.518 868.867 923.552 849.05C915.002 827.764 907.714 805.772 901.575 783.674C894.85 759.494 889.577 734.955 884.26 710.438C878.928 685.832 871.897 661.755 864.073 637.848C856.14 613.625 847.646 589.571 840.43 565.104C836.956 553.299 833.353 541.336 831.36 529.172C829.516 517.988 829.745 506.602 835.253 496.433C840.53 486.7 849.166 479.227 857.982 472.773C867.91 465.495 878.326 458.79 889.112 452.866C910.134 441.33 933.013 432.628 956.791 429.01C975.661 426.142 994.961 426.642 1013.66 430.44C1032.45 434.25 1050.51 441.121 1067.63 449.676C1087.29 459.496 1105.09 471.779 1120.71 487.3C1136.22 502.697 1149.37 520.242 1161.93 538.067C1168.18 546.939 1174.29 555.903 1180.49 564.83C1180.79 565.272 1181.98 566.838 1182.65 566.577C1183.37 566.29 1182.62 565.187 1182.35 564.794C1156.96 528.197 1132.11 489.747 1095.21 463.558C1078.33 451.577 1059.25 442.123 1039.82 435.039C1021.84 428.472 1002.93 424.312 983.763 423.72C936.644 422.24 891.182 442.492 854.019 470.212C845.143 476.831 836.623 484.549 831.593 494.574C826.545 504.649 826.503 515.851 828.298 526.758C830.356 539.233 834.067 551.513 837.645 563.624C841.275 575.874 845.204 588.038 849.239 600.165C857.582 625.285 866.313 650.305 873.367 675.843C880.237 700.705 884.883 726.112 890.827 751.207C896.63 775.713 903.696 799.746 911.942 823.535C918.98 843.872 926.562 864.348 938.439 882.427C949.926 899.94 965.616 914.078 985.396 921.458C1005.99 929.136 1028.59 929.579 1050.04 925.682C1073.94 921.339 1096.93 912.065 1118.85 901.825C1139.74 892.068 1159.99 880.273 1177.02 864.582C1193.58 849.317 1205.86 830.524 1213.69 809.436C1221.62 788.117 1225.18 765.405 1226.1 742.743C1227.09 718.015 1225.3 693.168 1223.07 668.56C1221.92 655.941 1220.35 643.318 1217.15 631.044C1213.98 618.903 1209.04 607.407 1202.91 596.49C1196.74 585.517 1189.57 575.145 1182.37 564.839C1182.07 564.396 1180.88 562.831 1180.21 563.091C1179.49 563.379 1180.24 564.482 1180.51 564.874L1180.5 564.824Z" fill="white"/>
<path d="M1167.93 571.591C1174.29 580.858 1180.65 590.158 1185.99 600.075C1191.25 609.874 1195.22 620.179 1197.65 631.046C1199.98 641.496 1201.13 652.174 1202.01 662.834C1202.86 673.191 1203.59 683.567 1203.98 693.962C1205.44 732.316 1201.24 773.504 1178.88 805.949C1167.75 822.114 1152.43 834.831 1135.69 844.863C1118.35 855.246 1099.38 863.302 1080.25 869.756C1045.29 881.545 1001.73 885.518 972.308 858.676C958.584 846.159 949.95 829.086 942.995 812.132C935.314 793.381 928.639 774.073 923.037 754.613C917.067 733.853 912.323 712.774 907.563 691.717C902.747 670.399 896.2 649.544 889.236 628.845C882.242 608.024 874.869 587.326 868.631 566.258C865.617 556.062 862.36 545.64 861.148 535.044C860.045 525.46 861.51 516.259 866.965 508.174C872.455 500.045 880.399 493.88 888.389 488.362C897.198 482.294 906.294 476.663 915.798 471.752C934.031 462.339 953.765 455.381 974.148 452.657C1007.6 448.192 1040.47 456.577 1070.3 471.597C1087.35 480.194 1102.74 490.972 1116.29 504.471C1129.65 517.796 1141.05 532.941 1151.88 548.349C1157.3 556.044 1162.59 563.831 1167.92 571.596C1168.21 572.017 1169.43 573.622 1170.09 573.339C1170.81 573.024 1170.1 571.971 1169.8 571.55C1147.85 539.603 1126.04 506.263 1094.04 483.362C1079.4 472.888 1062.89 464.634 1046.04 458.369C1030.37 452.538 1013.88 448.774 997.144 448.017C956.3 446.165 917.158 462.792 884.237 485.864C876.278 491.449 868.413 497.781 863.211 506.142C858.254 514.1 857.027 523.026 858.028 532.249C859.193 542.949 862.498 553.471 865.531 563.766C868.714 574.578 872.201 585.286 875.789 595.974C883.005 617.468 890.633 638.822 897.011 660.589C903.357 682.261 907.69 704.434 913.099 726.345C918.38 747.784 924.73 768.827 932.222 789.604C938.53 807.095 945.167 824.675 955.255 840.408C965.258 855.991 978.852 868.868 996.182 875.822C1013.41 882.742 1032.46 883.811 1050.71 881.21C1071.71 878.207 1091.98 870.627 1111.33 862.148C1129.75 854.063 1147.65 844.151 1162.75 830.706C1177.28 817.767 1188.18 801.695 1195.27 783.608C1202.54 765.038 1205.98 745.098 1206.99 725.246C1208.05 704.193 1206.64 683.012 1204.78 662.042C1203.82 651.126 1202.47 640.196 1199.76 629.56C1197.03 618.874 1192.76 608.739 1187.41 599.103C1182.12 589.573 1175.97 580.543 1169.8 571.567C1169.5 571.147 1168.28 569.541 1167.63 569.824C1166.9 570.139 1167.62 571.192 1167.91 571.613L1167.93 571.591Z" fill="white"/>
<path d="M1155.17 578.486C1165.67 594.024 1175.59 609.797 1179.79 628.322C1181.82 637.226 1182.79 646.339 1183.51 655.434C1184.21 664.188 1184.76 672.954 1185.02 681.725C1185.92 714.07 1181.51 748.866 1162.03 775.765C1152.2 789.323 1138.83 799.812 1124.29 807.93C1109.3 816.291 1092.97 822.664 1076.51 827.462C1060.45 832.142 1043.53 834.812 1026.83 832.549C1011.63 830.48 997.235 824.419 986.243 813.559C975.175 802.625 968.035 788.282 962.077 774.103C955.402 758.205 949.491 741.931 944.529 725.414C939.31 708.037 935.212 690.403 930.853 672.797C926.373 654.73 920.466 637.05 914.358 619.465C908.261 601.902 901.964 584.406 896.706 566.57C894.23 558.207 891.491 549.546 891.341 540.766C891.203 532.704 894.175 525.655 899.446 519.634C905.119 513.165 912.334 508.258 919.537 503.643C927.188 498.735 935.1 494.235 943.334 490.388C958.654 483.209 975.142 478.098 992.011 476.337C1020.41 473.375 1048.14 480.966 1073.28 493.85C1087.58 501.172 1100.41 510.469 1111.76 521.839C1122.98 533.069 1132.6 545.791 1141.7 558.76C1146.26 565.278 1150.72 571.888 1155.18 578.481C1155.54 579.007 1156.68 580.445 1157.49 580.105C1158.32 579.754 1157.8 578.65 1157.44 578.123C1139.05 550.928 1120.39 522.922 1093.49 503.329C1081.05 494.256 1066.97 487.144 1052.61 481.695C1039.26 476.624 1025.27 473.219 1011 472.308C976.805 470.126 943.923 482.624 915.576 500.972C908.36 505.647 901.131 510.697 895.63 517.386C890.695 523.398 888.039 530.365 888.101 538.178C888.181 547.099 890.912 555.915 893.407 564.405C896.091 573.556 899.064 582.626 902.127 591.653C908.304 609.819 914.926 627.829 920.636 646.133C926.275 664.199 930.278 682.641 935.018 700.94C939.785 719.295 945.296 737.407 952.051 755.123C957.661 769.834 963.318 784.645 971.654 798.083C980.043 811.604 991.354 823.2 1006.01 829.796C1020.2 836.184 1036.1 837.937 1051.51 836.514C1069.61 834.836 1087.21 829.038 1104 822.256C1119.78 815.871 1135.16 807.954 1148.23 796.94C1160.89 786.27 1170.52 772.818 1176.89 757.566C1183.34 742.095 1186.68 725.368 1187.86 708.692C1189.13 690.815 1188.09 672.787 1186.56 654.951C1185.77 645.832 1184.65 636.694 1182.46 627.786C1180.21 618.595 1176.61 609.859 1172.1 601.544C1167.7 593.435 1162.6 585.752 1157.44 578.112C1157.08 577.586 1155.94 576.148 1155.13 576.488C1154.3 576.839 1154.82 577.943 1155.18 578.469L1155.17 578.486Z" fill="white"/>
<path d="M860.345 374.236C837.34 383.652 817.349 399.105 796.637 412.54C788.201 418.009 776.849 422.646 767.213 417.228C758.083 412.102 754.52 400.597 751.142 391.392C734 344.748 719.949 296.535 695.59 252.943C683.622 231.525 669.05 211.841 651.555 194.6C634.07 177.382 614.72 161.959 595.933 146.201C587.103 138.793 577.704 131.681 570.585 122.523C563.321 113.175 560.46 101.339 558.04 89.9769C554.388 72.8828 550.392 55.0915 552.172 37.5185C556.525 -5.85628 600.384 -30.1381 638.841 -38.6274C679.449 -47.5869 722.077 -43.1683 760.985 -29.0699C802.618 -13.9945 839.188 11.8172 869.556 43.8438C877.891 52.6312 885.442 62.0077 893.304 71.2092C900.877 80.0566 909.386 88.026 917.337 96.5179C925.405 105.145 932.552 114.33 937.773 124.984C942.661 134.962 946.291 145.508 948.905 156.301C959.082 198.448 954.209 242.395 961.857 284.904C963.715 295.25 966.841 305.597 966.409 316.206C965.994 326.561 961.246 335.567 953.244 342.073C945.63 348.272 936.29 352.001 927.017 354.947C916.2 358.377 905.096 360.852 894.104 363.683C882.691 366.63 871.3 369.827 860.356 374.231C858.658 374.91 861.237 378.465 862.646 377.895C885.118 368.853 909.201 365.446 932.063 357.719C941.19 354.637 950.409 350.625 957.66 344.147C965.164 337.454 969.389 328.409 969.797 318.356C970.246 307.467 967.066 296.832 965.165 286.22C963.174 275.187 962.024 264.029 961.244 252.847C959.7 230.775 959.538 208.597 957.11 186.588C954.69 164.684 949.763 142.927 939.699 123.201C928.7 101.639 909.615 86.9224 894.293 68.7106C886.304 59.2139 878.454 49.6928 869.858 40.7285C861.234 31.736 852.166 23.1583 842.588 15.1759C825.884 1.25756 807.709 -10.7798 788.263 -20.5124C751.073 -39.1174 709.233 -49.1723 667.573 -46.6298C644.77 -45.2181 621.75 -40.2535 601.138 -30.2756C582.059 -21.0354 564.293 -6.64667 554.979 12.7921C547.756 27.8485 547.452 44.5336 549.607 60.7941C550.904 70.5593 552.892 80.2573 554.986 89.8915C557.391 100.934 560.361 112.336 567.007 121.676C573.835 131.284 583.159 138.787 592.154 146.254C601.727 154.198 611.159 162.331 620.687 170.324C640.155 186.66 658.987 203.61 674.208 224.092C705.035 265.584 721.519 315.512 738.409 363.762C742.509 375.477 746.406 387.341 751.095 398.832C754.792 407.874 760.09 417.304 769.43 421.431C778.666 425.512 789.179 422.361 797.341 417.294C808.149 410.581 818.484 403.097 829.192 396.2C839.871 389.33 850.832 382.71 862.618 377.895C864.31 377.205 861.732 373.649 860.329 374.23L860.345 374.236Z" fill="white"/>
<path d="M820.188 7.01516C837.666 19.3953 853.432 34.0703 867.701 50.0244C874.599 57.7314 881.01 65.7914 888.274 73.1756C895.311 80.3396 902.641 87.2564 908.968 95.0829C921.413 110.466 928.086 129.885 931.774 149.103C935.334 167.646 936.232 186.559 937.419 205.363C938.017 214.831 938.686 224.306 939.792 233.725C940.913 243.232 942.789 252.52 944.663 261.89C946.473 270.922 947.691 280.52 943.953 289.239C940.623 297.003 934.118 302.692 926.915 306.816C919.271 311.189 910.806 314 902.404 316.508C891.813 319.667 881.095 322.383 870.536 325.637C859.987 328.885 849.74 332.742 839.981 337.922C830.138 343.156 820.731 349.111 811.367 355.156C806.799 358.103 802.231 361.079 797.647 363.993C793.227 366.789 788.861 369.614 783.807 371.128C779.375 372.457 774.55 372.867 770.123 371.289C766.041 369.834 762.922 366.752 760.581 363.18C758.08 359.356 756.322 355.113 754.68 350.857C752.658 345.62 750.702 340.352 748.78 335.069C744.946 324.579 741.233 314.059 737.421 303.559C722.691 262.948 706.297 221.814 678.122 188.425C664.26 172.006 647.63 158.243 631.345 144.318C623.569 137.667 615.742 131.026 608.078 124.239C600.393 117.436 593.628 110.184 589.981 100.438C586.53 91.2529 584.838 81.4016 583.036 71.7795C581.623 64.2236 580.394 56.5671 580.12 48.8824C579.607 34.22 583.294 20.3968 591.985 8.47905C615.219 -23.3555 658.426 -34.838 696.055 -34.7408C731.809 -34.6582 767.13 -24.1434 798.253 -6.80583C805.804 -2.59797 813.108 2.01254 820.173 6.98171C820.889 7.48879 821.862 7.38383 822.033 6.4444C822.227 5.41174 821.164 4.34525 820.426 3.82114C790.566 -17.1949 755.891 -31.8874 719.595 -36.7867C682.001 -41.8642 639.707 -36.6496 608.369 -13.8344C594.646 -3.8503 582.809 10.0707 578.576 26.8107C574.87 41.4884 576.969 56.7934 579.756 71.4463C581.596 81.0914 583.349 90.9551 586.815 100.173C590.509 110.02 597.033 117.713 604.702 124.743C620.57 139.287 637.58 152.584 653.521 167.053C661.786 174.565 669.746 182.411 676.906 190.99C684.034 199.53 690.414 208.654 696.185 218.161C707.924 237.478 717.077 258.221 725.27 279.24C733.577 300.559 740.872 322.248 748.896 343.66C752.153 352.35 755.193 361.906 761.74 368.783C768.201 375.564 777.16 377.471 786.035 374.808C790.789 373.381 794.95 370.844 799.113 368.224C803.948 365.177 808.734 362.058 813.543 358.956C823.008 352.837 832.517 346.779 842.477 341.476C862.772 330.652 885.373 326.158 907.176 319.423C922.968 314.544 941.815 307.268 947.912 290.316C951.036 281.627 949.896 272.251 948.143 263.397C946.216 253.684 944.253 244.069 943.118 234.214C938.688 195.804 941.283 155.755 926.101 119.354C922.102 109.787 917.041 100.831 910.453 92.7996C903.92 84.825 896.378 77.7766 889.191 70.4106C881.783 62.808 875.236 54.4581 868.115 46.5972C860.746 38.4714 853.012 30.6684 844.847 23.3411C837.083 16.3704 828.934 9.85433 820.426 3.82114C819.709 3.31406 818.736 3.41902 818.566 4.35845C818.371 5.39111 819.445 6.45233 820.173 6.98171L820.188 7.01516Z" fill="white"/>
<path d="M815.182 8.36954C830.376 18.8007 844.091 31.212 856.556 44.7591C862.586 51.3212 868.235 58.1726 874.547 64.4652C880.692 70.5776 887.074 76.4967 892.565 83.2177C903.447 96.5305 909.279 113.618 912.699 130.249C916.04 146.509 917.078 163.12 918.493 179.634C919.201 187.891 920.003 196.144 921.202 204.346C922.387 212.487 924.426 220.416 925.81 228.517C927.185 236.541 927.197 244.826 923.193 252.144C919.724 258.487 914.019 263.213 907.832 266.775C901.198 270.603 893.95 273.275 886.692 275.693C877.722 278.674 868.616 281.282 859.646 284.263C850.626 287.253 841.79 290.662 833.372 295.073C824.921 299.5 816.778 304.463 808.65 309.46C804.612 311.939 800.6 314.447 796.54 316.909C792.659 319.26 788.807 321.788 784.529 323.385C777.38 326.065 768.523 326.224 763.131 320.002C760.588 317.071 758.955 313.382 757.463 309.846C755.625 305.491 753.948 301.073 752.26 296.661C748.816 287.664 745.518 278.598 742.169 269.57C729.194 234.581 715.24 199.223 691.636 169.853C680.062 155.449 666.126 143.292 652.25 131.175C645.585 125.349 638.96 119.463 632.347 113.571C625.652 107.623 619.58 101.435 616.419 92.8911C613.523 85.0537 612.068 76.6584 610.542 68.4602C609.318 61.8518 608.304 55.171 608.103 48.4478C607.713 35.636 611.013 23.5362 618.558 13.0875C638.52 -14.5567 674.342 -25.8249 707.152 -26.3161C738.041 -26.7734 768.619 -18.0147 795.712 -3.46528C802.399 0.127396 808.875 4.07936 815.149 8.35778C815.856 8.84255 816.012 8.50959 815.785 7.82599C815.49 6.94229 814.514 5.94395 813.754 5.43036C787.682 -12.3561 757.614 -24.8598 726.163 -28.624C693.463 -32.5487 657.396 -27.056 631.021 -6.12039C619.552 2.97674 609.807 15.119 606.485 29.6289C603.536 42.5309 605.672 55.9502 608.153 68.7429C609.79 77.1477 611.339 85.7437 614.802 93.627C618.381 101.783 624.605 108.295 631.102 114.227C644.831 126.755 659.289 138.515 672.768 151.324C686.821 164.681 698.6 179.751 708.256 196.561C718.065 213.639 725.802 231.846 732.897 250.193C739.98 268.517 746.408 287.096 753.714 305.343C756.555 312.429 759.983 319.688 766.101 324.559C772.322 329.503 780.204 329.532 787.408 326.826C791.681 325.218 795.538 322.701 799.419 320.35C803.669 317.77 807.894 315.135 812.133 312.533C820.356 307.478 828.616 302.473 837.183 298.033C854.552 289.041 873.694 284.612 892.089 278.286C905.781 273.58 921.591 266.947 927.486 252.572C930.579 245.03 929.858 236.888 928.357 229.06C926.704 220.445 924.754 211.956 923.616 203.248C919.254 169.865 920.546 135.027 906.418 103.719C902.72 95.5102 898.064 87.9034 892.234 81.0424C886.489 74.2771 879.984 68.2393 873.726 61.9755C867.269 55.492 861.516 48.3901 855.279 41.7075C848.837 34.7941 842.052 28.1653 834.933 21.9538C828.198 16.0653 821.135 10.5501 813.769 5.49138C813.063 5.0066 812.906 5.33956 813.133 6.02317C813.428 6.90687 814.404 7.90521 815.165 8.4188L815.182 8.36954Z" fill="white"/>
<path d="M808.589 9.88701C821.287 18.2376 832.822 28.2554 843.332 39.1934C848.555 44.6231 853.451 50.3433 858.849 55.5948C864.171 60.773 869.73 65.7579 874.539 71.4375C893.255 93.4878 895.831 124.127 898.94 151.651C899.745 158.758 900.6 165.854 901.776 172.908C902.938 179.874 904.875 186.691 905.97 193.661C906.992 200.215 906.646 206.733 903.533 212.703C900.651 218.209 895.906 222.454 890.723 225.774C885.204 229.307 879.144 231.896 873.046 234.23C865.674 237.042 858.166 239.51 850.731 242.161C843.207 244.855 835.745 247.737 828.593 251.333C821.49 254.918 814.583 258.861 807.708 262.871C800.799 266.897 793.976 271.277 786.787 274.795C781.192 277.532 773.785 279.461 768.019 276.088C762.553 272.886 760.161 265.97 757.852 260.446C754.686 252.873 751.72 245.205 748.77 237.543C737.426 208.03 726.156 177.923 707.329 152.202C697.996 139.453 686.611 128.655 674.946 118.072C669.421 113.071 663.986 107.973 658.484 102.962C653.144 98.0925 647.405 93.0153 644.362 86.3108C641.377 79.7291 640.168 72.4315 638.832 65.3849C637.782 59.8396 636.871 54.2422 636.612 48.5824C636.113 37.7043 638.573 27.4059 644.702 18.3209C660.755 -5.47282 689.888 -16.6103 717.657 -17.6122C743.438 -18.5486 769.191 -11.5755 792 0.196651C797.681 3.13232 803.207 6.37339 808.556 9.87524C809.23 10.3207 810.189 10.3864 810.332 9.41877C810.464 8.42885 809.447 7.31374 808.697 6.82245C786.371 -7.76857 760.764 -18.015 734.099 -20.7116C706.316 -23.5217 676.763 -17.9815 655.027 0.477C645.54 8.54309 637.263 18.9698 634.447 31.3177C631.92 42.3703 633.539 53.77 635.641 64.7504C637.038 72.0687 638.351 79.6444 641.552 86.4241C644.774 93.2484 650.169 98.6378 655.654 103.698C667.224 114.368 679.243 124.661 690.282 135.882C713.385 159.338 727.062 189.372 738.941 219.615C741.946 227.278 744.867 234.967 747.833 242.635C750.789 250.281 753.698 258.003 757.133 265.45C759.889 271.403 763.668 277.501 769.952 280.18C776.082 282.795 783.038 281.324 788.837 278.559C795.969 275.15 802.725 270.801 809.549 266.829C816.76 262.633 823.992 258.455 831.44 254.706C846.214 247.267 862.323 243.057 877.645 236.981C889.039 232.461 901.571 226.339 907.167 214.737C910.17 208.505 910.313 201.674 909.278 194.949C908.17 187.808 906.182 180.824 905.002 173.676C900.304 145.212 900.656 115.372 888.204 88.7405C884.957 81.8053 881.005 75.2845 875.995 69.468C871.007 63.6685 865.303 58.5203 859.83 53.1953C854.308 47.8251 849.332 41.9377 843.957 36.4163C838.528 30.8386 832.873 25.4764 826.918 20.4605C821.115 15.5639 815.029 10.9918 808.686 6.82772C808.012 6.38229 807.042 6.32184 806.91 7.28419C806.778 8.27411 807.795 9.38922 808.545 9.8805L808.589 9.88701Z" fill="white"/>
<path d="M802.568 11.5166C812.921 17.9058 822.349 25.7139 831.044 34.1949C835.427 38.4804 839.545 43.0136 844.04 47.1913C848.373 51.2274 852.858 55.1235 856.824 59.5375C872.892 77.4517 876.173 102.481 879.736 125.304C880.642 131.122 881.592 136.946 882.802 142.716C883.962 148.264 885.692 153.747 886.288 159.398C886.855 164.817 885.899 170.068 883.155 174.8C880.687 179.075 877.025 182.495 873.028 185.323C863.319 192.198 851.714 196.096 840.733 200.422C834.733 202.791 828.733 205.188 822.943 208.031C817.114 210.878 811.407 213.982 805.705 217.069C800.02 220.163 794.335 223.256 788.565 226.199C783.75 228.65 778.471 231.102 772.905 230.375C767.509 229.663 764.55 225.388 762.268 220.874C759.428 215.233 757.028 209.343 754.628 203.508C744.899 179.9 736.036 155.584 721.918 134.145C714.931 123.534 706.555 114.316 697.443 105.5C692.978 101.185 688.524 96.8649 684.088 92.5231C679.894 88.4074 675.24 84.4137 672.183 79.3251C669.152 74.2923 668.119 68.2344 667.045 62.5506C666.163 57.8531 665.36 53.1187 665.054 48.3403C664.497 39.4799 666.266 30.9807 670.999 23.3868C677.191 13.4537 686.542 5.09769 696.854 -0.38483C706.557 -5.53906 717.366 -8.11991 728.272 -8.87826C749.111 -10.3176 770.005 -5.11419 788.7 3.92303C793.448 6.20882 798.073 8.75664 802.568 11.5166C803.373 12.0092 804.437 11.7794 804.641 10.7966C804.87 9.72057 803.923 8.64014 803.085 8.13585C784.493 -3.25446 763.384 -11.1656 741.52 -12.7336C731.084 -13.4926 720.47 -12.7222 710.313 -10.1763C698.441 -7.18912 687.419 -1.01653 678.569 7.41695C670.959 14.6648 664.393 23.5469 662.194 33.9946C660.236 43.2783 661.753 52.8444 663.499 62.0295C664.638 68.0236 665.822 74.2284 668.84 79.6084C671.862 85.0271 676.531 89.3411 680.952 93.6219C685.514 98.0272 690.008 102.492 694.576 106.881C699.246 111.371 703.866 115.927 708.13 120.8C725.64 140.815 735.953 165.892 745.83 190.248C748.318 196.382 750.783 202.528 753.371 208.615C755.765 214.235 757.997 220.232 761.306 225.392C764.338 230.11 768.53 233.586 774.229 234.277C779.868 234.956 785.285 232.739 790.201 230.24C802.181 224.161 813.744 217.256 825.845 211.433C837.868 205.647 850.629 201.626 862.741 196.058C872.155 191.735 882.08 186.068 887.059 176.571C889.642 171.642 890.487 166.184 889.944 160.672C889.355 154.745 887.525 149.022 886.321 143.209C881.431 119.594 880.549 94.8235 869.414 72.9439C866.561 67.336 863.122 62.0733 858.908 57.3945C854.732 52.7662 850.025 48.661 845.47 44.4158C840.846 40.1083 836.604 35.4289 832.07 31.0242C827.536 26.6195 822.809 22.4145 817.85 18.4967C813.141 14.761 808.205 11.2961 803.08 8.1247C802.274 7.63218 801.21 7.86196 801.006 8.84475C800.778 9.92077 801.724 11.0012 802.562 11.5055L802.568 11.5166Z" fill="white"/>
<path d="M796.945 12.8077C804.954 17.263 812.304 22.7517 819.151 28.8192C822.596 31.8699 825.866 35.1264 829.35 38.145C832.835 41.1635 836.426 44.0907 839.65 47.3958C852.91 60.9221 857.068 80.3003 861.046 98.1408C862.074 102.742 863.117 107.35 864.327 111.906C865.488 116.24 866.806 120.622 866.699 125.159C866.505 133.038 861.956 139.808 856.076 144.712C849.116 150.507 840.701 154.317 832.493 157.988C823.416 162.042 814.414 166.169 805.522 170.614C801.019 172.862 796.506 175.116 791.962 177.275C787.947 179.171 783.889 181.291 779.598 182.513C775.906 183.561 771.233 184.09 767.952 181.616C764.757 179.211 763.019 174.809 761.299 171.339C752.519 153.611 745.797 134.925 736.091 117.634C731.271 109.042 725.693 100.984 719.084 93.6587C715.882 90.1114 712.545 86.6824 709.297 83.1838C706.12 79.7474 702.76 76.3565 699.892 72.6513C697.03 68.9572 695.791 64.7149 694.905 60.1828C694.153 56.3652 693.468 52.4885 693.175 48.604C692.644 41.559 693.734 34.7711 697.141 28.5263C701.392 20.7505 707.702 13.694 714.959 8.61706C721.948 3.72165 730.006 1.0623 738.412 -0.110909C754.454 -2.35328 770.864 1.0667 785.645 7.3294C789.502 8.97182 793.272 10.8054 796.939 12.8241C797.62 13.198 798.559 13.3956 798.692 12.3782C798.813 11.4486 797.815 10.2016 797.057 9.78184C782.03 1.52224 765.197 -4.23506 747.921 -4.49172C739.821 -4.60795 731.54 -3.60292 723.878 -0.88501C715.12 2.22746 707.529 7.89812 701.501 14.9168C696.16 21.1346 691.588 28.1751 690.163 36.362C688.845 43.9116 690.175 51.7248 691.652 59.1552C692.594 63.8652 693.969 68.4249 696.754 72.3875C699.555 76.3836 703.056 79.8714 706.334 83.4646C713.133 90.9321 720.405 97.9579 726.181 106.291C737.976 123.331 745.409 142.827 753.889 161.596C756.044 166.361 758.26 171.083 760.726 175.7C762.668 179.352 765.055 183.107 768.731 185.231C776.785 189.869 786.038 184.831 793.459 181.341C802.965 176.867 812.223 171.868 821.76 167.488C831.051 163.223 840.629 159.478 849.551 154.461C856.446 150.579 863.187 145.65 867.037 138.555C868.965 134.985 870.106 130.874 870.109 126.808C870.12 122.153 868.842 117.684 867.657 113.238C862.646 94.481 860.353 74.7809 850.355 57.7646C847.837 53.4714 844.905 49.4283 841.445 45.8531C838.091 42.3907 834.394 39.2956 830.752 36.1466C827.062 32.9524 823.598 29.515 819.931 26.2827C816.339 23.1239 812.612 20.1108 808.748 17.2988C805.003 14.5668 801.105 12.0574 797.057 9.80941C796.376 9.43552 795.437 9.23786 795.304 10.2553C795.184 11.1849 796.181 12.4319 796.939 12.8517L796.945 12.8077Z" fill="white"/>
<path d="M791.484 14.5546C797.283 17.1619 802.721 20.6216 807.826 24.4159C813.024 28.2894 818.436 32.1568 823.219 36.5395C833.364 45.8089 838.632 59.045 842.924 71.7736C844.967 77.8046 847.571 83.9255 846.641 90.4192C845.907 95.5658 843.321 100.196 839.794 103.962C835.566 108.467 830.294 111.856 824.931 114.852C818.736 118.309 812.275 121.291 805.858 124.308C799.58 127.272 793.245 130.086 786.752 132.565C781.789 134.472 774.444 138.008 769.221 135.061C766.807 133.705 765.284 130.824 763.895 128.548C762.113 125.639 760.487 122.63 758.917 119.593C755.729 113.448 752.793 107.171 749.745 100.946C746.633 94.6154 743.437 88.3102 739.722 82.3188C736.166 76.5791 731.844 71.3518 727.907 65.8738C726.003 63.2273 724.027 60.6013 723.089 57.4304C722.218 54.4597 721.804 51.273 721.487 48.2044C720.951 42.8527 721.505 37.5863 723.729 32.6497C726.214 27.1675 729.485 21.7912 733.741 17.4906C737.85 13.3413 742.815 10.6288 748.415 9.08904C759.622 5.9931 771.608 7.49312 782.499 11.0646C785.549 12.0655 788.529 13.2359 791.462 14.5375C792.374 14.9387 792.987 14.1857 792.896 13.3287C792.766 12.2446 791.81 11.346 790.865 10.9331C779.247 5.79518 766.428 2.58845 753.661 3.96681C747.949 4.57734 742.182 6.14095 737.223 9.09625C731.805 12.3225 727.634 17.2373 724.348 22.5526C721.206 27.6229 718.518 33.0785 717.919 39.0886C717.328 44.9997 718.168 51.5442 719.883 57.1983C720.925 60.6473 722.962 63.545 725.048 66.4328C727.14 69.3317 729.232 72.2031 731.38 75.0482C735.852 80.9684 739.617 87.2368 743.049 93.8121C746.496 100.421 749.654 107.194 752.945 113.877C756.094 120.286 759.273 126.817 763.377 132.679C765.152 135.223 767.276 137.643 770.211 138.862C772.981 140.022 776.065 139.998 778.979 139.468C782.23 138.873 785.353 137.631 788.44 136.459C791.896 135.141 795.309 133.734 798.701 132.255C805.587 129.25 812.384 126.027 819.122 122.709C825.542 119.555 831.994 116.208 837.659 111.802C841.966 108.445 845.887 104.303 848.146 99.2679C850.718 93.5669 850.856 87.4471 849.198 81.4799C847.315 74.6912 844.897 67.9236 842.253 61.3992C839.53 54.6799 836.2 48.2337 831.902 42.3946C827.567 36.505 822.253 31.9504 816.449 27.5722C810.878 23.3704 805.488 19.0015 799.485 15.4132C796.704 13.7399 793.83 12.2465 790.87 10.9166C789.969 10.5102 789.334 11.2737 789.437 12.1255C789.567 13.2096 790.529 14.0918 791.468 14.5211L791.484 14.5546Z" fill="white"/>
<path d="M789.367 85.2515C785.122 86.6287 780.774 87.9043 776.356 88.6268C774.346 88.9621 772.224 89.146 770.222 88.632C768.16 88.1057 766.517 86.8221 765.073 85.2947C758.764 78.6049 754.539 69.7998 751.905 61.0746C747.598 46.8397 746.537 25.5897 762.047 17.5985C769.068 13.9836 777.567 14.2522 785.12 15.691C791.442 16.8925 797.469 19.4332 803.103 22.5002C809.3 25.8612 815.232 29.9333 820.165 35.0089C824.44 39.4133 827.744 44.7942 827.812 51.0897C827.882 58.2843 823.868 64.5431 818.769 69.31C812.272 75.3914 804.106 79.615 795.897 82.8777C793.737 83.7337 791.557 84.5175 789.367 85.2515C788.222 85.6284 790.764 89.1332 791.825 88.782C801.145 85.7043 810.41 81.6434 818.224 75.6082C824.186 70.9931 829.617 64.7332 830.707 57.0186C831.718 49.8317 828.789 43.2236 824.485 37.6326C819.715 31.4574 813.484 26.4629 806.914 22.3102C800.855 18.489 794.249 15.2125 787.354 13.2314C779.544 10.987 770.533 10.1277 762.708 12.7316C744.85 18.6951 744.123 40.462 748.041 55.8355C750.534 65.6221 754.912 75.0099 761.109 82.9934C763.822 86.4856 767.082 90.3872 771.413 91.8472C775.606 93.2765 780.269 91.9749 784.407 90.9208C786.904 90.2875 789.37 89.5597 791.82 88.7709C792.954 88.3993 790.424 84.8892 789.362 85.2404L789.367 85.2515Z" fill="white"/>
<path d="M726.342 384.474C729.403 394.306 732.324 404.191 735.108 414.1C737.656 423.165 740.424 432.263 742.174 441.514C743.756 449.89 744.277 458.59 741.742 466.851C739.194 475.145 734.057 482.316 728.471 488.826C704.1 517.27 673.094 540.529 639.511 556.972C624.769 564.192 609.894 570.752 596.062 579.696C584.15 587.393 573.124 596.418 563.403 606.762C553.145 617.702 544.396 629.96 536.65 642.782C532.576 649.519 528.373 656.386 525.362 663.671C522.411 670.792 520.735 678.333 519.989 685.995C518.504 701.219 520.326 716.601 518.527 731.796C516.715 747.106 511.408 762.09 502.986 775.012C494.73 787.679 483.44 798.369 469.936 805.263C455.455 812.66 439.113 815.48 422.96 815.061C389.304 814.193 356.872 800.555 328.047 784.041C298.029 766.85 270.929 744.804 247.117 719.76C194.919 664.835 159.909 596.203 135.976 524.837C123.508 487.659 113.578 449.5 105.894 411.045C98.6418 374.718 94.0197 337.463 97.1492 300.393C98.5826 283.529 101.546 266.325 109.537 251.22C117.932 235.351 131.826 223.391 146.298 213.203C171.885 195.189 198.883 178.923 226.688 164.568C282.967 135.513 344.833 114.075 408.624 112.047C471.564 110.039 534.701 129.184 586.143 165.525C611.581 183.501 633.987 205.596 652.711 230.465C675.378 260.564 692.758 294.427 706.811 329.302C714.098 347.394 720.501 365.835 726.332 384.451C726.666 385.534 729.997 388.23 729.308 386.046C707.369 316.043 676.397 246.664 623.498 194.415C578.705 150.177 519.687 120.346 457.299 111.279C393.553 102.021 328.949 115.697 269.923 139.831C239.653 152.2 210.545 167.376 182.615 184.355C168.975 192.636 155.481 201.257 142.475 210.507C128.191 220.661 114.723 232.57 106.421 248.259C98.0437 264.106 95.1758 282.206 93.84 299.883C92.4487 318.308 92.9032 336.831 94.6347 355.227C98.2141 393.221 106.779 430.769 116.469 467.609C136.381 543.342 165.597 617.955 212.571 681.224C253.072 735.78 307.463 783.71 371.88 807.501C402.187 818.692 437.405 824.196 467.983 810.918C496.677 798.446 515.805 770.132 520.951 739.761C523.579 724.242 521.827 708.46 522.819 692.827C523.308 685.082 524.573 677.394 527.182 670.066C530.174 661.617 534.923 653.797 539.541 646.162C555.138 620.334 574.998 598.22 600.605 582.011C615.02 572.886 630.59 566.353 645.756 558.674C663.265 549.806 679.867 539.104 695.186 526.839C709.673 515.239 723.934 502.206 735.244 487.429C740.222 480.933 744.402 473.641 745.936 465.511C747.459 457.415 746.505 449.097 744.781 441.115C740.798 422.541 734.973 404.167 729.319 386.041C728.984 384.958 725.653 382.263 726.343 384.446L726.342 384.474Z" fill="white"/>
<path d="M467.23 131.272C526.169 146.263 578.74 179.507 616.39 227.418C639.287 256.563 656.626 290.05 670.339 324.377C677.262 341.727 683.29 359.432 688.718 377.31C693.822 394.128 699.065 411.181 702.599 428.399C704.214 436.268 705.017 444.467 703.03 452.36C701.11 459.99 696.712 466.675 691.777 472.687C680.893 485.968 667.999 497.852 654.527 508.454C641.044 519.061 626.541 528.377 611.267 536.202C597.467 543.277 583.293 549.274 570.153 557.606C546.936 572.318 528.703 592.246 514.376 615.593C506.84 627.879 500.093 640.133 498.195 654.625C496.357 668.639 497.979 682.819 496.675 696.867C494.071 725.056 478.494 752.716 453.411 766.714C426.261 781.879 393.336 778.688 364.764 769.555C304.246 750.21 253.009 706.505 215.36 656.315C172.475 599.134 145.575 531.65 127.307 462.982C118.413 429.531 110.664 395.443 106.805 361.018C104.871 343.78 104.066 326.392 104.936 309.058C105.742 293.09 107.573 276.721 113.438 261.733C124.946 232.271 154.003 215.224 179.541 199.129C204.273 183.552 230.003 169.48 256.773 157.699C309.79 134.357 367.942 119.664 426.193 124.507C440.129 125.659 453.939 127.961 467.499 131.35C468.239 131.532 467.188 129.738 467.124 129.632C466.633 128.909 465.885 128.076 465.001 127.852C406.984 113.34 346.388 120.746 290.385 139.988C262.122 149.705 234.903 162.298 208.767 176.752C195.931 183.849 183.355 191.41 171.036 199.341C158.033 207.703 144.731 216.152 133.233 226.544C121.065 237.54 112.337 250.852 107.728 266.624C103.049 282.62 101.816 299.649 101.591 316.242C101.124 350.977 106.9 385.479 114.346 419.3C130.121 490.891 153.244 561.699 191.941 624.39C224.99 677.923 270.049 725.583 325.934 755.393C353.008 769.842 383.753 781.413 414.869 780.74C429.742 780.413 444.609 776.925 457.516 769.399C470.025 762.102 480.205 751.227 487.387 738.713C494.512 726.307 498.838 712.278 499.865 698.02C500.894 683.706 499.289 669.218 501.617 655C504.093 639.881 512.201 626.67 520.392 613.98C527.941 602.301 536.546 591.297 546.56 581.632C556.428 572.118 567.571 564.034 579.404 557.124C593.657 548.813 609.03 542.727 623.394 534.622C639.022 525.811 653.763 515.414 667.3 503.65C674.079 497.762 680.552 491.542 686.707 484.995C692.234 479.113 697.755 473.015 701.726 465.944C709.564 452.016 707.36 437.183 703.562 422.381C698.927 404.305 693.86 386.324 688.193 368.544C676.83 332.985 662.735 298.28 643.952 265.952C627.458 237.575 607.254 211.536 582.709 189.674C560.602 169.975 535.313 153.96 508.082 142.325C494.21 136.398 479.87 131.645 465.254 127.924C463.998 127.603 466.215 131.029 467.219 131.278L467.23 131.272Z" fill="white"/>
<path d="M448.28 142.633C502.702 156.607 551.322 187.693 585.636 232.352C606.36 259.319 622.149 290.333 634.489 321.926C640.784 338.059 646.205 354.536 651.054 371.161C655.638 386.847 660.398 402.791 663.456 418.857C664.848 426.137 665.421 433.762 663.333 440.98C661.287 448.055 657.028 454.198 652.324 459.773C642.118 471.861 630.321 482.777 617.867 492.503C605.048 502.524 591.237 511.281 576.697 518.583C564.111 524.908 551.394 530.639 539.606 538.455C518.792 552.251 502.626 570.78 489.785 592.075C486.175 598.062 482.446 604.172 479.867 610.695C477.498 616.682 476.192 622.985 475.552 629.369C474.261 642.347 475.708 655.492 473.938 668.437C470.388 694.564 454.795 719.505 430.798 731.326C405.195 743.933 375.014 739.856 348.863 731.257C293.658 713.085 247.627 673.331 213.48 627.147C174.734 574.748 150.277 513.189 133.766 450.523C125.473 419.038 118.342 386.894 114.951 354.471C113.325 338.984 112.662 323.369 113.443 307.809C114.191 292.96 115.895 277.769 121.213 263.789C131.686 236.234 158.357 220.287 182.107 205.2C204.755 190.811 228.347 177.844 252.896 166.962C301.978 145.219 356.007 131.586 409.972 136.188C422.888 137.29 435.687 139.443 448.259 142.616C449.959 143.041 447.808 139.352 446.557 139.042C392.864 125.516 336.7 132.084 284.806 149.891C258.906 158.779 233.939 170.308 209.999 183.548C198.146 190.099 186.531 197.097 175.163 204.442C163.195 212.166 150.972 219.982 140.338 229.49C129.023 239.606 120.667 251.801 116.191 266.351C111.739 280.808 110.41 296.245 110.005 311.301C109.116 343.413 114.089 375.375 120.698 406.701C134.688 473.039 155.713 538.796 190.95 597.106C220.795 646.48 261.677 690.957 312.869 718.537C337.667 731.893 365.85 742.396 394.302 742.899C408.175 743.14 422.089 740.607 434.515 734.289C446.323 728.278 456.153 718.973 463.407 707.938C470.786 696.708 475.55 683.808 477.235 670.481C478.911 657.307 477.441 643.969 478.885 630.796C480.457 616.567 486.998 604.6 494.412 592.604C501.356 581.375 509.269 570.725 518.571 561.342C527.438 552.396 537.49 544.718 548.24 538.17C561.098 530.339 575.038 524.685 588.198 517.407C602.76 509.345 616.489 499.808 629.144 489.006C635.482 483.599 641.535 477.877 647.297 471.857C652.353 466.565 657.391 461.118 661.342 454.929C665.207 448.877 667.567 442.294 667.906 435.098C668.242 428.039 666.844 421.008 665.211 414.169C661.281 397.615 656.792 381.175 651.846 364.896C641.683 331.471 628.845 298.967 611.625 268.506C596.475 241.703 578.037 217.067 555.063 196.454C534.571 178.065 511.073 163.1 485.744 152.286C473.046 146.854 459.923 142.482 446.546 139.048C444.857 138.618 446.991 142.301 448.247 142.622L448.28 142.633Z" fill="white"/>
<path d="M429.533 153.817C479.246 166.714 524.171 195.29 555.047 236.595C573.693 261.529 588.011 290.265 598.979 319.328C604.513 333.993 609.256 348.949 613.467 364.048C617.51 378.531 621.68 393.254 624.325 408.069C625.534 414.848 626.011 421.864 624.029 428.555C622.166 434.862 618.363 440.353 614.179 445.356C604.843 456.514 593.987 466.563 582.559 475.545C570.924 484.694 558.409 492.73 545.217 499.45C533.917 505.208 522.497 510.45 511.907 517.51C492.266 530.615 477.211 548.319 465.293 568.566C462.132 573.944 458.904 579.382 456.775 585.27C454.716 590.96 453.676 596.96 453.232 602.98C452.344 614.963 453.451 627.068 451.329 638.952C447.099 662.714 432.192 684.862 409.899 695.006C385.906 705.912 358.082 701.54 333.918 693.598C283.887 677.142 242.791 641.426 212.035 599.423C176.565 550.987 154.254 494.06 139.466 436.227C132.161 407.643 125.966 378.494 123.043 349.11C121.595 334.52 121.049 319.818 121.919 305.171C122.718 291.757 124.378 278.059 129.158 265.424C138.732 240.067 162.978 225.25 184.789 211.284C205.508 198.01 227.097 186.057 249.58 176.055C294.513 156.067 343.885 143.692 393.323 147.773C405.54 148.781 417.641 150.813 429.527 153.834C430.986 154.209 428.776 150.656 427.679 150.383C378.322 137.837 326.726 143.625 278.969 159.97C255.093 168.148 232.088 178.778 210.05 191.051C199.079 197.159 188.341 203.674 177.838 210.543C166.86 217.703 155.659 224.97 145.977 233.837C135.703 243.242 128.267 254.554 124.22 267.906C120.143 281.422 118.881 295.818 118.509 309.876C117.712 339.149 122.049 368.262 127.892 396.868C140.364 457.854 159.51 518.361 191.765 571.943C218.739 616.741 255.472 657.626 301.968 682.569C324.598 694.712 350.468 704.044 376.334 704.99C389.072 705.453 401.952 703.504 413.531 698.05C424.732 692.775 434.183 684.372 441.202 674.198C447.994 664.35 452.575 652.969 454.556 641.165C456.614 628.888 455.313 616.398 456.479 604.051C457.043 598.112 458.261 592.259 460.455 586.71C463.005 580.241 466.755 574.175 470.374 568.266C476.679 557.994 483.816 548.214 492.219 539.556C500.323 531.216 509.525 524.048 519.399 517.927C531.13 510.656 543.87 505.404 555.892 498.664C569.099 491.255 581.563 482.534 593.05 472.665C598.804 467.725 604.316 462.504 609.553 457.018C614.299 452.05 619.064 446.922 622.694 441.063C626.128 435.541 628.222 429.493 628.452 422.962C628.682 416.403 627.421 409.948 625.97 403.583C622.434 388.179 618.504 372.839 614.052 357.663C605.056 327 593.388 297.435 577.911 269.451C564.353 244.924 547.826 222.427 527.019 203.545C508.5 186.734 487.3 173.057 464.397 163.02C452.517 157.816 440.205 153.633 427.652 150.382C426.204 150.002 428.408 153.544 429.499 153.833L429.533 153.817Z" fill="white"/>
<path d="M410.74 165.05C456.085 176.954 497.226 203.321 524.863 241.492C532.979 252.702 539.711 264.823 546.037 277.123C552.701 290.082 558.597 303.349 563.556 317.058C568.49 330.683 572.628 344.589 576.279 358.616C579.69 371.733 583.301 385.07 585.365 398.482C586.27 404.355 586.47 410.41 584.708 416.152C582.826 422.304 578.934 427.578 574.783 432.388C566.23 442.29 556.545 451.295 546.247 459.349C535.635 467.66 524.228 474.954 512.209 481.066C501.864 486.332 491.54 491.357 482.001 498.043C464.352 510.426 451.053 527.056 440.445 545.688C437.648 550.595 435 555.527 433.382 560.968C431.89 566.01 431.231 571.23 430.932 576.458C430.3 587.597 431.003 598.789 428.472 609.747C423.418 631.621 408.484 651.286 387.144 659.29C364.669 667.72 339.456 662.755 317.407 655.452C272.531 640.585 236.169 607.502 209.14 569.521C177.556 525.128 157.807 473.25 144.915 420.617C138.57 394.731 133.273 368.321 130.965 341.742C129.835 328.721 129.528 315.624 130.429 302.571C131.274 290.267 132.919 277.722 137.416 266.162C146.373 243.168 168.52 229.507 188.379 216.721C207.035 204.708 226.491 193.898 246.762 184.872C287.705 166.631 332.708 155.542 377.731 159.43C388.863 160.392 399.908 162.268 410.724 165.044C412.062 165.394 409.845 161.913 408.803 161.641C364.078 150.153 317.389 155.043 274.006 169.677C252.151 177.051 231.114 186.765 210.986 198.001C201.048 203.552 191.316 209.484 181.793 215.74C171.865 222.268 161.76 228.88 152.941 236.89C143.559 245.41 136.583 255.618 132.725 267.722C128.844 279.891 127.541 292.902 127.012 305.616C125.924 332.135 129.504 358.605 134.517 384.589C145.28 440.396 162.414 495.744 191.374 544.95C215.117 585.3 247.5 622.634 288.886 645.504C309.328 656.798 332.696 665.047 356.094 666.859C367.795 667.757 379.729 666.691 390.719 662.415C401.432 658.243 410.684 651.066 417.712 642.006C424.512 633.245 429.29 622.889 431.68 612.065C434.15 600.862 433.277 589.424 434.067 578.073C434.456 572.571 435.312 567.107 437.107 561.869C439.162 555.88 442.475 550.361 445.702 544.951C451.36 535.475 457.764 526.396 465.316 518.331C472.516 510.649 480.698 503.976 489.547 498.284C499.981 491.558 511.359 486.717 522.164 480.661C534.203 473.927 545.568 465.997 556.052 457.037C561.311 452.55 566.349 447.798 571.144 442.82C575.59 438.198 580.06 433.428 583.514 428.007C586.734 422.954 588.745 417.423 589.035 411.395C589.322 405.505 588.256 399.667 587.034 393.93C584.067 379.962 580.734 366.058 576.923 352.298C573.076 338.404 568.681 324.647 563.49 311.198C558.225 297.592 551.879 284.47 545.048 271.59C533.121 249.103 518.486 228.534 499.786 211.168C482.852 195.462 463.37 182.651 442.256 173.283C431.442 168.489 420.237 164.629 408.798 161.63C407.46 161.28 409.676 164.761 410.718 165.033L410.74 165.05Z" fill="white"/>
<path d="M391.886 176.325C432.363 187.105 469.316 210.867 493.696 245.23C497.326 250.348 500.43 255.797 503.45 261.298C506.577 266.995 509.843 272.612 512.868 278.356C518.905 289.784 523.595 301.97 527.805 314.178C532.056 326.503 535.579 339.077 538.62 351.755C541.504 363.785 544.588 376.034 546.181 388.304C546.887 393.699 546.901 399.215 545.101 404.415C543.255 409.718 539.816 414.274 536.163 418.467C528.332 427.47 519.514 435.683 510.109 443.029C500.558 450.498 490.293 457.062 479.485 462.561C470.283 467.247 461.217 472.018 452.866 478.157C437.189 489.664 425.552 504.991 416.164 521.874C413.634 526.423 411.495 531.047 410.288 536.144C409.142 540.967 408.761 545.906 408.572 550.85C408.184 560.974 408.218 570.982 405.289 580.778C399.413 600.449 384.685 617.344 364.656 623.187C344.167 629.152 321.61 624.353 301.861 617.763C262.48 604.625 230.902 574.628 207.556 541.127C179.626 501.063 162.158 454.45 150.982 407.157C145.504 383.943 141.022 360.271 139.153 336.471C138.223 324.623 138.012 312.709 138.913 300.842C139.753 289.741 141.299 278.429 145.313 267.983C153.306 247.136 172.905 234.636 190.82 222.932C207.722 211.883 225.415 201.988 243.864 193.754C280.696 177.318 321.207 167.518 361.703 171.089C371.905 171.986 381.998 173.752 391.902 176.331C393.377 176.711 391.179 173.154 390.06 172.864C349.287 162.265 306.599 166.588 267.053 180.105C247.535 186.771 228.76 195.499 210.814 205.636C201.886 210.67 193.154 216.061 184.63 221.75C175.687 227.704 166.603 233.766 158.737 241.108C150.365 248.906 144.225 258.228 140.763 269.15C137.283 280.148 136.021 291.858 135.476 303.324C134.32 327.216 137.285 351.085 141.561 374.554C150.742 424.93 165.939 474.906 191.701 519.417C212.451 555.248 240.608 588.687 277.025 609.294C295.261 619.611 315.968 626.498 336.812 628.766C347.608 629.941 358.721 629.535 369.103 626.106C378.917 622.863 387.588 617.024 394.399 609.267C400.977 601.77 405.809 592.711 408.579 583.125C411.48 573.096 411.253 562.853 411.739 552.532C411.966 547.584 412.458 542.647 413.725 537.849C415.141 532.502 417.643 527.721 420.36 522.933C425.449 513.985 431.214 505.372 438.057 497.654C444.419 490.478 451.704 484.188 459.641 478.817C468.906 472.533 479.026 468.001 488.769 462.555C499.601 456.5 509.834 449.35 519.277 441.304C524.024 437.263 528.571 433.002 532.908 428.527C536.935 424.376 540.97 420.098 544.189 415.278C547.198 410.761 549.224 405.809 549.666 400.364C550.091 394.968 549.258 389.593 548.246 384.302C545.768 371.399 542.957 358.544 539.68 345.827C533.233 320.793 524.888 295.755 512.102 273.182C505.921 262.286 500.358 251.139 492.756 241.133C486.472 232.85 479.515 225.075 471.953 217.954C456.688 203.589 439.018 191.899 419.87 183.376C410.231 179.077 400.259 175.603 390.06 172.891C388.591 172.494 390.794 176.063 391.901 176.358L391.886 176.325Z" fill="white"/>
<path d="M372.953 187.665C409.084 197.442 441.65 219.048 463.091 249.931C466.339 254.615 469.034 259.63 471.6 264.718C474.167 269.807 476.833 274.848 479.489 279.894C484.863 290.093 488.758 301.114 492.268 312.071C495.798 323.072 498.635 334.279 501.05 345.575C503.326 356.228 505.773 367.101 506.913 377.949C507.408 382.665 507.35 387.48 505.72 391.972C504.014 396.705 500.906 400.75 497.628 404.493C490.483 412.64 482.482 420.099 473.942 426.764C465.368 433.444 456.168 439.288 446.491 444.239C438.439 448.354 430.624 452.944 423.498 458.532C409.791 469.272 399.034 483.774 391.276 499.287C387.262 507.306 386.503 516.037 386.177 524.85C385.832 534.054 385.125 542.925 381.802 551.599C375.132 569.04 360.85 582.779 342.323 586.631C332.774 588.617 322.921 588.169 313.329 586.684C304.066 585.262 294.759 583.111 285.927 579.972C252.103 567.918 225.453 541.255 205.707 512.027C181.686 476.458 166.612 435.465 157.18 393.798C152.418 372.796 148.664 351.358 147.29 329.848C146.631 319.44 146.585 308.975 147.475 298.586C148.329 288.583 149.838 278.434 153.502 269.039C160.73 250.585 177.924 239.317 193.805 228.791C208.818 218.853 224.552 209.951 241.011 202.615C273.92 187.95 310.161 179.388 346.312 182.883C355.312 183.748 364.233 185.372 372.974 187.682C373.989 187.953 373.831 186.636 373.617 186.096C373.224 185.15 372.344 184.297 371.346 184.032C335.051 174.455 296.92 178.004 261.634 189.973C244.097 195.922 227.239 203.8 211.162 212.959C203.267 217.464 195.546 222.283 188.018 227.364C180.097 232.713 172.081 238.176 165.12 244.749C157.681 251.752 152.159 260.101 148.989 269.82C145.837 279.463 144.558 289.75 143.895 299.84C142.478 321.36 144.849 342.932 148.399 364.139C155.912 408.934 169.063 453.249 191.335 493.025C209.02 524.617 233.158 554.54 264.763 573.041C280.949 582.513 298.962 588.258 317.529 590.728C327.115 591.998 337.035 592.183 346.491 589.886C355.643 587.665 364.043 583.044 370.778 576.455C377.197 570.178 382.106 562.351 385.23 553.949C388.476 545.229 389.163 536.286 389.503 527.071C389.68 522.392 389.869 517.68 390.789 513.072C391.734 508.372 393.459 504.025 395.76 499.83C400.264 491.607 405.286 483.645 411.334 476.466C416.809 469.954 423.084 464.182 429.992 459.229C437.936 453.528 446.608 449.338 455.116 444.598C464.831 439.179 473.999 432.778 482.48 425.582C486.843 421.886 491.013 417.98 494.995 413.878C498.581 410.18 502.158 406.377 505.089 402.129C507.843 398.143 509.733 393.827 510.327 388.992C510.914 384.256 510.283 379.454 509.522 374.781C507.691 363.481 505.529 352.202 502.984 341.035C500.389 329.646 497.278 318.378 493.472 307.343C491.586 301.906 489.656 296.49 487.443 291.166C485.171 285.72 482.463 280.562 479.695 275.365C474.318 265.276 469.662 255.01 462.854 245.761C457.336 238.261 451.177 231.255 444.466 224.81C430.929 211.824 415.11 201.251 398.023 193.541C389.412 189.657 380.486 186.521 371.373 184.06C370.359 183.789 370.517 185.105 370.731 185.645C371.123 186.592 372.003 187.445 373.001 187.71L372.953 187.665Z" fill="white"/>
<path d="M354.58 198.835C386.321 207.603 415.184 226.853 433.415 254.547C438.855 262.806 442.794 271.869 446.56 280.973C450.353 290.16 454.174 299.293 456.959 308.86C459.74 318.388 461.877 328.084 463.637 337.848C464.54 342.85 465.342 347.871 466.084 352.907C466.788 357.662 467.579 362.456 467.918 367.247C468.195 371.357 467.974 375.539 466.48 379.421C464.862 383.649 461.951 387.274 458.979 390.627C452.612 397.792 445.58 404.386 438.028 410.283C430.515 416.149 422.493 421.109 414.111 425.626C407.221 429.343 400.589 433.579 394.584 438.623C388.95 443.356 383.974 448.788 379.626 454.714C377.219 457.991 375.001 461.411 372.926 464.9C370.868 468.368 368.764 471.884 367.278 475.64C364.359 483.059 364.378 491.014 363.865 498.852C363.341 506.927 361.676 514.722 358.081 522.011C354.63 529.027 349.732 535.376 343.583 540.23C336.804 545.571 328.702 548.715 320.177 549.808C311.63 550.912 302.936 550.176 294.456 548.821C286.568 547.568 278.75 545.941 271.238 543.174C242.374 532.556 220.047 509.183 203.622 483.869C183.23 452.437 170.481 416.51 162.803 380.002C158.866 361.296 155.904 342.199 155.115 323.084C154.73 313.952 154.904 304.788 155.875 295.697C156.798 287.052 158.275 278.282 161.536 270.169C168.069 253.911 183.22 243.716 197.228 234.307C210.356 225.49 224.168 217.659 238.611 211.222C267.524 198.347 299.349 191.176 331.059 194.449C339 195.268 346.866 196.736 354.57 198.812C355.272 198.999 354.203 197.226 354.15 197.143C353.653 196.436 352.933 195.576 352.056 195.336C320.051 186.732 286.46 189.611 255.282 200.173C240.057 205.33 225.422 212.199 211.512 220.226C204.492 224.277 197.642 228.629 190.969 233.239C183.976 238.068 176.92 243.023 170.839 248.976C164.38 255.312 159.738 262.809 156.985 271.418C154.178 280.203 152.964 289.531 152.332 298.706C151.047 317.328 152.849 336.018 155.673 354.418C161.708 393.828 173.065 432.813 192.388 467.846C207.402 495.053 227.753 521.2 254.675 537.466C261.145 541.38 267.972 544.689 275.12 547.15C282.762 549.788 290.719 551.362 298.707 552.541C315.965 555.097 334.266 554.174 348.065 542.272C354.056 537.112 358.728 530.515 361.941 523.311C365.375 515.594 366.608 507.607 367.061 499.238C367.491 491.195 367.931 483.145 371.599 475.809C375.284 468.45 379.819 461.332 384.945 454.889C389.713 448.901 395.213 443.536 401.324 438.919C408.119 433.787 415.586 429.962 422.951 425.748C431.44 420.881 439.434 415.169 446.849 408.778C450.578 405.557 454.158 402.163 457.586 398.621C460.827 395.263 464.099 391.796 466.675 387.893C469.085 384.246 470.615 380.237 470.967 375.871C471.304 371.675 470.721 367.464 470.163 363.309C468.813 353.228 467.257 343.176 465.242 333.218C463.242 323.321 460.845 313.421 457.574 303.865C454.293 294.259 450.268 284.841 446.208 275.548C442.4 266.819 437.932 258.482 432.375 250.728C427.6 244.051 422.225 237.78 416.364 232.038C404.453 220.356 390.53 210.798 375.374 203.826C367.851 200.369 360.053 197.573 352.071 195.369C351.381 195.177 352.438 196.955 352.492 197.039C352.994 197.756 353.708 198.605 354.586 198.846L354.58 198.835Z" fill="white"/>
<path d="M334.658 210.273C361.718 217.938 386.285 234.676 401.709 258.417C406.241 265.387 409.575 272.881 412.411 280.678C415.314 288.676 418.46 296.696 420.691 304.915C425.123 321.233 427.142 338.362 428.263 355.206C428.506 358.868 428.51 362.603 427.339 366.129C426.168 369.627 423.875 372.714 421.491 375.463C416.059 381.75 409.966 387.532 403.5 392.753C397.061 397.948 390.167 402.294 383.008 406.424C377.179 409.79 371.599 413.598 366.594 418.102C361.825 422.386 357.633 427.283 353.962 432.535C349.955 438.259 345.842 444.565 343.711 451.257C341.609 457.868 341.805 464.867 341.011 471.678C340.206 478.522 337.989 485.119 334.48 491.058C330.987 496.976 326.27 502.148 320.493 505.913C314.077 510.087 306.5 511.974 298.922 512.416C291.266 512.867 283.59 512.004 276.012 510.973C269.776 510.127 263.644 508.549 257.812 506.189C234.279 496.668 216.42 476.722 203.171 455.65C186.31 428.837 175.675 398.457 169.522 367.488C166.326 351.42 164.13 335.015 163.622 318.631C163.38 310.754 163.585 302.871 164.457 295.041C165.306 287.453 166.589 279.716 169.332 272.557C172.192 265.07 176.861 258.842 182.79 253.493C188.027 248.756 193.829 244.612 199.64 240.6C210.673 232.977 222.315 226.239 234.542 220.712C259.469 209.446 286.899 203.395 314.287 206.351C321.182 207.091 328.013 208.447 334.702 210.28C335.705 210.556 336.467 209.801 336.423 208.813C336.381 207.714 335.422 206.694 334.391 206.417C306.684 198.799 277.492 200.8 250.381 209.837C237.148 214.245 224.491 220.22 212.463 227.236C206.582 230.667 200.84 234.361 195.263 238.262C189.249 242.479 183.205 246.833 177.931 251.982C172.167 257.595 167.894 264.14 165.235 271.736C162.652 279.147 161.367 286.995 160.584 294.783C158.956 311.002 159.983 327.359 162.036 343.49C166.37 377.622 175.575 411.473 191.612 442.029C203.65 464.983 219.834 487.274 241.836 501.582C252.899 508.781 265.042 513.357 278.138 515.07C293.411 517.063 309.887 518.08 323.384 509.293C335.135 501.631 342.876 488.103 344.648 474.297C345.537 467.4 345.267 460.3 347.293 453.589C348.39 449.989 350.289 446.706 352.171 443.472C353.951 440.395 355.861 437.393 357.928 434.494C361.83 429.038 366.355 424.065 371.488 419.746C376.953 415.147 382.998 411.516 389.174 407.959C396.467 403.765 403.335 398.845 409.713 393.379C416.03 387.955 422.364 381.992 427.282 375.251C429.508 372.196 431.151 368.802 431.787 365.065C432.397 361.477 432.193 357.809 431.893 354.201C431.163 345.231 430.24 336.258 428.885 327.352C427.593 318.839 425.959 310.296 423.458 302.054C420.964 293.795 417.91 285.623 414.853 277.562C411.88 269.733 408.252 262.282 403.521 255.352C399.532 249.503 395.056 244.008 390.072 238.97C379.846 228.634 367.791 220.171 354.626 213.978C348.103 210.907 341.319 208.41 334.38 206.45C333.371 206.163 332.604 206.934 332.659 207.917C332.7 209.016 333.67 210.031 334.69 210.313L334.658 210.273Z" fill="white"/>
<path d="M316.045 221.339C339.041 228.018 359.797 242.519 372.306 263.15C375.806 268.916 378.355 275.035 380.261 281.499C382.266 288.257 384.318 295.088 385.896 301.953C389.057 315.665 389.42 330.126 389.408 344.137C389.409 347.314 389.237 350.532 388.093 353.54C386.909 356.663 384.819 359.313 382.634 361.79C378.015 367.026 372.941 371.904 367.545 376.333C357.801 384.316 346.234 389.682 337.428 398.817C333.576 402.818 330.243 407.31 327.318 412.032C324.055 417.282 321.273 422.509 320.241 428.67C319.265 434.517 319.247 440.457 317.497 446.166C315.741 451.891 312.838 457.325 308.946 461.876C304.855 466.672 299.7 470.483 293.744 472.627C287.705 474.797 281.249 475.39 274.872 475.374C269.086 475.365 263.176 475.237 257.462 474.226C252.539 473.359 247.747 471.817 243.204 469.735C224.727 461.304 211.204 444.533 201.104 427.415C187.725 404.741 179.399 379.339 174.99 353.452C172.69 339.946 171.301 326.201 171.35 312.5C171.391 299.676 172.502 286.087 177.197 274.052C179.661 267.748 183.505 262.401 188.403 257.756C192.659 253.715 197.406 250.164 202.171 246.741C211.367 240.136 221.157 234.3 231.462 229.584C252.391 220.016 275.553 215.121 298.544 217.834C304.464 218.53 310.323 219.704 316.045 221.339C318.506 222.045 316.793 218.272 315.313 217.853C291.893 211.169 267.221 212.318 244.178 219.98C233.157 223.643 222.586 228.661 212.616 234.609C207.668 237.559 202.852 240.761 198.192 244.148C193.089 247.866 187.976 251.739 183.582 256.296C178.968 261.079 175.522 266.634 173.312 272.9C171.091 279.199 169.854 285.879 169.037 292.496C167.36 305.984 167.819 319.636 169.143 333.125C171.924 361.717 179.15 390.161 192.046 415.914C201.5 434.811 213.906 453.172 231.197 465.735C239.583 471.826 249.202 476.257 259.456 477.989C265.369 478.988 271.523 479.11 277.514 479.063C284.047 479.006 290.658 478.366 296.79 476.016C308.542 471.504 317.133 460.875 320.776 449.009C322.532 443.284 322.671 437.368 323.564 431.492C324.548 425.027 327.668 419.504 331.128 414.038C337.568 403.879 346.122 395.885 356.368 389.629C362.531 385.873 368.347 381.641 373.772 376.87C379.062 372.218 384.405 367.159 388.545 361.427C390.452 358.795 391.762 355.967 392.353 352.77C392.936 349.644 392.848 346.454 392.814 343.292C392.737 335.937 392.517 328.568 391.866 321.239C391.224 313.96 390.23 306.684 388.337 299.614C386.479 292.704 384.634 285.734 382.409 278.944C374.518 254.837 355.008 235.466 332.529 224.452C326.997 221.745 321.238 219.542 315.33 217.831C312.864 217.114 314.577 220.887 316.062 221.317L316.045 221.339Z" fill="white"/>
<path d="M525.977 780.671C539.602 749.542 539.032 714.369 550.067 682.375C555.26 667.323 563.031 653.454 573.766 641.648C583.721 630.702 595.665 621.803 608.165 613.965C633.248 598.235 660.74 586.277 683.834 567.491C696.691 557.03 706.593 543.749 718.797 532.627C724.721 527.239 731.905 521.311 739.775 519.149C744.76 517.778 748.048 519.716 749.926 524.475C751.55 528.549 752.644 532.888 753.929 537.081C776.405 610.39 797.963 684.091 816.093 758.62C833.184 828.839 842.876 903.084 881.177 965.893C890.194 980.686 901.104 993.972 911.926 1007.45C922.974 1021.2 934.037 1035.53 940.492 1052.12C951.98 1081.65 939.451 1113.8 928.34 1141.54C916.072 1172.19 900.155 1201.44 877.695 1225.87C856.281 1249.17 829.44 1266.99 800.117 1278.73C741.498 1302.2 675.499 1301.39 616.887 1278.46C557.642 1255.28 507.98 1211.94 472.869 1159.3C452.325 1128.49 436.894 1094.8 424.439 1060.02C413.846 1030.45 403.768 1000.56 404.639 968.754C405.425 939.949 414.702 911.855 432.291 888.918C452.335 862.776 479.067 843.144 500.834 818.63C510.971 807.203 519.699 794.64 525.971 780.688C526.644 779.197 523.464 776.158 522.697 777.856C508.818 808.737 483.072 830.399 459.14 853.303C446.985 864.933 435.099 877.132 425.449 890.976C417.132 902.907 410.826 916.181 406.799 930.151C398.914 957.465 399.718 986.664 406.652 1014.09C410.993 1031.25 417.05 1048.12 423.147 1064.73C429.643 1082.45 436.912 1099.89 445.324 1116.79C474.942 1176.22 519.22 1228.44 576.858 1262.22C631.41 1294.2 695.475 1307.4 757.912 1295.43C789.025 1289.46 819.131 1277.53 845.36 1259.66C872.72 1241.01 894.601 1215.85 911.153 1187.27C919.453 1172.94 926.257 1157.89 932.373 1142.51C938.08 1128.14 943.402 1113.51 946.43 1098.32C949.459 1083.13 949.519 1068.21 944.029 1053.58C938.045 1037.61 927.88 1023.59 917.395 1010.31C906.041 995.909 894.146 982.038 884.481 966.392C874.556 950.31 866.458 933.187 859.711 915.549C846.062 879.911 837.902 842.498 829.77 805.319C813.176 729.423 792.207 654.571 769.97 580.154C767.16 570.735 764.31 561.321 761.45 551.913C758.764 543.076 756.504 533.929 753.218 525.294C751.156 519.858 747.195 514.733 740.846 514.948C733.366 515.193 725.686 521.138 720.157 525.63C706.891 536.408 696.919 550.581 683.915 561.684C672.205 571.686 659.091 579.869 645.752 587.49C619.612 602.424 591.495 615.686 570.902 638.296C560.285 649.95 552.437 663.597 547.183 678.433C541.486 694.527 538.536 711.412 535.566 728.169C532.553 745.097 529.635 762.021 522.697 777.856C522.04 779.352 525.232 782.387 525.971 780.688L525.977 780.671Z" fill="white"/>
<path d="M735.603 568.943C739.242 570.757 740.153 576.096 741.326 579.619C742.772 583.982 744.207 588.35 745.637 592.707C748.388 601.104 751.111 609.527 753.801 617.939C759.103 634.569 764.249 651.244 769.179 667.981C779.124 701.809 788.02 735.928 796.549 770.138C804.831 803.389 811.693 836.955 819.98 870.189C828.202 903.112 838.32 935.863 854.202 965.975C861.582 979.959 870.201 993.072 879.926 1005.53C889.792 1018.16 900.283 1030.42 908.478 1044.25C916.321 1057.48 921.133 1071.6 920.062 1087.09C919.046 1101.6 914.617 1115.79 909.6 1129.37C899.28 1157.28 886.142 1184.12 867.545 1207.5C849.192 1230.58 826.106 1249.21 799.66 1262.25C747.539 1287.96 686.221 1291.64 630.971 1274.27C576.794 1257.23 529.432 1221.5 495.033 1176.66C473.989 1149.22 457.683 1118.61 444.891 1086.55C438.531 1070.63 432.994 1054.4 427.835 1038.04C423.84 1025.36 421.027 1012.36 420.024 999.086C418.061 973.121 422.967 946.804 435.83 924.025C450.538 897.989 474.396 878.855 495.517 858.287C505.782 848.286 515.552 837.699 523.419 825.68C531.96 812.606 537.511 798.312 540.936 783.126C547.622 753.473 550.304 721.606 567.122 695.419C582.111 672.059 606.005 657.477 629.681 644.198C641.754 637.42 653.94 630.794 665.417 623.043C677.599 614.822 688.054 605.195 697.962 594.38C703.244 588.613 708.582 582.82 714.7 577.9C717.711 575.469 720.91 573.263 724.306 571.414C727.651 569.603 731.756 567.61 735.614 568.966C737.918 569.773 735.966 566.072 734.702 565.619C727.937 563.249 720.881 567.944 715.528 571.713C708.819 576.449 703.054 582.376 697.501 588.379C687.291 599.419 677.032 609.635 664.631 618.232C641.483 634.275 615.172 645.239 592.653 662.24C581.475 670.682 571.525 680.685 563.949 692.512C555.603 705.535 550.664 720.318 547.045 735.268C543.322 750.69 540.96 766.396 537.39 781.855C533.717 797.758 527.396 812.675 518.021 826.061C500.518 851.058 475.488 869.326 454.935 891.59C445.255 902.079 436.44 913.359 429.985 926.144C423.97 938.039 419.951 950.9 417.95 964.078C413.8 991.361 418.598 1017.84 427.016 1043.81C437.532 1076.25 449.932 1108.15 466.832 1137.84C496.445 1189.91 539.522 1234.44 593.181 1261.73C645.351 1288.26 705.527 1296.08 762.296 1280.8C790.522 1273.2 817.415 1260.12 840.166 1241.67C864.169 1222.21 882.943 1196.87 896.872 1169.42C903.579 1156.21 909.262 1142.4 914.205 1128.44C918.935 1115.09 922.929 1101.11 923.492 1086.88C924.745 1055.51 901.87 1029.99 883.652 1006.92C872.963 993.377 863.486 979.169 855.602 963.8C847.502 948.001 840.907 931.464 835.362 914.609C824.339 881.153 817.256 846.601 809.473 812.297C793.51 741.954 774.188 672.352 751.925 603.743C749.341 595.785 746.729 587.828 744.1 579.891C742.241 574.278 740.364 568.427 734.713 565.614C732.575 564.551 734.458 568.366 735.625 568.96L735.603 568.943Z" fill="white"/>
<path d="M725.206 618.664C728.659 620.347 729.644 625.609 730.843 628.957C732.239 632.866 733.635 636.775 735.019 640.69C737.638 648.085 740.224 655.497 742.749 662.923C747.975 678.238 752.996 693.636 757.666 709.131C766.951 739.972 774.586 771.277 782.195 802.554C789.687 833.354 796.236 864.408 804.239 895.076C811.982 924.762 821.519 954.174 835.861 981.399C842.754 994.467 850.807 1006.73 859.805 1018.45C869.028 1030.45 878.864 1042.18 886.12 1055.53C892.837 1067.87 896.332 1080.71 894.901 1094.77C893.584 1107.69 889.577 1120.26 885.008 1132.36C875.247 1158.19 862.521 1182.7 844.852 1204.06C827.836 1224.6 806.895 1241.3 782.933 1253.05C735.042 1276.56 678.82 1280.04 628.089 1264.06C578.131 1248.34 534.378 1215.46 502.806 1173.95C483.803 1148.98 469.037 1121.23 457.452 1092.13C451.668 1077.6 446.59 1062.8 441.906 1047.88C438.282 1036.34 435.848 1024.42 434.972 1012.35C433.264 988.743 437.803 964.767 449.413 944.04C462.85 920.049 484.696 902.316 504.158 883.431C513.705 874.164 522.856 864.402 530.266 853.294C538.167 841.436 543.49 828.449 546.885 814.642C553.536 787.486 556.449 758.074 572.021 734.098C585.912 712.716 607.738 699.329 629.444 687.048C640.518 680.782 651.695 674.619 662.195 667.397C673.233 659.813 682.606 650.928 691.659 641.104C696.471 635.872 701.382 630.649 707.002 626.263C711.674 622.612 719.238 616.681 725.572 618.804C726.946 619.26 724.809 615.715 723.719 615.343C717.61 613.291 710.975 617.896 706.237 621.292C700.014 625.758 694.687 631.314 689.519 636.918C680.207 647.002 670.683 656.203 659.326 664.007C638.012 678.652 613.843 688.837 593.404 704.814C583.275 712.734 574.315 722.119 567.613 733.138C560.252 745.246 555.869 758.866 552.483 772.547C548.982 786.678 546.562 801.048 542.891 815.136C539.17 829.466 532.764 842.787 524 854.725C507.343 877.441 484.259 894.286 465.483 915.083C456.787 924.712 448.991 935.089 443.294 946.793C437.956 957.754 434.441 969.546 432.747 981.61C429.249 1006.38 433.794 1030.39 441.445 1053.9C451.149 1083.72 462.679 1113.05 478.405 1140.26C505.87 1187.8 545.552 1228.52 594.91 1253.26C642.845 1277.29 697.845 1284.23 749.807 1270C775.672 1262.92 800.281 1250.86 821.138 1233.95C842.899 1216.3 860.347 1193.52 873.343 1168.8C879.595 1156.91 884.84 1144.46 889.41 1131.84C893.909 1119.45 897.743 1106.45 898.35 1093.21C899.655 1064.44 879.262 1040.89 862.699 1019.5C842.796 993.806 828.615 965.101 818.253 934.374C807.921 903.742 801.093 872.097 793.853 840.646C786.541 808.956 778.841 777.313 770.491 745.882C761.973 713.834 751.911 682.27 740.977 650.968C738.474 643.818 735.948 636.679 733.389 629.555C731.469 624.188 729.585 618.205 724.068 615.532C722.038 614.554 724.24 618.206 725.211 618.675L725.206 618.664Z" fill="white"/>
<path d="M713.899 668.567C716.88 669.942 717.787 673.25 718.909 676.088C720.256 679.489 721.596 682.906 722.921 686.317C725.444 692.817 727.929 699.321 730.358 705.852C735.424 719.47 740.228 733.197 744.589 747.053C753.402 775.047 759.94 803.652 766.666 832.195C773.237 860.089 779.485 888.109 786.865 915.812C794.107 943.02 802.939 969.929 815.811 995.052C822.046 1007.22 829.255 1018.76 837.426 1029.71C845.527 1040.57 854.165 1051.13 860.81 1062.98C866.993 1074.02 870.849 1085.77 869.861 1098.52C868.922 1110.57 865.26 1122.31 860.997 1133.55C852.1 1157.02 840.244 1179.14 824.024 1198.39C808.285 1217.07 789.21 1232.5 767.266 1243.32C723.857 1264.72 673.084 1268.24 626.949 1253.94C582.096 1240.04 542.726 1210.93 513.889 1174.14C496.296 1151.7 482.508 1126.6 471.738 1100.24C466.359 1087.05 461.659 1073.6 457.325 1060.04C453.94 1049.43 451.436 1038.64 450.445 1027.53C448.543 1006.2 452.204 984.464 462.301 965.473C473.926 943.593 493.252 927.254 510.898 910.386C519.534 902.135 527.897 893.564 534.987 883.916C542.59 873.562 548.354 862.058 551.936 849.717C559.16 824.842 561.788 797.8 575.408 775.237C587.544 755.133 607.379 742.44 627.285 730.996C637.327 725.231 647.488 719.602 657.057 713.066C667.051 706.247 675.675 698.316 683.862 689.432C688.21 684.719 692.603 679.986 697.608 675.973C701.704 672.689 708.673 666.944 714.33 668.759C716.866 669.566 715.621 665.6 713.857 665.042C708.287 663.267 702.566 666.977 698.156 670.028C692.491 673.943 687.63 678.898 682.95 683.917C674.425 693.069 665.86 701.559 655.555 708.729C636.221 722.195 614.265 731.58 595.715 746.216C586.623 753.386 578.594 761.854 572.492 771.718C565.611 782.849 561.493 795.471 558.159 808.05C554.7 821.056 552.189 834.31 548.467 847.25C544.781 860.064 538.572 871.955 530.549 882.575C515.027 903.131 493.901 918.548 476.843 937.729C469.05 946.495 462.07 955.914 456.988 966.523C452.299 976.319 449.144 986.85 447.561 997.593C444.274 1019.86 448.046 1041.74 454.921 1062.94C463.767 1090.23 474.294 1117.06 488.666 1141.95C513.757 1185.41 550.228 1222.48 595.453 1244.85C616.642 1255.33 639.548 1262.51 663.051 1265.27C687.429 1268.12 712.401 1266.13 736.067 1259.68C759.639 1253.25 782.095 1242.27 801.204 1227C821.089 1211.12 837.524 1190.67 849.775 1168.42C855.711 1157.62 860.65 1146.25 864.92 1134.7C869.09 1123.46 872.67 1111.69 873.482 1099.66C875.25 1073.05 857.327 1051.3 842.211 1031.3C824.572 1007.98 811.611 982.171 801.949 954.604C792.262 926.954 785.63 898.38 778.946 869.899C772.162 840.946 765.546 811.915 758.124 783.113C750.646 754.106 741.24 725.751 730.612 697.755C728.227 691.462 725.787 685.196 723.324 678.94C721.336 673.892 719.677 667.694 714.327 665.229C711.69 664.005 711.994 667.68 713.866 668.556L713.899 668.567Z" fill="white"/>
</svg>
