<svg width="560" height="112" viewBox="0 0 560 112" fill="none" xmlns="http://www.w3.org/2000/svg">
<path fill-rule="evenodd" clip-rule="evenodd" d="M56 0H504C534.9 0 560 25.1 560 56C560 86.9 534.9 112 504 112H56C25.1 112 0 86.9 0 56C0 25.1 25.1 0 56 0Z" fill="black"/>
<path fill-rule="evenodd" clip-rule="evenodd" d="M56 1.5H504C534.1 1.5 558.5 25.9 558.5 56C558.5 86.1 534.1 110.5 504 110.5H56C25.9 110.5 1.5 86.1 1.5 56C1.5 25.9 25.9 1.5 56 1.5Z" fill="url(#paint0_linear_439_178)" stroke="url(#paint1_linear_439_178)" stroke-width="3"/>
<path d="M158.3 74.5V28.3H180C189.1 28.3 194.6 32.7 194.6 39.8C194.6 45 190.7 49.1 185.5 49.8V50.1C191.7 50.4 196.7 55.0001 196.7 61.2001C196.7 69.3001 190.4 74.5 180.5 74.5H158.3ZM170.1 47.1H176.3C180.6 47.1 183.1 45.1 183.1 41.8C183.1 38.6 180.8 36.6 176.9 36.6H170.1V47.1ZM177.2 66.1C182 66.1 184.8 64 184.8 60.1C184.8 56.3 182 54.2001 177.2 54.2001H170.2V66.1H177.2Z" fill="#052011"/>
<path d="M238.8 74.5H227.8V67.8001H227.6C226 72.4001 222.6 75.1 217.2 75.1C209.5 75.1 204.2 70.1 204.2 61.7001V38.8H215.5V59.2001C215.5 63.5001 217.7 65.8001 221.5 65.8001C225.2 65.8001 227.5 63.0001 227.5 58.9001V38.8H238.9V74.5H238.8Z" fill="#052011"/>
<path d="M248.9 87.4001V78.8001C249.1 78.8001 250.7 78.8001 250.9 78.8001C254.6 78.8001 256.7 77.8 257.1 75.7L257.3 74.7L245.1 38.8H257.6L264.2 65.9001H264.4L271 38.8H283L271.5 74.4001C268.5 83.9001 263.3 87.5 253.1 87.5C252.9 87.5 249.1 87.5001 248.9 87.4001Z" fill="#052011"/>
<path d="M306.4 74.5V28.3H315.8L335.4 55.2001H335.7V28.3H346.8V74.5H337.5L317.8 47.4001H317.5V74.5H306.4Z" fill="#052011"/>
<path d="M355.3 56.6C355.3 45 362.4 38 373.5 38C384.6 38 391.7 44.9 391.7 56.6C391.7 68.4 384.8 75.2 373.5 75.2C362.2 75.2 355.3 68.4 355.3 56.6ZM380.1 56.6C380.1 50.2 377.5 46.4 373.4 46.4C369.3 46.4 366.7 50.2 366.7 56.6C366.7 63.2 369.2 66.8 373.4 66.8C377.6 66.9 380.1 63.2 380.1 56.6Z" fill="#052011"/>
<path d="M441.8 74.5001H429.6L423.9 50.3001H423.7L418 74.5001H406L396.7 38.9001H408L412.6 64.2001H412.8L418.4 38.9001H429.2L434.8 64.2001H435L439.6 38.9001H451L441.8 74.5001Z" fill="#052011"/>
<path d="M59 98C82.196 98 101 79.196 101 56C101 32.804 82.196 14 59 14C35.804 14 17 32.804 17 56C17 79.196 35.804 98 59 98Z" fill="#052011"/>
<path d="M72 65.5H43.3C42.6 65.5 42.1 65.1 41.9 64.4L36.1 44.7C36 44.3 36.1 43.8 36.3 43.4C36.6 43 37 42.8 37.5 42.8H75.2L77.2 36.1C77.4 35.4 77.9 35 78.6 35H84.5C85.3 35 86 35.7 86 36.5C86 37.3 85.3 38 84.5 38H79.7L77.7 44.7C77.7 44.7 77.7 44.7 77.7 44.8L72.4 62.6C75.4 62.8 77.8 65.3 77.8 68.4C77.8 71.6 75.2 74.2 72 74.2H70.5C69.9 76.4 67.8 78 65.4 78C63 78 61 76.4 60.3 74.2H52.4C51.8 76.4 49.7 78 47.3 78C44.9 78 42.9 76.4 42.2 74.2H40.3C39.5 74.2 38.8 73.5 38.8 72.7C38.8 71.9 39.5 71.2 40.3 71.2H42.2C43 69 45 67.3 47.4 67.3C49.8 67.3 51.8 68.9 52.5 71.1H60.4C61 68.9 63.1 67.3 65.5 67.3C67.9 67.3 69.9 68.9 70.6 71.1H72C73.6 71.1 74.8 69.8 74.8 68.3C74.9 66.8 73.6 65.5 72 65.5ZM50.3 45.8H39.5L41.5 52.7H50.3V45.8ZM50.3 55.6H42.4L44.4 62.5H50.3V55.6ZM61.3 45.8H53.3V52.7H61.3V45.8ZM61.3 55.6H53.3V62.5H61.3V55.6ZM64.2 62.5H69.3L71.3 55.6H64.1C64.2 55.6 64.2 62.5 64.2 62.5ZM74.3 45.8H64.2V52.7H72.2L74.3 45.8ZM47.4 70.3C46.1 70.3 45.1 71.4 45.1 72.6C45.1 73.8 46.1 74.9 47.4 74.9C48.7 74.9 49.7 73.8 49.7 72.6C49.7 71.4 48.7 70.3 47.4 70.3ZM65.5 70.3C64.2 70.3 63.2 71.4 63.2 72.6C63.2 73.8 64.2 74.9 65.5 74.9C66.8 74.9 67.8 73.8 67.8 72.6C67.8 71.4 66.8 70.3 65.5 70.3Z" fill="white"/>
<path d="M72 65.5H43.3C42.6 65.5 42.1 65.1 41.9 64.4L36.1 44.7C36 44.3 36.1 43.8 36.3 43.4C36.6 43 37 42.8 37.5 42.8H75.2L77.2 36.1C77.4 35.4 77.9 35 78.6 35H84.5C85.3 35 86 35.7 86 36.5C86 37.3 85.3 38 84.5 38H79.7L77.7 44.7C77.7 44.7 77.7 44.7 77.7 44.8L72.4 62.6C75.4 62.8 77.8 65.3 77.8 68.4C77.8 71.6 75.2 74.2 72 74.2H70.5C69.9 76.4 67.8 78 65.4 78C63 78 61 76.4 60.3 74.2H52.4C51.8 76.4 49.7 78 47.3 78C44.9 78 42.9 76.4 42.2 74.2H40.3C39.5 74.2 38.8 73.5 38.8 72.7C38.8 71.9 39.5 71.2 40.3 71.2H42.2C43 69 45 67.3 47.4 67.3C49.8 67.3 51.8 68.9 52.5 71.1H60.4C61 68.9 63.1 67.3 65.5 67.3C67.9 67.3 69.9 68.9 70.6 71.1H72C73.6 71.1 74.8 69.8 74.8 68.3C74.9 66.8 73.6 65.5 72 65.5ZM50.3 45.8H39.5L41.5 52.7H50.3V45.8ZM50.3 55.6H42.4L44.4 62.5H50.3V55.6ZM61.3 45.8H53.3V52.7H61.3V45.8ZM61.3 55.6H53.3V62.5H61.3V55.6ZM64.2 62.5H69.3L71.3 55.6H64.1C64.2 55.6 64.2 62.5 64.2 62.5ZM74.3 45.8H64.2V52.7H72.2L74.3 45.8ZM47.4 70.3C46.1 70.3 45.1 71.4 45.1 72.6C45.1 73.8 46.1 74.9 47.4 74.9C48.7 74.9 49.7 73.8 49.7 72.6C49.7 71.4 48.7 70.3 47.4 70.3ZM65.5 70.3C64.2 70.3 63.2 71.4 63.2 72.6C63.2 73.8 64.2 74.9 65.5 74.9C66.8 74.9 67.8 73.8 67.8 72.6C67.8 71.4 66.8 70.3 65.5 70.3Z" fill="url(#paint2_linear_439_178)"/>
<defs>
<linearGradient id="paint0_linear_439_178" x1="280.021" y1="1.4914" x2="280.021" y2="110.491" gradientUnits="userSpaceOnUse">
<stop stop-color="#FFDE00"/>
<stop offset="1" stop-color="#FF8700"/>
</linearGradient>
<linearGradient id="paint1_linear_439_178" x1="280.021" y1="1.4914" x2="280.021" y2="110.491" gradientUnits="userSpaceOnUse">
<stop stop-color="#FFE100"/>
<stop offset="1" stop-color="#FFA324"/>
</linearGradient>
<linearGradient id="paint2_linear_439_178" x1="61.0273" y1="34.9996" x2="61.0273" y2="77.9996" gradientUnits="userSpaceOnUse">
<stop stop-color="#FFDE00"/>
<stop offset="1" stop-color="#FF8700"/>
</linearGradient>
</defs>
</svg>
