<svg width="25" height="24" viewBox="0 0 25 24" fill="none" xmlns="http://www.w3.org/2000/svg">
<path d="M20.75 8.99999C20.7508 7.60967 20.4003 6.2417 19.7309 5.02313C19.0616 3.80456 18.0951 2.77492 16.9213 2.02983C15.7475 1.28475 14.4044 0.848391 13.0168 0.761293C11.6293 0.674195 10.2422 0.939181 8.98441 1.53164C7.72665 2.1241 6.63901 3.02481 5.82253 4.15011C5.00604 5.27542 4.48718 6.58882 4.31415 7.96832C4.14111 9.34782 4.31951 10.7487 4.83278 12.0408C5.34605 13.3329 6.17753 14.4743 7.25 15.359V22.5C7.24991 22.6279 7.28253 22.7537 7.34477 22.8654C7.407 22.9772 7.49678 23.0712 7.60558 23.1384C7.71437 23.2057 7.83856 23.244 7.96634 23.2498C8.09412 23.2555 8.22124 23.2285 8.33563 23.1712L12.5 21.0937L16.6653 23.1759C16.7697 23.2259 16.8842 23.2512 17 23.25C17.1989 23.25 17.3897 23.171 17.5303 23.0303C17.671 22.8897 17.75 22.6989 17.75 22.5V15.359C18.6884 14.5862 19.444 13.6152 19.9627 12.5157C20.4814 11.4163 20.7503 10.2156 20.75 8.99999ZM5.75 8.99999C5.75 7.66496 6.14588 6.35992 6.88758 5.24989C7.62928 4.13985 8.68349 3.27469 9.91689 2.7638C11.1503 2.25291 12.5075 2.11923 13.8169 2.37969C15.1262 2.64014 16.329 3.28301 17.273 4.22702C18.217 5.17102 18.8599 6.37375 19.1203 7.68313C19.3808 8.9925 19.2471 10.3497 18.7362 11.5831C18.2253 12.8165 17.3601 13.8707 16.2501 14.6124C15.1401 15.3541 13.835 15.75 12.5 15.75C10.7104 15.748 8.99466 15.0362 7.72922 13.7708C6.46378 12.5053 5.75199 10.7896 5.75 8.99999ZM7.25 8.99999C7.25 7.96163 7.55791 6.9466 8.13479 6.08324C8.71166 5.21988 9.5316 4.54698 10.4909 4.14962C11.4502 3.75226 12.5058 3.64829 13.5242 3.85086C14.5426 4.05344 15.4781 4.55345 16.2123 5.28767C16.9465 6.0219 17.4466 6.95736 17.6491 7.97576C17.8517 8.99416 17.7477 10.0498 17.3504 11.0091C16.953 11.9684 16.2801 12.7883 15.4167 13.3652C14.5534 13.9421 13.5384 14.25 12.5 14.25C11.1081 14.2485 9.77358 13.6949 8.78934 12.7107C7.80509 11.7264 7.25149 10.3919 7.25 8.99999Z" fill="url(#paint0_linear_26_617)"/>
<defs>
<linearGradient id="paint0_linear_26_617" x1="4.25" y1="11.9978" x2="20.75" y2="11.9978" gradientUnits="userSpaceOnUse">
<stop stop-color="#9E7A43"/>
<stop offset="1" stop-color="#FCC75E"/>
</linearGradient>
</defs>
</svg>
